<?xml version="1.0" encoding="UTF-8"?>
<!-- ChemUnited figure: FlaskJacket (heat-exchange jacket).
     Units: scene px at 100 % zoom. Drawn behind vessels (upright) and
     behind the flow-reactor plate (rotated 90 deg), so only the ring is
     filled: the centre stays clear for the vessel's liquid. -->
<svg xmlns="http://www.w3.org/2000/svg" width="2.32291in" height="3.22917in" viewBox="0 0 71.935 100">
  <path fill="#7DD3FC" fill-opacity="0.45" fill-rule="evenodd" stroke="#0284C7" stroke-width="1" stroke-linejoin="round"
        d="M9.75 0.75 H62.185 A9 9 0 0 1 71.185 9.75 V90.25 A9 9 0 0 1 62.185 99.25 H9.75 A9 9 0 0 1 0.75 90.25 V9.75 A9 9 0 0 1 9.75 0.75 Z
           M11 5 H60.935 A6 6 0 0 1 66.935 11 V89 A6 6 0 0 1 60.935 95 H11 A6 6 0 0 1 5 89 V11 A6 6 0 0 1 11 5 Z"/>
  <path fill="none" stroke="#FFFFFF" stroke-opacity="0.55" stroke-width="0.7" stroke-dasharray="3 3"
        d="M10.4 2.9 H61.5 A7.5 7.5 0 0 1 69 10.4 V89.6 A7.5 7.5 0 0 1 61.5 97.1 H10.4 A7.5 7.5 0 0 1 2.9 89.6 V10.4 A7.5 7.5 0 0 1 10.4 2.9 Z"/>
</svg>
