<?xml version="1.0" encoding="UTF-8" standalone="no"?>
<svg width="35.9833mm" height="13.4056mm"
 viewBox="0 0 102 37.3919"
 xmlns="http://www.w3.org/2000/svg" xmlns:xlink="http://www.w3.org/1999/xlink"  version="1.2" baseProfile="tiny">
<title>StirringControl</title>
<desc>Chemunited component figure exported without name or port labels.</desc>
<defs>
<linearGradient gradientUnits="objectBoundingBox" x1="0" y1="0" x2="0" y2="1" id="gradient1">
    <stop offset="0" stop-color="#f1f5f9" stop-opacity="1" />
    <stop offset="1" stop-color="#a3b0be" stop-opacity="1" />
</linearGradient>
<linearGradient gradientUnits="objectBoundingBox" x1="0" y1="0" x2="0" y2="1" id="gradient2">
    <stop offset="0" stop-color="#f8fafc" stop-opacity="1" />
    <stop offset="1" stop-color="#d5dde6" stop-opacity="1" />
</linearGradient>
<linearGradient gradientUnits="objectBoundingBox" x1="0" y1="0" x2="0" y2="1" id="gradient3">
    <stop offset="0" stop-color="#64748b" stop-opacity="1" />
    <stop offset="1" stop-color="#334155" stop-opacity="1" />
</linearGradient>
<linearGradient gradientUnits="objectBoundingBox" x1="0" y1="0" x2="0" y2="1" id="gradient4">
    <stop offset="0" stop-color="#64748b" stop-opacity="1" />
    <stop offset="1" stop-color="#334155" stop-opacity="1" />
</linearGradient>
</defs>
<g fill="none" stroke="black" stroke-width="1" fill-rule="evenodd" stroke-linecap="square" stroke-linejoin="bevel" >

<g fill="none" stroke="#000000" stroke-opacity="1" stroke-width="1" stroke-linecap="square" stroke-linejoin="bevel" transform="matrix(1,0,0,1,0,0)"
font-family="MS Shell Dlg 2" font-size="8.25" font-weight="400" font-style="normal" 
>
</g>

<g fill="none" stroke="#000000" stroke-opacity="1" stroke-width="1" stroke-linecap="square" stroke-linejoin="bevel" transform="matrix(1,0,0,1,0,0)"
font-family="MS Shell Dlg 2" font-size="8.25" font-weight="400" font-style="normal" 
>
</g>

<g fill="none" stroke="#000000" stroke-opacity="1" stroke-width="1" stroke-linecap="square" stroke-linejoin="bevel" transform="matrix(0.23753,0,0,0.23753,1,1)"
font-family="MS Shell Dlg 2" font-size="8.25" font-weight="400" font-style="normal" 
>
</g>

<g fill="url(#gradient1)" stroke="none" transform="matrix(1,0,0,0.995413,1,1)"
font-family="MS Shell Dlg 2" font-size="8.25" font-weight="400" font-style="normal" 
>
<path vector-effect="none" fill-rule="evenodd" d="M14,3.475 C14,2.1081 14.9671,1 16.16,1 L83.84,1 C85.0329,1 86,2.1081 86,3.475 L86,6.025 C86,7.3919 85.0329,8.5 83.84,8.5 L16.16,8.5 C14.9671,8.5 14,7.3919 14,6.025 L14,3.475"/>
</g>

<g fill="none" stroke="#334155" stroke-opacity="1" stroke-width="1.2" stroke-linecap="butt" stroke-linejoin="miter" stroke-miterlimit="4" transform="matrix(1,0,0,0.995413,1,1)"
font-family="MS Shell Dlg 2" font-size="8.25" font-weight="400" font-style="normal" 
>
<path vector-effect="none" fill-rule="evenodd" d="M14,3.475 C14,2.1081 14.9671,1 16.16,1 L83.84,1 C85.0329,1 86,2.1081 86,3.475 L86,6.025 C86,7.3919 85.0329,8.5 83.84,8.5 L16.16,8.5 C14.9671,8.5 14,7.3919 14,6.025 L14,3.475"/>
</g>

<g fill="#000000" fill-opacity="1" stroke="#ffffff" stroke-opacity="1" stroke-width="0.8" stroke-linecap="round" stroke-linejoin="miter" stroke-miterlimit="4" transform="matrix(1,0,0,0.995413,1,1)"
font-family="MS Shell Dlg 2" font-size="8.25" font-weight="400" font-style="normal" 
opacity="0.7" >
<polyline fill="none" vector-effect="none" points="18,2.8 82,2.8 " />
</g>

<g fill="#94a3b8" fill-opacity="1" stroke="none" transform="matrix(1,0,0,0.995413,1,1)"
font-family="MS Shell Dlg 2" font-size="8.25" font-weight="400" font-style="normal" 
>
<rect x="22" y="8" width="56" height="3.5"/>
</g>

<g fill="none" stroke="#334155" stroke-opacity="1" stroke-width="0.8" stroke-linecap="butt" stroke-linejoin="miter" stroke-miterlimit="4" transform="matrix(1,0,0,0.995413,1,1)"
font-family="MS Shell Dlg 2" font-size="8.25" font-weight="400" font-style="normal" 
>
<rect x="22" y="8" width="56" height="3.5"/>
</g>

<g fill="url(#gradient2)" stroke="none" transform="matrix(1,0,0,0.995413,1,1)"
font-family="MS Shell Dlg 2" font-size="8.25" font-weight="400" font-style="normal" 
>
<path vector-effect="none" fill-rule="evenodd" d="M2,14.404 C2,12.2479 3.71923,10.5 5.84,10.5 L94.16,10.5 C96.2808,10.5 98,12.2479 98,14.404 L98,30.996 C98,33.1521 96.2808,34.9 94.16,34.9 L5.84,34.9 C3.71923,34.9 2,33.1521 2,30.996 L2,14.404"/>
</g>

<g fill="none" stroke="#334155" stroke-opacity="1" stroke-width="1.2" stroke-linecap="butt" stroke-linejoin="miter" stroke-miterlimit="4" transform="matrix(1,0,0,0.995413,1,1)"
font-family="MS Shell Dlg 2" font-size="8.25" font-weight="400" font-style="normal" 
>
<path vector-effect="none" fill-rule="evenodd" d="M2,14.404 C2,12.2479 3.71923,10.5 5.84,10.5 L94.16,10.5 C96.2808,10.5 98,12.2479 98,14.404 L98,30.996 C98,33.1521 96.2808,34.9 94.16,34.9 L5.84,34.9 C3.71923,34.9 2,33.1521 2,30.996 L2,14.404"/>
</g>

<g fill="#0f172a" fill-opacity="1" stroke="none" transform="matrix(1,0,0,0.995413,1,1)"
font-family="MS Shell Dlg 2" font-size="8.25" font-weight="400" font-style="normal" 
>
<path vector-effect="none" fill-rule="evenodd" d="M30,17.46 C30,16.3775 30.8954,15.5 32,15.5 L68,15.5 C69.1046,15.5 70,16.3775 70,17.46 L70,27.54 C70,28.6225 69.1046,29.5 68,29.5 L32,29.5 C30.8954,29.5 30,28.6225 30,27.54 L30,17.46"/>
</g>

<g fill="none" stroke="#334155" stroke-opacity="1" stroke-width="0.6" stroke-linecap="butt" stroke-linejoin="miter" stroke-miterlimit="4" transform="matrix(1,0,0,0.995413,1,1)"
font-family="MS Shell Dlg 2" font-size="8.25" font-weight="400" font-style="normal" 
>
<path vector-effect="none" fill-rule="evenodd" d="M30,17.46 C30,16.3775 30.8954,15.5 32,15.5 L68,15.5 C69.1046,15.5 70,16.3775 70,17.46 L70,27.54 C70,28.6225 69.1046,29.5 68,29.5 L32,29.5 C30.8954,29.5 30,28.6225 30,27.54 L30,17.46"/>
</g>

<g fill="#000000" fill-opacity="1" stroke="#fb923c" stroke-opacity="1" stroke-width="2.4" stroke-linecap="round" stroke-linejoin="miter" stroke-miterlimit="4" transform="matrix(1,0,0,0.995413,1,1)"
font-family="MS Shell Dlg 2" font-size="8.25" font-weight="400" font-style="normal" 
>
<polyline fill="none" vector-effect="none" points="34,22.5 46,22.5 " />
</g>

<g fill="#000000" fill-opacity="1" stroke="#5eead4" stroke-opacity="1" stroke-width="2.4" stroke-linecap="round" stroke-linejoin="miter" stroke-miterlimit="4" transform="matrix(1,0,0,0.995413,1,1)"
font-family="MS Shell Dlg 2" font-size="8.25" font-weight="400" font-style="normal" 
>
<polyline fill="none" vector-effect="none" points="54,22.5 66,22.5 " />
</g>

<g fill="url(#gradient3)" stroke="none" transform="matrix(1,0,0,0.995413,1,1)"
font-family="MS Shell Dlg 2" font-size="8.25" font-weight="400" font-style="normal" 
>
<circle cx="16" cy="22.7" r="7"/>
</g>

<g fill="none" stroke="#f97316" stroke-opacity="1" stroke-width="1.6" stroke-linecap="butt" stroke-linejoin="miter" stroke-miterlimit="4" transform="matrix(1,0,0,0.995413,1,1)"
font-family="MS Shell Dlg 2" font-size="8.25" font-weight="400" font-style="normal" 
>
<circle cx="16" cy="22.7" r="7"/>
</g>

<g fill="url(#gradient4)" stroke="none" transform="matrix(1,0,0,0.995413,1,1)"
font-family="MS Shell Dlg 2" font-size="8.25" font-weight="400" font-style="normal" 
>
<circle cx="84" cy="22.7" r="7"/>
</g>

<g fill="none" stroke="#2f6fb2" stroke-opacity="1" stroke-width="1.6" stroke-linecap="butt" stroke-linejoin="miter" stroke-miterlimit="4" transform="matrix(1,0,0,0.995413,1,1)"
font-family="MS Shell Dlg 2" font-size="8.25" font-weight="400" font-style="normal" 
>
<circle cx="84" cy="22.7" r="7"/>
</g>

<g fill="#000000" fill-opacity="1" stroke="#e2e8f0" stroke-opacity="1" stroke-width="1.1" stroke-linecap="round" stroke-linejoin="miter" stroke-miterlimit="4" transform="matrix(1,0,0,0.995413,1,1)"
font-family="MS Shell Dlg 2" font-size="8.25" font-weight="400" font-style="normal" 
>
<polyline fill="none" vector-effect="none" points="16,18 16,21.5 " />
<polyline fill="none" vector-effect="none" points="84,18 84,21.5 " />
</g>

<g fill="none" stroke="#000000" stroke-opacity="1" stroke-width="1" stroke-linecap="square" stroke-linejoin="bevel" transform="matrix(0.23753,0,0,0.23753,1,1)"
font-family="MS Shell Dlg 2" font-size="8.25" font-weight="400" font-style="normal" 
>
</g>

<g fill="none" stroke="#000000" stroke-opacity="1" stroke-width="1" stroke-linecap="square" stroke-linejoin="bevel" transform="matrix(1,0,0,1,0,0)"
font-family="MS Shell Dlg 2" font-size="8.25" font-weight="400" font-style="normal" 
>
</g>
</g>
</svg>
