<?xml version="1.0" encoding="UTF-8" standalone="no"?>
<svg width="24.3417mm" height="35.9833mm"
 viewBox="0 0 68.548 102"
 xmlns="http://www.w3.org/2000/svg" xmlns:xlink="http://www.w3.org/1999/xlink"  version="1.2" baseProfile="tiny">
<title>TemperatureControl</title>
<desc>Chemunited component figure exported without name or port labels.</desc>
<defs>
<linearGradient gradientUnits="objectBoundingBox" x1="0" y1="0" x2="0" y2="1" id="gradient1">
    <stop offset="0" stop-color="#f8fafc" stop-opacity="1" />
    <stop offset="1" stop-color="#d5dde6" stop-opacity="1" />
</linearGradient>
<linearGradient gradientUnits="objectBoundingBox" x1="0" y1="0" x2="0" y2="1" id="gradient2">
    <stop offset="0" stop-color="#475569" stop-opacity="1" />
    <stop offset="1" stop-color="#2b3746" stop-opacity="1" />
</linearGradient>
<linearGradient gradientUnits="objectBoundingBox" x1="0" y1="0" x2="0" y2="1" id="gradient3">
    <stop offset="0" stop-color="#cbd5e1" stop-opacity="1" />
    <stop offset="0.4" stop-color="#f8fafc" stop-opacity="1" />
    <stop offset="1" stop-color="#94a3b8" stop-opacity="1" />
</linearGradient>
</defs>
<g fill="none" stroke="black" stroke-width="1" fill-rule="evenodd" stroke-linecap="square" stroke-linejoin="bevel" >

<g fill="none" stroke="#000000" stroke-opacity="1" stroke-width="1" stroke-linecap="square" stroke-linejoin="bevel" transform="matrix(1,0,0,1,0,0)"
font-family="MS Shell Dlg 2" font-size="8.25" font-weight="400" font-style="normal" 
>
</g>

<g fill="none" stroke="#000000" stroke-opacity="1" stroke-width="1" stroke-linecap="square" stroke-linejoin="bevel" transform="matrix(1,0,0,1,0,0)"
font-family="MS Shell Dlg 2" font-size="8.25" font-weight="400" font-style="normal" 
>
</g>

<g fill="none" stroke="#000000" stroke-opacity="1" stroke-width="1" stroke-linecap="square" stroke-linejoin="bevel" transform="matrix(0.355872,0,0,0.355872,1,1)"
font-family="MS Shell Dlg 2" font-size="8.25" font-weight="400" font-style="normal" 
>
</g>

<g fill="#475569" fill-opacity="1" stroke="none" transform="matrix(0.998216,0,0,1,1,1)"
font-family="MS Shell Dlg 2" font-size="8.25" font-weight="400" font-style="normal" 
>
<path vector-effect="none" fill-rule="evenodd" d="M6,95.99 C6,95.4432 6.44324,95 6.99,95 L16.01,95 C16.5568,95 17,95.4432 17,95.99 L17,98.51 C17,99.0568 16.5568,99.5 16.01,99.5 L6.99,99.5 C6.44324,99.5 6,99.0568 6,98.51 L6,95.99"/>
</g>

<g fill="#475569" fill-opacity="1" stroke="none" transform="matrix(0.998216,0,0,1,1,1)"
font-family="MS Shell Dlg 2" font-size="8.25" font-weight="400" font-style="normal" 
>
<path vector-effect="none" fill-rule="evenodd" d="M49.667,95.99 C49.667,95.4432 50.1102,95 50.657,95 L59.677,95 C60.2238,95 60.667,95.4432 60.667,95.99 L60.667,98.51 C60.667,99.0568 60.2238,99.5 59.677,99.5 L50.657,99.5 C50.1102,99.5 49.667,99.0568 49.667,98.51 L49.667,95.99"/>
</g>

<g fill="url(#gradient1)" stroke="none" transform="matrix(0.998216,0,0,1,1,1)"
font-family="MS Shell Dlg 2" font-size="8.25" font-weight="400" font-style="normal" 
>
<path vector-effect="none" fill-rule="evenodd" d="M1.5,5.28 C1.5,3.19236 3.21028,1.5 5.32002,1.5 L61.347,1.5 C63.4567,1.5 65.167,3.19236 65.167,5.28 L65.167,92.22 C65.167,94.3076 63.4567,96 61.347,96 L5.32002,96 C3.21028,96 1.5,94.3076 1.5,92.22 L1.5,5.28"/>
</g>

<g fill="none" stroke="#334155" stroke-opacity="1" stroke-width="1.2" stroke-linecap="butt" stroke-linejoin="miter" stroke-miterlimit="4" transform="matrix(0.998216,0,0,1,1,1)"
font-family="MS Shell Dlg 2" font-size="8.25" font-weight="400" font-style="normal" 
>
<path vector-effect="none" fill-rule="evenodd" d="M1.5,5.28 C1.5,3.19236 3.21028,1.5 5.32002,1.5 L61.347,1.5 C63.4567,1.5 65.167,3.19236 65.167,5.28 L65.167,92.22 C65.167,94.3076 63.4567,96 61.347,96 L5.32002,96 C3.21028,96 1.5,94.3076 1.5,92.22 L1.5,5.28"/>
</g>

<g fill="url(#gradient2)" stroke="none" transform="matrix(0.998216,0,0,1,1,1)"
font-family="MS Shell Dlg 2" font-size="8.25" font-weight="400" font-style="normal" 
>
<path vector-effect="none" fill-rule="evenodd" d="M6,8.5 C6,7.11929 7.10139,6 8.46002,6 L58.207,6 C59.5656,6 60.667,7.11929 60.667,8.5 L60.667,28.5 C60.667,29.8807 59.5656,31 58.207,31 L8.46002,31 C7.10139,31 6,29.8807 6,28.5 L6,8.5"/>
</g>

<g fill="none" stroke="#1e293b" stroke-opacity="1" stroke-width="0.8" stroke-linecap="butt" stroke-linejoin="miter" stroke-miterlimit="4" transform="matrix(0.998216,0,0,1,1,1)"
font-family="MS Shell Dlg 2" font-size="8.25" font-weight="400" font-style="normal" 
>
<path vector-effect="none" fill-rule="evenodd" d="M6,8.5 C6,7.11929 7.10139,6 8.46002,6 L58.207,6 C59.5656,6 60.667,7.11929 60.667,8.5 L60.667,28.5 C60.667,29.8807 59.5656,31 58.207,31 L8.46002,31 C7.10139,31 6,29.8807 6,28.5 L6,8.5"/>
</g>

<g fill="#0f172a" fill-opacity="1" stroke="none" transform="matrix(0.998216,0,0,1,1,1)"
font-family="MS Shell Dlg 2" font-size="8.25" font-weight="400" font-style="normal" 
>
<path vector-effect="none" fill-rule="evenodd" d="M10,11.485 C10,10.6649 10.6268,10 11.4,10 L36.6,10 C37.3732,10 38,10.6649 38,11.485 L38,19.515 C38,20.3351 37.3732,21 36.6,21 L11.4,21 C10.6268,21 10,20.3351 10,19.515 L10,11.485"/>
</g>

<g fill="none" stroke="#1e293b" stroke-opacity="1" stroke-width="0.5" stroke-linecap="butt" stroke-linejoin="miter" stroke-miterlimit="4" transform="matrix(0.998216,0,0,1,1,1)"
font-family="MS Shell Dlg 2" font-size="8.25" font-weight="400" font-style="normal" 
>
<path vector-effect="none" fill-rule="evenodd" d="M10,11.485 C10,10.6649 10.6268,10 11.4,10 L36.6,10 C37.3732,10 38,10.6649 38,11.485 L38,19.515 C38,20.3351 37.3732,21 36.6,21 L11.4,21 C10.6268,21 10,20.3351 10,19.515 L10,11.485"/>
</g>

<g fill="#000000" fill-opacity="1" stroke="#7dd3fc" stroke-opacity="1" stroke-width="2.4" stroke-linecap="round" stroke-linejoin="miter" stroke-miterlimit="4" transform="matrix(0.998216,0,0,1,1,1)"
font-family="MS Shell Dlg 2" font-size="8.25" font-weight="400" font-style="normal" 
>
<polyline fill="none" vector-effect="none" points="13,15.5 30,15.5 " />
</g>

<g fill="#000000" fill-opacity="1" stroke="#7dd3fc" stroke-opacity="1" stroke-width="1.1" stroke-linecap="round" stroke-linejoin="miter" stroke-miterlimit="4" transform="matrix(0.998216,0,0,1,1,1)"
font-family="MS Shell Dlg 2" font-size="8.25" font-weight="400" font-style="normal" 
>
<polyline fill="none" vector-effect="none" points="49.3,11.5 49.3,20.5 " />
<polyline fill="none" vector-effect="none" points="45.4,13.75 53.2,18.25 " />
<polyline fill="none" vector-effect="none" points="45.4,18.25 53.2,13.75 " />
</g>

<g fill="#94a3b8" fill-opacity="1" stroke="none" transform="matrix(0.998216,0,0,1,1,1)"
font-family="MS Shell Dlg 2" font-size="8.25" font-weight="400" font-style="normal" 
>
<path vector-effect="none" fill-rule="evenodd" d="M10,24.7875 C10,24.3526 10.3447,24 10.77,24 L16.23,24 C16.6553,24 17,24.3526 17,24.7875 L17,26.7125 C17,27.1474 16.6553,27.5 16.23,27.5 L10.77,27.5 C10.3447,27.5 10,27.1474 10,26.7125 L10,24.7875"/>
</g>

<g fill="#94a3b8" fill-opacity="1" stroke="none" transform="matrix(0.998216,0,0,1,1,1)"
font-family="MS Shell Dlg 2" font-size="8.25" font-weight="400" font-style="normal" 
>
<path vector-effect="none" fill-rule="evenodd" d="M19.5,24.7875 C19.5,24.3526 19.8447,24 20.27,24 L25.73,24 C26.1553,24 26.5,24.3526 26.5,24.7875 L26.5,26.7125 C26.5,27.1474 26.1553,27.5 25.73,27.5 L20.27,27.5 C19.8447,27.5 19.5,27.1474 19.5,26.7125 L19.5,24.7875"/>
</g>

<g fill="#94a3b8" fill-opacity="1" stroke="none" transform="matrix(0.998216,0,0,1,1,1)"
font-family="MS Shell Dlg 2" font-size="8.25" font-weight="400" font-style="normal" 
>
<path vector-effect="none" fill-rule="evenodd" d="M29,24.7875 C29,24.3526 29.3447,24 29.77,24 L35.23,24 C35.6553,24 36,24.3526 36,24.7875 L36,26.7125 C36,27.1474 35.6553,27.5 35.23,27.5 L29.77,27.5 C29.3447,27.5 29,27.1474 29,26.7125 L29,24.7875"/>
</g>

<g fill="#38bdf8" fill-opacity="1" stroke="none" transform="matrix(0.998216,0,0,1,1,1)"
font-family="MS Shell Dlg 2" font-size="8.25" font-weight="400" font-style="normal" 
>
<rect x="2.1" y="35" width="62.467" height="3"/>
</g>

<g fill="#000000" fill-opacity="1" stroke="#94a3b8" stroke-opacity="1" stroke-width="1.8" stroke-linecap="round" stroke-linejoin="miter" stroke-miterlimit="4" transform="matrix(0.998216,0,0,1,1,1)"
font-family="MS Shell Dlg 2" font-size="8.25" font-weight="400" font-style="normal" 
>
<polyline fill="none" vector-effect="none" points="9,48 44,48 " />
<polyline fill="none" vector-effect="none" points="9,54 44,54 " />
<polyline fill="none" vector-effect="none" points="9,60 44,60 " />
<polyline fill="none" vector-effect="none" points="9,66 44,66 " />
<polyline fill="none" vector-effect="none" points="9,72 44,72 " />
<polyline fill="none" vector-effect="none" points="9,78 44,78 " />
<polyline fill="none" vector-effect="none" points="9,84 44,84 " />
</g>

<g fill="url(#gradient3)" stroke="none" transform="matrix(0.998216,0,0,1,1,1)"
font-family="MS Shell Dlg 2" font-size="8.25" font-weight="400" font-style="normal" 
>
<path vector-effect="none" fill-rule="evenodd" d="M50.5,42.98 C50.5,41.8865 51.3954,41 52.5,41 L61,41 C62.1046,41 63,41.8865 63,42.98 L63,57.02 C63,58.1135 62.1046,59 61,59 L52.5,59 C51.3954,59 50.5,58.1135 50.5,57.02 L50.5,42.98"/>
</g>

<g fill="none" stroke="#334155" stroke-opacity="1" stroke-width="1" stroke-linecap="butt" stroke-linejoin="miter" stroke-miterlimit="4" transform="matrix(0.998216,0,0,1,1,1)"
font-family="MS Shell Dlg 2" font-size="8.25" font-weight="400" font-style="normal" 
>
<path vector-effect="none" fill-rule="evenodd" d="M50.5,42.98 C50.5,41.8865 51.3954,41 52.5,41 L61,41 C62.1046,41 63,41.8865 63,42.98 L63,57.02 C63,58.1135 62.1046,59 61,59 L52.5,59 C51.3954,59 50.5,58.1135 50.5,57.02 L50.5,42.98"/>
</g>

<g fill="#e2e8f0" fill-opacity="1" stroke="none" transform="matrix(0.998216,0,0,1,1,1)"
font-family="MS Shell Dlg 2" font-size="8.25" font-weight="400" font-style="normal" 
>
<circle cx="58.3" cy="50" r="3.6"/>
</g>

<g fill="none" stroke="#334155" stroke-opacity="1" stroke-width="0.8" stroke-linecap="butt" stroke-linejoin="miter" stroke-miterlimit="4" transform="matrix(0.998216,0,0,1,1,1)"
font-family="MS Shell Dlg 2" font-size="8.25" font-weight="400" font-style="normal" 
>
<circle cx="58.3" cy="50" r="3.6"/>
</g>

<g fill="#000000" fill-opacity="1" stroke="#38bdf8" stroke-opacity="1" stroke-width="1.2" stroke-linecap="round" stroke-linejoin="miter" stroke-miterlimit="4" transform="matrix(0.998216,0,0,1,1,1)"
font-family="MS Shell Dlg 2" font-size="8.25" font-weight="400" font-style="normal" 
>
<polyline fill="none" vector-effect="none" points="53,44 56,44 " />
</g>

<g fill="#000000" fill-opacity="1" stroke="#f97316" stroke-opacity="1" stroke-width="1.2" stroke-linecap="round" stroke-linejoin="miter" stroke-miterlimit="4" transform="matrix(0.998216,0,0,1,1,1)"
font-family="MS Shell Dlg 2" font-size="8.25" font-weight="400" font-style="normal" 
>
<polyline fill="none" vector-effect="none" points="53,56 56,56 " />
</g>

<g fill="none" stroke="#000000" stroke-opacity="1" stroke-width="1" stroke-linecap="square" stroke-linejoin="bevel" transform="matrix(0.355872,0,0,0.355872,1,1)"
font-family="MS Shell Dlg 2" font-size="8.25" font-weight="400" font-style="normal" 
>
</g>

<g fill="none" stroke="#000000" stroke-opacity="1" stroke-width="1" stroke-linecap="square" stroke-linejoin="bevel" transform="matrix(1,0,0,1,0,0)"
font-family="MS Shell Dlg 2" font-size="8.25" font-weight="400" font-style="normal" 
>
</g>

<g fill="#0000ff" fill-opacity="1" stroke="#000000" stroke-opacity="0" stroke-width="1" stroke-linecap="square" stroke-linejoin="bevel" transform="matrix(1,0,0,1,59.274,51)"
font-family="MS Shell Dlg 2" font-size="8.25" font-weight="400" font-style="normal" 
>
<circle cx="0" cy="0" r="2"/>
</g>

<g fill="#e57373" fill-opacity="1" stroke="#e57373" stroke-opacity="1" stroke-width="0.5" stroke-linecap="square" stroke-linejoin="bevel" transform="matrix(1,0,0,1,59.274,51)"
font-family="MS Shell Dlg 2" font-size="8.25" font-weight="400" font-style="normal" 
>
<polyline fill="none" vector-effect="none" points="-3,-3 3,-3 " />
<path vector-effect="none" fill-rule="evenodd" d="M3,-3 L1.25,-2.25 L1.25,-3.75 L3,-3"/>
</g>

<g fill="#7986cb" fill-opacity="1" stroke="#7986cb" stroke-opacity="1" stroke-width="0.5" stroke-linecap="square" stroke-linejoin="bevel" transform="matrix(1,0,0,1,59.274,51)"
font-family="MS Shell Dlg 2" font-size="8.25" font-weight="400" font-style="normal" 
>
<polyline fill="none" vector-effect="none" points="3,3 -3,3 " />
<path vector-effect="none" fill-rule="evenodd" d="M-3,3 L-1.25,2.25 L-1.25,3.75 L-3,3"/>
</g>

<g fill="none" stroke="#000000" stroke-opacity="1" stroke-width="1" stroke-linecap="square" stroke-linejoin="bevel" transform="matrix(1,0,0,1,0,0)"
font-family="MS Shell Dlg 2" font-size="8.25" font-weight="400" font-style="normal" 
>
</g>
</g>
</svg>
