<?xml version="1.0" encoding="UTF-8" standalone="no"?>
<svg width="23.9889mm" height="7.05556mm"
 viewBox="0 0 68 20"
 xmlns="http://www.w3.org/2000/svg" xmlns:xlink="http://www.w3.org/1999/xlink"  version="1.2" baseProfile="tiny">
<title>BackPressureRegulator</title>
<desc>Exported ChemUnited component icon</desc>
<defs>
</defs>
<g fill="none" stroke="black" stroke-width="1" fill-rule="evenodd" stroke-linecap="square" stroke-linejoin="bevel" >

<g fill="none" stroke="#000000" stroke-opacity="1" stroke-width="1" stroke-linecap="square" stroke-linejoin="bevel" transform="matrix(1,0,0,1,0,0)"
font-family="MS Shell Dlg 2" font-size="8.25" font-weight="400" font-style="normal"
>
</g>

<g fill="none" stroke="#000000" stroke-opacity="1" stroke-width="1" stroke-linecap="square" stroke-linejoin="bevel" transform="matrix(1,0,0,1,4,0)"
font-family="MS Shell Dlg 2" font-size="8.25" font-weight="400" font-style="normal"
>
</g>

<g fill="none" stroke="#000000" stroke-opacity="1" stroke-width="1" stroke-linecap="square" stroke-linejoin="bevel" transform="matrix(1,0,0,1,4,0)"
font-family="MS Shell Dlg 2" font-size="8.25" font-weight="400" font-style="normal"
>
</g>

<g fill="none" stroke="#000000" stroke-opacity="1" stroke-width="1" stroke-linecap="square" stroke-linejoin="bevel" transform="matrix(1,0,0,1,4,0)"
font-family="MS Shell Dlg 2" font-size="8.25" font-weight="400" font-style="normal"
>
</g>

<g fill="#2d2d2d" fill-opacity="1" stroke="#1d1d1d" stroke-opacity="1" stroke-width="3" stroke-linecap="square" stroke-linejoin="bevel" transform="matrix(1,0,0,1,4,0)"
font-family="MS Shell Dlg 2" font-size="8.25" font-weight="400" font-style="normal"
>
<rect x="0" y="2" width="60" height="16"/>
</g>

<g fill="#1d1d1d" fill-opacity="1" stroke="#1d1d1d" stroke-opacity="1" stroke-width="3" stroke-linecap="square" stroke-linejoin="bevel" transform="matrix(1,0,0,1,4,0)"
font-family="MS Shell Dlg 2" font-size="8.25" font-weight="400" font-style="normal"
>
<rect x="12" y="0" width="6" height="20"/>
<rect x="48" y="0" width="6" height="20"/>
</g>

<g fill="none" stroke="#000000" stroke-opacity="1" stroke-width="1" stroke-linecap="square" stroke-linejoin="bevel" transform="matrix(1,0,0,1,4,0)"
font-family="MS Shell Dlg 2" font-size="8.25" font-weight="400" font-style="normal"
>
</g>

<g fill="none" stroke="#000000" stroke-opacity="1" stroke-width="1" stroke-linecap="square" stroke-linejoin="bevel" transform="matrix(1,0,0,1,64,10)"
font-family="MS Shell Dlg 2" font-size="8.25" font-weight="400" font-style="normal"
>
</g>

<g fill="#f9f9f9" fill-opacity="1" stroke="#000000" stroke-opacity="0" stroke-width="1" stroke-linecap="square" stroke-linejoin="bevel" transform="matrix(1,0,0,1,64,10)"
font-family="MS Shell Dlg 2" font-size="8.25" font-weight="400" font-style="normal"
>
<circle cx="0" cy="0" r="3"/>
</g>

<g fill="none" stroke="#f9f9f9" stroke-opacity="1" stroke-width="1" stroke-linecap="square" stroke-linejoin="bevel" transform="matrix(1,0,0,1,64,10)"
font-family="MS Shell Dlg 2" font-size="8.25" font-weight="400" font-style="normal"
>
<path vector-effect="none" fill-rule="evenodd" d="M4,0 C4,-2.20914 2.20914,-4 0,-4 C-2.20914,-4 -4,-2.20914 -4,0 C-4,2.20914 -2.20914,4 0,4 "/>
</g>

<g fill="none" stroke="#000000" stroke-opacity="1" stroke-width="1" stroke-linecap="square" stroke-linejoin="bevel" transform="matrix(1,0,0,1,64,10)"
font-family="MS Shell Dlg 2" font-size="8.25" font-weight="400" font-style="normal"
>
</g>

<g fill="none" stroke="#000000" stroke-opacity="1" stroke-width="1" stroke-linecap="square" stroke-linejoin="bevel" transform="matrix(1,0,0,1,4,10)"
font-family="MS Shell Dlg 2" font-size="8.25" font-weight="400" font-style="normal"
>
</g>

<g fill="#f9f9f9" fill-opacity="1" stroke="#000000" stroke-opacity="0" stroke-width="1" stroke-linecap="square" stroke-linejoin="bevel" transform="matrix(1,0,0,1,4,10)"
font-family="MS Shell Dlg 2" font-size="8.25" font-weight="400" font-style="normal"
>
<circle cx="0" cy="0" r="3"/>
</g>

<g fill="none" stroke="#f9f9f9" stroke-opacity="1" stroke-width="1" stroke-linecap="square" stroke-linejoin="bevel" transform="matrix(1,0,0,1,4,10)"
font-family="MS Shell Dlg 2" font-size="8.25" font-weight="400" font-style="normal"
>
<path vector-effect="none" fill-rule="evenodd" d="M4,0 C4,-2.20914 2.20914,-4 0,-4 C-2.20914,-4 -4,-2.20914 -4,0 C-4,2.20914 -2.20914,4 0,4 "/>
</g>

<g fill="none" stroke="#000000" stroke-opacity="1" stroke-width="1" stroke-linecap="square" stroke-linejoin="bevel" transform="matrix(1,0,0,1,4,10)"
font-family="MS Shell Dlg 2" font-size="8.25" font-weight="400" font-style="normal"
>
</g>

<g fill="none" stroke="#000000" stroke-opacity="1" stroke-width="1" stroke-linecap="square" stroke-linejoin="bevel" transform="matrix(1,0,0,1,4,0)"
font-family="MS Shell Dlg 2" font-size="8.25" font-weight="400" font-style="normal"
>
<polyline fill="none" vector-effect="none" points="24,10 36,10 " />
</g>

<g fill="#f9f9f9" fill-opacity="1" stroke="#f9f9f9" stroke-opacity="1" stroke-width="1" stroke-linecap="square" stroke-linejoin="bevel" transform="matrix(1,0,0,1,4,0)"
font-family="MS Shell Dlg 2" font-size="8.25" font-weight="400" font-style="normal"
>
<path vector-effect="none" fill-rule="evenodd" d="M36,6 L42,10 L36,14 L36,6"/>
</g>

<g fill="none" stroke="#000000" stroke-opacity="1" stroke-width="1" stroke-linecap="square" stroke-linejoin="bevel" transform="matrix(1,0,0,1,4,0)"
font-family="MS Shell Dlg 2" font-size="8.25" font-weight="400" font-style="normal"
>
</g>

<g fill="none" stroke="#000000" stroke-opacity="1" stroke-width="1" stroke-linecap="square" stroke-linejoin="bevel" transform="matrix(1,0,0,1,0,0)"
font-family="MS Shell Dlg 2" font-size="8.25" font-weight="400" font-style="normal"
>
</g>
</g>
</svg>
