<?xml version="1.0" encoding="UTF-8"?>
<!DOCTYPE svg PUBLIC "-//W3C//DTD SVG 1.1//EN" "http://www.w3.org/Graphics/SVG/1.1/DTD/svg11.dtd">
<!-- Creator: CorelDRAW -->
<svg xmlns="http://www.w3.org/2000/svg" xml:space="preserve" width="2.08333in" height="3.12499in" version="1.1" style="shape-rendering:geometricPrecision; text-rendering:geometricPrecision; image-rendering:optimizeQuality; fill-rule:evenodd; clip-rule:evenodd"
viewBox="0 0 2083.33 3124.99"
 xmlns:xlink="http://www.w3.org/1999/xlink"
 xmlns:xodm="http://www.corel.com/coreldraw/odm/2003">
 <defs>
  <style type="text/css">
   <![CDATA[
    .str0 {stroke:black;stroke-width:10.41;stroke-miterlimit:2.61313}
    .str31 {stroke:#373435;stroke-width:6.94;stroke-miterlimit:2.61313}
    .str2 {stroke:#17006E;stroke-width:5;stroke-miterlimit:10}
    .str9 {stroke:#173308;stroke-width:5;stroke-miterlimit:10}
    .str8 {stroke:#21338C;stroke-width:5;stroke-miterlimit:10}
    .str3 {stroke:#369959;stroke-width:5;stroke-miterlimit:10}
    .str1 {stroke:#5E2945;stroke-width:5;stroke-miterlimit:10}
    .str13 {stroke:#7D3326;stroke-width:5;stroke-miterlimit:10}
    .str14 {stroke:#7D8545;stroke-width:5;stroke-miterlimit:10}
    .str5 {stroke:#7DAD63;stroke-width:5;stroke-miterlimit:10}
    .str10 {stroke:#870026;stroke-width:5;stroke-miterlimit:10}
    .str7 {stroke:#8785DE;stroke-width:5;stroke-miterlimit:10}
    .str12 {stroke:#A63DBF;stroke-width:5;stroke-miterlimit:10}
    .str6 {stroke:#B0A38C;stroke-width:5;stroke-miterlimit:10}
    .str15 {stroke:#C4CC12;stroke-width:5;stroke-miterlimit:10}
    .str11 {stroke:#CF14DE;stroke-width:5;stroke-miterlimit:10}
    .str4 {stroke:#E35CDE;stroke-width:5;stroke-miterlimit:10}
    .str27 {stroke:#03D6C9;stroke-width:5;stroke-miterlimit:10}
    .str20 {stroke:#17998C;stroke-width:5;stroke-miterlimit:10}
    .str16 {stroke:#40AD4F;stroke-width:5;stroke-miterlimit:10}
    .str18 {stroke:#4A1F26;stroke-width:5;stroke-miterlimit:10}
    .str22 {stroke:#69D6BF;stroke-width:5;stroke-miterlimit:10}
    .str24 {stroke:#73668C;stroke-width:5;stroke-miterlimit:10}
    .str25 {stroke:#7D29B5;stroke-width:5;stroke-miterlimit:10}
    .str23 {stroke:#7D7AAB;stroke-width:5;stroke-miterlimit:10}
    .str21 {stroke:#87B808;stroke-width:5;stroke-miterlimit:10}
    .str17 {stroke:#87E0FC;stroke-width:5;stroke-miterlimit:10}
    .str28 {stroke:#91E008;stroke-width:5;stroke-miterlimit:10}
    .str19 {stroke:#A6B826;stroke-width:5;stroke-miterlimit:10}
    .str30 {stroke:#BA853B;stroke-width:5;stroke-miterlimit:10}
    .str26 {stroke:#ED5CE8;stroke-width:5;stroke-miterlimit:10}
    .str29 {stroke:#F77ABF;stroke-width:5;stroke-miterlimit:10}
    .fil0 {fill:none}
    .fil1 {fill:black}
    .fil2 {fill:#2B3240}
    .fil4 {fill:url(#id3)}
    .fil3 {fill:url(#id4)}
   ]]>
  </style>
    <clipPath id="id0">
     <path d="M1345.53 399.83l340.13 0 0 306.11 -340.13 0 0 -306.11z"/>
    </clipPath>
    <clipPath id="id1">
     <path d="M1345.53 399.83l340.13 0 0 306.11 -340.13 0 0 -306.11z"/>
    </clipPath>
    <clipPath id="id2">
     <path d="M1345.53 399.83l340.13 0 0 306.11 -340.13 0 0 -306.11z"/>
    </clipPath>
  <linearGradient id="id3" gradientUnits="userSpaceOnUse" x1="231.62" y1="2103.33" x2="1853.73" y2="2103.33">
   <stop offset="0" style="stop-opacity:1; stop-color:#C7C7C4"/>
   <stop offset="1" style="stop-opacity:1; stop-color:white"/>
  </linearGradient>
  <linearGradient id="id4" gradientUnits="userSpaceOnUse" x1="379.94" y1="711.34" x2="608.24" y2="711.34">
   <stop offset="0" style="stop-opacity:1; stop-color:black"/>
   <stop offset="0.968627" style="stop-opacity:1; stop-color:#7F7F7F"/>
   <stop offset="1" style="stop-opacity:1; stop-color:white"/>
  </linearGradient>
 </defs>
 <g id="Layer_x0020_1">
  <metadata id="CorelCorpID_0Corel-Layer"/>
  <rect class="fil0 str0" x="231.62" y="1298.91" width="1622.11" height="1608.84"/>
  <rect class="fil1 str0" x="293.29" y="2907.76" width="177.19" height="118.72"/>
  <rect class="fil2 str0" x="229.6" y="92.9" width="1624.13" height="1206.02"/>
  <path class="fil3 str0" d="M379.94 291.27l0 0c125.57,0 228.3,102.73 228.3,228.3l0 383.56c0,125.57 -102.73,228.3 -228.3,228.3l0 0 0 -840.15z"/>
  <g>
   <g style="clip-path:url(#id0)">
   </g>
   <g style="clip-path:url(#id1)">
    <line class="fil0 str1" x1="1509.5" y1="915.28" x2="1153.88" y2= "559.67" />
    <line id="_1" class="fil0 str2" x1="1554.75" y1="870.03" x2="1199.13" y2= "514.41" />
    <line id="_2" class="fil0 str3" x1="1573.84" y1="850.94" x2="1218.22" y2= "495.32" />
    <line id="_3" class="fil0 str4" x1="1616.97" y1="807.8" x2="1261.36" y2= "452.19" />
    <line id="_4" class="fil0 str5" x1="1653.74" y1="771.04" x2="1298.13" y2= "415.42" />
    <line id="_5" class="fil0 str6" x1="1675.67" y1="749.12" x2="1320.04" y2= "393.5" />
    <line id="_6" class="fil0 str7" x1="1692.64" y1="732.15" x2="1337.02" y2= "376.52" />
    <line id="_7" class="fil0 str8" x1="1692.64" y1="732.15" x2="1337.02" y2= "376.52" />
    <line id="_8" class="fil0 str9" x1="1716.68" y1="708.11" x2="1361.06" y2= "352.48" />
    <line id="_9" class="fil0 str10" x1="1764.76" y1="660.02" x2="1409.14" y2= "304.4" />
    <line id="_10" class="fil0 str11" x1="1804.36" y1="620.42" x2="1448.74" y2= "264.8" />
    <line id="_11" class="fil0 str12" x1="1810.72" y1="614.06" x2="1455.1" y2= "258.44" />
    <line id="_12" class="fil0 str13" x1="1842.54" y1="582.24" x2="1486.92" y2= "226.62" />
    <line id="_13" class="fil0 str14" x1="1858.81" y1="565.98" x2="1503.19" y2= "210.35" />
    <line id="_14" class="fil0 str15" x1="1898.41" y1="526.38" x2="1542.78" y2= "170.76" />
    <line id="_15" class="fil0 str16" x1="1189.94" y1="601.39" x2="1545.56" y2= "245.76" />
    <line id="_16" class="fil0 str17" x1="1241.56" y1="653" x2="1597.18" y2= "297.38" />
    <line id="_17" class="fil0 str18" x1="1245.8" y1="657.24" x2="1601.42" y2= "301.63" />
    <line id="_18" class="fil0 str19" x1="1283.98" y1="695.43" x2="1639.6" y2= "339.81" />
    <line id="_19" class="fil0 str20" x1="1328.53" y1="739.98" x2="1684.15" y2= "384.36" />
    <line id="_20" class="fil0 str21" x1="1339.14" y1="750.59" x2="1694.76" y2= "394.96" />
    <line id="_21" class="fil0 str22" x1="1380.15" y1="791.6" x2="1735.77" y2= "435.98" />
    <line id="_22" class="fil0 str23" x1="1381.56" y1="793.01" x2="1737.19" y2= "437.39" />
    <line id="_23" class="fil0 str24" x1="1394.29" y1="805.74" x2="1749.91" y2= "450.12" />
    <line id="_24" class="fil0 str25" x1="1396.41" y1="807.86" x2="1752.03" y2= "452.24" />
    <line id="_25" class="fil0 str26" x1="1448.74" y1="860.19" x2="1804.36" y2= "504.57" />
    <line id="_26" class="fil0 str27" x1="1474.9" y1="886.35" x2="1830.52" y2= "530.73" />
    <line id="_27" class="fil0 str28" x1="1493.29" y1="904.74" x2="1848.91" y2= "549.11" />
    <line id="_28" class="fil0 str29" x1="1496.11" y1="907.56" x2="1851.74" y2= "551.94" />
    <line id="_29" class="fil0 str30" x1="1514.5" y1="925.95" x2="1870.12" y2= "570.33" />
   </g>
   <g style="clip-path:url(#id2)">
   </g>
   <polygon id="_30" class="fil0 str0" points="1345.53,399.83 1685.66,399.83 1685.66,705.94 1345.53,705.94 "/>
  </g>
  <rect class="fil1 str0" x="1610.51" y="1146.71" width="89.4" height="71.52"/>
  <ellipse class="fil0 str0" cx="392.22" cy="1440.94" rx="65.72" ry="59.15"/>
  <ellipse class="fil0 str0" cx="577.31" cy="1436.78" rx="65.72" ry="59.15"/>
  <ellipse class="fil0 str0" cx="769.41" cy="1438.9" rx="65.72" ry="59.15"/>
  <ellipse class="fil0 str0" cx="954.5" cy="1434.75" rx="65.72" ry="59.15"/>
  <ellipse class="fil0 str0" cx="384.78" cy="1630.78" rx="65.72" ry="59.15"/>
  <ellipse class="fil0 str0" cx="569.87" cy="1626.63" rx="65.72" ry="59.15"/>
  <ellipse class="fil0 str0" cx="761.97" cy="1628.75" rx="65.72" ry="59.15"/>
  <ellipse class="fil0 str0" cx="947.06" cy="1624.59" rx="65.72" ry="59.15"/>
  <ellipse class="fil0 str0" cx="390.52" cy="1818.06" rx="65.72" ry="59.15"/>
  <ellipse class="fil0 str0" cx="575.61" cy="1813.9" rx="65.72" ry="59.15"/>
  <ellipse class="fil0 str0" cx="767.7" cy="1816.02" rx="65.72" ry="59.15"/>
  <ellipse class="fil0 str0" cx="952.79" cy="1811.87" rx="65.72" ry="59.15"/>
  <ellipse class="fil0 str0" cx="383.08" cy="2007.9" rx="65.72" ry="59.15"/>
  <ellipse class="fil0 str0" cx="568.17" cy="2003.75" rx="65.72" ry="59.15"/>
  <ellipse class="fil0 str0" cx="760.26" cy="2005.87" rx="65.72" ry="59.15"/>
  <ellipse class="fil0 str0" cx="945.35" cy="2001.71" rx="65.72" ry="59.15"/>
  <ellipse class="fil0 str0" cx="388.26" cy="2194.82" rx="65.72" ry="59.15"/>
  <ellipse class="fil0 str0" cx="573.34" cy="2190.67" rx="65.72" ry="59.15"/>
  <ellipse class="fil0 str0" cx="765.44" cy="2192.79" rx="65.72" ry="59.15"/>
  <ellipse class="fil0 str0" cx="950.53" cy="2188.63" rx="65.72" ry="59.15"/>
  <ellipse class="fil0 str0" cx="380.81" cy="2384.67" rx="65.72" ry="59.15"/>
  <ellipse class="fil0 str0" cx="565.9" cy="2380.52" rx="65.72" ry="59.15"/>
  <ellipse class="fil0 str0" cx="758" cy="2382.63" rx="65.72" ry="59.15"/>
  <ellipse class="fil0 str0" cx="943.09" cy="2378.48" rx="65.72" ry="59.15"/>
  <ellipse class="fil0 str0" cx="386.55" cy="2571.94" rx="65.72" ry="59.15"/>
  <ellipse class="fil0 str0" cx="571.64" cy="2567.79" rx="65.72" ry="59.15"/>
  <ellipse class="fil0 str0" cx="763.74" cy="2569.91" rx="65.72" ry="59.15"/>
  <ellipse class="fil0 str0" cx="948.82" cy="2565.75" rx="65.72" ry="59.15"/>
  <ellipse class="fil0 str0" cx="379.11" cy="2761.79" rx="65.72" ry="59.15"/>
  <ellipse class="fil0 str0" cx="564.2" cy="2757.63" rx="65.72" ry="59.15"/>
  <ellipse class="fil0 str0" cx="756.3" cy="2759.75" rx="65.72" ry="59.15"/>
  <ellipse class="fil0 str0" cx="941.38" cy="2755.6" rx="65.72" ry="59.15"/>
  <ellipse class="fil0 str0" cx="1157.68" cy="1445.57" rx="65.72" ry="59.15"/>
  <ellipse class="fil0 str0" cx="1342.77" cy="1441.42" rx="65.72" ry="59.15"/>
  <ellipse class="fil0 str0" cx="1534.87" cy="1443.54" rx="65.72" ry="59.15"/>
  <ellipse class="fil0 str0" cx="1719.95" cy="1439.38" rx="65.72" ry="59.15"/>
  <ellipse class="fil0 str0" cx="1150.24" cy="1635.42" rx="65.72" ry="59.15"/>
  <ellipse class="fil0 str0" cx="1335.33" cy="1631.26" rx="65.72" ry="59.15"/>
  <ellipse class="fil0 str0" cx="1527.43" cy="1633.38" rx="65.72" ry="59.15"/>
  <ellipse class="fil0 str0" cx="1712.51" cy="1629.23" rx="65.72" ry="59.15"/>
  <ellipse class="fil0 str0" cx="1155.98" cy="1822.69" rx="65.72" ry="59.15"/>
  <ellipse class="fil0 str0" cx="1341.06" cy="1818.54" rx="65.72" ry="59.15"/>
  <ellipse class="fil0 str0" cx="1533.16" cy="1820.65" rx="65.72" ry="59.15"/>
  <ellipse class="fil0 str0" cx="1718.25" cy="1816.5" rx="65.72" ry="59.15"/>
  <ellipse class="fil0 str0" cx="1148.54" cy="2012.54" rx="65.72" ry="59.15"/>
  <ellipse class="fil0 str0" cx="1333.62" cy="2008.38" rx="65.72" ry="59.15"/>
  <ellipse class="fil0 str0" cx="1525.72" cy="2010.5" rx="65.72" ry="59.15"/>
  <ellipse class="fil0 str0" cx="1710.81" cy="2006.35" rx="65.72" ry="59.15"/>
  <ellipse class="fil0 str0" cx="1153.71" cy="2199.46" rx="65.72" ry="59.15"/>
  <ellipse class="fil0 str0" cx="1338.8" cy="2195.3" rx="65.72" ry="59.15"/>
  <ellipse class="fil0 str0" cx="1530.9" cy="2197.42" rx="65.72" ry="59.15"/>
  <ellipse class="fil0 str0" cx="1715.98" cy="2193.27" rx="65.72" ry="59.15"/>
  <ellipse class="fil0 str0" cx="1146.27" cy="2389.3" rx="65.72" ry="59.15"/>
  <ellipse class="fil0 str0" cx="1331.36" cy="2385.15" rx="65.72" ry="59.15"/>
  <ellipse class="fil0 str0" cx="1523.46" cy="2387.27" rx="65.72" ry="59.15"/>
  <ellipse class="fil0 str0" cx="1708.54" cy="2383.11" rx="65.72" ry="59.15"/>
  <ellipse class="fil0 str0" cx="1152.01" cy="2576.57" rx="65.72" ry="59.15"/>
  <ellipse class="fil0 str0" cx="1337.09" cy="2572.42" rx="65.72" ry="59.15"/>
  <ellipse class="fil0 str0" cx="1529.19" cy="2574.54" rx="65.72" ry="59.15"/>
  <ellipse class="fil0 str0" cx="1714.28" cy="2570.39" rx="65.72" ry="59.15"/>
  <ellipse class="fil0 str0" cx="1144.57" cy="2766.42" rx="65.72" ry="59.15"/>
  <ellipse class="fil0 str0" cx="1329.65" cy="2762.27" rx="65.72" ry="59.15"/>
  <ellipse class="fil0 str0" cx="1521.75" cy="2764.39" rx="65.72" ry="59.15"/>
  <ellipse class="fil0 str0" cx="1706.84" cy="2760.23" rx="65.72" ry="59.15"/>
  <rect class="fil1 str0" x="1559.87" y="2913.38" width="177.19" height="118.72"/>
  <path class="fil4 str31" d="M504.15 1626.63c0,-32.67 29.43,-59.15 65.72,-59.15 36.3,0 65.72,26.48 65.72,59.15 0,32.67 -29.43,59.15 -65.72,59.15 -36.3,0 -65.72,-26.48 -65.72,-59.15zm263.56 248.54c-36.3,0 -65.72,-26.48 -65.72,-59.15 0,-32.67 29.43,-59.15 65.72,-59.15 36.3,0 65.72,26.48 65.72,59.15 0,32.67 -29.43,59.15 -65.72,59.15zm-7.44 71.55c36.3,0 65.72,26.48 65.72,59.15 0,32.67 -29.43,59.15 -65.72,59.15 -36.3,0 -65.72,-26.48 -65.72,-59.15 0,-32.67 29.43,-59.15 65.72,-59.15zm124.54 241.92c0,-32.67 29.43,-59.15 65.72,-59.15 36.3,0 65.72,26.48 65.72,59.15 0,32.67 -29.43,59.15 -65.72,59.15 -36.3,0 -65.72,-26.48 -65.72,-59.15zm195.74 200.67c0,-32.67 29.43,-59.15 65.72,-59.15 36.3,0 65.72,26.48 65.72,59.15 0,32.67 -29.43,59.15 -65.72,59.15 -36.3,0 -65.72,-26.48 -65.72,-59.15zm190.82 183.12c0,-32.67 29.43,-59.15 65.72,-59.15 36.3,0 65.72,26.48 65.72,59.15 0,32.67 -29.43,59.15 -65.72,59.15 -36.3,0 -65.72,-26.48 -65.72,-59.15zm-800.89 335.33l1383.24 0 0 -1608.84 -1622.11 0 0 1608.84 61.68 0 177.19 0zm409.15 -906.04c0,-32.67 29.43,-59.15 65.72,-59.15 36.3,0 65.72,26.48 65.72,59.15 0,32.67 -29.43,59.15 -65.72,59.15 -36.3,0 -65.72,-26.48 -65.72,-59.15zm274.08 256.89c-36.3,0 -65.72,-26.48 -65.72,-59.15 0,-32.67 29.43,-59.15 65.72,-59.15 36.3,0 65.72,26.48 65.72,59.15 0,32.67 -29.43,59.15 -65.72,59.15zm177.65 185.69c-36.3,0 -65.72,-26.48 -65.72,-59.15 0,-32.67 29.43,-59.15 65.72,-59.15 36.3,0 65.72,26.48 65.72,59.15 0,32.67 -29.43,59.15 -65.72,59.15zm190.39 260.94c36.3,0 65.72,26.48 65.72,59.15 0,32.67 -29.43,59.15 -65.72,59.15 -36.3,0 -65.72,-26.48 -65.72,-59.15 0,-32.67 29.43,-59.15 65.72,-59.15zm-192.1 -2.12c36.3,0 65.72,26.48 65.72,59.15 0,32.67 -29.43,59.15 -65.72,59.15 -36.3,0 -65.72,-26.48 -65.72,-59.15 0,-32.67 29.43,-59.15 65.72,-59.15zm-754.05 -948.37c36.3,0 65.72,26.48 65.72,59.15 0,32.67 -29.43,59.15 -65.72,59.15 -36.3,0 -65.72,-26.48 -65.72,-59.15 0,-32.67 29.43,-59.15 65.72,-59.15zm367.48 564.58c36.3,0 65.72,26.48 65.72,59.15 0,32.67 -29.43,59.15 -65.72,59.15 -36.3,0 -65.72,-26.48 -65.72,-59.15 0,-32.67 29.43,-59.15 65.72,-59.15zm143.2 257.24c0,-32.67 29.43,-59.15 65.72,-59.15 36.3,0 65.72,26.48 65.72,59.15 0,32.67 -29.43,59.15 -65.72,59.15 -36.3,0 -65.72,-26.48 -65.72,-59.15zm58.28 130.7c36.3,0 65.72,26.48 65.72,59.15 0,32.67 -29.43,59.15 -65.72,59.15 -36.3,0 -65.72,-26.48 -65.72,-59.15 0,-32.67 29.43,-59.15 65.72,-59.15zm384.63 -191.88c36.3,0 65.72,26.48 65.72,59.15 0,32.67 -29.43,59.15 -65.72,59.15 -36.3,0 -65.72,-26.48 -65.72,-59.15 0,-32.67 29.43,-59.15 65.72,-59.15zm-446.38 -502.85c0,-32.67 29.43,-59.15 65.72,-59.15 36.3,0 65.72,26.48 65.72,59.15 0,32.67 -29.43,59.15 -65.72,59.15 -36.3,0 -65.72,-26.48 -65.72,-59.15zm190.26 182.77c0,-32.67 29.43,-59.15 65.72,-59.15 36.3,0 65.72,26.48 65.72,59.15 0,32.67 -29.43,59.15 -65.72,59.15 -36.3,0 -65.72,-26.48 -65.72,-59.15zm250.38 132.81c36.3,0 65.72,26.48 65.72,59.15 0,32.67 -29.43,59.15 -65.72,59.15 -36.3,0 -65.72,-26.48 -65.72,-59.15 0,-32.67 29.43,-59.15 65.72,-59.15zm-636.39 -516.25c0,-32.67 29.43,-59.15 65.72,-59.15 36.3,0 65.72,26.48 65.72,59.15 0,32.67 -29.43,59.15 -65.72,59.15 -36.3,0 -65.72,-26.48 -65.72,-59.15zm380.83 196.52c0,-32.67 29.43,-59.15 65.72,-59.15 36.3,0 65.72,26.48 65.72,59.15 0,32.67 -29.43,59.15 -65.72,59.15 -36.3,0 -65.72,-26.48 -65.72,-59.15zm263 129.89c36.3,0 65.72,26.48 65.72,59.15 0,32.67 -29.43,59.15 -65.72,59.15 -36.3,0 -65.72,-26.48 -65.72,-59.15 0,-32.67 29.43,-59.15 65.72,-59.15zm-834.65 -509.52c0,-32.67 29.43,-59.15 65.72,-59.15 36.3,0 65.72,26.48 65.72,59.15 0,32.67 -29.43,59.15 -65.72,59.15 -36.3,0 -65.72,-26.48 -65.72,-59.15zm394.01 193.94c0,-32.67 29.43,-59.15 65.72,-59.15 36.3,0 65.72,26.48 65.72,59.15 0,32.67 -29.43,59.15 -65.72,59.15 -36.3,0 -65.72,-26.48 -65.72,-59.15zm250.81 55c-36.3,0 -65.72,-26.48 -65.72,-59.15 0,-32.67 29.43,-59.15 65.72,-59.15 36.3,0 65.72,26.48 65.72,59.15 0,32.67 -29.43,59.15 -65.72,59.15zm184.66 73.67c36.3,0 65.72,26.48 65.72,59.15 0,32.67 -29.43,59.15 -65.72,59.15 -36.3,0 -65.72,-26.48 -65.72,-59.15 0,-32.67 29.43,-59.15 65.72,-59.15zm-578.67 -267.61c-36.3,0 -65.72,-26.48 -65.72,-59.15 0,-32.67 29.43,-59.15 65.72,-59.15 36.3,0 65.72,26.48 65.72,59.15 0,32.67 -29.43,59.15 -65.72,59.15zm203.19 10.82c-36.3,0 -65.72,-26.48 -65.72,-59.15 0,-32.67 29.43,-59.15 65.72,-59.15 36.3,0 65.72,26.48 65.72,59.15 0,32.67 -29.43,59.15 -65.72,59.15zm317.2 126.09c0,-32.67 29.43,-59.15 65.72,-59.15 36.3,0 65.72,26.48 65.72,59.15 0,32.67 -29.43,59.15 -65.72,59.15 -36.3,0 -65.72,-26.48 -65.72,-59.15zm-197.83 -189.39c0,-32.67 29.43,-59.15 65.72,-59.15 36.3,0 65.72,26.48 65.72,59.15 0,32.67 -29.43,59.15 -65.72,59.15 -36.3,0 -65.72,-26.48 -65.72,-59.15zm192.1 2.12c0,-32.67 29.43,-59.15 65.72,-59.15 36.3,0 65.72,26.48 65.72,59.15 0,32.67 -29.43,59.15 -65.72,59.15 -36.3,0 -65.72,-26.48 -65.72,-59.15zm-761.98 559.41c0,-32.67 29.43,-59.15 65.72,-59.15 36.3,0 65.72,26.48 65.72,59.15 0,32.67 -29.43,59.15 -65.72,59.15 -36.3,0 -65.72,-26.48 -65.72,-59.15zm183.38 372.96c0,-32.67 29.43,-59.15 65.72,-59.15 36.3,0 65.72,26.48 65.72,59.15 0,32.67 -29.43,59.15 -65.72,59.15 -36.3,0 -65.72,-26.48 -65.72,-59.15zm58.28 130.7c36.3,0 65.72,26.48 65.72,59.15 0,32.67 -29.43,59.15 -65.72,59.15 -36.3,0 -65.72,-26.48 -65.72,-59.15 0,-32.67 29.43,-59.15 65.72,-59.15zm-373.22 -751.85c36.3,0 65.72,26.48 65.72,59.15 0,32.67 -29.43,59.15 -65.72,59.15 -36.3,0 -65.72,-26.48 -65.72,-59.15 0,-32.67 29.43,-59.15 65.72,-59.15zm124.11 438.04c0,-32.67 29.43,-59.15 65.72,-59.15 36.3,0 65.72,26.48 65.72,59.15 0,32.67 -29.43,59.15 -65.72,59.15 -36.3,0 -65.72,-26.48 -65.72,-59.15zm5.74 187.27c0,-32.67 29.43,-59.15 65.72,-59.15 36.3,0 65.72,26.48 65.72,59.15 0,32.67 -29.43,59.15 -65.72,59.15 -36.3,0 -65.72,-26.48 -65.72,-59.15zm58.28 130.7c36.3,0 65.72,26.48 65.72,59.15 0,32.67 -29.43,59.15 -65.72,59.15 -36.3,0 -65.72,-26.48 -65.72,-59.15 0,-32.67 29.43,-59.15 65.72,-59.15zm-248.67 -509.93c0,-32.67 29.43,-59.15 65.72,-59.15 36.3,0 65.72,26.48 65.72,59.15 0,32.67 -29.43,59.15 -65.72,59.15 -36.3,0 -65.72,-26.48 -65.72,-59.15zm-7.44 189.85c0,-32.67 29.43,-59.15 65.72,-59.15 36.3,0 65.72,26.48 65.72,59.15 0,32.67 -29.43,59.15 -65.72,59.15 -36.3,0 -65.72,-26.48 -65.72,-59.15zm71.46 128.12c36.3,0 65.72,26.48 65.72,59.15 0,32.67 -29.43,59.15 -65.72,59.15 -36.3,0 -65.72,-26.48 -65.72,-59.15 0,-32.67 29.43,-59.15 65.72,-59.15zm-7.44 189.85c36.3,0 65.72,26.48 65.72,59.15 0,32.67 -29.43,59.15 -65.72,59.15 -36.3,0 -65.72,-26.48 -65.72,-59.15 0,-32.67 29.43,-59.15 65.72,-59.15zm1142.64 2.6c36.3,0 65.72,26.48 65.72,59.15 0,32.67 -29.43,59.15 -65.72,59.15 -36.3,0 -65.72,-26.48 -65.72,-59.15 0,-32.67 29.43,-59.15 65.72,-59.15zm7.44 -189.85c36.3,0 65.72,26.48 65.72,59.15 0,32.67 -29.43,59.15 -65.72,59.15 -36.3,0 -65.72,-26.48 -65.72,-59.15 0,-32.67 29.43,-59.15 65.72,-59.15zm-5.74 -187.27c36.3,0 65.72,26.48 65.72,59.15 0,32.67 -29.43,59.15 -65.72,59.15 -36.3,0 -65.72,-26.48 -65.72,-59.15 0,-32.67 29.43,-59.15 65.72,-59.15zm7.44 -189.85c36.3,0 65.72,26.48 65.72,59.15 0,32.67 -29.43,59.15 -65.72,59.15 -36.3,0 -65.72,-26.48 -65.72,-59.15 0,-32.67 29.43,-59.15 65.72,-59.15zm-5.18 -186.92c36.3,0 65.72,26.48 65.72,59.15 0,32.67 -29.43,59.15 -65.72,59.15 -36.3,0 -65.72,-26.48 -65.72,-59.15 0,-32.67 29.43,-59.15 65.72,-59.15zm-58.28 -130.7c0,-32.67 29.43,-59.15 65.72,-59.15 36.3,0 65.72,26.48 65.72,59.15 0,32.67 -29.43,59.15 -65.72,59.15 -36.3,0 -65.72,-26.48 -65.72,-59.15zm-5.74 -187.27c0,-32.67 29.43,-59.15 65.72,-59.15 36.3,0 65.72,26.48 65.72,59.15 0,32.67 -29.43,59.15 -65.72,59.15 -36.3,0 -65.72,-26.48 -65.72,-59.15zm-692.3 -135.33c-36.3,0 -65.72,-26.48 -65.72,-59.15 0,-32.67 29.43,-59.15 65.72,-59.15 36.3,0 65.72,26.48 65.72,59.15 0,32.67 -29.43,59.15 -65.72,59.15zm203.19 10.82c-36.3,0 -65.72,-26.48 -65.72,-59.15 0,-32.67 29.43,-59.15 65.72,-59.15 36.3,0 65.72,26.48 65.72,59.15 0,32.67 -29.43,59.15 -65.72,59.15zm185.09 -4.15c-36.3,0 -65.72,-26.48 -65.72,-59.15 0,-32.67 29.43,-59.15 65.72,-59.15 36.3,0 65.72,26.48 65.72,59.15 0,32.67 -29.43,59.15 -65.72,59.15zm126.38 -57.03c0,-32.67 29.43,-59.15 65.72,-59.15 36.3,0 65.72,26.48 65.72,59.15 0,32.67 -29.43,59.15 -65.72,59.15 -36.3,0 -65.72,-26.48 -65.72,-59.15zm185.09 -4.15c0,-32.67 29.43,-59.15 65.72,-59.15 36.3,0 65.72,26.48 65.72,59.15 0,32.67 -29.43,59.15 -65.72,59.15 -36.3,0 -65.72,-26.48 -65.72,-59.15zm-1076.92 56.55c-36.3,0 -65.72,-26.48 -65.72,-59.15 0,-32.67 29.43,-59.15 65.72,-59.15 36.3,0 65.72,26.48 65.72,59.15 0,32.67 -29.43,59.15 -65.72,59.15zm126.38 -57.03c0,-32.67 29.43,-59.15 65.72,-59.15 36.3,0 65.72,26.48 65.72,59.15 0,32.67 -29.43,59.15 -65.72,59.15 -36.3,0 -65.72,-26.48 -65.72,-59.15zm-315.43 696.77c36.3,0 65.72,26.48 65.72,59.15 0,32.67 -29.43,59.15 -65.72,59.15 -36.3,0 -65.72,-26.48 -65.72,-59.15 0,-32.67 29.43,-59.15 65.72,-59.15zm-7.44 189.85c36.3,0 65.72,26.48 65.72,59.15 0,32.67 -29.43,59.15 -65.72,59.15 -36.3,0 -65.72,-26.48 -65.72,-59.15 0,-32.67 29.43,-59.15 65.72,-59.15zm5.74 187.27c36.3,0 65.72,26.48 65.72,59.15 0,32.67 -29.43,59.15 -65.72,59.15 -36.3,0 -65.72,-26.48 -65.72,-59.15 0,-32.67 29.43,-59.15 65.72,-59.15zm-7.44 189.85c36.3,0 65.72,26.48 65.72,59.15 0,32.67 -29.43,59.15 -65.72,59.15 -36.3,0 -65.72,-26.48 -65.72,-59.15 0,-32.67 29.43,-59.15 65.72,-59.15zm11.41 -943.73c36.3,0 65.72,26.48 65.72,59.15 0,32.67 -29.43,59.15 -65.72,59.15 -36.3,0 -65.72,-26.48 -65.72,-59.15 0,-32.67 29.43,-59.15 65.72,-59.15zm-7.44 189.85c36.3,0 65.72,26.48 65.72,59.15 0,32.67 -29.43,59.15 -65.72,59.15 -36.3,0 -65.72,-26.48 -65.72,-59.15 0,-32.67 29.43,-59.15 65.72,-59.15zm1.7 -377.12c36.3,0 65.72,26.48 65.72,59.15 0,32.67 -29.43,59.15 -65.72,59.15 -36.3,0 -65.72,-26.48 -65.72,-59.15 0,-32.67 29.43,-59.15 65.72,-59.15zm73.16 -130.7c0,32.67 -29.43,59.15 -65.72,59.15 -36.3,0 -65.72,-26.48 -65.72,-59.15 0,-32.67 29.43,-59.15 65.72,-59.15 36.3,0 65.72,26.48 65.72,59.15z"/>
 </g>
</svg>
