<?xml version="1.0" encoding="UTF-8" standalone="no"?>
<svg width="35.9833mm" height="26.4583mm"
 viewBox="0 0 102 74.069"
 xmlns="http://www.w3.org/2000/svg" xmlns:xlink="http://www.w3.org/1999/xlink"  version="1.2" baseProfile="tiny">
<title>FlowReactor</title>
<desc>Chemunited component figure exported without name or port labels.</desc>
<defs>
</defs>
<g fill="none" stroke="black" stroke-width="1" fill-rule="evenodd" stroke-linecap="square" stroke-linejoin="bevel" >

<g fill="none" stroke="#000000" stroke-opacity="1" stroke-width="1" stroke-linecap="square" stroke-linejoin="bevel" transform="matrix(1,0,0,1,0,0)"
font-family="MS Shell Dlg 2" font-size="8.25" font-weight="400" font-style="normal" 
>
</g>

<g fill="none" stroke="#000000" stroke-opacity="1" stroke-width="1" stroke-linecap="square" stroke-linejoin="bevel" transform="matrix(1,0,0,1,0,0)"
font-family="MS Shell Dlg 2" font-size="8.25" font-weight="400" font-style="normal" 
>
</g>

<g fill="none" stroke="#000000" stroke-opacity="1" stroke-width="1" stroke-linecap="square" stroke-linejoin="bevel" transform="matrix(0.344828,0,0,0.344828,1,1)"
font-family="MS Shell Dlg 2" font-size="8.25" font-weight="400" font-style="normal" 
>
</g>

<g fill="#e8e8e8" fill-opacity="1" stroke="none" transform="matrix(0.0309677,0,0,0.0310253,1,1)"
font-family="MS Shell Dlg 2" font-size="8.25" font-weight="400" font-style="normal" 
opacity="0.501961" >
<path vector-effect="none" fill-rule="evenodd" d="M149.83,1963.55 L149.83,365.72 L337.32,178.22 L2892.99,178.22 L3080.48,365.72 L3080.48,1963.55 L2892.99,2151.04 L337.32,2151.04 L149.83,1963.55"/>
</g>

<g fill="none" stroke="#000000" stroke-opacity="1" stroke-width="10.41" stroke-linecap="butt" stroke-linejoin="miter" stroke-miterlimit="2.61313" transform="matrix(0.0309677,0,0,0.0310253,1,1)"
font-family="MS Shell Dlg 2" font-size="8.25" font-weight="400" font-style="normal" 
opacity="0.501961" >
<path vector-effect="none" fill-rule="evenodd" d="M149.83,1963.55 L149.83,365.72 L337.32,178.22 L2892.99,178.22 L3080.48,365.72 L3080.48,1963.55 L2892.99,2151.04 L337.32,2151.04 L149.83,1963.55"/>
</g>

<g fill="none" stroke="#000000" stroke-opacity="1" stroke-width="1" stroke-linecap="square" stroke-linejoin="bevel" transform="matrix(0.344828,0,0,0.344828,1,1)"
font-family="MS Shell Dlg 2" font-size="8.25" font-weight="400" font-style="normal" 
>
</g>

<g fill="none" stroke="#000000" stroke-opacity="1" stroke-width="1" stroke-linecap="square" stroke-linejoin="bevel" transform="matrix(1,0,0,1,0,0)"
font-family="MS Shell Dlg 2" font-size="8.25" font-weight="400" font-style="normal" 
>
</g>

<g fill="none" stroke="#000000" stroke-opacity="1" stroke-width="2" stroke-linecap="round" stroke-linejoin="round" transform="matrix(1,0,0,1,51,37.0345)"
font-family="MS Shell Dlg 2" font-size="8.25" font-weight="400" font-style="normal" 
>
<path vector-effect="none" fill-rule="evenodd" d="M-10,6.12323e-16 L-9.97945,-0.640702 L-9.9179,-1.27877 L-9.81559,-1.91159 L-9.67295,-2.53655 L-9.49056,-3.15108 L-9.26917,-3.75267 L-9.00969,-4.33884 L-8.71319,-4.90718 L-8.38088,-5.45535 L-8.01414,-5.98111 L-7.61446,-6.48228 L-7.18349,-6.95683 L-6.72301,-7.40278 L-6.2349,-7.81831 L-5.72117,-8.20172 L-5.18393,-8.55143 L-4.62538,-8.86599 L-4.04783,-9.14413 L-3.45365,-9.38468 L-2.84528,-9.58668 L-2.22521,-9.74928 L-1.596,-9.87182 L-0.96023,-9.95379 L-0.320516,-9.99486 L0.320516,-9.99486 L0.96023,-9.95379 L1.596,-9.87182 L2.22521,-9.74928 L2.84528,-9.58668 L3.45365,-9.38468 L4.04783,-9.14413 L4.62538,-8.86599 L5.18393,-8.55143 L5.72117,-8.20172 L6.2349,-7.81831 L6.72301,-7.40278 L7.18349,-6.95683 L7.61446,-6.48228 L8.01414,-5.98111 L8.38088,-5.45535 L8.71319,-4.90718 L9.00969,-4.33884 L9.26917,-3.75267 L9.49056,-3.15108 L9.67295,-2.53655 L9.81559,-1.91159 L9.9179,-1.27877 L9.97945,-0.640702 L10,-1.83697e-15"/>
</g>

<g fill="none" stroke="#000000" stroke-opacity="1" stroke-width="1" stroke-linecap="square" stroke-linejoin="bevel" transform="matrix(1,0,0,1,0,0)"
font-family="MS Shell Dlg 2" font-size="8.25" font-weight="400" font-style="normal" 
>
</g>

<g fill="#1f2937" fill-opacity="1" stroke="#000000" stroke-opacity="0" stroke-width="1" stroke-linecap="square" stroke-linejoin="bevel" transform="matrix(1,0,0,1,50,37.0345)"
font-family="MS Shell Dlg 2" font-size="8.25" font-weight="400" font-style="normal" 
>
<circle cx="0" cy="0" r="3"/>
</g>

<g fill="none" stroke="#1f2937" stroke-opacity="1" stroke-width="1" stroke-linecap="square" stroke-linejoin="bevel" transform="matrix(1,0,0,1,50,37.0345)"
font-family="MS Shell Dlg 2" font-size="8.25" font-weight="400" font-style="normal" 
>
<path vector-effect="none" fill-rule="evenodd" d="M5,0 C5,-2.76142 2.76142,-5 0,-5 C-2.76142,-5 -5,-2.76142 -5,0 C-5,2.76142 -2.76142,5 0,5 "/>
</g>

<g fill="none" stroke="#000000" stroke-opacity="1" stroke-width="1" stroke-linecap="square" stroke-linejoin="bevel" transform="matrix(1,0,0,1,0,0)"
font-family="MS Shell Dlg 2" font-size="8.25" font-weight="400" font-style="normal" 
>
</g>

<g fill="#1f2937" fill-opacity="1" stroke="#000000" stroke-opacity="0" stroke-width="1" stroke-linecap="square" stroke-linejoin="bevel" transform="matrix(1,0,0,1,52,37.0345)"
font-family="MS Shell Dlg 2" font-size="8.25" font-weight="400" font-style="normal" 
>
<circle cx="0" cy="0" r="3"/>
</g>

<g fill="none" stroke="#1f2937" stroke-opacity="1" stroke-width="1" stroke-linecap="square" stroke-linejoin="bevel" transform="matrix(1,0,0,1,52,37.0345)"
font-family="MS Shell Dlg 2" font-size="8.25" font-weight="400" font-style="normal" 
>
<path vector-effect="none" fill-rule="evenodd" d="M5,0 C5,-2.76142 2.76142,-5 0,-5 C-2.76142,-5 -5,-2.76142 -5,0 C-5,2.76142 -2.76142,5 0,5 "/>
</g>

<g fill="none" stroke="#000000" stroke-opacity="1" stroke-width="1" stroke-linecap="square" stroke-linejoin="bevel" transform="matrix(1,0,0,1,0,0)"
font-family="MS Shell Dlg 2" font-size="8.25" font-weight="400" font-style="normal" 
>
</g>
</g>
</svg>
