<?xml version="1.0" encoding="UTF-8"?>
<!DOCTYPE svg PUBLIC "-//W3C//DTD SVG 1.1//EN" "http://www.w3.org/Graphics/SVG/1.1/DTD/svg11.dtd">
<!-- Creator: CorelDRAW -->
<svg xmlns="http://www.w3.org/2000/svg" xml:space="preserve" width="2.32291in" height="3.85417in" version="1.1" style="shape-rendering:geometricPrecision; text-rendering:geometricPrecision; image-rendering:optimizeQuality; fill-rule:evenodd; clip-rule:evenodd"
viewBox="0 0 2322.91 3854.17"
 xmlns:xlink="http://www.w3.org/1999/xlink"
 xmlns:xodm="http://www.corel.com/coreldraw/odm/2003">
 <defs>
  <style type="text/css">
   <![CDATA[
    .str0 {stroke:black;stroke-width:10.41;stroke-miterlimit:2.61313}
    .str1 {stroke:#033180;stroke-width:41.67;stroke-miterlimit:2.61313}
    .str2 {stroke:black;stroke-width:20.83;stroke-miterlimit:2.61313}
    .fil0 {fill:none}
    .fil1 {fill:#6575B7}
   ]]>
  </style>
 </defs>
 <g id="Layer_x0020_1">
  <metadata id="CorelCorpID_0Corel-Layer"/>
  <rect class="fil0 str0" x="113.49" y="124.76" width="2083.33" height="3735.71" rx="520.83" ry="879.15"/>
  <rect class="fil1 str0" x="-1.55" y="7.19" width="2313.41" height="696.97" rx="70.92" ry="62.5"/>
  <line class="fil0 str1" x1="152.6" y1="102.32" x2="152.6" y2= "575.77" />
  <line class="fil0 str1" x1="256.77" y1="102.32" x2="256.77" y2= "575.77" />
  <line class="fil0 str1" x1="360.93" y1="102.32" x2="360.93" y2= "575.77" />
  <line class="fil0 str1" x1="465.1" y1="102.32" x2="465.1" y2= "575.77" />
  <line class="fil0 str1" x1="569.26" y1="102.32" x2="569.26" y2= "575.77" />
  <line class="fil0 str1" x1="673.43" y1="102.32" x2="673.43" y2= "575.77" />
  <line class="fil0 str1" x1="777.59" y1="102.32" x2="777.59" y2= "575.77" />
  <line class="fil0 str1" x1="881.76" y1="102.32" x2="881.76" y2= "575.77" />
  <line class="fil0 str1" x1="985.93" y1="102.32" x2="985.93" y2= "575.77" />
  <line class="fil0 str1" x1="1090.09" y1="102.32" x2="1090.09" y2= "575.77" />
  <line class="fil0 str1" x1="1194.26" y1="102.32" x2="1194.26" y2= "575.77" />
  <line class="fil0 str1" x1="1298.42" y1="102.32" x2="1298.42" y2= "575.77" />
  <line class="fil0 str1" x1="1402.59" y1="102.32" x2="1402.59" y2= "575.77" />
  <line class="fil0 str1" x1="1506.75" y1="102.32" x2="1506.75" y2= "575.77" />
  <line class="fil0 str1" x1="1610.92" y1="102.32" x2="1610.92" y2= "575.77" />
  <line class="fil0 str1" x1="1715.08" y1="102.32" x2="1715.08" y2= "575.77" />
  <line class="fil0 str1" x1="1819.25" y1="102.32" x2="1819.25" y2= "575.77" />
  <line class="fil0 str1" x1="1923.41" y1="102.32" x2="1923.41" y2= "575.77" />
  <line class="fil0 str1" x1="2027.58" y1="102.32" x2="2027.58" y2= "575.77" />
  <line class="fil0 str1" x1="2131.74" y1="102.32" x2="2131.74" y2= "575.77" />
  <line class="fil0 str2" x1="1539.23" y1="855.57" x2="2131.25" y2= "855.57" />
  <line class="fil0 str2" x1="1851.7" y1="959.74" x2="2131.25" y2= "959.74" />
  <line class="fil0 str2" x1="1851.7" y1="1063.9" x2="2131.25" y2= "1063.9" />
  <line class="fil0 str2" x1="1851.7" y1="1168.07" x2="2131.25" y2= "1168.07" />
  <line class="fil0 str2" x1="1851.7" y1="1272.23" x2="2131.25" y2= "1272.23" />
  <line class="fil0 str2" x1="1851.7" y1="1272.23" x2="2131.25" y2= "1272.23" />
  <line class="fil0 str2" x1="1539.23" y1="1376.4" x2="2131.25" y2= "1376.4" />
  <line class="fil0 str2" x1="1851.7" y1="1480.56" x2="2131.25" y2= "1480.56" />
  <line class="fil0 str2" x1="1851.7" y1="1584.73" x2="2131.25" y2= "1584.73" />
  <line class="fil0 str2" x1="1851.7" y1="1688.89" x2="2131.25" y2= "1688.89" />
  <line class="fil0 str2" x1="1851.7" y1="1793.06" x2="2131.25" y2= "1793.06" />
  <line class="fil0 str2" x1="1851.7" y1="1793.06" x2="2131.25" y2= "1793.06" />
  <line class="fil0 str2" x1="1539.23" y1="1897.22" x2="2131.25" y2= "1897.22" />
  <line class="fil0 str2" x1="1851.7" y1="2001.39" x2="2131.25" y2= "2001.39" />
  <line class="fil0 str2" x1="1851.7" y1="2105.56" x2="2131.25" y2= "2105.56" />
  <line class="fil0 str2" x1="1851.7" y1="2209.72" x2="2131.25" y2= "2209.72" />
  <line class="fil0 str2" x1="1851.7" y1="2313.89" x2="2131.25" y2= "2313.89" />
  <line class="fil0 str2" x1="1851.7" y1="2313.89" x2="2131.25" y2= "2313.89" />
  <line class="fil0 str2" x1="1539.23" y1="2418.05" x2="2131.25" y2= "2418.05" />
  <line class="fil0 str2" x1="1851.7" y1="2522.22" x2="2131.25" y2= "2522.22" />
  <line class="fil0 str2" x1="1851.7" y1="2626.38" x2="2131.25" y2= "2626.38" />
  <line class="fil0 str2" x1="1851.7" y1="2730.55" x2="2131.25" y2= "2730.55" />
  <line class="fil0 str2" x1="1851.7" y1="2834.71" x2="2131.25" y2= "2834.71" />
  <line class="fil0 str2" x1="1851.7" y1="2834.71" x2="2131.25" y2= "2834.71" />
  <line class="fil0 str2" x1="1539.23" y1="2938.88" x2="2131.25" y2= "2938.88" />
  <line class="fil0 str2" x1="1851.7" y1="3043.04" x2="2131.25" y2= "3043.04" />
  <line class="fil0 str2" x1="1851.7" y1="3147.21" x2="2131.25" y2= "3147.21" />
  <line class="fil0 str2" x1="1851.7" y1="3251.37" x2="2131.25" y2= "3251.37" />
  <line class="fil0 str2" x1="1851.7" y1="3355.54" x2="2131.25" y2= "3355.54" />
  <line class="fil0 str2" x1="1851.7" y1="3355.54" x2="2131.25" y2= "3355.54" />
  <line class="fil0 str2" x1="1539.23" y1="3459.7" x2="2131.25" y2= "3459.7" />
 </g>
</svg>
