<?xml version="1.0" encoding="UTF-8" standalone="no"?>
<svg width="70.5556mm" height="14.1111mm"
 viewBox="0 0 200 40"
 xmlns="http://www.w3.org/2000/svg" xmlns:xlink="http://www.w3.org/1999/xlink"  version="1.2" baseProfile="tiny">
<title>IRControl</title>
<desc>Exported ChemUnited component icon</desc>
<defs>
</defs>
<g fill="none" stroke="black" stroke-width="1" fill-rule="evenodd" stroke-linecap="square" stroke-linejoin="bevel" >

<g fill="none" stroke="#000000" stroke-opacity="1" stroke-width="1" stroke-linecap="square" stroke-linejoin="bevel" transform="matrix(1,0,0,1,0,0)"
font-family="MS Shell Dlg 2" font-size="8.25" font-weight="400" font-style="normal"
>
</g>

<g fill="none" stroke="#000000" stroke-opacity="1" stroke-width="1" stroke-linecap="square" stroke-linejoin="bevel" transform="matrix(1,0,0,1,24,0)"
font-family="MS Shell Dlg 2" font-size="8.25" font-weight="400" font-style="normal"
>
</g>

<g fill="none" stroke="#000000" stroke-opacity="1" stroke-width="1" stroke-linecap="square" stroke-linejoin="bevel" transform="matrix(1,0,0,1,24,0)"
font-family="MS Shell Dlg 2" font-size="8.25" font-weight="400" font-style="normal"
>
</g>

<g fill="none" stroke="#000000" stroke-opacity="1" stroke-width="1" stroke-linecap="square" stroke-linejoin="bevel" transform="matrix(1,0,0,1,24,0)"
font-family="MS Shell Dlg 2" font-size="8.25" font-weight="400" font-style="normal"
>
</g>

<g fill="#000000" fill-opacity="0" stroke="#1d1d1d" stroke-opacity="1" stroke-width="10" stroke-linecap="square" stroke-linejoin="bevel" transform="matrix(1,0,0,1,24,0)"
font-family="MS Shell Dlg 2" font-size="8.25" font-weight="400" font-style="normal"
>
<polyline fill="none" vector-effect="none" points="8,20 144,20 " />
</g>

<g fill="#000000" fill-opacity="0" stroke="#272727" stroke-opacity="1" stroke-width="4" stroke-linecap="square" stroke-linejoin="bevel" transform="matrix(1,0,0,1,24,0)"
font-family="MS Shell Dlg 2" font-size="8.25" font-weight="400" font-style="normal"
>
<polyline fill="none" vector-effect="none" points="0,20 160,20 " />
</g>

<g fill="#828282" fill-opacity="1" stroke="#1d1d1d" stroke-opacity="1" stroke-width="2" stroke-linecap="square" stroke-linejoin="bevel" transform="matrix(1,0,0,1,24,0)"
font-family="MS Shell Dlg 2" font-size="8.25" font-weight="400" font-style="normal"
>
<path vector-effect="none" fill-rule="evenodd" d="M0,1 C0,0.447715 0.447715,0 1,0 L7,0 C7.55228,0 8,0.447715 8,1 L8,39 C8,39.5523 7.55228,40 7,40 L1,40 C0.447715,40 0,39.5523 0,39 L0,1"/>
<path vector-effect="none" fill-rule="evenodd" d="M144,1 C144,0.447715 144.448,0 145,0 L151,0 C151.552,0 152,0.447715 152,1 L152,39 C152,39.5523 151.552,40 151,40 L145,40 C144.448,40 144,39.5523 144,39 L144,1"/>
</g>

<g fill="none" stroke="#000000" stroke-opacity="1" stroke-width="1" stroke-linecap="square" stroke-linejoin="bevel" transform="matrix(1,0,0,1,24,0)"
font-family="MS Shell Dlg 2" font-size="8.25" font-weight="400" font-style="normal"
>
</g>

<g fill="none" stroke="#000000" stroke-opacity="1" stroke-width="1" stroke-linecap="square" stroke-linejoin="bevel" transform="matrix(1,0,0,1,136,12)"
font-family="MS Shell Dlg 2" font-size="8.25" font-weight="400" font-style="normal"
>
</g>

<g fill="#828282" fill-opacity="1" stroke="#1d1d1d" stroke-opacity="1" stroke-width="2" stroke-linecap="square" stroke-linejoin="bevel" transform="matrix(1,0,0,1,136,12)"
font-family="MS Shell Dlg 2" font-size="8.25" font-weight="400" font-style="normal"
>
<path vector-effect="none" fill-rule="evenodd" d="M0,0 L0,16 L6.4,16 L6.4,12.8 C14.72,19.2 24.96,19.2 32,11.2 L32,4.8 C24.96,-3.2 14.72,-3.2 6.4,3.2 L6.4,0 L0,0"/>
</g>

<g fill="none" stroke="#000000" stroke-opacity="1" stroke-width="1" stroke-linecap="square" stroke-linejoin="bevel" transform="matrix(1,0,0,1,136,12)"
font-family="MS Shell Dlg 2" font-size="8.25" font-weight="400" font-style="normal"
>
</g>

<g fill="none" stroke="#000000" stroke-opacity="1" stroke-width="1" stroke-linecap="square" stroke-linejoin="bevel" transform="matrix(-1,0,0,-1,64,28)"
font-family="MS Shell Dlg 2" font-size="8.25" font-weight="400" font-style="normal"
>
</g>

<g fill="#828282" fill-opacity="1" stroke="#1d1d1d" stroke-opacity="1" stroke-width="2" stroke-linecap="square" stroke-linejoin="bevel" transform="matrix(-1,0,0,-1,64,28)"
font-family="MS Shell Dlg 2" font-size="8.25" font-weight="400" font-style="normal"
>
<path vector-effect="none" fill-rule="evenodd" d="M0,0 L0,16 L6.4,16 L6.4,12.8 C14.72,19.2 24.96,19.2 32,11.2 L32,4.8 C24.96,-3.2 14.72,-3.2 6.4,3.2 L6.4,0 L0,0"/>
</g>

<g fill="none" stroke="#000000" stroke-opacity="1" stroke-width="1" stroke-linecap="square" stroke-linejoin="bevel" transform="matrix(-1,0,0,-1,64,28)"
font-family="MS Shell Dlg 2" font-size="8.25" font-weight="400" font-style="normal"
>
</g>

<g fill="none" stroke="#000000" stroke-opacity="1" stroke-width="1" stroke-linecap="square" stroke-linejoin="bevel" transform="matrix(1,0,0,1,66,14)"
font-family="MS Shell Dlg 2" font-size="8.25" font-weight="400" font-style="normal"
>
</g>

<g fill="#ff0000" fill-opacity="1" stroke="#ff0000" stroke-opacity="1" stroke-width="1" stroke-linecap="square" stroke-linejoin="bevel" transform="matrix(1,0,0,1,66,14)"
font-family="MS Shell Dlg 2" font-size="8.25" font-weight="400" font-style="normal"
>
<path vector-effect="none" fill-rule="evenodd" d="M0,0 L0,-3.26594 L0.686869,-3.64627 L1.37374,-3.65052 L2.06061,-3.28851 L2.74747,-2.6917 L3.43434,-2.05881 L4.12121,-1.61229 L4.80808,-1.73664 L5.49495,-3.50224 L6.18182,-7.98926 L6.86869,-11.9 L7.55556,-9.85085 L8.24242,-4.70777 L8.92929,-1.65992 L9.61616,-0.684207 L10.303,-0.407023 L10.9899,-0.306349 L11.6768,-0.265439 L12.3636,-0.255855 L13.0505,-0.270265 L13.7374,-0.3111 L14.4242,-0.392111 L15.1111,-0.55391 L15.798,-0.917318 L16.4848,-1.79897 L17.1717,-3.72838 L17.8586,-6.83815 L18.5455,-9.77876 L19.2323,-10.2923 L19.9192,-7.91385 L20.6061,-4.62123 L21.2929,-2.2655 L21.9798,-1.0983 L22.6667,-0.607141 L23.3535,-0.390399 L24.0404,-0.277778 L24.7273,-0.210144 L25.4141,-0.165566 L26.101,-0.134344 L26.7879,-0.111504 L27.4747,-0.0942309 L28.1616,-0.0808166 L28.8485,-0.0701701 L29.5354,-0.0615655 L30.2222,-0.0545026 L30.9091,-0.0486275 L31.596,-0.0436832 L32.2828,-0.0394796 L32.9697,-0.0358732 L33.6566,-0.032754 L34.3434,-0.0300365 L35.0303,-0.0276533 L35.7172,-0.0255509 L36.404,-0.023686 L37.0909,-0.0220236 L37.7778,-0.0205348 L38.4646,-0.0191959 L39.1515,-0.0179871 L39.8384,-0.0168918 L40.5253,-0.015896 L41.2121,-0.0149877 L41.899,-0.014157 L42.5859,-0.0133949 L43.2727,-0.0126941 L43.9596,-0.0120481 L44.6465,-0.0114512 L45.3333,-0.0108984 L46.0202,-0.0103855 L46.7071,-0.00990873 L47.3939,-0.00946463 L48.0808,-0.00905028 L48.7677,-0.00866304 L49.4545,-0.00830057 L50.1414,-0.00796077 L50.8283,-0.00764176 L51.5152,-0.00734186 L52.202,-0.00705955 L52.8889,-0.00679347 L53.5758,-0.00654239 L54.2626,-0.00630518 L54.9495,-0.00608082 L55.6364,-0.0058684 L56.3232,-0.00566707 L57.0101,-0.00547607 L57.697,-0.00529469 L58.3838,-0.00512229 L59.0707,-0.00495829 L59.7576,-0.00480213 L60.4444,-0.00465333 L61.1313,-0.00451141 L61.8182,-0.00437597 L62.5051,-0.00424661 L63.1919,-0.00412296 L63.8788,-0.00400469 L64.5657,-0.0038915 L65.2525,-0.00378309 L65.9394,-0.00367919 L66.6263,-0.00357956 L67.3131,-0.00348396 L68,-0.00339217 L68,0 L0,0"/>
</g>

<g fill="none" stroke="#000000" stroke-opacity="1" stroke-width="1" stroke-linecap="square" stroke-linejoin="bevel" transform="matrix(1,0,0,1,66,14)"
font-family="MS Shell Dlg 2" font-size="8.25" font-weight="400" font-style="normal"
>
</g>

<g fill="none" stroke="#000000" stroke-opacity="1" stroke-width="1" stroke-linecap="square" stroke-linejoin="bevel" transform="matrix(1,0,0,1,24,12)"
font-family="MS Shell Dlg 2" font-size="8.25" font-weight="400" font-style="normal"
>
</g>

<g fill="#f9f9f9" fill-opacity="1" stroke="#000000" stroke-opacity="0" stroke-width="1" stroke-linecap="square" stroke-linejoin="bevel" transform="matrix(1,0,0,1,24,12)"
font-family="MS Shell Dlg 2" font-size="8.25" font-weight="400" font-style="normal"
>
<circle cx="0" cy="0" r="3"/>
</g>

<g fill="none" stroke="#f9f9f9" stroke-opacity="1" stroke-width="1" stroke-linecap="square" stroke-linejoin="bevel" transform="matrix(1,0,0,1,24,12)"
font-family="MS Shell Dlg 2" font-size="8.25" font-weight="400" font-style="normal"
>
<path vector-effect="none" fill-rule="evenodd" d="M4,0 C4,-2.20914 2.20914,-4 0,-4 C-2.20914,-4 -4,-2.20914 -4,0 C-4,2.20914 -2.20914,4 0,4 "/>
</g>

<g fill="none" stroke="#000000" stroke-opacity="1" stroke-width="1" stroke-linecap="square" stroke-linejoin="bevel" transform="matrix(1,0,0,1,24,12)"
font-family="MS Shell Dlg 2" font-size="8.25" font-weight="400" font-style="normal"
>
</g>

<g fill="none" stroke="#000000" stroke-opacity="1" stroke-width="1" stroke-linecap="square" stroke-linejoin="bevel" transform="matrix(1,0,0,1,176,20)"
font-family="MS Shell Dlg 2" font-size="8.25" font-weight="400" font-style="normal"
>
</g>

<g fill="#f9f9f9" fill-opacity="1" stroke="#000000" stroke-opacity="0" stroke-width="1" stroke-linecap="square" stroke-linejoin="bevel" transform="matrix(1,0,0,1,176,20)"
font-family="MS Shell Dlg 2" font-size="8.25" font-weight="400" font-style="normal"
>
<circle cx="0" cy="0" r="3"/>
</g>

<g fill="none" stroke="#f9f9f9" stroke-opacity="1" stroke-width="1" stroke-linecap="square" stroke-linejoin="bevel" transform="matrix(1,0,0,1,176,20)"
font-family="MS Shell Dlg 2" font-size="8.25" font-weight="400" font-style="normal"
>
<path vector-effect="none" fill-rule="evenodd" d="M4,0 C4,-2.20914 2.20914,-4 0,-4 C-2.20914,-4 -4,-2.20914 -4,0 C-4,2.20914 -2.20914,4 0,4 "/>
</g>

<g fill="none" stroke="#000000" stroke-opacity="1" stroke-width="1" stroke-linecap="square" stroke-linejoin="bevel" transform="matrix(1,0,0,1,176,20)"
font-family="MS Shell Dlg 2" font-size="8.25" font-weight="400" font-style="normal"
>
</g>

<g fill="none" stroke="#000000" stroke-opacity="1" stroke-width="1" stroke-linecap="square" stroke-linejoin="bevel" transform="matrix(1,0,0,1,0,0)"
font-family="MS Shell Dlg 2" font-size="8.25" font-weight="400" font-style="normal"
>
</g>
</g>
</svg>
