<?xml version="1.0" encoding="UTF-8" standalone="no"?>
<svg width="70.5556mm" height="14.1111mm"
 viewBox="0 0 200 40"
 xmlns="http://www.w3.org/2000/svg" xmlns:xlink="http://www.w3.org/1999/xlink"  version="1.2" baseProfile="tiny">
<title>IRControl</title>
<desc>Exported ChemUnited component icon</desc>
<defs>
</defs>
<g fill="none" stroke="black" stroke-width="1" fill-rule="evenodd" stroke-linecap="square" stroke-linejoin="bevel" >

<g fill="none" stroke="#000000" stroke-opacity="1" stroke-width="1" stroke-linecap="square" stroke-linejoin="bevel" transform="matrix(1,0,0,1,0,0)"
font-family="MS Shell Dlg 2" font-size="8.25" font-weight="400" font-style="normal"
>
</g>

<g fill="none" stroke="#000000" stroke-opacity="1" stroke-width="1" stroke-linecap="square" stroke-linejoin="bevel" transform="matrix(1,0,0,1,24,0)"
font-family="MS Shell Dlg 2" font-size="8.25" font-weight="400" font-style="normal"
>
</g>

<g fill="none" stroke="#000000" stroke-opacity="1" stroke-width="1" stroke-linecap="square" stroke-linejoin="bevel" transform="matrix(1,0,0,1,24,0)"
font-family="MS Shell Dlg 2" font-size="8.25" font-weight="400" font-style="normal"
>
</g>

<g fill="none" stroke="#000000" stroke-opacity="1" stroke-width="1" stroke-linecap="square" stroke-linejoin="bevel" transform="matrix(1,0,0,1,24,0)"
font-family="MS Shell Dlg 2" font-size="8.25" font-weight="400" font-style="normal"
>
</g>

<g fill="#000000" fill-opacity="0" stroke="#c8c8c8" stroke-opacity="1" stroke-width="10" stroke-linecap="square" stroke-linejoin="bevel" transform="matrix(1,0,0,1,24,0)"
font-family="MS Shell Dlg 2" font-size="8.25" font-weight="400" font-style="normal"
>
<polyline fill="none" vector-effect="none" points="8,20 144,20 " />
</g>

<g fill="#000000" fill-opacity="0" stroke="#f9f9f9" stroke-opacity="1" stroke-width="4" stroke-linecap="square" stroke-linejoin="bevel" transform="matrix(1,0,0,1,24,0)"
font-family="MS Shell Dlg 2" font-size="8.25" font-weight="400" font-style="normal"
>
<polyline fill="none" vector-effect="none" points="0,20 160,20 " />
</g>

<g fill="#828282" fill-opacity="1" stroke="#c8c8c8" stroke-opacity="1" stroke-width="2" stroke-linecap="square" stroke-linejoin="bevel" transform="matrix(1,0,0,1,24,0)"
font-family="MS Shell Dlg 2" font-size="8.25" font-weight="400" font-style="normal"
>
<path vector-effect="none" fill-rule="evenodd" d="M0,1 C0,0.447715 0.447715,0 1,0 L7,0 C7.55228,0 8,0.447715 8,1 L8,39 C8,39.5523 7.55228,40 7,40 L1,40 C0.447715,40 0,39.5523 0,39 L0,1"/>
<path vector-effect="none" fill-rule="evenodd" d="M144,1 C144,0.447715 144.448,0 145,0 L151,0 C151.552,0 152,0.447715 152,1 L152,39 C152,39.5523 151.552,40 151,40 L145,40 C144.448,40 144,39.5523 144,39 L144,1"/>
</g>

<g fill="none" stroke="#000000" stroke-opacity="1" stroke-width="1" stroke-linecap="square" stroke-linejoin="bevel" transform="matrix(1,0,0,1,24,0)"
font-family="MS Shell Dlg 2" font-size="8.25" font-weight="400" font-style="normal"
>
</g>

<g fill="none" stroke="#000000" stroke-opacity="1" stroke-width="1" stroke-linecap="square" stroke-linejoin="bevel" transform="matrix(1,0,0,1,136,12)"
font-family="MS Shell Dlg 2" font-size="8.25" font-weight="400" font-style="normal"
>
</g>

<g fill="#828282" fill-opacity="1" stroke="#c8c8c8" stroke-opacity="1" stroke-width="2" stroke-linecap="square" stroke-linejoin="bevel" transform="matrix(1,0,0,1,136,12)"
font-family="MS Shell Dlg 2" font-size="8.25" font-weight="400" font-style="normal"
>
<path vector-effect="none" fill-rule="evenodd" d="M0,0 L0,16 L6.4,16 L6.4,12.8 C14.72,19.2 24.96,19.2 32,11.2 L32,4.8 C24.96,-3.2 14.72,-3.2 6.4,3.2 L6.4,0 L0,0"/>
</g>

<g fill="none" stroke="#000000" stroke-opacity="1" stroke-width="1" stroke-linecap="square" stroke-linejoin="bevel" transform="matrix(1,0,0,1,136,12)"
font-family="MS Shell Dlg 2" font-size="8.25" font-weight="400" font-style="normal"
>
</g>

<g fill="none" stroke="#000000" stroke-opacity="1" stroke-width="1" stroke-linecap="square" stroke-linejoin="bevel" transform="matrix(-1,0,0,-1,64,28)"
font-family="MS Shell Dlg 2" font-size="8.25" font-weight="400" font-style="normal"
>
</g>

<g fill="#828282" fill-opacity="1" stroke="#c8c8c8" stroke-opacity="1" stroke-width="2" stroke-linecap="square" stroke-linejoin="bevel" transform="matrix(-1,0,0,-1,64,28)"
font-family="MS Shell Dlg 2" font-size="8.25" font-weight="400" font-style="normal"
>
<path vector-effect="none" fill-rule="evenodd" d="M0,0 L0,16 L6.4,16 L6.4,12.8 C14.72,19.2 24.96,19.2 32,11.2 L32,4.8 C24.96,-3.2 14.72,-3.2 6.4,3.2 L6.4,0 L0,0"/>
</g>

<g fill="none" stroke="#000000" stroke-opacity="1" stroke-width="1" stroke-linecap="square" stroke-linejoin="bevel" transform="matrix(-1,0,0,-1,64,28)"
font-family="MS Shell Dlg 2" font-size="8.25" font-weight="400" font-style="normal"
>
</g>

<g fill="none" stroke="#000000" stroke-opacity="1" stroke-width="1" stroke-linecap="square" stroke-linejoin="bevel" transform="matrix(1,0,0,1,66,14)"
font-family="MS Shell Dlg 2" font-size="8.25" font-weight="400" font-style="normal"
>
</g>

<g fill="#ff0000" fill-opacity="1" stroke="#ff0000" stroke-opacity="1" stroke-width="1" stroke-linecap="square" stroke-linejoin="bevel" transform="matrix(1,0,0,1,66,14)"
font-family="MS Shell Dlg 2" font-size="8.25" font-weight="400" font-style="normal"
>
<path vector-effect="none" fill-rule="evenodd" d="M0,0 L0,-0.136812 L0.686869,-0.185292 L1.37374,-0.270456 L2.06061,-0.453402 L2.74747,-1.00412 L3.43434,-2.92119 L4.12121,-7.48313 L4.80808,-11.9 L5.49495,-10.4093 L6.18182,-5.16923 L6.86869,-1.80682 L7.55556,-0.686846 L8.24242,-0.365282 L8.92929,-0.242387 L9.61616,-0.180601 L10.303,-0.145239 L10.9899,-0.123872 L11.6768,-0.11094 L12.3636,-0.103664 L13.0505,-0.100604 L13.7374,-0.101058 L14.4242,-0.104806 L15.1111,-0.112022 L15.798,-0.123292 L16.4848,-0.139743 L17.1717,-0.163349 L17.8586,-0.197586 L18.5455,-0.248921 L19.2323,-0.330735 L19.9192,-0.475614 L20.6061,-0.77598 L21.2929,-1.48707 L21.9798,-3.11413 L22.6667,-6.02348 L23.3535,-9.32935 L24.0404,-10.7612 L24.7273,-9.10909 L25.4141,-5.92133 L26.101,-3.45129 L26.7879,-2.43025 L27.4747,-2.42725 L28.1616,-2.88884 L28.8485,-3.43609 L29.5354,-3.80417 L30.2222,-3.82618 L30.9091,-3.46639 L31.596,-2.82194 L32.2828,-2.06649 L32.9697,-1.36747 L33.6566,-0.826065 L34.3434,-0.465007 L35.0303,-0.2536 L35.7172,-0.142683 L36.404,-0.0889065 L37.0909,-0.0634774 L37.7778,-0.0507146 L38.4646,-0.0433107 L39.1515,-0.0382414 L39.8384,-0.0343358 L40.5253,-0.0311315 L41.2121,-0.02842 L41.899,-0.0260856 L42.5859,-0.0240528 L43.2727,-0.0222668 L43.9596,-0.0206862 L44.6465,-0.0192785 L45.3333,-0.0180179 L46.0202,-0.0168836 L46.7071,-0.0158583 L47.3939,-0.0149281 L48.0808,-0.0140809 L48.7677,-0.0133068 L49.4545,-0.0125973 L50.1414,-0.0119453 L50.8283,-0.0113444 L51.5152,-0.0107893 L52.202,-0.0102753 L52.8889,-0.00979844 L53.5758,-0.00935501 L54.2626,-0.00894192 L54.9495,-0.00855639 L55.6364,-0.00819598 L56.3232,-0.00785849 L57.0101,-0.00754199 L57.697,-0.00724472 L58.3838,-0.00696513 L59.0707,-0.00670182 L59.7576,-0.00645352 L60.4444,-0.0062191 L61.1313,-0.00599751 L61.8182,-0.00578782 L62.5051,-0.00558917 L63.1919,-0.0054008 L63.8788,-0.005222 L64.5657,-0.00505211 L65.2525,-0.00489054 L65.9394,-0.00473676 L66.6263,-0.00459025 L67.3131,-0.00445056 L68,-0.00431728 L68,0 L0,0"/>
</g>

<g fill="none" stroke="#000000" stroke-opacity="1" stroke-width="1" stroke-linecap="square" stroke-linejoin="bevel" transform="matrix(1,0,0,1,66,14)"
font-family="MS Shell Dlg 2" font-size="8.25" font-weight="400" font-style="normal"
>
</g>

<g fill="none" stroke="#000000" stroke-opacity="1" stroke-width="1" stroke-linecap="square" stroke-linejoin="bevel" transform="matrix(1,0,0,1,24,12)"
font-family="MS Shell Dlg 2" font-size="8.25" font-weight="400" font-style="normal"
>
</g>

<g fill="#272727" fill-opacity="1" stroke="#000000" stroke-opacity="0" stroke-width="1" stroke-linecap="square" stroke-linejoin="bevel" transform="matrix(1,0,0,1,24,12)"
font-family="MS Shell Dlg 2" font-size="8.25" font-weight="400" font-style="normal"
>
<circle cx="0" cy="0" r="3"/>
</g>

<g fill="none" stroke="#272727" stroke-opacity="1" stroke-width="1" stroke-linecap="square" stroke-linejoin="bevel" transform="matrix(1,0,0,1,24,12)"
font-family="MS Shell Dlg 2" font-size="8.25" font-weight="400" font-style="normal"
>
<path vector-effect="none" fill-rule="evenodd" d="M4,0 C4,-2.20914 2.20914,-4 0,-4 C-2.20914,-4 -4,-2.20914 -4,0 C-4,2.20914 -2.20914,4 0,4 "/>
</g>

<g fill="none" stroke="#000000" stroke-opacity="1" stroke-width="1" stroke-linecap="square" stroke-linejoin="bevel" transform="matrix(1,0,0,1,24,12)"
font-family="MS Shell Dlg 2" font-size="8.25" font-weight="400" font-style="normal"
>
</g>

<g fill="none" stroke="#000000" stroke-opacity="1" stroke-width="1" stroke-linecap="square" stroke-linejoin="bevel" transform="matrix(1,0,0,1,176,20)"
font-family="MS Shell Dlg 2" font-size="8.25" font-weight="400" font-style="normal"
>
</g>

<g fill="#272727" fill-opacity="1" stroke="#000000" stroke-opacity="0" stroke-width="1" stroke-linecap="square" stroke-linejoin="bevel" transform="matrix(1,0,0,1,176,20)"
font-family="MS Shell Dlg 2" font-size="8.25" font-weight="400" font-style="normal"
>
<circle cx="0" cy="0" r="3"/>
</g>

<g fill="none" stroke="#272727" stroke-opacity="1" stroke-width="1" stroke-linecap="square" stroke-linejoin="bevel" transform="matrix(1,0,0,1,176,20)"
font-family="MS Shell Dlg 2" font-size="8.25" font-weight="400" font-style="normal"
>
<path vector-effect="none" fill-rule="evenodd" d="M4,0 C4,-2.20914 2.20914,-4 0,-4 C-2.20914,-4 -4,-2.20914 -4,0 C-4,2.20914 -2.20914,4 0,4 "/>
</g>

<g fill="none" stroke="#000000" stroke-opacity="1" stroke-width="1" stroke-linecap="square" stroke-linejoin="bevel" transform="matrix(1,0,0,1,176,20)"
font-family="MS Shell Dlg 2" font-size="8.25" font-weight="400" font-style="normal"
>
</g>

<g fill="none" stroke="#000000" stroke-opacity="1" stroke-width="1" stroke-linecap="square" stroke-linejoin="bevel" transform="matrix(1,0,0,1,0,0)"
font-family="MS Shell Dlg 2" font-size="8.25" font-weight="400" font-style="normal"
>
</g>
</g>
</svg>
