<?xml version="1.0" encoding="UTF-8" standalone="no"?>
<svg width="39.5111mm" height="43.3917mm"
 viewBox="0 0 112 122.902"
 xmlns="http://www.w3.org/2000/svg" xmlns:xlink="http://www.w3.org/1999/xlink"  version="1.2" baseProfile="tiny">
<title>Loop</title>
<desc>Chemunited component figure exported without name or port labels.</desc>
<defs>
</defs>
<g fill="none" stroke="black" stroke-width="1" fill-rule="evenodd" stroke-linecap="square" stroke-linejoin="bevel" >

<g fill="none" stroke="#000000" stroke-opacity="1" stroke-width="1" stroke-linecap="square" stroke-linejoin="bevel" transform="matrix(1,0,0,1,0,0)"
font-family="MS Shell Dlg 2" font-size="8.25" font-weight="400" font-style="normal"
>
</g>

<g fill="none" stroke="#000000" stroke-opacity="1" stroke-width="1" stroke-linecap="square" stroke-linejoin="bevel" transform="matrix(1,0,0,1,0,0)"
font-family="MS Shell Dlg 2" font-size="8.25" font-weight="400" font-style="normal"
>
</g>

<g fill="none" stroke="#000000" stroke-opacity="1" stroke-width="5" stroke-linecap="round" stroke-linejoin="round" transform="matrix(1,0,0,1,6,53.4998)"
font-family="MS Shell Dlg 2" font-size="8.25" font-weight="400" font-style="normal"
>
<path vector-effect="none" fill-rule="evenodd" d="M0,50 L0.414566,49.996 L0.829081,49.9842 L1.2435,49.9644 L1.65776,49.9367 L2.07183,49.9011 L2.48565,49.8577 L2.89917,49.8063 L3.31235,49.747 L3.72512,49.6799 L4.13745,49.6049 L4.54928,49.5221 L4.96057,49.4315 L5.37126,49.333 L5.78131,49.2267 L6.19067,49.1126 L6.59928,48.9907 L7.0071,48.8611 L7.41409,48.7238 L7.82018,48.5788 L8.22534,48.426 L8.62951,48.2656 L9.03266,48.0976 L9.43472,47.922 L9.83565,47.7387 L10.2354,47.548 L10.6339,47.3497 L11.0312,47.1439 L11.4271,46.9306 L11.8217,46.7099 L12.2149,46.4819 L12.6066,46.2465 L12.9968,46.0037 L13.3855,45.7537 L13.7725,45.4964 L14.1579,45.232 L14.5417,44.9604 L14.9237,44.6816 L15.3039,44.3958 L15.6823,44.103 L16.0589,43.8032 L16.4335,43.4965 L16.8062,43.1829 L17.1769,42.8624 L17.5455,42.5352 L17.9121,42.2012 L18.2766,41.8606 L18.6389,41.5133 L18.999,41.1595 L19.3568,40.7992 L19.7124,40.4324 L20.0656,40.0592 L20.4164,39.6796 L20.7649,39.2938 L21.1109,38.9018 L21.4544,38.5036 L21.7954,38.0993 L22.1339,37.689 L22.4697,37.2728 L22.8029,36.8506 L23.1334,36.4226 L23.4613,35.9888 L23.7863,35.5494 L24.1086,35.1043 L24.4281,34.6537 L24.7447,34.1975 L25.0584,33.736 L25.3693,33.2691 L25.6771,32.797 L25.982,32.3197 L26.2839,31.8373 L26.5827,31.3498 L26.8784,30.8574 L27.171,30.36 L27.4605,29.8579 L27.7468,29.3511 L28.0299,28.8396 L28.3097,28.3236 L28.5864,27.803 L28.8597,27.2781 L29.1297,26.7488 L29.3963,26.2154 L29.6596,25.6777 L29.9195,25.136 L30.176,24.5904 L30.429,24.0408 L30.6786,23.4875 L30.9247,22.9304 L31.1672,22.3697 L31.4063,21.8054 L31.6417,21.2377 L31.8736,20.6667 L32.1019,20.0923 L32.3265,19.5148 L32.5475,18.9342 L32.7649,18.3507 L32.9786,17.7642 L33.1886,17.1749 L33.3948,16.5828 L33.5973,15.9882 L33.7961,15.391 L33.9911,14.7914 L34.1824,14.1895 L34.3698,13.5853 L34.5535,12.9789 L34.7333,12.3705 L34.9093,11.7602 L35.0814,11.1479 L35.2497,10.534 L35.4141,9.91832 L35.5747,9.3011 L35.7313,8.68241 L35.8841,8.06235 L36.0329,7.44101 L36.1779,6.81849 L36.3189,6.1949 L36.456,5.57032 L36.5892,4.94487 L36.7184,4.31863 L36.8437,3.6917 L36.965,3.0642 L37.0824,2.43621 L37.1959,1.80783 L37.3054,1.17917 L37.4109,0.550318 L37.5125,-0.0786184 L37.6101,-0.707542 L37.7038,-1.33635 L37.7935,-1.96495 L37.8793,-2.59324 L37.9611,-3.22112 L38.0389,-3.84849 L38.1129,-4.47525 L38.1829,-5.10131 L38.2489,-5.72655 L38.311,-6.35089 L38.3692,-6.97423 L38.4235,-7.59646 L38.4739,-8.21749 L38.5203,-8.83721 L38.5629,-9.45554 L38.6016,-10.0724 L38.6364,-10.6876 L38.6674,-11.3012 L38.6945,-11.9129 L38.7177,-12.5228 L38.7371,-13.1307 L38.7527,-13.7365 L38.7646,-14.3402 L38.7726,-14.9415 L38.7768,-15.5405 L38.7773,-16.1371 L38.774,-16.7311 L38.767,-17.3224 L38.7563,-17.9111 L38.7419,-18.4968 L38.7239,-19.0797 L38.7021,-19.6595 L38.6768,-20.2362 L38.6478,-20.8098 L38.6152,-21.38 L38.5791,-21.9468 L38.5394,-22.5102 L38.4961,-23.07 L38.4494,-23.6262 L38.3991,-24.1786 L38.3454,-24.7272 L38.2883,-25.2718 L38.2278,-25.8125 L38.1638,-26.3491 L38.0965,-26.8816 L38.0259,-27.4097 L37.9519,-27.9336 L37.8747,-28.453 L37.7942,-28.9679 L37.7105,-29.4782 L37.6237,-29.9839 L37.5336,-30.4848 L37.4404,-30.9809 L37.3441,-31.4721 L37.2447,-31.9583 L37.1423,-32.4395 L37.0369,-32.9155 L36.9285,-33.3864 L36.8171,-33.8519 L36.7029,-34.3121 L36.5857,-34.7668 L36.4657,-35.2161 L36.343,-35.6598 L36.2174,-36.0978 L36.0891,-36.5301 L35.9581,-36.9567 L35.8244,-37.3774 L35.6881,-37.7922 L35.5493,-38.201 L35.4078,-38.6037 L35.2639,-39.0004 L35.1175,-39.3909 L34.9686,-39.7751 L34.8173,-40.1531 L34.6637,-40.5247 L34.5078,-40.8898 L34.3496,-41.2486 L34.1891,-41.6008 L34.0265,-41.9464 L33.8617,-42.2853 L33.6948,-42.6176 L33.5258,-42.9432 L33.3548,-43.2619 L33.1819,-43.5738 L33.007,-43.8788 L32.8301,-44.1769 L32.6515,-44.4679 L32.471,-44.752 L32.2887,-45.0289 L32.1048,-45.2988 L31.9192,-45.5614 L31.7319,-45.8169 L31.543,-46.0651 L31.3527,-46.306 L31.1608,-46.5396 L30.9675,-46.7658 L30.7727,-46.9846 L30.5766,-47.196 L30.3793,-47.3999 L30.1806,-47.5964 L29.9808,-47.7853 L29.7798,-47.9666 L29.5776,-48.1403 L29.3744,-48.3065 L29.1702,-48.4649 L28.965,-48.6157 L28.7589,-48.7589 L28.5519,-48.8943 L28.344,-49.0219 L28.1354,-49.1418 L27.9261,-49.254 L27.7161,-49.3583 L27.5055,-49.4549 L27.2942,-49.5436 L27.0825,-49.6244 L26.8702,-49.6974 L26.6575,-49.7626 L26.4445,-49.8199 L26.2311,-49.8693 L26.0174,-49.9108 L25.8035,-49.9444 L25.5894,-49.9701 L25.3751,-49.9879 L25.1608,-49.9978 L24.9464,-49.9998 L24.732,-49.9938 L24.5178,-49.98 L24.3036,-49.9582 L24.0895,-49.9286 L23.8757,-49.891 L23.6622,-49.8456 L23.449,-49.7922 L23.2361,-49.731 L23.0236,-49.6619 L22.8116,-49.585 L22.6001,-49.5002 L22.3891,-49.4076 L22.1788,-49.3071 L21.9691,-49.1989 L21.7602,-49.0829 L21.5519,-48.9591 L21.3445,-48.8275 L21.138,-48.6883 L20.9323,-48.5413 L20.7276,-48.3866 L20.5239,-48.2243 L20.3212,-48.0544 L20.1196,-47.8769 L19.9192,-47.6918 L19.7199,-47.4991 L19.5219,-47.2989 L19.3251,-47.0913 L19.1297,-46.8761 L18.9357,-46.6536 L18.7431,-46.4237 L18.552,-46.1865 L18.3623,-45.9419 L18.1743,-45.6901 L17.9878,-45.431 L17.803,-45.1647 L17.6199,-44.8913 L17.4385,-44.6108 L17.259,-44.3233 L17.0812,-44.0287 L16.9054,-43.7272 L16.7314,-43.4187 L16.5594,-43.1034 L16.3894,-42.7812 L16.2215,-42.4523 L16.0556,-42.1167 L15.8919,-41.7744 L15.7304,-41.4255 L15.571,-41.07 L15.414,-40.7081 L15.2592,-40.3397 L15.1067,-39.9649 L14.9567,-39.5838 L14.809,-39.1964 L14.6638,-38.8028 L14.5211,-38.4031 L14.381,-37.9973 L14.2434,-37.5855 L14.1084,-37.1678 L13.9761,-36.7441 L13.8464,-36.3147 L13.7195,-35.8795 L13.5953,-35.4386 L13.4739,-34.9922 L13.3554,-34.5401 L13.2396,-34.0827 L13.1268,-33.6198 L13.017,-33.1516 L12.91,-32.6782 L12.8061,-32.1996 L12.7052,-31.7159 L12.6074,-31.2271 L12.5126,-30.7335 L12.421,-30.235 L12.3325,-29.7317 L12.2472,-29.2236 L12.1651,-28.711 L12.0863,-28.1938 L12.0107,-27.6722 L11.9384,-27.1462 L11.8694,-26.6159 L11.8038,-26.0813 L11.7415,-25.5427 L11.6827,-25 L11.6273,-24.4534 L11.5753,-23.9028 L11.5268,-23.3485 L11.4818,-22.7905 L11.4403,-22.2289 L11.4024,-21.6638 L11.368,-21.0953 L11.3373,-20.5234 L11.3101,-19.9483 L11.2865,-19.37 L11.2666,-18.7886 L11.2504,-18.2043 L11.2379,-17.6171 L11.229,-17.0271 L11.2239,-16.4344 L11.2225,-15.8391 L11.2248,-15.2413 L11.231,-14.6411 L11.2409,-14.0386 L11.2546,-13.4339 L11.2721,-12.827 L11.2934,-12.2181 L11.3186,-11.6073 L11.3476,-10.9946 L11.3805,-10.3802 L11.4173,-9.76415 L11.4579,-9.14656 L11.5024,-8.52752 L11.5508,-7.90713 L11.6032,-7.28548 L11.6594,-6.66269 L11.7195,-6.03884 L11.7836,-5.41404 L11.8516,-4.78837 L11.9236,-4.16196 L11.9995,-3.53488 L12.0793,-2.90724 L12.1631,-2.27914 L12.2509,-1.65069 L12.3426,-1.02197 L12.4382,-0.393088 L12.5378,0.235854 L12.6414,0.86476 L12.7489,1.49353 L12.8604,2.12206 L12.9758,2.75026 L13.0952,3.37802 L13.2185,4.00524 L13.3457,4.63184 L13.4769,5.2577 L13.6121,5.88273 L13.7511,6.50682 L13.8941,7.12989 L14.041,7.75183 L14.1918,8.37254 L14.3465,8.99193 L14.5051,9.6099 L14.6676,10.2263 L14.834,10.8412 L15.0042,11.4543 L15.1782,12.0656 L15.3562,12.675 L15.5379,13.2824 L15.7234,13.8876 L15.9128,14.4907 L16.1059,15.0915 L16.3028,15.6899 L16.5035,16.2858 L16.7079,16.8792 L16.916,17.4699 L17.1278,18.0578 L17.3433,18.6428 L17.5625,19.2249 L17.7853,19.804 L18.0118,20.3799 L18.2419,20.9526 L18.4756,21.522 L18.7128,22.088 L18.9536,22.6505 L19.1979,23.2094 L19.4457,23.7646 L19.697,24.3161 L19.9518,24.8637 L20.21,25.4074 L20.4716,25.9471 L20.7366,26.4826 L21.0049,27.014 L21.2766,27.5411 L21.5515,28.0638 L21.8298,28.5821 L22.1113,29.0959 L22.396,29.6051 L22.6839,30.1096 L22.9749,30.6093 L23.2691,31.1042 L23.5663,31.5942 L23.8667,32.0791 L24.1701,32.559 L24.4764,33.0337 L24.7858,33.5032 L25.0981,33.9675 L25.4132,34.4263 L25.7313,34.8797 L26.0522,35.3275 L26.3759,35.7698 L26.7023,36.2064 L27.0315,36.6373 L27.3634,37.0624 L27.6979,37.4816 L28.035,37.8949 L28.3748,38.3022 L28.717,38.7035 L29.0618,39.0986 L29.409,39.4875 L29.7587,39.8702 L30.1107,40.2466 L30.4651,40.6166 L30.8218,40.9801 L31.1808,41.3372 L31.542,41.6878 L31.9054,42.0317 L32.2709,42.369 L32.6385,42.6996 L33.0082,43.0235 L33.3799,43.3405 L33.7536,43.6507 L34.1292,43.954 L34.5067,44.2503 L34.886,44.5396 L35.2671,44.8219 L35.65,45.0971 L36.0346,45.3651 L36.4208,45.626 L36.8087,45.8796 L37.1981,46.126 L37.5891,46.3651 L37.9815,46.5968 L38.3754,46.8212 L38.7707,47.0382 L39.1673,47.2477 L39.5652,47.4498 L39.9643,47.6443 L40.3647,47.8313 L40.7662,48.0107 L41.1688,48.1826 L41.5724,48.3468 L41.9771,48.5034 L42.3828,48.6522 L42.7893,48.7934 L43.1967,48.9269 L43.6049,49.0526 L44.0139,49.1706 L44.4236,49.2808 L44.834,49.3832 L45.245,49.4778 L45.6566,49.5645 L46.0687,49.6434 L46.4812,49.7145 L46.8942,49.7777 L47.3075,49.833 L47.7212,49.8804 L48.1352,49.9199 L48.5493,49.9515 L48.9637,49.9753 L49.3782,49.9911 L49.7927,49.999 L50.2073,49.999 L50.6218,49.9911 L51.0363,49.9753 L51.4507,49.9515 L51.8648,49.9199 L52.2788,49.8804 L52.6925,49.833 L53.1058,49.7777 L53.5188,49.7145 L53.9313,49.6434 L54.3434,49.5645 L54.755,49.4778 L55.166,49.3832 L55.5764,49.2808 L55.9861,49.1706 L56.3951,49.0526 L56.8033,48.9269 L57.2107,48.7934 L57.6172,48.6522 L58.0229,48.5034 L58.4276,48.3468 L58.8312,48.1826 L59.2338,48.0107 L59.6353,47.8313 L60.0357,47.6443 L60.4348,47.4498 L60.8327,47.2477 L61.2293,47.0382 L61.6246,46.8212 L62.0185,46.5968 L62.4109,46.3651 L62.8019,46.126 L63.1913,45.8796 L63.5792,45.626 L63.9654,45.3651 L64.35,45.0971 L64.7329,44.8219 L65.114,44.5396 L65.4933,44.2503 L65.8708,43.954 L66.2464,43.6507 L66.6201,43.3405 L66.9918,43.0235 L67.3615,42.6996 L67.7291,42.369 L68.0946,42.0317 L68.458,41.6878 L68.8192,41.3372 L69.1782,40.9801 L69.5349,40.6166 L69.8893,40.2466 L70.2413,39.8702 L70.591,39.4875 L70.9382,39.0986 L71.283,38.7035 L71.6252,38.3022 L71.965,37.8949 L72.3021,37.4816 L72.6366,37.0624 L72.9685,36.6373 L73.2977,36.2064 L73.6241,35.7698 L73.9478,35.3275 L74.2687,34.8797 L74.5868,34.4263 L74.9019,33.9675 L75.2142,33.5032 L75.5236,33.0337 L75.8299,32.559 L76.1333,32.0791 L76.4337,31.5942 L76.7309,31.1042 L77.0251,30.6093 L77.3161,30.1096 L77.604,29.6051 L77.8887,29.0959 L78.1702,28.5821 L78.4485,28.0638 L78.7234,27.5411 L78.9951,27.014 L79.2634,26.4826 L79.5284,25.9471 L79.79,25.4074 L80.0482,24.8637 L80.303,24.3161 L80.5543,23.7646 L80.8021,23.2094 L81.0464,22.6505 L81.2872,22.088 L81.5244,21.522 L81.7581,20.9526 L81.9882,20.3799 L82.2147,19.804 L82.4375,19.2249 L82.6567,18.6428 L82.8722,18.0578 L83.084,17.4699 L83.2921,16.8792 L83.4965,16.2858 L83.6972,15.6899 L83.8941,15.0915 L84.0872,14.4907 L84.2766,13.8876 L84.4621,13.2824 L84.6438,12.675 L84.8218,12.0656 L84.9958,11.4543 L85.166,10.8412 L85.3324,10.2263 L85.4949,9.6099 L85.6535,8.99193 L85.8082,8.37254 L85.959,7.75183 L86.1059,7.12989 L86.2489,6.50682 L86.3879,5.88273 L86.5231,5.2577 L86.6543,4.63184 L86.7815,4.00524 L86.9048,3.37802 L87.0242,2.75026 L87.1396,2.12206 L87.2511,1.49353 L87.3586,0.86476 L87.4622,0.235854 L87.5618,-0.393088 L87.6574,-1.02197 L87.7491,-1.65069 L87.8369,-2.27914 L87.9207,-2.90724 L88.0005,-3.53488 L88.0764,-4.16196 L88.1484,-4.78837 L88.2164,-5.41404 L88.2805,-6.03884 L88.3406,-6.66269 L88.3968,-7.28548 L88.4492,-7.90713 L88.4976,-8.52752 L88.5421,-9.14656 L88.5827,-9.76415 L88.6195,-10.3802 L88.6524,-10.9946 L88.6814,-11.6073 L88.7066,-12.2181 L88.7279,-12.827 L88.7454,-13.4339 L88.7591,-14.0386 L88.769,-14.6411 L88.7752,-15.2413 L88.7775,-15.8391 L88.7761,-16.4344 L88.771,-17.0271 L88.7621,-17.6171 L88.7496,-18.2043 L88.7334,-18.7886 L88.7135,-19.37 L88.6899,-19.9483 L88.6627,-20.5234 L88.632,-21.0953 L88.5976,-21.6638 L88.5597,-22.2289 L88.5182,-22.7905 L88.4732,-23.3485 L88.4247,-23.9028 L88.3727,-24.4534 L88.3173,-25 L88.2585,-25.5427 L88.1962,-26.0813 L88.1306,-26.6159 L88.0616,-27.1462 L87.9893,-27.6722 L87.9137,-28.1938 L87.8349,-28.711 L87.7528,-29.2236 L87.6675,-29.7317 L87.579,-30.235 L87.4874,-30.7335 L87.3926,-31.2271 L87.2948,-31.7159 L87.1939,-32.1996 L87.09,-32.6782 L86.983,-33.1516 L86.8732,-33.6198 L86.7604,-34.0827 L86.6446,-34.5401 L86.5261,-34.9922 L86.4047,-35.4386 L86.2805,-35.8795 L86.1536,-36.3147 L86.0239,-36.7441 L85.8916,-37.1678 L85.7566,-37.5855 L85.619,-37.9973 L85.4789,-38.4031 L85.3362,-38.8028 L85.191,-39.1964 L85.0433,-39.5838 L84.8933,-39.9649 L84.7408,-40.3397 L84.586,-40.7081 L84.429,-41.07 L84.2696,-41.4255 L84.1081,-41.7744 L83.9444,-42.1167 L83.7785,-42.4523 L83.6106,-42.7812 L83.4406,-43.1034 L83.2686,-43.4187 L83.0946,-43.7272 L82.9188,-44.0287 L82.741,-44.3233 L82.5615,-44.6108 L82.3801,-44.8913 L82.197,-45.1647 L82.0122,-45.431 L81.8257,-45.6901 L81.6377,-45.9419 L81.448,-46.1865 L81.2569,-46.4237 L81.0643,-46.6536 L80.8703,-46.8761 L80.6749,-47.0913 L80.4781,-47.2989 L80.2801,-47.4991 L80.0808,-47.6918 L79.8804,-47.8769 L79.6788,-48.0544 L79.4761,-48.2243 L79.2724,-48.3866 L79.0677,-48.5413 L78.862,-48.6883 L78.6555,-48.8275 L78.4481,-48.9591 L78.2398,-49.0829 L78.0309,-49.1989 L77.8212,-49.3071 L77.6109,-49.4076 L77.3999,-49.5002 L77.1884,-49.585 L76.9764,-49.6619 L76.7639,-49.731 L76.551,-49.7922 L76.3378,-49.8456 L76.1243,-49.891 L75.9105,-49.9286 L75.6964,-49.9582 L75.4822,-49.98 L75.268,-49.9938 L75.0536,-49.9998 L74.8392,-49.9978 L74.6249,-49.9879 L74.4106,-49.9701 L74.1965,-49.9444 L73.9826,-49.9108 L73.7689,-49.8693 L73.5555,-49.8199 L73.3425,-49.7626 L73.1298,-49.6974 L72.9175,-49.6244 L72.7058,-49.5436 L72.4945,-49.4549 L72.2839,-49.3583 L72.0739,-49.254 L71.8646,-49.1418 L71.656,-49.0219 L71.4481,-48.8943 L71.2411,-48.7589 L71.035,-48.6157 L70.8298,-48.4649 L70.6256,-48.3065 L70.4224,-48.1403 L70.2202,-47.9666 L70.0192,-47.7853 L69.8194,-47.5964 L69.6207,-47.3999 L69.4234,-47.196 L69.2273,-46.9846 L69.0325,-46.7658 L68.8392,-46.5396 L68.6473,-46.306 L68.457,-46.0651 L68.2681,-45.8169 L68.0808,-45.5614 L67.8952,-45.2988 L67.7113,-45.0289 L67.529,-44.752 L67.3485,-44.4679 L67.1699,-44.1769 L66.993,-43.8788 L66.8181,-43.5738 L66.6452,-43.2619 L66.4742,-42.9432 L66.3052,-42.6176 L66.1383,-42.2853 L65.9735,-41.9464 L65.8109,-41.6008 L65.6504,-41.2486 L65.4922,-40.8898 L65.3363,-40.5247 L65.1827,-40.1531 L65.0314,-39.7751 L64.8825,-39.3909 L64.7361,-39.0004 L64.5922,-38.6037 L64.4507,-38.201 L64.3119,-37.7922 L64.1756,-37.3774 L64.0419,-36.9567 L63.9109,-36.5301 L63.7826,-36.0978 L63.657,-35.6598 L63.5343,-35.2161 L63.4143,-34.7668 L63.2971,-34.3121 L63.1829,-33.8519 L63.0715,-33.3864 L62.9631,-32.9155 L62.8577,-32.4395 L62.7553,-31.9583 L62.6559,-31.4721 L62.5596,-30.9809 L62.4664,-30.4848 L62.3763,-29.9839 L62.2895,-29.4782 L62.2058,-28.9679 L62.1253,-28.453 L62.0481,-27.9336 L61.9741,-27.4097 L61.9035,-26.8816 L61.8362,-26.3491 L61.7722,-25.8125 L61.7117,-25.2718 L61.6546,-24.7272 L61.6009,-24.1786 L61.5506,-23.6262 L61.5039,-23.07 L61.4606,-22.5102 L61.4209,-21.9468 L61.3848,-21.38 L61.3522,-20.8098 L61.3232,-20.2362 L61.2979,-19.6595 L61.2761,-19.0797 L61.2581,-18.4968 L61.2437,-17.9111 L61.233,-17.3224 L61.226,-16.7311 L61.2227,-16.1371 L61.2232,-15.5405 L61.2274,-14.9415 L61.2354,-14.3402 L61.2473,-13.7365 L61.2629,-13.1307 L61.2823,-12.5228 L61.3055,-11.9129 L61.3326,-11.3012 L61.3636,-10.6876 L61.3984,-10.0724 L61.4371,-9.45554 L61.4797,-8.83721 L61.5261,-8.21749 L61.5765,-7.59646 L61.6308,-6.97423 L61.689,-6.35089 L61.7511,-5.72655 L61.8171,-5.10131 L61.8871,-4.47525 L61.9611,-3.84849 L62.0389,-3.22112 L62.1207,-2.59324 L62.2065,-1.96495 L62.2962,-1.33635 L62.3899,-0.707542 L62.4875,-0.0786184 L62.5891,0.550318 L62.6946,1.17917 L62.8041,1.80783 L62.9176,2.43621 L63.035,3.0642 L63.1563,3.6917 L63.2816,4.31863 L63.4108,4.94487 L63.544,5.57032 L63.6811,6.1949 L63.8221,6.81849 L63.9671,7.44101 L64.1159,8.06235 L64.2687,8.68241 L64.4253,9.3011 L64.5859,9.91832 L64.7503,10.534 L64.9186,11.1479 L65.0907,11.7602 L65.2667,12.3705 L65.4465,12.9789 L65.6302,13.5853 L65.8176,14.1895 L66.0089,14.7914 L66.2039,15.391 L66.4027,15.9882 L66.6052,16.5828 L66.8114,17.1749 L67.0214,17.7642 L67.2351,18.3507 L67.4525,18.9342 L67.6735,19.5148 L67.8981,20.0923 L68.1264,20.6667 L68.3583,21.2377 L68.5937,21.8054 L68.8328,22.3697 L69.0753,22.9304 L69.3214,23.4875 L69.571,24.0408 L69.824,24.5904 L70.0805,25.136 L70.3404,25.6777 L70.6037,26.2154 L70.8703,26.7488 L71.1403,27.2781 L71.4136,27.803 L71.6903,28.3236 L71.9701,28.8396 L72.2532,29.3511 L72.5395,29.8579 L72.829,30.36 L73.1216,30.8574 L73.4173,31.3498 L73.7161,31.8373 L74.018,32.3197 L74.3229,32.797 L74.6307,33.2691 L74.9416,33.736 L75.2553,34.1975 L75.5719,34.6537 L75.8914,35.1043 L76.2137,35.5494 L76.5387,35.9888 L76.8666,36.4226 L77.1971,36.8506 L77.5303,37.2728 L77.8661,37.689 L78.2046,38.0993 L78.5456,38.5036 L78.8891,38.9018 L79.2351,39.2938 L79.5836,39.6796 L79.9344,40.0592 L80.2876,40.4324 L80.6432,40.7992 L81.001,41.1595 L81.3611,41.5133 L81.7234,41.8606 L82.0879,42.2012 L82.4545,42.5352 L82.8231,42.8624 L83.1938,43.1829 L83.5665,43.4965 L83.9411,43.8032 L84.3177,44.103 L84.6961,44.3958 L85.0763,44.6816 L85.4583,44.9604 L85.8421,45.232 L86.2275,45.4964 L86.6145,45.7537 L87.0032,46.0037 L87.3934,46.2465 L87.7851,46.4819 L88.1783,46.7099 L88.5729,46.9306 L88.9688,47.1439 L89.3661,47.3497 L89.7646,47.548 L90.1644,47.7387 L90.5653,47.922 L90.9673,48.0976 L91.3705,48.2656 L91.7747,48.426 L92.1798,48.5788 L92.5859,48.7238 L92.9929,48.8611 L93.4007,48.9907 L93.8093,49.1126 L94.2187,49.2267 L94.6287,49.333 L95.0394,49.4315 L95.4507,49.5221 L95.8625,49.6049 L96.2749,49.6799 L96.6877,49.747 L97.1008,49.8063 L97.5143,49.8577 L97.9282,49.9011 L98.3422,49.9367 L98.7565,49.9644 L99.1709,49.9842 L99.5854,49.996 L100,50"/>
</g>

<g fill="none" stroke="#000000" stroke-opacity="1" stroke-width="1" stroke-linecap="square" stroke-linejoin="bevel" transform="matrix(1,0,0,1,0,0)"
font-family="MS Shell Dlg 2" font-size="8.25" font-weight="400" font-style="normal"
>
</g>

<g fill="none" stroke="#e8e8e8" stroke-opacity="1" stroke-width="2" stroke-linecap="round" stroke-linejoin="round" transform="matrix(1,0,0,1,6,53.4998)"
font-family="MS Shell Dlg 2" font-size="8.25" font-weight="400" font-style="normal"
>
<path vector-effect="none" fill-rule="evenodd" d="M0,50 L0.414566,49.996 L0.829081,49.9842 L1.2435,49.9644 L1.65776,49.9367 L2.07183,49.9011 L2.48565,49.8577 L2.89917,49.8063 L3.31235,49.747 L3.72512,49.6799 L4.13745,49.6049 L4.54928,49.5221 L4.96057,49.4315 L5.37126,49.333 L5.78131,49.2267 L6.19067,49.1126 L6.59928,48.9907 L7.0071,48.8611 L7.41409,48.7238 L7.82018,48.5788 L8.22534,48.426 L8.62951,48.2656 L9.03266,48.0976 L9.43472,47.922 L9.83565,47.7387 L10.2354,47.548 L10.6339,47.3497 L11.0312,47.1439 L11.4271,46.9306 L11.8217,46.7099 L12.2149,46.4819 L12.6066,46.2465 L12.9968,46.0037 L13.3855,45.7537 L13.7725,45.4964 L14.1579,45.232 L14.5417,44.9604 L14.9237,44.6816 L15.3039,44.3958 L15.6823,44.103 L16.0589,43.8032 L16.4335,43.4965 L16.8062,43.1829 L17.1769,42.8624 L17.5455,42.5352 L17.9121,42.2012 L18.2766,41.8606 L18.6389,41.5133 L18.999,41.1595 L19.3568,40.7992 L19.7124,40.4324 L20.0656,40.0592 L20.4164,39.6796 L20.7649,39.2938 L21.1109,38.9018 L21.4544,38.5036 L21.7954,38.0993 L22.1339,37.689 L22.4697,37.2728 L22.8029,36.8506 L23.1334,36.4226 L23.4613,35.9888 L23.7863,35.5494 L24.1086,35.1043 L24.4281,34.6537 L24.7447,34.1975 L25.0584,33.736 L25.3693,33.2691 L25.6771,32.797 L25.982,32.3197 L26.2839,31.8373 L26.5827,31.3498 L26.8784,30.8574 L27.171,30.36 L27.4605,29.8579 L27.7468,29.3511 L28.0299,28.8396 L28.3097,28.3236 L28.5864,27.803 L28.8597,27.2781 L29.1297,26.7488 L29.3963,26.2154 L29.6596,25.6777 L29.9195,25.136 L30.176,24.5904 L30.429,24.0408 L30.6786,23.4875 L30.9247,22.9304 L31.1672,22.3697 L31.4063,21.8054 L31.6417,21.2377 L31.8736,20.6667 L32.1019,20.0923 L32.3265,19.5148 L32.5475,18.9342 L32.7649,18.3507 L32.9786,17.7642 L33.1886,17.1749 L33.3948,16.5828 L33.5973,15.9882 L33.7961,15.391 L33.9911,14.7914 L34.1824,14.1895 L34.3698,13.5853 L34.5535,12.9789 L34.7333,12.3705 L34.9093,11.7602 L35.0814,11.1479 L35.2497,10.534 L35.4141,9.91832 L35.5747,9.3011 L35.7313,8.68241 L35.8841,8.06235 L36.0329,7.44101 L36.1779,6.81849 L36.3189,6.1949 L36.456,5.57032 L36.5892,4.94487 L36.7184,4.31863 L36.8437,3.6917 L36.965,3.0642 L37.0824,2.43621 L37.1959,1.80783 L37.3054,1.17917 L37.4109,0.550318 L37.5125,-0.0786184 L37.6101,-0.707542 L37.7038,-1.33635 L37.7935,-1.96495 L37.8793,-2.59324 L37.9611,-3.22112 L38.0389,-3.84849 L38.1129,-4.47525 L38.1829,-5.10131 L38.2489,-5.72655 L38.311,-6.35089 L38.3692,-6.97423 L38.4235,-7.59646 L38.4739,-8.21749 L38.5203,-8.83721 L38.5629,-9.45554 L38.6016,-10.0724 L38.6364,-10.6876 L38.6674,-11.3012 L38.6945,-11.9129 L38.7177,-12.5228 L38.7371,-13.1307 L38.7527,-13.7365 L38.7646,-14.3402 L38.7726,-14.9415 L38.7768,-15.5405 L38.7773,-16.1371 L38.774,-16.7311 L38.767,-17.3224 L38.7563,-17.9111 L38.7419,-18.4968 L38.7239,-19.0797 L38.7021,-19.6595 L38.6768,-20.2362 L38.6478,-20.8098 L38.6152,-21.38 L38.5791,-21.9468 L38.5394,-22.5102 L38.4961,-23.07 L38.4494,-23.6262 L38.3991,-24.1786 L38.3454,-24.7272 L38.2883,-25.2718 L38.2278,-25.8125 L38.1638,-26.3491 L38.0965,-26.8816 L38.0259,-27.4097 L37.9519,-27.9336 L37.8747,-28.453 L37.7942,-28.9679 L37.7105,-29.4782 L37.6237,-29.9839 L37.5336,-30.4848 L37.4404,-30.9809 L37.3441,-31.4721 L37.2447,-31.9583 L37.1423,-32.4395 L37.0369,-32.9155 L36.9285,-33.3864 L36.8171,-33.8519 L36.7029,-34.3121 L36.5857,-34.7668 L36.4657,-35.2161 L36.343,-35.6598 L36.2174,-36.0978 L36.0891,-36.5301 L35.9581,-36.9567 L35.8244,-37.3774 L35.6881,-37.7922 L35.5493,-38.201 L35.4078,-38.6037 L35.2639,-39.0004 L35.1175,-39.3909 L34.9686,-39.7751 L34.8173,-40.1531 L34.6637,-40.5247 L34.5078,-40.8898 L34.3496,-41.2486 L34.1891,-41.6008 L34.0265,-41.9464 L33.8617,-42.2853 L33.6948,-42.6176 L33.5258,-42.9432 L33.3548,-43.2619 L33.1819,-43.5738 L33.007,-43.8788 L32.8301,-44.1769 L32.6515,-44.4679 L32.471,-44.752 L32.2887,-45.0289 L32.1048,-45.2988 L31.9192,-45.5614 L31.7319,-45.8169 L31.543,-46.0651 L31.3527,-46.306 L31.1608,-46.5396 L30.9675,-46.7658 L30.7727,-46.9846 L30.5766,-47.196 L30.3793,-47.3999 L30.1806,-47.5964 L29.9808,-47.7853 L29.7798,-47.9666 L29.5776,-48.1403 L29.3744,-48.3065 L29.1702,-48.4649 L28.965,-48.6157 L28.7589,-48.7589 L28.5519,-48.8943 L28.344,-49.0219 L28.1354,-49.1418 L27.9261,-49.254 L27.7161,-49.3583 L27.5055,-49.4549 L27.2942,-49.5436 L27.0825,-49.6244 L26.8702,-49.6974 L26.6575,-49.7626 L26.4445,-49.8199 L26.2311,-49.8693 L26.0174,-49.9108 L25.8035,-49.9444 L25.5894,-49.9701 L25.3751,-49.9879 L25.1608,-49.9978 L24.9464,-49.9998 L24.732,-49.9938 L24.5178,-49.98 L24.3036,-49.9582 L24.0895,-49.9286 L23.8757,-49.891 L23.6622,-49.8456 L23.449,-49.7922 L23.2361,-49.731 L23.0236,-49.6619 L22.8116,-49.585 L22.6001,-49.5002 L22.3891,-49.4076 L22.1788,-49.3071 L21.9691,-49.1989 L21.7602,-49.0829 L21.5519,-48.9591 L21.3445,-48.8275 L21.138,-48.6883 L20.9323,-48.5413 L20.7276,-48.3866 L20.5239,-48.2243 L20.3212,-48.0544 L20.1196,-47.8769 L19.9192,-47.6918 L19.7199,-47.4991 L19.5219,-47.2989 L19.3251,-47.0913 L19.1297,-46.8761 L18.9357,-46.6536 L18.7431,-46.4237 L18.552,-46.1865 L18.3623,-45.9419 L18.1743,-45.6901 L17.9878,-45.431 L17.803,-45.1647 L17.6199,-44.8913 L17.4385,-44.6108 L17.259,-44.3233 L17.0812,-44.0287 L16.9054,-43.7272 L16.7314,-43.4187 L16.5594,-43.1034 L16.3894,-42.7812 L16.2215,-42.4523 L16.0556,-42.1167 L15.8919,-41.7744 L15.7304,-41.4255 L15.571,-41.07 L15.414,-40.7081 L15.2592,-40.3397 L15.1067,-39.9649 L14.9567,-39.5838 L14.809,-39.1964 L14.6638,-38.8028 L14.5211,-38.4031 L14.381,-37.9973 L14.2434,-37.5855 L14.1084,-37.1678 L13.9761,-36.7441 L13.8464,-36.3147 L13.7195,-35.8795 L13.5953,-35.4386 L13.4739,-34.9922 L13.3554,-34.5401 L13.2396,-34.0827 L13.1268,-33.6198 L13.017,-33.1516 L12.91,-32.6782 L12.8061,-32.1996 L12.7052,-31.7159 L12.6074,-31.2271 L12.5126,-30.7335 L12.421,-30.235 L12.3325,-29.7317 L12.2472,-29.2236 L12.1651,-28.711 L12.0863,-28.1938 L12.0107,-27.6722 L11.9384,-27.1462 L11.8694,-26.6159 L11.8038,-26.0813 L11.7415,-25.5427 L11.6827,-25 L11.6273,-24.4534 L11.5753,-23.9028 L11.5268,-23.3485 L11.4818,-22.7905 L11.4403,-22.2289 L11.4024,-21.6638 L11.368,-21.0953 L11.3373,-20.5234 L11.3101,-19.9483 L11.2865,-19.37 L11.2666,-18.7886 L11.2504,-18.2043 L11.2379,-17.6171 L11.229,-17.0271 L11.2239,-16.4344 L11.2225,-15.8391 L11.2248,-15.2413 L11.231,-14.6411 L11.2409,-14.0386 L11.2546,-13.4339 L11.2721,-12.827 L11.2934,-12.2181 L11.3186,-11.6073 L11.3476,-10.9946 L11.3805,-10.3802 L11.4173,-9.76415 L11.4579,-9.14656 L11.5024,-8.52752 L11.5508,-7.90713 L11.6032,-7.28548 L11.6594,-6.66269 L11.7195,-6.03884 L11.7836,-5.41404 L11.8516,-4.78837 L11.9236,-4.16196 L11.9995,-3.53488 L12.0793,-2.90724 L12.1631,-2.27914 L12.2509,-1.65069 L12.3426,-1.02197 L12.4382,-0.393088 L12.5378,0.235854 L12.6414,0.86476 L12.7489,1.49353 L12.8604,2.12206 L12.9758,2.75026 L13.0952,3.37802 L13.2185,4.00524 L13.3457,4.63184 L13.4769,5.2577 L13.6121,5.88273 L13.7511,6.50682 L13.8941,7.12989 L14.041,7.75183 L14.1918,8.37254 L14.3465,8.99193 L14.5051,9.6099 L14.6676,10.2263 L14.834,10.8412 L15.0042,11.4543 L15.1782,12.0656 L15.3562,12.675 L15.5379,13.2824 L15.7234,13.8876 L15.9128,14.4907 L16.1059,15.0915 L16.3028,15.6899 L16.5035,16.2858 L16.7079,16.8792 L16.916,17.4699 L17.1278,18.0578 L17.3433,18.6428 L17.5625,19.2249 L17.7853,19.804 L18.0118,20.3799 L18.2419,20.9526 L18.4756,21.522 L18.7128,22.088 L18.9536,22.6505 L19.1979,23.2094 L19.4457,23.7646 L19.697,24.3161 L19.9518,24.8637 L20.21,25.4074 L20.4716,25.9471 L20.7366,26.4826 L21.0049,27.014 L21.2766,27.5411 L21.5515,28.0638 L21.8298,28.5821 L22.1113,29.0959 L22.396,29.6051 L22.6839,30.1096 L22.9749,30.6093 L23.2691,31.1042 L23.5663,31.5942 L23.8667,32.0791 L24.1701,32.559 L24.4764,33.0337 L24.7858,33.5032 L25.0981,33.9675 L25.4132,34.4263 L25.7313,34.8797 L26.0522,35.3275 L26.3759,35.7698 L26.7023,36.2064 L27.0315,36.6373 L27.3634,37.0624 L27.6979,37.4816 L28.035,37.8949 L28.3748,38.3022 L28.717,38.7035 L29.0618,39.0986 L29.409,39.4875 L29.7587,39.8702 L30.1107,40.2466 L30.4651,40.6166 L30.8218,40.9801 L31.1808,41.3372 L31.542,41.6878 L31.9054,42.0317 L32.2709,42.369 L32.6385,42.6996 L33.0082,43.0235 L33.3799,43.3405 L33.7536,43.6507 L34.1292,43.954 L34.5067,44.2503 L34.886,44.5396 L35.2671,44.8219 L35.65,45.0971 L36.0346,45.3651 L36.4208,45.626 L36.8087,45.8796 L37.1981,46.126 L37.5891,46.3651 L37.9815,46.5968 L38.3754,46.8212 L38.7707,47.0382 L39.1673,47.2477 L39.5652,47.4498 L39.9643,47.6443 L40.3647,47.8313 L40.7662,48.0107 L41.1688,48.1826 L41.5724,48.3468 L41.9771,48.5034 L42.3828,48.6522 L42.7893,48.7934 L43.1967,48.9269 L43.6049,49.0526 L44.0139,49.1706 L44.4236,49.2808 L44.834,49.3832 L45.245,49.4778 L45.6566,49.5645 L46.0687,49.6434 L46.4812,49.7145 L46.8942,49.7777 L47.3075,49.833 L47.7212,49.8804 L48.1352,49.9199 L48.5493,49.9515 L48.9637,49.9753 L49.3782,49.9911 L49.7927,49.999 L50.2073,49.999 L50.6218,49.9911 L51.0363,49.9753 L51.4507,49.9515 L51.8648,49.9199 L52.2788,49.8804 L52.6925,49.833 L53.1058,49.7777 L53.5188,49.7145 L53.9313,49.6434 L54.3434,49.5645 L54.755,49.4778 L55.166,49.3832 L55.5764,49.2808 L55.9861,49.1706 L56.3951,49.0526 L56.8033,48.9269 L57.2107,48.7934 L57.6172,48.6522 L58.0229,48.5034 L58.4276,48.3468 L58.8312,48.1826 L59.2338,48.0107 L59.6353,47.8313 L60.0357,47.6443 L60.4348,47.4498 L60.8327,47.2477 L61.2293,47.0382 L61.6246,46.8212 L62.0185,46.5968 L62.4109,46.3651 L62.8019,46.126 L63.1913,45.8796 L63.5792,45.626 L63.9654,45.3651 L64.35,45.0971 L64.7329,44.8219 L65.114,44.5396 L65.4933,44.2503 L65.8708,43.954 L66.2464,43.6507 L66.6201,43.3405 L66.9918,43.0235 L67.3615,42.6996 L67.7291,42.369 L68.0946,42.0317 L68.458,41.6878 L68.8192,41.3372 L69.1782,40.9801 L69.5349,40.6166 L69.8893,40.2466 L70.2413,39.8702 L70.591,39.4875 L70.9382,39.0986 L71.283,38.7035 L71.6252,38.3022 L71.965,37.8949 L72.3021,37.4816 L72.6366,37.0624 L72.9685,36.6373 L73.2977,36.2064 L73.6241,35.7698 L73.9478,35.3275 L74.2687,34.8797 L74.5868,34.4263 L74.9019,33.9675 L75.2142,33.5032 L75.5236,33.0337 L75.8299,32.559 L76.1333,32.0791 L76.4337,31.5942 L76.7309,31.1042 L77.0251,30.6093 L77.3161,30.1096 L77.604,29.6051 L77.8887,29.0959 L78.1702,28.5821 L78.4485,28.0638 L78.7234,27.5411 L78.9951,27.014 L79.2634,26.4826 L79.5284,25.9471 L79.79,25.4074 L80.0482,24.8637 L80.303,24.3161 L80.5543,23.7646 L80.8021,23.2094 L81.0464,22.6505 L81.2872,22.088 L81.5244,21.522 L81.7581,20.9526 L81.9882,20.3799 L82.2147,19.804 L82.4375,19.2249 L82.6567,18.6428 L82.8722,18.0578 L83.084,17.4699 L83.2921,16.8792 L83.4965,16.2858 L83.6972,15.6899 L83.8941,15.0915 L84.0872,14.4907 L84.2766,13.8876 L84.4621,13.2824 L84.6438,12.675 L84.8218,12.0656 L84.9958,11.4543 L85.166,10.8412 L85.3324,10.2263 L85.4949,9.6099 L85.6535,8.99193 L85.8082,8.37254 L85.959,7.75183 L86.1059,7.12989 L86.2489,6.50682 L86.3879,5.88273 L86.5231,5.2577 L86.6543,4.63184 L86.7815,4.00524 L86.9048,3.37802 L87.0242,2.75026 L87.1396,2.12206 L87.2511,1.49353 L87.3586,0.86476 L87.4622,0.235854 L87.5618,-0.393088 L87.6574,-1.02197 L87.7491,-1.65069 L87.8369,-2.27914 L87.9207,-2.90724 L88.0005,-3.53488 L88.0764,-4.16196 L88.1484,-4.78837 L88.2164,-5.41404 L88.2805,-6.03884 L88.3406,-6.66269 L88.3968,-7.28548 L88.4492,-7.90713 L88.4976,-8.52752 L88.5421,-9.14656 L88.5827,-9.76415 L88.6195,-10.3802 L88.6524,-10.9946 L88.6814,-11.6073 L88.7066,-12.2181 L88.7279,-12.827 L88.7454,-13.4339 L88.7591,-14.0386 L88.769,-14.6411 L88.7752,-15.2413 L88.7775,-15.8391 L88.7761,-16.4344 L88.771,-17.0271 L88.7621,-17.6171 L88.7496,-18.2043 L88.7334,-18.7886 L88.7135,-19.37 L88.6899,-19.9483 L88.6627,-20.5234 L88.632,-21.0953 L88.5976,-21.6638 L88.5597,-22.2289 L88.5182,-22.7905 L88.4732,-23.3485 L88.4247,-23.9028 L88.3727,-24.4534 L88.3173,-25 L88.2585,-25.5427 L88.1962,-26.0813 L88.1306,-26.6159 L88.0616,-27.1462 L87.9893,-27.6722 L87.9137,-28.1938 L87.8349,-28.711 L87.7528,-29.2236 L87.6675,-29.7317 L87.579,-30.235 L87.4874,-30.7335 L87.3926,-31.2271 L87.2948,-31.7159 L87.1939,-32.1996 L87.09,-32.6782 L86.983,-33.1516 L86.8732,-33.6198 L86.7604,-34.0827 L86.6446,-34.5401 L86.5261,-34.9922 L86.4047,-35.4386 L86.2805,-35.8795 L86.1536,-36.3147 L86.0239,-36.7441 L85.8916,-37.1678 L85.7566,-37.5855 L85.619,-37.9973 L85.4789,-38.4031 L85.3362,-38.8028 L85.191,-39.1964 L85.0433,-39.5838 L84.8933,-39.9649 L84.7408,-40.3397 L84.586,-40.7081 L84.429,-41.07 L84.2696,-41.4255 L84.1081,-41.7744 L83.9444,-42.1167 L83.7785,-42.4523 L83.6106,-42.7812 L83.4406,-43.1034 L83.2686,-43.4187 L83.0946,-43.7272 L82.9188,-44.0287 L82.741,-44.3233 L82.5615,-44.6108 L82.3801,-44.8913 L82.197,-45.1647 L82.0122,-45.431 L81.8257,-45.6901 L81.6377,-45.9419 L81.448,-46.1865 L81.2569,-46.4237 L81.0643,-46.6536 L80.8703,-46.8761 L80.6749,-47.0913 L80.4781,-47.2989 L80.2801,-47.4991 L80.0808,-47.6918 L79.8804,-47.8769 L79.6788,-48.0544 L79.4761,-48.2243 L79.2724,-48.3866 L79.0677,-48.5413 L78.862,-48.6883 L78.6555,-48.8275 L78.4481,-48.9591 L78.2398,-49.0829 L78.0309,-49.1989 L77.8212,-49.3071 L77.6109,-49.4076 L77.3999,-49.5002 L77.1884,-49.585 L76.9764,-49.6619 L76.7639,-49.731 L76.551,-49.7922 L76.3378,-49.8456 L76.1243,-49.891 L75.9105,-49.9286 L75.6964,-49.9582 L75.4822,-49.98 L75.268,-49.9938 L75.0536,-49.9998 L74.8392,-49.9978 L74.6249,-49.9879 L74.4106,-49.9701 L74.1965,-49.9444 L73.9826,-49.9108 L73.7689,-49.8693 L73.5555,-49.8199 L73.3425,-49.7626 L73.1298,-49.6974 L72.9175,-49.6244 L72.7058,-49.5436 L72.4945,-49.4549 L72.2839,-49.3583 L72.0739,-49.254 L71.8646,-49.1418 L71.656,-49.0219 L71.4481,-48.8943 L71.2411,-48.7589 L71.035,-48.6157 L70.8298,-48.4649 L70.6256,-48.3065 L70.4224,-48.1403 L70.2202,-47.9666 L70.0192,-47.7853 L69.8194,-47.5964 L69.6207,-47.3999 L69.4234,-47.196 L69.2273,-46.9846 L69.0325,-46.7658 L68.8392,-46.5396 L68.6473,-46.306 L68.457,-46.0651 L68.2681,-45.8169 L68.0808,-45.5614 L67.8952,-45.2988 L67.7113,-45.0289 L67.529,-44.752 L67.3485,-44.4679 L67.1699,-44.1769 L66.993,-43.8788 L66.8181,-43.5738 L66.6452,-43.2619 L66.4742,-42.9432 L66.3052,-42.6176 L66.1383,-42.2853 L65.9735,-41.9464 L65.8109,-41.6008 L65.6504,-41.2486 L65.4922,-40.8898 L65.3363,-40.5247 L65.1827,-40.1531 L65.0314,-39.7751 L64.8825,-39.3909 L64.7361,-39.0004 L64.5922,-38.6037 L64.4507,-38.201 L64.3119,-37.7922 L64.1756,-37.3774 L64.0419,-36.9567 L63.9109,-36.5301 L63.7826,-36.0978 L63.657,-35.6598 L63.5343,-35.2161 L63.4143,-34.7668 L63.2971,-34.3121 L63.1829,-33.8519 L63.0715,-33.3864 L62.9631,-32.9155 L62.8577,-32.4395 L62.7553,-31.9583 L62.6559,-31.4721 L62.5596,-30.9809 L62.4664,-30.4848 L62.3763,-29.9839 L62.2895,-29.4782 L62.2058,-28.9679 L62.1253,-28.453 L62.0481,-27.9336 L61.9741,-27.4097 L61.9035,-26.8816 L61.8362,-26.3491 L61.7722,-25.8125 L61.7117,-25.2718 L61.6546,-24.7272 L61.6009,-24.1786 L61.5506,-23.6262 L61.5039,-23.07 L61.4606,-22.5102 L61.4209,-21.9468 L61.3848,-21.38 L61.3522,-20.8098 L61.3232,-20.2362 L61.2979,-19.6595 L61.2761,-19.0797 L61.2581,-18.4968 L61.2437,-17.9111 L61.233,-17.3224 L61.226,-16.7311 L61.2227,-16.1371 L61.2232,-15.5405 L61.2274,-14.9415 L61.2354,-14.3402 L61.2473,-13.7365 L61.2629,-13.1307 L61.2823,-12.5228 L61.3055,-11.9129 L61.3326,-11.3012 L61.3636,-10.6876 L61.3984,-10.0724 L61.4371,-9.45554 L61.4797,-8.83721 L61.5261,-8.21749 L61.5765,-7.59646 L61.6308,-6.97423 L61.689,-6.35089 L61.7511,-5.72655 L61.8171,-5.10131 L61.8871,-4.47525 L61.9611,-3.84849 L62.0389,-3.22112 L62.1207,-2.59324 L62.2065,-1.96495 L62.2962,-1.33635 L62.3899,-0.707542 L62.4875,-0.0786184 L62.5891,0.550318 L62.6946,1.17917 L62.8041,1.80783 L62.9176,2.43621 L63.035,3.0642 L63.1563,3.6917 L63.2816,4.31863 L63.4108,4.94487 L63.544,5.57032 L63.6811,6.1949 L63.8221,6.81849 L63.9671,7.44101 L64.1159,8.06235 L64.2687,8.68241 L64.4253,9.3011 L64.5859,9.91832 L64.7503,10.534 L64.9186,11.1479 L65.0907,11.7602 L65.2667,12.3705 L65.4465,12.9789 L65.6302,13.5853 L65.8176,14.1895 L66.0089,14.7914 L66.2039,15.391 L66.4027,15.9882 L66.6052,16.5828 L66.8114,17.1749 L67.0214,17.7642 L67.2351,18.3507 L67.4525,18.9342 L67.6735,19.5148 L67.8981,20.0923 L68.1264,20.6667 L68.3583,21.2377 L68.5937,21.8054 L68.8328,22.3697 L69.0753,22.9304 L69.3214,23.4875 L69.571,24.0408 L69.824,24.5904 L70.0805,25.136 L70.3404,25.6777 L70.6037,26.2154 L70.8703,26.7488 L71.1403,27.2781 L71.4136,27.803 L71.6903,28.3236 L71.9701,28.8396 L72.2532,29.3511 L72.5395,29.8579 L72.829,30.36 L73.1216,30.8574 L73.4173,31.3498 L73.7161,31.8373 L74.018,32.3197 L74.3229,32.797 L74.6307,33.2691 L74.9416,33.736 L75.2553,34.1975 L75.5719,34.6537 L75.8914,35.1043 L76.2137,35.5494 L76.5387,35.9888 L76.8666,36.4226 L77.1971,36.8506 L77.5303,37.2728 L77.8661,37.689 L78.2046,38.0993 L78.5456,38.5036 L78.8891,38.9018 L79.2351,39.2938 L79.5836,39.6796 L79.9344,40.0592 L80.2876,40.4324 L80.6432,40.7992 L81.001,41.1595 L81.3611,41.5133 L81.7234,41.8606 L82.0879,42.2012 L82.4545,42.5352 L82.8231,42.8624 L83.1938,43.1829 L83.5665,43.4965 L83.9411,43.8032 L84.3177,44.103 L84.6961,44.3958 L85.0763,44.6816 L85.4583,44.9604 L85.8421,45.232 L86.2275,45.4964 L86.6145,45.7537 L87.0032,46.0037 L87.3934,46.2465 L87.7851,46.4819 L88.1783,46.7099 L88.5729,46.9306 L88.9688,47.1439 L89.3661,47.3497 L89.7646,47.548 L90.1644,47.7387 L90.5653,47.922 L90.9673,48.0976 L91.3705,48.2656 L91.7747,48.426 L92.1798,48.5788 L92.5859,48.7238 L92.9929,48.8611 L93.4007,48.9907 L93.8093,49.1126 L94.2187,49.2267 L94.6287,49.333 L95.0394,49.4315 L95.4507,49.5221 L95.8625,49.6049 L96.2749,49.6799 L96.6877,49.747 L97.1008,49.8063 L97.5143,49.8577 L97.9282,49.9011 L98.3422,49.9367 L98.7565,49.9644 L99.1709,49.9842 L99.5854,49.996 L100,50"/>
</g>

<g fill="none" stroke="#000000" stroke-opacity="1" stroke-width="1" stroke-linecap="square" stroke-linejoin="bevel" transform="matrix(1,0,0,1,0,0)"
font-family="MS Shell Dlg 2" font-size="8.25" font-weight="400" font-style="normal"
>
</g>

<g fill="none" stroke="#000000" stroke-opacity="1" stroke-width="1" stroke-linecap="square" stroke-linejoin="bevel" transform="matrix(0.515464,0,0,0.515464,6,95.0977)"
font-family="MS Shell Dlg 2" font-size="8.25" font-weight="400" font-style="normal"
>
</g>

<g fill="#d4d4d4" fill-opacity="1" stroke="none" transform="matrix(0.046154,0,0,0.0459502,6,95.0977)"
font-family="MS Shell Dlg 2" font-size="8.25" font-weight="400" font-style="normal"
>
<path vector-effect="none" fill-rule="evenodd" d="M-0.47,391.456 C-0.47,363.021 14.0477,339.97 31.9561,339.97 L2128.84,339.97 C2146.75,339.97 2161.27,363.021 2161.27,391.456 L2161.27,527.954 C2161.27,556.389 2146.75,579.44 2128.84,579.44 L31.9561,579.44 C14.0477,579.44 -0.47,556.389 -0.47,527.954 L-0.47,391.456"/>
</g>

<g fill="none" stroke="#000000" stroke-opacity="1" stroke-width="10.41" stroke-linecap="butt" stroke-linejoin="miter" stroke-miterlimit="2.61313" transform="matrix(0.046154,0,0,0.0459502,6,95.0977)"
font-family="MS Shell Dlg 2" font-size="8.25" font-weight="400" font-style="normal"
>
<path vector-effect="none" fill-rule="evenodd" d="M-0.47,391.456 C-0.47,363.021 14.0477,339.97 31.9561,339.97 L2128.84,339.97 C2146.75,339.97 2161.27,363.021 2161.27,391.456 L2161.27,527.954 C2161.27,556.389 2146.75,579.44 2128.84,579.44 L31.9561,579.44 C14.0477,579.44 -0.47,556.389 -0.47,527.954 L-0.47,391.456"/>
</g>

<g fill="#000000" fill-opacity="1" stroke="none" transform="matrix(0.046154,0,0,0.0459502,6,95.0977)"
font-family="MS Shell Dlg 2" font-size="8.25" font-weight="400" font-style="normal"
>
<path vector-effect="none" fill-rule="evenodd" d="M89.46,5.76 L202.49,5.76 C207.24,5.76 211.12,9.64 211.12,14.39 L211.12,339.98 L80.84,339.98 L80.84,14.39 C80.84,9.64 84.72,5.76 89.47,5.76 L89.46,5.76"/>
</g>

<g fill="none" stroke="#000000" stroke-opacity="1" stroke-width="10.41" stroke-linecap="butt" stroke-linejoin="miter" stroke-miterlimit="2.61313" transform="matrix(0.046154,0,0,0.0459502,6,95.0977)"
font-family="MS Shell Dlg 2" font-size="8.25" font-weight="400" font-style="normal"
>
<path vector-effect="none" fill-rule="evenodd" d="M89.46,5.76 L202.49,5.76 C207.24,5.76 211.12,9.64 211.12,14.39 L211.12,339.98 L80.84,339.98 L80.84,14.39 C80.84,9.64 84.72,5.76 89.47,5.76 L89.46,5.76"/>
</g>

<g fill="#000000" fill-opacity="1" stroke="none" transform="matrix(0.046154,0,0,0.0459502,6,95.0977)"
font-family="MS Shell Dlg 2" font-size="8.25" font-weight="400" font-style="normal"
>
<path vector-effect="none" fill-rule="evenodd" d="M1964.43,5.76 L2077.46,5.76 C2082.21,5.76 2086.09,9.64 2086.09,14.39 L2086.09,339.98 L1955.81,339.98 L1955.81,14.39 C1955.81,9.64 1959.69,5.76 1964.44,5.76 L1964.43,5.76"/>
</g>

<g fill="none" stroke="#000000" stroke-opacity="1" stroke-width="10.41" stroke-linecap="butt" stroke-linejoin="miter" stroke-miterlimit="2.61313" transform="matrix(0.046154,0,0,0.0459502,6,95.0977)"
font-family="MS Shell Dlg 2" font-size="8.25" font-weight="400" font-style="normal"
>
<path vector-effect="none" fill-rule="evenodd" d="M1964.43,5.76 L2077.46,5.76 C2082.21,5.76 2086.09,9.64 2086.09,14.39 L2086.09,339.98 L1955.81,339.98 L1955.81,14.39 C1955.81,9.64 1959.69,5.76 1964.44,5.76 L1964.43,5.76"/>
</g>

<g fill="none" stroke="#000000" stroke-opacity="1" stroke-width="1" stroke-linecap="square" stroke-linejoin="bevel" transform="matrix(0.515464,0,0,0.515464,6,95.0977)"
font-family="MS Shell Dlg 2" font-size="8.25" font-weight="400" font-style="normal"
>
</g>

<g fill="none" stroke="#000000" stroke-opacity="1" stroke-width="1" stroke-linecap="square" stroke-linejoin="bevel" transform="matrix(1,0,0,1,0,0)"
font-family="MS Shell Dlg 2" font-size="8.25" font-weight="400" font-style="normal"
>
</g>

<g fill="#1f2937" fill-opacity="1" stroke="#000000" stroke-opacity="0" stroke-width="1" stroke-linecap="square" stroke-linejoin="bevel" transform="matrix(1,0,0,1,6,103.5)"
font-family="MS Shell Dlg 2" font-size="8.25" font-weight="400" font-style="normal"
>
<circle cx="0" cy="0" r="3"/>
</g>

<g fill="none" stroke="#1f2937" stroke-opacity="1" stroke-width="1" stroke-linecap="square" stroke-linejoin="bevel" transform="matrix(1,0,0,1,6,103.5)"
font-family="MS Shell Dlg 2" font-size="8.25" font-weight="400" font-style="normal"
>
<path vector-effect="none" fill-rule="evenodd" d="M5,0 C5,-2.76142 2.76142,-5 0,-5 C-2.76142,-5 -5,-2.76142 -5,0 C-5,2.76142 -2.76142,5 0,5 "/>
</g>

<g fill="none" stroke="#000000" stroke-opacity="1" stroke-width="1" stroke-linecap="square" stroke-linejoin="bevel" transform="matrix(1,0,0,1,0,0)"
font-family="MS Shell Dlg 2" font-size="8.25" font-weight="400" font-style="normal"
>
</g>

<g fill="#1f2937" fill-opacity="1" stroke="#000000" stroke-opacity="0" stroke-width="1" stroke-linecap="square" stroke-linejoin="bevel" transform="matrix(1,0,0,1,106,103.5)"
font-family="MS Shell Dlg 2" font-size="8.25" font-weight="400" font-style="normal"
>
<circle cx="0" cy="0" r="3"/>
</g>

<g fill="none" stroke="#1f2937" stroke-opacity="1" stroke-width="1" stroke-linecap="square" stroke-linejoin="bevel" transform="matrix(1,0,0,1,106,103.5)"
font-family="MS Shell Dlg 2" font-size="8.25" font-weight="400" font-style="normal"
>
<path vector-effect="none" fill-rule="evenodd" d="M5,0 C5,-2.76142 2.76142,-5 0,-5 C-2.76142,-5 -5,-2.76142 -5,0 C-5,2.76142 -2.76142,5 0,5 "/>
</g>

<g fill="none" stroke="#000000" stroke-opacity="1" stroke-width="1" stroke-linecap="square" stroke-linejoin="bevel" transform="matrix(1,0,0,1,0,0)"
font-family="MS Shell Dlg 2" font-size="8.25" font-weight="400" font-style="normal"
>
</g>
</g>
</svg>
