<?xml version="1.0" encoding="UTF-8" standalone="no"?>
<svg width="35.9833mm" height="36.3361mm"
 viewBox="0 0 102 102"
 xmlns="http://www.w3.org/2000/svg" xmlns:xlink="http://www.w3.org/1999/xlink"  version="1.2" baseProfile="tiny">
<title>MFCComponent</title>
<desc>Chemunited component figure exported without name or port labels.</desc>
<defs>
</defs>
<g fill="none" stroke="black" stroke-width="1" fill-rule="evenodd" stroke-linecap="square" stroke-linejoin="bevel" >

<g fill="none" stroke="#000000" stroke-opacity="1" stroke-width="1" stroke-linecap="square" stroke-linejoin="bevel" transform="matrix(1,0,0,1,0,0)"
font-family="MS Shell Dlg 2" font-size="8.25" font-weight="400" font-style="normal" 
>
</g>

<g fill="none" stroke="#000000" stroke-opacity="1" stroke-width="1" stroke-linecap="square" stroke-linejoin="bevel" transform="matrix(1,0,0,1,0,0)"
font-family="MS Shell Dlg 2" font-size="8.25" font-weight="400" font-style="normal" 
>
</g>

<g fill="none" stroke="#000000" stroke-opacity="1" stroke-width="1" stroke-linecap="square" stroke-linejoin="bevel" transform="matrix(0.289017,0,0,0.289017,5.04624,1)"
font-family="MS Shell Dlg 2" font-size="8.25" font-weight="400" font-style="normal" 
>
</g>

<g fill="#e8e8e8" fill-opacity="1" stroke="none" transform="matrix(0.0259504,0,0,0.0259459,5.04624,1)"
font-family="MS Shell Dlg 2" font-size="8.25" font-weight="400" font-style="normal" 
>
<rect x="424.13" y="2607.15" width="2692.65" height="1180.98"/>
</g>

<g fill="none" stroke="#000000" stroke-opacity="1" stroke-width="10.41" stroke-linecap="butt" stroke-linejoin="miter" stroke-miterlimit="2.61313" transform="matrix(0.0259504,0,0,0.0259459,5.04624,1)"
font-family="MS Shell Dlg 2" font-size="8.25" font-weight="400" font-style="normal" 
>
<rect x="424.13" y="2607.15" width="2692.65" height="1180.98"/>
</g>

<g fill="#8a8a8a" fill-opacity="1" stroke="none" transform="matrix(0.0259504,0,0,0.0259459,5.04624,1)"
font-family="MS Shell Dlg 2" font-size="8.25" font-weight="400" font-style="normal" 
>
<rect x="2275.97" y="1473.99" width="547.98" height="1133.74"/>
</g>

<g fill="none" stroke="#000000" stroke-opacity="1" stroke-width="10.41" stroke-linecap="butt" stroke-linejoin="miter" stroke-miterlimit="2.61313" transform="matrix(0.0259504,0,0,0.0259459,5.04624,1)"
font-family="MS Shell Dlg 2" font-size="8.25" font-weight="400" font-style="normal" 
>
<rect x="2275.97" y="1473.99" width="547.98" height="1133.74"/>
</g>

<g fill="#342db5" fill-opacity="1" stroke="none" transform="matrix(0.0259504,0,0,0.0259459,5.04624,1)"
font-family="MS Shell Dlg 2" font-size="8.25" font-weight="400" font-style="normal" 
>
<rect x="2408.19" y="1330.45" width="249.71" height="143.54"/>
</g>

<g fill="none" stroke="#000000" stroke-opacity="1" stroke-width="10.41" stroke-linecap="butt" stroke-linejoin="miter" stroke-miterlimit="2.61313" transform="matrix(0.0259504,0,0,0.0259459,5.04624,1)"
font-family="MS Shell Dlg 2" font-size="8.25" font-weight="400" font-style="normal" 
>
<rect x="2408.19" y="1330.45" width="249.71" height="143.54"/>
</g>

<g fill="#000000" fill-opacity="1" stroke="none" transform="matrix(0.0259504,0,0,0.0259459,5.04624,1)"
font-family="MS Shell Dlg 2" font-size="8.25" font-weight="400" font-style="normal" 
>
<rect x="2386.04" y="1264.32" width="292.89" height="66.13"/>
</g>

<g fill="none" stroke="#000000" stroke-opacity="1" stroke-width="10.41" stroke-linecap="butt" stroke-linejoin="miter" stroke-miterlimit="2.61313" transform="matrix(0.0259504,0,0,0.0259459,5.04624,1)"
font-family="MS Shell Dlg 2" font-size="8.25" font-weight="400" font-style="normal" 
>
<rect x="2386.04" y="1264.32" width="292.89" height="66.13"/>
</g>

<g fill="#000000" fill-opacity="1" stroke="none" transform="matrix(0.0259504,0,0,0.0259459,5.04624,1)"
font-family="MS Shell Dlg 2" font-size="8.25" font-weight="400" font-style="normal" 
>
<rect x="518.61" y="150.7" width="368.46" height="47.24"/>
</g>

<g fill="none" stroke="#000000" stroke-opacity="1" stroke-width="10.41" stroke-linecap="butt" stroke-linejoin="miter" stroke-miterlimit="2.61313" transform="matrix(0.0259504,0,0,0.0259459,5.04624,1)"
font-family="MS Shell Dlg 2" font-size="8.25" font-weight="400" font-style="normal" 
>
<rect x="518.61" y="150.7" width="368.46" height="47.24"/>
</g>

<g fill="#a6a3a3" fill-opacity="1" stroke="none" transform="matrix(0.0259504,0,0,0.0259459,5.04624,1)"
font-family="MS Shell Dlg 2" font-size="8.25" font-weight="400" font-style="normal" 
>
<rect x="234.1" y="3122.06" width="189.07" height="406.26"/>
</g>

<g fill="none" stroke="#000000" stroke-opacity="1" stroke-width="10.41" stroke-linecap="butt" stroke-linejoin="miter" stroke-miterlimit="2.61313" transform="matrix(0.0259504,0,0,0.0259459,5.04624,1)"
font-family="MS Shell Dlg 2" font-size="8.25" font-weight="400" font-style="normal" 
>
<rect x="234.1" y="3122.06" width="189.07" height="406.26"/>
</g>

<g fill="#bababa" fill-opacity="1" stroke="none" transform="matrix(0.0259504,0,0,0.0259459,5.04624,1)"
font-family="MS Shell Dlg 2" font-size="8.25" font-weight="400" font-style="normal" 
>
<rect x="74.39" y="3188.09" width="160.61" height="245.65"/>
</g>

<g fill="none" stroke="#000000" stroke-opacity="1" stroke-width="10.41" stroke-linecap="butt" stroke-linejoin="miter" stroke-miterlimit="2.61313" transform="matrix(0.0259504,0,0,0.0259459,5.04624,1)"
font-family="MS Shell Dlg 2" font-size="8.25" font-weight="400" font-style="normal" 
>
<rect x="74.39" y="3188.09" width="160.61" height="245.65"/>
</g>

<g fill="#000000" fill-opacity="1" stroke="none" transform="matrix(0.0259504,0,0,0.0259459,5.04624,1)"
font-family="MS Shell Dlg 2" font-size="8.25" font-weight="400" font-style="normal" 
>
<rect x="1002.43" y="144.12" width="368.46" height="47.24"/>
</g>

<g fill="none" stroke="#000000" stroke-opacity="1" stroke-width="10.41" stroke-linecap="butt" stroke-linejoin="miter" stroke-miterlimit="2.61313" transform="matrix(0.0259504,0,0,0.0259459,5.04624,1)"
font-family="MS Shell Dlg 2" font-size="8.25" font-weight="400" font-style="normal" 
>
<rect x="1002.43" y="144.12" width="368.46" height="47.24"/>
</g>

<g fill="#000000" fill-opacity="1" stroke="none" transform="matrix(0.0259504,0,0,0.0259459,5.04624,1)"
font-family="MS Shell Dlg 2" font-size="8.25" font-weight="400" font-style="normal" 
>
<rect x="1472.17" y="150.7" width="368.46" height="47.24"/>
</g>

<g fill="none" stroke="#000000" stroke-opacity="1" stroke-width="10.41" stroke-linecap="butt" stroke-linejoin="miter" stroke-miterlimit="2.61313" transform="matrix(0.0259504,0,0,0.0259459,5.04624,1)"
font-family="MS Shell Dlg 2" font-size="8.25" font-weight="400" font-style="normal" 
>
<rect x="1472.17" y="150.7" width="368.46" height="47.24"/>
</g>

<g fill="#045266" fill-opacity="1" stroke="none" transform="matrix(0.0259504,0,0,0.0259459,5.04624,1)"
font-family="MS Shell Dlg 2" font-size="8.25" font-weight="400" font-style="normal" 
>
<rect x="425.7" y="197.94" width="1849.28" height="2816.22"/>
</g>

<g fill="none" stroke="#000000" stroke-opacity="1" stroke-width="10.41" stroke-linecap="butt" stroke-linejoin="miter" stroke-miterlimit="2.61313" transform="matrix(0.0259504,0,0,0.0259459,5.04624,1)"
font-family="MS Shell Dlg 2" font-size="8.25" font-weight="400" font-style="normal" 
>
<rect x="425.7" y="197.94" width="1849.28" height="2816.22"/>
</g>

<g fill="#a6a3a3" fill-opacity="1" stroke="none" transform="matrix(0.0259504,0,0,0.0259459,5.04624,1)"
font-family="MS Shell Dlg 2" font-size="8.25" font-weight="400" font-style="normal" 
>
<rect x="3112.94" y="3017.71" width="189.07" height="406.26"/>
</g>

<g fill="none" stroke="#000000" stroke-opacity="1" stroke-width="10.41" stroke-linecap="butt" stroke-linejoin="miter" stroke-miterlimit="2.61313" transform="matrix(0.0259504,0,0,0.0259459,5.04624,1)"
font-family="MS Shell Dlg 2" font-size="8.25" font-weight="400" font-style="normal" 
>
<rect x="3112.94" y="3017.71" width="189.07" height="406.26"/>
</g>

<g fill="#bababa" fill-opacity="1" stroke="none" transform="matrix(0.0259504,0,0,0.0259459,5.04624,1)"
font-family="MS Shell Dlg 2" font-size="8.25" font-weight="400" font-style="normal" 
>
<rect x="3300.97" y="3088.63" width="160.61" height="245.65"/>
</g>

<g fill="none" stroke="#000000" stroke-opacity="1" stroke-width="10.41" stroke-linecap="butt" stroke-linejoin="miter" stroke-miterlimit="2.61313" transform="matrix(0.0259504,0,0,0.0259459,5.04624,1)"
font-family="MS Shell Dlg 2" font-size="8.25" font-weight="400" font-style="normal" 
>
<rect x="3300.97" y="3088.63" width="160.61" height="245.65"/>
</g>

<g fill="#ffffff" fill-opacity="1" stroke="none" transform="matrix(0.0259504,0,0,0.0259459,5.04624,1)"
font-family="MS Shell Dlg 2" font-size="8.25" font-weight="400" font-style="normal" 
>
<rect x="586.39" y="2356.54" width="986.43" height="300.63"/>
</g>

<g fill="#ffffff" fill-opacity="1" stroke="none" transform="matrix(0.0259504,0,0,0.0259459,5.04624,1)"
font-family="MS Shell Dlg 2" font-size="8.25" font-weight="400" font-style="normal" 
>
<path vector-effect="none" fill-rule="evenodd" d="M1941.56,2496.36 L1673.81,2642.81 L1406.07,2789.25 L1406.07,2496.36 L1406.07,2203.46 L1673.81,2349.91 L1941.56,2496.36"/>
</g>

<g fill="none" stroke="#000000" stroke-opacity="1" stroke-width="1" stroke-linecap="square" stroke-linejoin="bevel" transform="matrix(0.289017,0,0,0.289017,5.04624,1)"
font-family="MS Shell Dlg 2" font-size="8.25" font-weight="400" font-style="normal" 
>
</g>

<g fill="none" stroke="#000000" stroke-opacity="1" stroke-width="1" stroke-linecap="square" stroke-linejoin="bevel" transform="matrix(1,0,0,1,0,0)"
font-family="MS Shell Dlg 2" font-size="8.25" font-weight="400" font-style="normal" 
>
</g>

<g fill="#1f2937" fill-opacity="1" stroke="#000000" stroke-opacity="0" stroke-width="1" stroke-linecap="square" stroke-linejoin="bevel" transform="matrix(1,0,0,1,6,86)"
font-family="MS Shell Dlg 2" font-size="8.25" font-weight="400" font-style="normal" 
>
<circle cx="0" cy="0" r="3"/>
</g>

<g fill="none" stroke="#1f2937" stroke-opacity="1" stroke-width="1" stroke-linecap="square" stroke-linejoin="bevel" transform="matrix(1,0,0,1,6,86)"
font-family="MS Shell Dlg 2" font-size="8.25" font-weight="400" font-style="normal" 
>
<path vector-effect="none" fill-rule="evenodd" d="M5,0 C5,-2.76142 2.76142,-5 0,-5 C-2.76142,-5 -5,-2.76142 -5,0 C-5,2.76142 -2.76142,5 0,5 "/>
</g>

<g fill="none" stroke="#000000" stroke-opacity="1" stroke-width="1" stroke-linecap="square" stroke-linejoin="bevel" transform="matrix(1,0,0,1,0,0)"
font-family="MS Shell Dlg 2" font-size="8.25" font-weight="400" font-style="normal" 
>
</g>

<g fill="#1f2937" fill-opacity="1" stroke="#000000" stroke-opacity="0" stroke-width="1" stroke-linecap="square" stroke-linejoin="bevel" transform="matrix(1,0,0,1,96,86)"
font-family="MS Shell Dlg 2" font-size="8.25" font-weight="400" font-style="normal" 
>
<circle cx="0" cy="0" r="3"/>
</g>

<g fill="none" stroke="#1f2937" stroke-opacity="1" stroke-width="1" stroke-linecap="square" stroke-linejoin="bevel" transform="matrix(1,0,0,1,96,86)"
font-family="MS Shell Dlg 2" font-size="8.25" font-weight="400" font-style="normal" 
>
<path vector-effect="none" fill-rule="evenodd" d="M5,0 C5,-2.76142 2.76142,-5 0,-5 C-2.76142,-5 -5,-2.76142 -5,0 C-5,2.76142 -2.76142,5 0,5 "/>
</g>

<g fill="none" stroke="#000000" stroke-opacity="1" stroke-width="1" stroke-linecap="square" stroke-linejoin="bevel" transform="matrix(1,0,0,1,0,0)"
font-family="MS Shell Dlg 2" font-size="8.25" font-weight="400" font-style="normal" 
>
</g>
</g>
</svg>
