<?xml version="1.0" encoding="UTF-8" standalone="no"?>
<svg width="14.8167mm" height="50.8mm"
 viewBox="0 0 42 143.308"
 xmlns="http://www.w3.org/2000/svg" xmlns:xlink="http://www.w3.org/1999/xlink"  version="1.2" baseProfile="tiny">
<title>MultiChannelRelay</title>
<desc>Chemunited component figure exported without name or port labels.</desc>
<defs>
</defs>
<g fill="none" stroke="black" stroke-width="1" fill-rule="evenodd" stroke-linecap="square" stroke-linejoin="bevel" >

<g fill="none" stroke="#000000" stroke-opacity="1" stroke-width="1" stroke-linecap="square" stroke-linejoin="bevel" transform="matrix(1,0,0,1,0,0)"
font-family="MS Shell Dlg 2" font-size="8.25" font-weight="400" font-style="normal" 
>
</g>

<g fill="none" stroke="#000000" stroke-opacity="1" stroke-width="1" stroke-linecap="square" stroke-linejoin="bevel" transform="matrix(1,0,0,1,0,0)"
font-family="MS Shell Dlg 2" font-size="8.25" font-weight="400" font-style="normal" 
>
</g>

<g fill="#ffffff" fill-opacity="1" stroke="#000000" stroke-opacity="1" stroke-width="1" stroke-linecap="square" stroke-linejoin="bevel" transform="matrix(1,0,0,1,21,67)"
font-family="MS Shell Dlg 2" font-size="8.25" font-weight="400" font-style="normal" 
>
<rect x="-7.5" y="-66" width="15" height="132"/>
</g>

<g fill="#ffffff" fill-opacity="1" stroke="#e8f5e9" stroke-opacity="1" stroke-width="2" stroke-linecap="square" stroke-linejoin="bevel" transform="matrix(1,0,0,1,21,67)"
font-family="MS Shell Dlg 2" font-size="8.25" font-weight="400" font-style="normal" 
>
<circle cx="0" cy="-58" r="4"/>
<circle cx="0" cy="-42" r="4"/>
<circle cx="0" cy="-26" r="4"/>
<circle cx="0" cy="-10" r="4"/>
<circle cx="0" cy="6" r="4"/>
<circle cx="0" cy="22" r="4"/>
<circle cx="0" cy="38" r="4"/>
<circle cx="0" cy="54" r="4"/>
</g>

<g fill="none" stroke="#000000" stroke-opacity="1" stroke-width="1" stroke-linecap="square" stroke-linejoin="bevel" transform="matrix(1,0,0,1,0,0)"
font-family="MS Shell Dlg 2" font-size="8.25" font-weight="400" font-style="normal" 
>
</g>

<g fill="none" stroke="#000000" stroke-opacity="1" stroke-width="1" stroke-linecap="square" stroke-linejoin="bevel" transform="matrix(0.125786,0,0,0.125786,1,133)"
font-family="MS Shell Dlg 2" font-size="8.25" font-weight="400" font-style="normal" 
>
</g>

<g fill="none" stroke="none" transform="matrix(0.0112941,0,0,0.0111699,1,133)"
font-family="MS Shell Dlg 2" font-size="8.25" font-weight="400" font-style="normal" 
>
<rect x="-2.75" y="61.21" width="3530.1" height="543.05"/>
</g>

<g fill="none" stroke="#000000" stroke-opacity="1" stroke-width="10.41" stroke-linecap="butt" stroke-linejoin="miter" stroke-miterlimit="2.61313" transform="matrix(0.0112941,0,0,0.0111699,1,133)"
font-family="MS Shell Dlg 2" font-size="8.25" font-weight="400" font-style="normal" 
>
<rect x="-2.75" y="61.21" width="3530.1" height="543.05"/>
</g>

<g fill="#000000" fill-opacity="1" stroke="none" transform="matrix(0.0112941,0,0,0.0111699,1,133)"
font-family="MS Shell Dlg 2" font-size="8.25" font-weight="400" font-style="normal" 
>
<rect x="225.53" y="604.26" width="1104" height="169.38"/>
</g>

<g fill="none" stroke="#000000" stroke-opacity="1" stroke-width="10.41" stroke-linecap="butt" stroke-linejoin="miter" stroke-miterlimit="2.61313" transform="matrix(0.0112941,0,0,0.0111699,1,133)"
font-family="MS Shell Dlg 2" font-size="8.25" font-weight="400" font-style="normal" 
>
<rect x="225.53" y="604.26" width="1104" height="169.38"/>
</g>

<g fill="#000000" fill-opacity="1" stroke="none" transform="matrix(0.0112941,0,0,0.0111699,1,133)"
font-family="MS Shell Dlg 2" font-size="8.25" font-weight="400" font-style="normal" 
>
<rect x="2204.68" y="604.26" width="1104" height="169.38"/>
</g>

<g fill="none" stroke="#000000" stroke-opacity="1" stroke-width="10.41" stroke-linecap="butt" stroke-linejoin="miter" stroke-miterlimit="2.61313" transform="matrix(0.0112941,0,0,0.0111699,1,133)"
font-family="MS Shell Dlg 2" font-size="8.25" font-weight="400" font-style="normal" 
>
<rect x="2204.68" y="604.26" width="1104" height="169.38"/>
</g>

<g fill="#000000" fill-opacity="1" stroke="none" transform="matrix(0.0112941,0,0,0.0111699,1,133)"
font-family="MS Shell Dlg 2" font-size="8.25" font-weight="400" font-style="normal" 
>
<rect x="909.65" y="386.49" width="860.84" height="116.89"/>
</g>

<g fill="none" stroke="#000000" stroke-opacity="1" stroke-width="10.41" stroke-linecap="butt" stroke-linejoin="miter" stroke-miterlimit="2.61313" transform="matrix(0.0112941,0,0,0.0111699,1,133)"
font-family="MS Shell Dlg 2" font-size="8.25" font-weight="400" font-style="normal" 
>
<rect x="909.65" y="386.49" width="860.84" height="116.89"/>
</g>

<g fill="#000000" fill-opacity="1" stroke="none" transform="matrix(0.0112941,0,0,0.0111699,1,133)"
font-family="MS Shell Dlg 2" font-size="8.25" font-weight="400" font-style="normal" 
>
<rect x="1663.04" y="152.98" width="107.13" height="350.18"/>
</g>

<g fill="none" stroke="#000000" stroke-opacity="1" stroke-width="10.41" stroke-linecap="butt" stroke-linejoin="miter" stroke-miterlimit="2.61313" transform="matrix(0.0112941,0,0,0.0111699,1,133)"
font-family="MS Shell Dlg 2" font-size="8.25" font-weight="400" font-style="normal" 
>
<rect x="1663.04" y="152.98" width="107.13" height="350.18"/>
</g>

<g fill="#000000" fill-opacity="1" stroke="none" transform="matrix(0.0112941,0,0,0.0111699,1,133)"
font-family="MS Shell Dlg 2" font-size="8.25" font-weight="400" font-style="normal" 
>
<rect x="1661.86" y="151.47" width="860.84" height="116.89"/>
</g>

<g fill="none" stroke="#000000" stroke-opacity="1" stroke-width="10.41" stroke-linecap="butt" stroke-linejoin="miter" stroke-miterlimit="2.61313" transform="matrix(0.0112941,0,0,0.0111699,1,133)"
font-family="MS Shell Dlg 2" font-size="8.25" font-weight="400" font-style="normal" 
>
<rect x="1661.86" y="151.47" width="860.84" height="116.89"/>
</g>

<g fill="none" stroke="#000000" stroke-opacity="1" stroke-width="1" stroke-linecap="square" stroke-linejoin="bevel" transform="matrix(0.125786,0,0,0.125786,1,133)"
font-family="MS Shell Dlg 2" font-size="8.25" font-weight="400" font-style="normal" 
>
</g>

<g fill="none" stroke="#000000" stroke-opacity="1" stroke-width="1" stroke-linecap="square" stroke-linejoin="bevel" transform="matrix(1,0,0,1,0,0)"
font-family="MS Shell Dlg 2" font-size="8.25" font-weight="400" font-style="normal" 
>
</g>

<g fill="#808000" fill-opacity="1" stroke="#000000" stroke-opacity="0" stroke-width="1" stroke-linecap="square" stroke-linejoin="bevel" transform="matrix(1,0,0,1,21,9)"
font-family="MS Shell Dlg 2" font-size="8.25" font-weight="400" font-style="normal" 
>
<circle cx="0" cy="0" r="2"/>
</g>

<g fill="none" stroke="#000000" stroke-opacity="1" stroke-width="1" stroke-linecap="square" stroke-linejoin="bevel" transform="matrix(1,0,0,1,0,0)"
font-family="MS Shell Dlg 2" font-size="8.25" font-weight="400" font-style="normal" 
>
</g>

<g fill="#808000" fill-opacity="1" stroke="#000000" stroke-opacity="0" stroke-width="1" stroke-linecap="square" stroke-linejoin="bevel" transform="matrix(1,0,0,1,21,25)"
font-family="MS Shell Dlg 2" font-size="8.25" font-weight="400" font-style="normal" 
>
<circle cx="0" cy="0" r="2"/>
</g>

<g fill="none" stroke="#000000" stroke-opacity="1" stroke-width="1" stroke-linecap="square" stroke-linejoin="bevel" transform="matrix(1,0,0,1,0,0)"
font-family="MS Shell Dlg 2" font-size="8.25" font-weight="400" font-style="normal" 
>
</g>

<g fill="#808000" fill-opacity="1" stroke="#000000" stroke-opacity="0" stroke-width="1" stroke-linecap="square" stroke-linejoin="bevel" transform="matrix(1,0,0,1,21,41)"
font-family="MS Shell Dlg 2" font-size="8.25" font-weight="400" font-style="normal" 
>
<circle cx="0" cy="0" r="2"/>
</g>

<g fill="none" stroke="#000000" stroke-opacity="1" stroke-width="1" stroke-linecap="square" stroke-linejoin="bevel" transform="matrix(1,0,0,1,0,0)"
font-family="MS Shell Dlg 2" font-size="8.25" font-weight="400" font-style="normal" 
>
</g>

<g fill="#808000" fill-opacity="1" stroke="#000000" stroke-opacity="0" stroke-width="1" stroke-linecap="square" stroke-linejoin="bevel" transform="matrix(1,0,0,1,21,57)"
font-family="MS Shell Dlg 2" font-size="8.25" font-weight="400" font-style="normal" 
>
<circle cx="0" cy="0" r="2"/>
</g>

<g fill="none" stroke="#000000" stroke-opacity="1" stroke-width="1" stroke-linecap="square" stroke-linejoin="bevel" transform="matrix(1,0,0,1,0,0)"
font-family="MS Shell Dlg 2" font-size="8.25" font-weight="400" font-style="normal" 
>
</g>

<g fill="#808000" fill-opacity="1" stroke="#000000" stroke-opacity="0" stroke-width="1" stroke-linecap="square" stroke-linejoin="bevel" transform="matrix(1,0,0,1,21,73)"
font-family="MS Shell Dlg 2" font-size="8.25" font-weight="400" font-style="normal" 
>
<circle cx="0" cy="0" r="2"/>
</g>

<g fill="none" stroke="#000000" stroke-opacity="1" stroke-width="1" stroke-linecap="square" stroke-linejoin="bevel" transform="matrix(1,0,0,1,0,0)"
font-family="MS Shell Dlg 2" font-size="8.25" font-weight="400" font-style="normal" 
>
</g>

<g fill="#808000" fill-opacity="1" stroke="#000000" stroke-opacity="0" stroke-width="1" stroke-linecap="square" stroke-linejoin="bevel" transform="matrix(1,0,0,1,21,89)"
font-family="MS Shell Dlg 2" font-size="8.25" font-weight="400" font-style="normal" 
>
<circle cx="0" cy="0" r="2"/>
</g>

<g fill="none" stroke="#000000" stroke-opacity="1" stroke-width="1" stroke-linecap="square" stroke-linejoin="bevel" transform="matrix(1,0,0,1,0,0)"
font-family="MS Shell Dlg 2" font-size="8.25" font-weight="400" font-style="normal" 
>
</g>

<g fill="#808000" fill-opacity="1" stroke="#000000" stroke-opacity="0" stroke-width="1" stroke-linecap="square" stroke-linejoin="bevel" transform="matrix(1,0,0,1,21,105)"
font-family="MS Shell Dlg 2" font-size="8.25" font-weight="400" font-style="normal" 
>
<circle cx="0" cy="0" r="2"/>
</g>

<g fill="none" stroke="#000000" stroke-opacity="1" stroke-width="1" stroke-linecap="square" stroke-linejoin="bevel" transform="matrix(1,0,0,1,0,0)"
font-family="MS Shell Dlg 2" font-size="8.25" font-weight="400" font-style="normal" 
>
</g>

<g fill="#808000" fill-opacity="1" stroke="#000000" stroke-opacity="0" stroke-width="1" stroke-linecap="square" stroke-linejoin="bevel" transform="matrix(1,0,0,1,21,121)"
font-family="MS Shell Dlg 2" font-size="8.25" font-weight="400" font-style="normal" 
>
<circle cx="0" cy="0" r="2"/>
</g>

<g fill="none" stroke="#000000" stroke-opacity="1" stroke-width="1" stroke-linecap="square" stroke-linejoin="bevel" transform="matrix(1,0,0,1,0,0)"
font-family="MS Shell Dlg 2" font-size="8.25" font-weight="400" font-style="normal" 
>
</g>
</g>
</svg>
