<?xml version="1.0" encoding="UTF-8" standalone="no"?>
<svg width="37.0417mm" height="30.6917mm"
 viewBox="0 0 105 86.8028"
 xmlns="http://www.w3.org/2000/svg" xmlns:xlink="http://www.w3.org/1999/xlink"  version="1.2" baseProfile="tiny">
<title>PeltierCoolerTemperatureControl</title>
<desc>Chemunited component figure exported without name or port labels.</desc>
<defs>
</defs>
<g fill="none" stroke="black" stroke-width="1" fill-rule="evenodd" stroke-linecap="square" stroke-linejoin="bevel" >

<g fill="none" stroke="#000000" stroke-opacity="1" stroke-width="1" stroke-linecap="square" stroke-linejoin="bevel" transform="matrix(1,0,0,1,0,0)"
font-family="MS Shell Dlg 2" font-size="8.25" font-weight="400" font-style="normal" 
>
</g>

<g fill="none" stroke="#000000" stroke-opacity="1" stroke-width="1" stroke-linecap="square" stroke-linejoin="bevel" transform="matrix(1,0,0,1,0,0)"
font-family="MS Shell Dlg 2" font-size="8.25" font-weight="400" font-style="normal" 
>
</g>

<g fill="none" stroke="#000000" stroke-opacity="1" stroke-width="1" stroke-linecap="square" stroke-linejoin="bevel" transform="matrix(0.116009,0,0,0.116009,1,1)"
font-family="MS Shell Dlg 2" font-size="8.25" font-weight="400" font-style="normal" 
>
</g>

<g fill="#000000" fill-opacity="1" stroke="none" transform="matrix(0.00737851,-0.00738027,0.00934519,0.00934742,59.2809,26.6757)"
font-family="MS Shell Dlg 2" font-size="8.25" font-weight="400" font-style="normal" 
>
<path vector-effect="none" fill-rule="evenodd" d="M0,338.944 C0,151.751 157.033,0 350.742,0 L357.828,0 C551.537,0 708.57,151.751 708.57,338.944 L708.57,3648.64 C708.57,3835.83 551.537,3987.58 357.828,3987.58 L350.742,3987.58 C157.033,3987.58 0,3835.83 0,3648.64 L0,338.944"/>
</g>

<g fill="none" stroke="#000000" stroke-opacity="1" stroke-width="10.41" stroke-linecap="butt" stroke-linejoin="miter" stroke-miterlimit="2.61313" transform="matrix(0.00737851,-0.00738027,0.00934519,0.00934742,59.2809,26.6757)"
font-family="MS Shell Dlg 2" font-size="8.25" font-weight="400" font-style="normal" 
>
<path vector-effect="none" fill-rule="evenodd" d="M0,338.944 C0,151.751 157.033,0 350.742,0 L357.828,0 C551.537,0 708.57,151.751 708.57,338.944 L708.57,3648.64 C708.57,3835.83 551.537,3987.58 357.828,3987.58 L350.742,3987.58 C157.033,3987.58 0,3835.83 0,3648.64 L0,338.944"/>
</g>

<g fill="#000000" fill-opacity="1" stroke="none" transform="matrix(0.00737851,0.00738027,-0.00934519,0.00934742,96.5456,21.4462)"
font-family="MS Shell Dlg 2" font-size="8.25" font-weight="400" font-style="normal" 
>
<path vector-effect="none" fill-rule="evenodd" d="M0,338.944 C0,151.751 157.033,0 350.742,0 L357.828,0 C551.537,0 708.57,151.751 708.57,338.944 L708.57,3648.64 C708.57,3835.83 551.537,3987.58 357.828,3987.58 L350.742,3987.58 C157.033,3987.58 0,3835.83 0,3648.64 L0,338.944"/>
</g>

<g fill="none" stroke="#000000" stroke-opacity="1" stroke-width="10.41" stroke-linecap="butt" stroke-linejoin="miter" stroke-miterlimit="2.61313" transform="matrix(0.00737851,0.00738027,-0.00934519,0.00934742,96.5456,21.4462)"
font-family="MS Shell Dlg 2" font-size="8.25" font-weight="400" font-style="normal" 
>
<path vector-effect="none" fill-rule="evenodd" d="M0,338.944 C0,151.751 157.033,0 350.742,0 L357.828,0 C551.537,0 708.57,151.751 708.57,338.944 L708.57,3648.64 C708.57,3835.83 551.537,3987.58 357.828,3987.58 L350.742,3987.58 C157.033,3987.58 0,3835.83 0,3648.64 L0,338.944"/>
</g>

<g fill="none" stroke="none" transform="matrix(0.0104348,0,0,0.0104373,1,1)"
font-family="MS Shell Dlg 2" font-size="8.25" font-weight="400" font-style="normal" 
>
<path vector-effect="none" fill-rule="evenodd" d="M23.16,768.826 C23.16,339.305 383.731,-8.89 828.518,-8.89 L4098.76,-8.89 C4543.55,-8.89 4904.12,339.305 4904.12,768.826 L4904.12,6620.21 C4904.12,7049.73 4543.55,7397.93 4098.76,7397.93 L828.518,7397.93 C383.731,7397.93 23.16,7049.73 23.16,6620.21 L23.16,768.826"/>
</g>

<g fill="none" stroke="#000000" stroke-opacity="1" stroke-width="10.41" stroke-linecap="butt" stroke-linejoin="miter" stroke-miterlimit="2.61313" transform="matrix(0.0104348,0,0,0.0104373,1,1)"
font-family="MS Shell Dlg 2" font-size="8.25" font-weight="400" font-style="normal" 
>
<path vector-effect="none" fill-rule="evenodd" d="M23.16,768.826 C23.16,339.305 383.731,-8.89 828.518,-8.89 L4098.76,-8.89 C4543.55,-8.89 4904.12,339.305 4904.12,768.826 L4904.12,6620.21 C4904.12,7049.73 4543.55,7397.93 4098.76,7397.93 L828.518,7397.93 C383.731,7397.93 23.16,7049.73 23.16,6620.21 L23.16,768.826"/>
</g>

<g fill="none" stroke="none" transform="matrix(0.0104348,0,0,0.0104373,1,1)"
font-family="MS Shell Dlg 2" font-size="8.25" font-weight="400" font-style="normal" 
>
<circle cx="2463.63" cy="1917.24" r="1562.5"/>
</g>

<g fill="none" stroke="#000000" stroke-opacity="1" stroke-width="10.41" stroke-linecap="butt" stroke-linejoin="miter" stroke-miterlimit="2.61313" transform="matrix(0.0104348,0,0,0.0104373,1,1)"
font-family="MS Shell Dlg 2" font-size="8.25" font-weight="400" font-style="normal" 
>
<circle cx="2463.63" cy="1917.24" r="1562.5"/>
</g>

<g fill="none" stroke="none" transform="matrix(0.0104348,0,0,0.0104373,1,1)"
font-family="MS Shell Dlg 2" font-size="8.25" font-weight="400" font-style="normal" 
>
<circle cx="2463.63" cy="5458.86" r="1562.5"/>
</g>

<g fill="none" stroke="#000000" stroke-opacity="1" stroke-width="10.41" stroke-linecap="butt" stroke-linejoin="miter" stroke-miterlimit="2.61313" transform="matrix(0.0104348,0,0,0.0104373,1,1)"
font-family="MS Shell Dlg 2" font-size="8.25" font-weight="400" font-style="normal" 
>
<circle cx="2463.63" cy="5458.86" r="1562.5"/>
</g>

<g fill="#ffffff" fill-opacity="1" stroke="none" transform="matrix(0.0104348,0,0,0.0104373,1,1)"
font-family="MS Shell Dlg 2" font-size="8.25" font-weight="400" font-style="normal" 
>
<path vector-effect="none" fill-rule="evenodd" d="M530.9,366.43 L609.02,405.5 L687.15,444.56 L687.15,522.68 L687.15,600.8 L609.02,639.87 L530.9,678.93 L452.78,639.87 L374.65,600.8 L374.65,522.68 L374.65,444.56 L452.78,405.5 L530.9,366.43"/>
</g>

<g fill="none" stroke="#000000" stroke-opacity="1" stroke-width="10.41" stroke-linecap="butt" stroke-linejoin="miter" stroke-miterlimit="2.61313" transform="matrix(0.0104348,0,0,0.0104373,1,1)"
font-family="MS Shell Dlg 2" font-size="8.25" font-weight="400" font-style="normal" 
>
<path vector-effect="none" fill-rule="evenodd" d="M530.9,366.43 L609.02,405.5 L687.15,444.56 L687.15,522.68 L687.15,600.8 L609.02,639.87 L530.9,678.93 L452.78,639.87 L374.65,600.8 L374.65,522.68 L374.65,444.56 L452.78,405.5 L530.9,366.43"/>
</g>

<g fill="#ffffff" fill-opacity="1" stroke="none" transform="matrix(0.0104348,0,0,0.0104373,1,1)"
font-family="MS Shell Dlg 2" font-size="8.25" font-weight="400" font-style="normal" 
>
<path vector-effect="none" fill-rule="evenodd" d="M4385.02,366.43 L4463.14,405.5 L4541.26,444.56 L4541.26,522.68 L4541.26,600.8 L4463.14,639.87 L4385.02,678.93 L4306.89,639.87 L4228.76,600.8 L4228.76,522.68 L4228.76,444.56 L4306.89,405.5 L4385.02,366.43"/>
</g>

<g fill="none" stroke="#000000" stroke-opacity="1" stroke-width="10.41" stroke-linecap="butt" stroke-linejoin="miter" stroke-miterlimit="2.61313" transform="matrix(0.0104348,0,0,0.0104373,1,1)"
font-family="MS Shell Dlg 2" font-size="8.25" font-weight="400" font-style="normal" 
>
<path vector-effect="none" fill-rule="evenodd" d="M4385.02,366.43 L4463.14,405.5 L4541.26,444.56 L4541.26,522.68 L4541.26,600.8 L4463.14,639.87 L4385.02,678.93 L4306.89,639.87 L4228.76,600.8 L4228.76,522.68 L4228.76,444.56 L4306.89,405.5 L4385.02,366.43"/>
</g>

<g fill="#ffffff" fill-opacity="1" stroke="none" transform="matrix(0.0104348,0,0,0.0104373,1,1)"
font-family="MS Shell Dlg 2" font-size="8.25" font-weight="400" font-style="normal" 
>
<path vector-effect="none" fill-rule="evenodd" d="M530.9,6824.69 L609.02,6863.75 L687.15,6902.81 L687.15,6980.93 L687.15,7059.06 L609.02,7098.12 L530.9,7137.19 L452.78,7098.12 L374.65,7059.06 L374.65,6980.93 L374.65,6902.81 L452.78,6863.75 L530.9,6824.69"/>
</g>

<g fill="none" stroke="#000000" stroke-opacity="1" stroke-width="10.41" stroke-linecap="butt" stroke-linejoin="miter" stroke-miterlimit="2.61313" transform="matrix(0.0104348,0,0,0.0104373,1,1)"
font-family="MS Shell Dlg 2" font-size="8.25" font-weight="400" font-style="normal" 
>
<path vector-effect="none" fill-rule="evenodd" d="M530.9,6824.69 L609.02,6863.75 L687.15,6902.81 L687.15,6980.93 L687.15,7059.06 L609.02,7098.12 L530.9,7137.19 L452.78,7098.12 L374.65,7059.06 L374.65,6980.93 L374.65,6902.81 L452.78,6863.75 L530.9,6824.69"/>
</g>

<g fill="#ffffff" fill-opacity="1" stroke="none" transform="matrix(0.0104348,0,0,0.0104373,1,1)"
font-family="MS Shell Dlg 2" font-size="8.25" font-weight="400" font-style="normal" 
>
<path vector-effect="none" fill-rule="evenodd" d="M4385.02,6824.69 L4463.14,6863.75 L4541.26,6902.81 L4541.26,6980.93 L4541.26,7059.06 L4463.14,7098.12 L4385.02,7137.19 L4306.89,7098.12 L4228.76,7059.06 L4228.76,6980.93 L4228.76,6902.81 L4306.89,6863.75 L4385.02,6824.69"/>
</g>

<g fill="none" stroke="#000000" stroke-opacity="1" stroke-width="10.41" stroke-linecap="butt" stroke-linejoin="miter" stroke-miterlimit="2.61313" transform="matrix(0.0104348,0,0,0.0104373,1,1)"
font-family="MS Shell Dlg 2" font-size="8.25" font-weight="400" font-style="normal" 
>
<path vector-effect="none" fill-rule="evenodd" d="M4385.02,6824.69 L4463.14,6863.75 L4541.26,6902.81 L4541.26,6980.93 L4541.26,7059.06 L4463.14,7098.12 L4385.02,7137.19 L4306.89,7098.12 L4228.76,7059.06 L4228.76,6980.93 L4228.76,6902.81 L4306.89,6863.75 L4385.02,6824.69"/>
</g>

<g fill="#ffffff" fill-opacity="1" stroke="none" transform="matrix(0.0104348,0,0,0.0104373,1,1)"
font-family="MS Shell Dlg 2" font-size="8.25" font-weight="400" font-style="normal" 
>
<path vector-effect="none" fill-rule="evenodd" d="M530.9,3491.39 L609.02,3530.46 L687.15,3569.52 L687.15,3647.64 L687.15,3725.76 L609.02,3764.83 L530.9,3803.89 L452.78,3764.83 L374.65,3725.76 L374.65,3647.64 L374.65,3569.52 L452.78,3530.46 L530.9,3491.39"/>
</g>

<g fill="none" stroke="#000000" stroke-opacity="1" stroke-width="10.41" stroke-linecap="butt" stroke-linejoin="miter" stroke-miterlimit="2.61313" transform="matrix(0.0104348,0,0,0.0104373,1,1)"
font-family="MS Shell Dlg 2" font-size="8.25" font-weight="400" font-style="normal" 
>
<path vector-effect="none" fill-rule="evenodd" d="M530.9,3491.39 L609.02,3530.46 L687.15,3569.52 L687.15,3647.64 L687.15,3725.76 L609.02,3764.83 L530.9,3803.89 L452.78,3764.83 L374.65,3725.76 L374.65,3647.64 L374.65,3569.52 L452.78,3530.46 L530.9,3491.39"/>
</g>

<g fill="#ffffff" fill-opacity="1" stroke="none" transform="matrix(0.0104348,0,0,0.0104373,1,1)"
font-family="MS Shell Dlg 2" font-size="8.25" font-weight="400" font-style="normal" 
>
<path vector-effect="none" fill-rule="evenodd" d="M4385.02,3491.39 L4463.14,3530.46 L4541.26,3569.52 L4541.26,3647.64 L4541.26,3725.76 L4463.14,3764.83 L4385.02,3803.89 L4306.89,3764.83 L4228.76,3725.76 L4228.76,3647.64 L4228.76,3569.52 L4306.89,3530.46 L4385.02,3491.39"/>
</g>

<g fill="none" stroke="#000000" stroke-opacity="1" stroke-width="10.41" stroke-linecap="butt" stroke-linejoin="miter" stroke-miterlimit="2.61313" transform="matrix(0.0104348,0,0,0.0104373,1,1)"
font-family="MS Shell Dlg 2" font-size="8.25" font-weight="400" font-style="normal" 
>
<path vector-effect="none" fill-rule="evenodd" d="M4385.02,3491.39 L4463.14,3530.46 L4541.26,3569.52 L4541.26,3647.64 L4541.26,3725.76 L4463.14,3764.83 L4385.02,3803.89 L4306.89,3764.83 L4228.76,3725.76 L4228.76,3647.64 L4228.76,3569.52 L4306.89,3530.46 L4385.02,3491.39"/>
</g>

<g fill="#3c608d" fill-opacity="1" stroke="none" transform="matrix(0.0104348,0,0,0.0104373,1,1)"
font-family="MS Shell Dlg 2" font-size="8.25" font-weight="400" font-style="normal" 
>
<path vector-effect="none" fill-rule="evenodd" d="M2463.63,3479.74 C1600.69,3479.74 901.13,2780.19 901.13,1917.24 C901.13,1054.29 1600.69,354.74 2463.63,354.74 C3326.57,354.74 4026.13,1054.3 4026.13,1917.24 C4026.13,2780.18 3326.57,3479.74 2463.63,3479.74 M4306.89,3530.46 L4385.01,3491.39 L4463.13,3530.46 L4541.26,3569.52 L4541.26,3647.64 L4541.26,3725.76 L4463.13,3764.82 L4385.01,3803.88 L4306.89,3764.82 L4228.76,3725.76 L4228.76,3647.64 L4228.76,3569.52 L4306.89,3530.46 M530.89,3491.39 L609.01,3530.46 L687.14,3569.52 L687.14,3647.64 L687.14,3725.76 L609.01,3764.82 L530.89,3803.88 L452.77,3764.82 L374.64,3725.76 L374.64,3647.64 L374.64,3569.52 L452.77,3530.46 L530.89,3491.39 M4091.61,-8.89 L835.65,-8.89 C388.78,-8.89 23.15,356.73 23.15,803.61 L23.15,6585.44 C23.15,7032.31 388.77,7397.94 835.65,7397.94 L4091.61,7397.94 C4538.48,7397.94 4904.11,7032.32 4904.11,6585.44 L4904.11,803.61 C4904.11,356.74 4538.49,-8.89 4091.61,-8.89 M609.01,639.87 L530.89,678.93 L452.77,639.87 L374.64,600.81 L374.64,522.69 L374.64,444.57 L452.77,405.51 L530.89,366.44 L609.01,405.51 L687.14,444.57 L687.14,522.69 L687.14,600.81 L609.01,639.87 M530.89,6824.68 L609.01,6863.75 L687.14,6902.81 L687.14,6980.93 L687.14,7059.05 L609.01,7098.11 L530.89,7137.17 L452.77,7098.11 L374.64,7059.05 L374.64,6980.93 L374.64,6902.81 L452.77,6863.75 L530.89,6824.68 M901.13,5458.86 C901.13,4595.92 1600.69,3896.36 2463.63,3896.36 C3326.57,3896.36 4026.13,4595.92 4026.13,5458.86 C4026.13,6321.8 3326.57,7021.36 2463.63,7021.36 C1600.69,7021.36 901.13,6321.8 901.13,5458.86 M4385.01,6824.68 L4463.13,6863.75 L4541.26,6902.81 L4541.26,6980.93 L4541.26,7059.05 L4463.13,7098.11 L4385.01,7137.17 L4306.89,7098.11 L4228.76,7059.05 L4228.76,6980.93 L4228.76,6902.81 L4306.89,6863.75 L4385.01,6824.68 M4228.76,522.68 L4228.76,444.56 L4306.89,405.5 L4385.01,366.43 L4463.13,405.5 L4541.26,444.56 L4541.26,522.68 L4541.26,600.8 L4463.13,639.86 L4385.01,678.92 L4306.89,639.86 L4228.76,600.8 L4228.76,522.68"/>
</g>

<g fill="none" stroke="#373435" stroke-opacity="1" stroke-width="6.94" stroke-linecap="butt" stroke-linejoin="miter" stroke-miterlimit="2.61313" transform="matrix(0.0104348,0,0,0.0104373,1,1)"
font-family="MS Shell Dlg 2" font-size="8.25" font-weight="400" font-style="normal" 
>
<path vector-effect="none" fill-rule="evenodd" d="M2463.63,3479.74 C1600.69,3479.74 901.13,2780.19 901.13,1917.24 C901.13,1054.29 1600.69,354.74 2463.63,354.74 C3326.57,354.74 4026.13,1054.3 4026.13,1917.24 C4026.13,2780.18 3326.57,3479.74 2463.63,3479.74 M4306.89,3530.46 L4385.01,3491.39 L4463.13,3530.46 L4541.26,3569.52 L4541.26,3647.64 L4541.26,3725.76 L4463.13,3764.82 L4385.01,3803.88 L4306.89,3764.82 L4228.76,3725.76 L4228.76,3647.64 L4228.76,3569.52 L4306.89,3530.46 M530.89,3491.39 L609.01,3530.46 L687.14,3569.52 L687.14,3647.64 L687.14,3725.76 L609.01,3764.82 L530.89,3803.88 L452.77,3764.82 L374.64,3725.76 L374.64,3647.64 L374.64,3569.52 L452.77,3530.46 L530.89,3491.39 M4091.61,-8.89 L835.65,-8.89 C388.78,-8.89 23.15,356.73 23.15,803.61 L23.15,6585.44 C23.15,7032.31 388.77,7397.94 835.65,7397.94 L4091.61,7397.94 C4538.48,7397.94 4904.11,7032.32 4904.11,6585.44 L4904.11,803.61 C4904.11,356.74 4538.49,-8.89 4091.61,-8.89 M609.01,639.87 L530.89,678.93 L452.77,639.87 L374.64,600.81 L374.64,522.69 L374.64,444.57 L452.77,405.51 L530.89,366.44 L609.01,405.51 L687.14,444.57 L687.14,522.69 L687.14,600.81 L609.01,639.87 M530.89,6824.68 L609.01,6863.75 L687.14,6902.81 L687.14,6980.93 L687.14,7059.05 L609.01,7098.11 L530.89,7137.17 L452.77,7098.11 L374.64,7059.05 L374.64,6980.93 L374.64,6902.81 L452.77,6863.75 L530.89,6824.68 M901.13,5458.86 C901.13,4595.92 1600.69,3896.36 2463.63,3896.36 C3326.57,3896.36 4026.13,4595.92 4026.13,5458.86 C4026.13,6321.8 3326.57,7021.36 2463.63,7021.36 C1600.69,7021.36 901.13,6321.8 901.13,5458.86 M4385.01,6824.68 L4463.13,6863.75 L4541.26,6902.81 L4541.26,6980.93 L4541.26,7059.05 L4463.13,7098.11 L4385.01,7137.17 L4306.89,7098.11 L4228.76,7059.05 L4228.76,6980.93 L4228.76,6902.81 L4306.89,6863.75 L4385.01,6824.68 M4228.76,522.68 L4228.76,444.56 L4306.89,405.5 L4385.01,366.43 L4463.13,405.5 L4541.26,444.56 L4541.26,522.68 L4541.26,600.8 L4463.13,639.86 L4385.01,678.92 L4306.89,639.86 L4228.76,600.8 L4228.76,522.68"/>
</g>

<g fill="none" stroke="none" transform="matrix(0.0104348,0,0,0.0104373,1,1)"
font-family="MS Shell Dlg 2" font-size="8.25" font-weight="400" font-style="normal" 
>
<circle cx="2463.63" cy="1917.24" r="1302.08"/>
</g>

<g fill="none" stroke="#000000" stroke-opacity="1" stroke-width="10.41" stroke-linecap="butt" stroke-linejoin="miter" stroke-miterlimit="2.61313" transform="matrix(0.0104348,0,0,0.0104373,1,1)"
font-family="MS Shell Dlg 2" font-size="8.25" font-weight="400" font-style="normal" 
>
<circle cx="2463.63" cy="1917.24" r="1302.08"/>
</g>

<g fill="none" stroke="none" transform="matrix(0.0104348,0,0,0.0104373,1,1)"
font-family="MS Shell Dlg 2" font-size="8.25" font-weight="400" font-style="normal" 
>
<circle cx="2463.63" cy="5458.86" r="1302.08"/>
</g>

<g fill="none" stroke="#000000" stroke-opacity="1" stroke-width="10.41" stroke-linecap="butt" stroke-linejoin="miter" stroke-miterlimit="2.61313" transform="matrix(0.0104348,0,0,0.0104373,1,1)"
font-family="MS Shell Dlg 2" font-size="8.25" font-weight="400" font-style="normal" 
>
<circle cx="2463.63" cy="5458.86" r="1302.08"/>
</g>

<g fill="#6b809b" fill-opacity="1" stroke="none" transform="matrix(0.0104348,0,0,0.0104373,1,1)"
font-family="MS Shell Dlg 2" font-size="8.25" font-weight="400" font-style="normal" 
>
<path vector-effect="none" fill-rule="evenodd" d="M2463.63,615.16 C3182.75,615.16 3765.71,1198.12 3765.71,1917.24 C3765.71,2636.36 3182.75,3219.32 2463.63,3219.32 C1744.51,3219.32 1161.55,2636.36 1161.55,1917.24 C1161.55,1198.12 1744.51,615.16 2463.63,615.16 M2463.63,3479.74 C3326.57,3479.74 4026.13,2780.19 4026.13,1917.24 C4026.13,1054.29 3326.57,354.74 2463.63,354.74 C1600.69,354.74 901.13,1054.3 901.13,1917.24 C901.13,2780.18 1600.69,3479.74 2463.63,3479.74 "/>
</g>

<g fill="none" stroke="#373435" stroke-opacity="1" stroke-width="6.94" stroke-linecap="butt" stroke-linejoin="miter" stroke-miterlimit="2.61313" transform="matrix(0.0104348,0,0,0.0104373,1,1)"
font-family="MS Shell Dlg 2" font-size="8.25" font-weight="400" font-style="normal" 
>
<path vector-effect="none" fill-rule="evenodd" d="M2463.63,615.16 C3182.75,615.16 3765.71,1198.12 3765.71,1917.24 C3765.71,2636.36 3182.75,3219.32 2463.63,3219.32 C1744.51,3219.32 1161.55,2636.36 1161.55,1917.24 C1161.55,1198.12 1744.51,615.16 2463.63,615.16 M2463.63,3479.74 C3326.57,3479.74 4026.13,2780.19 4026.13,1917.24 C4026.13,1054.29 3326.57,354.74 2463.63,354.74 C1600.69,354.74 901.13,1054.3 901.13,1917.24 C901.13,2780.18 1600.69,3479.74 2463.63,3479.74 "/>
</g>

<g fill="#857d4c" fill-opacity="1" stroke="none" transform="matrix(0.0104348,0,0,0.0104373,1,1)"
font-family="MS Shell Dlg 2" font-size="8.25" font-weight="400" font-style="normal" 
>
<path vector-effect="none" fill-rule="evenodd" d="M4026.13,5458.86 C4026.13,4595.92 3326.57,3896.36 2463.63,3896.36 C1600.69,3896.36 901.13,4595.92 901.13,5458.86 C901.13,6321.8 1600.69,7021.36 2463.63,7021.36 C3326.57,7021.36 4026.13,6321.8 4026.13,5458.86 M2463.63,4156.78 C3182.75,4156.78 3765.71,4739.74 3765.71,5458.86 C3765.71,6177.98 3182.75,6760.94 2463.63,6760.94 C1744.51,6760.94 1161.55,6177.98 1161.55,5458.86 C1161.55,4739.74 1744.51,4156.78 2463.63,4156.78 "/>
</g>

<g fill="none" stroke="#373435" stroke-opacity="1" stroke-width="6.94" stroke-linecap="butt" stroke-linejoin="miter" stroke-miterlimit="2.61313" transform="matrix(0.0104348,0,0,0.0104373,1,1)"
font-family="MS Shell Dlg 2" font-size="8.25" font-weight="400" font-style="normal" 
>
<path vector-effect="none" fill-rule="evenodd" d="M4026.13,5458.86 C4026.13,4595.92 3326.57,3896.36 2463.63,3896.36 C1600.69,3896.36 901.13,4595.92 901.13,5458.86 C901.13,6321.8 1600.69,7021.36 2463.63,7021.36 C3326.57,7021.36 4026.13,6321.8 4026.13,5458.86 M2463.63,4156.78 C3182.75,4156.78 3765.71,4739.74 3765.71,5458.86 C3765.71,6177.98 3182.75,6760.94 2463.63,6760.94 C1744.51,6760.94 1161.55,6177.98 1161.55,5458.86 C1161.55,4739.74 1744.51,4156.78 2463.63,4156.78 "/>
</g>

<g fill="#6d6f4a" fill-opacity="1" stroke="none" transform="matrix(0.0104348,0,0,0.0104373,1,1)"
font-family="MS Shell Dlg 2" font-size="8.25" font-weight="400" font-style="normal" 
>
<path vector-effect="none" fill-rule="evenodd" d="M2463.63,3479.74 C3326.57,3479.74 4026.13,2780.19 4026.13,1917.24 C4026.13,1054.29 3326.57,354.74 2463.63,354.74 C1600.69,354.74 901.13,1054.3 901.13,1917.24 C901.13,2780.18 1600.69,3479.74 2463.63,3479.74 M2463.63,615.16 C3182.75,615.16 3765.71,1198.12 3765.71,1917.24 C3765.71,2636.36 3182.75,3219.32 2463.63,3219.32 C1744.51,3219.32 1161.55,2636.36 1161.55,1917.24 C1161.55,1198.12 1744.51,615.16 2463.63,615.16 "/>
</g>

<g fill="none" stroke="#373435" stroke-opacity="1" stroke-width="6.94" stroke-linecap="butt" stroke-linejoin="miter" stroke-miterlimit="2.61313" transform="matrix(0.0104348,0,0,0.0104373,1,1)"
font-family="MS Shell Dlg 2" font-size="8.25" font-weight="400" font-style="normal" 
>
<path vector-effect="none" fill-rule="evenodd" d="M2463.63,3479.74 C3326.57,3479.74 4026.13,2780.19 4026.13,1917.24 C4026.13,1054.29 3326.57,354.74 2463.63,354.74 C1600.69,354.74 901.13,1054.3 901.13,1917.24 C901.13,2780.18 1600.69,3479.74 2463.63,3479.74 M2463.63,615.16 C3182.75,615.16 3765.71,1198.12 3765.71,1917.24 C3765.71,2636.36 3182.75,3219.32 2463.63,3219.32 C1744.51,3219.32 1161.55,2636.36 1161.55,1917.24 C1161.55,1198.12 1744.51,615.16 2463.63,615.16 "/>
</g>

<g fill="#6b809b" fill-opacity="1" stroke="none" transform="matrix(0.0104348,0,0,0.0104373,1,1)"
font-family="MS Shell Dlg 2" font-size="8.25" font-weight="400" font-style="normal" 
>
<path vector-effect="none" fill-rule="evenodd" d="M4026.13,5458.86 C4026.13,4595.92 3326.57,3896.36 2463.63,3896.36 C1600.69,3896.36 901.13,4595.92 901.13,5458.86 C901.13,6321.8 1600.69,7021.36 2463.63,7021.36 C3326.57,7021.36 4026.13,6321.8 4026.13,5458.86 M2463.63,4156.78 C3182.75,4156.78 3765.71,4739.74 3765.71,5458.86 C3765.71,6177.98 3182.75,6760.94 2463.63,6760.94 C1744.51,6760.94 1161.55,6177.98 1161.55,5458.86 C1161.55,4739.74 1744.51,4156.78 2463.63,4156.78 "/>
</g>

<g fill="none" stroke="#373435" stroke-opacity="1" stroke-width="6.94" stroke-linecap="butt" stroke-linejoin="miter" stroke-miterlimit="2.61313" transform="matrix(0.0104348,0,0,0.0104373,1,1)"
font-family="MS Shell Dlg 2" font-size="8.25" font-weight="400" font-style="normal" 
>
<path vector-effect="none" fill-rule="evenodd" d="M4026.13,5458.86 C4026.13,4595.92 3326.57,3896.36 2463.63,3896.36 C1600.69,3896.36 901.13,4595.92 901.13,5458.86 C901.13,6321.8 1600.69,7021.36 2463.63,7021.36 C3326.57,7021.36 4026.13,6321.8 4026.13,5458.86 M2463.63,4156.78 C3182.75,4156.78 3765.71,4739.74 3765.71,5458.86 C3765.71,6177.98 3182.75,6760.94 2463.63,6760.94 C1744.51,6760.94 1161.55,6177.98 1161.55,5458.86 C1161.55,4739.74 1744.51,4156.78 2463.63,4156.78 "/>
</g>

<g fill="#6d6f4a" fill-opacity="1" stroke="none" transform="matrix(0.0104348,0,0,0.0104373,1,1)"
font-family="MS Shell Dlg 2" font-size="8.25" font-weight="400" font-style="normal" 
>
<path vector-effect="none" fill-rule="evenodd" d="M4026.13,5458.86 C4026.13,4595.92 3326.57,3896.36 2463.63,3896.36 C1600.69,3896.36 901.13,4595.92 901.13,5458.86 C901.13,6321.8 1600.69,7021.36 2463.63,7021.36 C3326.57,7021.36 4026.13,6321.8 4026.13,5458.86 M2463.63,4156.78 C3182.75,4156.78 3765.71,4739.74 3765.71,5458.86 C3765.71,6177.98 3182.75,6760.94 2463.63,6760.94 C1744.51,6760.94 1161.55,6177.98 1161.55,5458.86 C1161.55,4739.74 1744.51,4156.78 2463.63,4156.78 "/>
</g>

<g fill="none" stroke="#373435" stroke-opacity="1" stroke-width="6.94" stroke-linecap="butt" stroke-linejoin="miter" stroke-miterlimit="2.61313" transform="matrix(0.0104348,0,0,0.0104373,1,1)"
font-family="MS Shell Dlg 2" font-size="8.25" font-weight="400" font-style="normal" 
>
<path vector-effect="none" fill-rule="evenodd" d="M4026.13,5458.86 C4026.13,4595.92 3326.57,3896.36 2463.63,3896.36 C1600.69,3896.36 901.13,4595.92 901.13,5458.86 C901.13,6321.8 1600.69,7021.36 2463.63,7021.36 C3326.57,7021.36 4026.13,6321.8 4026.13,5458.86 M2463.63,4156.78 C3182.75,4156.78 3765.71,4739.74 3765.71,5458.86 C3765.71,6177.98 3182.75,6760.94 2463.63,6760.94 C1744.51,6760.94 1161.55,6177.98 1161.55,5458.86 C1161.55,4739.74 1744.51,4156.78 2463.63,4156.78 "/>
</g>

<g fill="#8d99b8" fill-opacity="1" stroke="none" transform="matrix(0.0104348,0,0,0.0104373,1,1)"
font-family="MS Shell Dlg 2" font-size="8.25" font-weight="400" font-style="normal" 
>
<path vector-effect="none" fill-rule="evenodd" d="M3044.59,1917.24 L2463.64,1917.24 C2463.64,2190.92 2723.74,2412.78 3044.59,2412.78 C3365.44,2412.78 3625.54,2190.92 3625.54,1917.24 L3044.59,1917.24"/>
</g>

<g fill="none" stroke="#000000" stroke-opacity="1" stroke-width="10.41" stroke-linecap="butt" stroke-linejoin="miter" stroke-miterlimit="2.61313" transform="matrix(0.0104348,0,0,0.0104373,1,1)"
font-family="MS Shell Dlg 2" font-size="8.25" font-weight="400" font-style="normal" 
>
<path vector-effect="none" fill-rule="evenodd" d="M3044.59,1917.24 L2463.64,1917.24 C2463.64,2190.92 2723.74,2412.78 3044.59,2412.78 C3365.44,2412.78 3625.54,2190.92 3625.54,1917.24 L3044.59,1917.24"/>
</g>

<g fill="#8d99b8" fill-opacity="1" stroke="none" transform="matrix(0.0104348,0,0,0.0104373,1,1)"
font-family="MS Shell Dlg 2" font-size="8.25" font-weight="400" font-style="normal" 
>
<path vector-effect="none" fill-rule="evenodd" d="M2463.63,1336.28 L2463.63,1917.23 C2737.31,1917.23 2959.17,1657.13 2959.17,1336.28 C2959.17,1015.43 2737.31,755.33 2463.63,755.33 L2463.63,1336.28"/>
</g>

<g fill="none" stroke="#000000" stroke-opacity="1" stroke-width="10.41" stroke-linecap="butt" stroke-linejoin="miter" stroke-miterlimit="2.61313" transform="matrix(0.0104348,0,0,0.0104373,1,1)"
font-family="MS Shell Dlg 2" font-size="8.25" font-weight="400" font-style="normal" 
>
<path vector-effect="none" fill-rule="evenodd" d="M2463.63,1336.28 L2463.63,1917.23 C2737.31,1917.23 2959.17,1657.13 2959.17,1336.28 C2959.17,1015.43 2737.31,755.33 2463.63,755.33 L2463.63,1336.28"/>
</g>

<g fill="#8d99b8" fill-opacity="1" stroke="none" transform="matrix(0.0104348,0,0,0.0104373,1,1)"
font-family="MS Shell Dlg 2" font-size="8.25" font-weight="400" font-style="normal" 
>
<path vector-effect="none" fill-rule="evenodd" d="M1882.68,1917.24 L2463.63,1917.24 C2463.63,1643.56 2203.53,1421.7 1882.68,1421.7 C1561.83,1421.7 1301.73,1643.56 1301.73,1917.24 L1882.68,1917.24"/>
</g>

<g fill="none" stroke="#000000" stroke-opacity="1" stroke-width="10.41" stroke-linecap="butt" stroke-linejoin="miter" stroke-miterlimit="2.61313" transform="matrix(0.0104348,0,0,0.0104373,1,1)"
font-family="MS Shell Dlg 2" font-size="8.25" font-weight="400" font-style="normal" 
>
<path vector-effect="none" fill-rule="evenodd" d="M1882.68,1917.24 L2463.63,1917.24 C2463.63,1643.56 2203.53,1421.7 1882.68,1421.7 C1561.83,1421.7 1301.73,1643.56 1301.73,1917.24 L1882.68,1917.24"/>
</g>

<g fill="#8d99b8" fill-opacity="1" stroke="none" transform="matrix(0.0104348,0,0,0.0104373,1,1)"
font-family="MS Shell Dlg 2" font-size="8.25" font-weight="400" font-style="normal" 
>
<path vector-effect="none" fill-rule="evenodd" d="M2443.85,2498.19 L2443.85,1917.24 C2170.17,1917.24 1948.31,2177.34 1948.31,2498.19 C1948.31,2819.04 2170.17,3079.14 2443.85,3079.14 L2443.85,2498.19"/>
</g>

<g fill="none" stroke="#000000" stroke-opacity="1" stroke-width="10.41" stroke-linecap="butt" stroke-linejoin="miter" stroke-miterlimit="2.61313" transform="matrix(0.0104348,0,0,0.0104373,1,1)"
font-family="MS Shell Dlg 2" font-size="8.25" font-weight="400" font-style="normal" 
>
<path vector-effect="none" fill-rule="evenodd" d="M2443.85,2498.19 L2443.85,1917.24 C2170.17,1917.24 1948.31,2177.34 1948.31,2498.19 C1948.31,2819.04 2170.17,3079.14 2443.85,3079.14 L2443.85,2498.19"/>
</g>

<g fill="#000000" fill-opacity="1" stroke="none" transform="matrix(0.0104348,0,0,0.0104373,1,1)"
font-family="MS Shell Dlg 2" font-size="8.25" font-weight="400" font-style="normal" 
>
<circle cx="2463.63" cy="1917.24" r="260.42"/>
</g>

<g fill="none" stroke="#000000" stroke-opacity="1" stroke-width="10.41" stroke-linecap="butt" stroke-linejoin="miter" stroke-miterlimit="2.61313" transform="matrix(0.0104348,0,0,0.0104373,1,1)"
font-family="MS Shell Dlg 2" font-size="8.25" font-weight="400" font-style="normal" 
>
<circle cx="2463.63" cy="1917.24" r="260.42"/>
</g>

<g fill="#8d99b8" fill-opacity="1" stroke="none" transform="matrix(0.0104348,0,0,0.0104373,1,1)"
font-family="MS Shell Dlg 2" font-size="8.25" font-weight="400" font-style="normal" 
>
<path vector-effect="none" fill-rule="evenodd" d="M3044.59,5458.86 L2463.64,5458.86 C2463.64,5732.54 2723.74,5954.4 3044.59,5954.4 C3365.44,5954.4 3625.54,5732.54 3625.54,5458.86 L3044.59,5458.86"/>
</g>

<g fill="none" stroke="#000000" stroke-opacity="1" stroke-width="10.41" stroke-linecap="butt" stroke-linejoin="miter" stroke-miterlimit="2.61313" transform="matrix(0.0104348,0,0,0.0104373,1,1)"
font-family="MS Shell Dlg 2" font-size="8.25" font-weight="400" font-style="normal" 
>
<path vector-effect="none" fill-rule="evenodd" d="M3044.59,5458.86 L2463.64,5458.86 C2463.64,5732.54 2723.74,5954.4 3044.59,5954.4 C3365.44,5954.4 3625.54,5732.54 3625.54,5458.86 L3044.59,5458.86"/>
</g>

<g fill="#8d99b8" fill-opacity="1" stroke="none" transform="matrix(0.0104348,0,0,0.0104373,1,1)"
font-family="MS Shell Dlg 2" font-size="8.25" font-weight="400" font-style="normal" 
>
<path vector-effect="none" fill-rule="evenodd" d="M2463.63,4877.91 L2463.63,5458.86 C2737.31,5458.86 2959.17,5198.76 2959.17,4877.91 C2959.17,4557.06 2737.31,4296.96 2463.63,4296.96 L2463.63,4877.91"/>
</g>

<g fill="none" stroke="#000000" stroke-opacity="1" stroke-width="10.41" stroke-linecap="butt" stroke-linejoin="miter" stroke-miterlimit="2.61313" transform="matrix(0.0104348,0,0,0.0104373,1,1)"
font-family="MS Shell Dlg 2" font-size="8.25" font-weight="400" font-style="normal" 
>
<path vector-effect="none" fill-rule="evenodd" d="M2463.63,4877.91 L2463.63,5458.86 C2737.31,5458.86 2959.17,5198.76 2959.17,4877.91 C2959.17,4557.06 2737.31,4296.96 2463.63,4296.96 L2463.63,4877.91"/>
</g>

<g fill="#8d99b8" fill-opacity="1" stroke="none" transform="matrix(0.0104348,0,0,0.0104373,1,1)"
font-family="MS Shell Dlg 2" font-size="8.25" font-weight="400" font-style="normal" 
>
<path vector-effect="none" fill-rule="evenodd" d="M1882.68,5458.86 L2463.63,5458.86 C2463.63,5185.18 2203.53,4963.32 1882.68,4963.32 C1561.83,4963.32 1301.73,5185.18 1301.73,5458.86 L1882.68,5458.86"/>
</g>

<g fill="none" stroke="#000000" stroke-opacity="1" stroke-width="10.41" stroke-linecap="butt" stroke-linejoin="miter" stroke-miterlimit="2.61313" transform="matrix(0.0104348,0,0,0.0104373,1,1)"
font-family="MS Shell Dlg 2" font-size="8.25" font-weight="400" font-style="normal" 
>
<path vector-effect="none" fill-rule="evenodd" d="M1882.68,5458.86 L2463.63,5458.86 C2463.63,5185.18 2203.53,4963.32 1882.68,4963.32 C1561.83,4963.32 1301.73,5185.18 1301.73,5458.86 L1882.68,5458.86"/>
</g>

<g fill="#8d99b8" fill-opacity="1" stroke="none" transform="matrix(0.0104348,0,0,0.0104373,1,1)"
font-family="MS Shell Dlg 2" font-size="8.25" font-weight="400" font-style="normal" 
>
<path vector-effect="none" fill-rule="evenodd" d="M2443.85,6039.81 L2443.85,5458.86 C2170.17,5458.86 1948.31,5718.96 1948.31,6039.81 C1948.31,6360.66 2170.17,6620.76 2443.85,6620.76 L2443.85,6039.81"/>
</g>

<g fill="none" stroke="#000000" stroke-opacity="1" stroke-width="10.41" stroke-linecap="butt" stroke-linejoin="miter" stroke-miterlimit="2.61313" transform="matrix(0.0104348,0,0,0.0104373,1,1)"
font-family="MS Shell Dlg 2" font-size="8.25" font-weight="400" font-style="normal" 
>
<path vector-effect="none" fill-rule="evenodd" d="M2443.85,6039.81 L2443.85,5458.86 C2170.17,5458.86 1948.31,5718.96 1948.31,6039.81 C1948.31,6360.66 2170.17,6620.76 2443.85,6620.76 L2443.85,6039.81"/>
</g>

<g fill="#000000" fill-opacity="1" stroke="none" transform="matrix(0.0104348,0,0,0.0104373,1,1)"
font-family="MS Shell Dlg 2" font-size="8.25" font-weight="400" font-style="normal" 
>
<circle cx="2463.63" cy="5458.86" r="260.42"/>
</g>

<g fill="none" stroke="#000000" stroke-opacity="1" stroke-width="10.41" stroke-linecap="butt" stroke-linejoin="miter" stroke-miterlimit="2.61313" transform="matrix(0.0104348,0,0,0.0104373,1,1)"
font-family="MS Shell Dlg 2" font-size="8.25" font-weight="400" font-style="normal" 
>
<circle cx="2463.63" cy="5458.86" r="260.42"/>
</g>

<g fill="#ffffff" fill-opacity="1" stroke="none" transform="matrix(0.0104348,0,0,0.0104373,1,1)"
font-family="MS Shell Dlg 2" font-size="8.25" font-weight="400" font-style="normal" 
>
<path vector-effect="none" fill-rule="evenodd" d="M5967.98,2302.33 L6050.84,2274.72 L6133.7,2247.09 L6188.95,2302.33 L6244.19,2357.57 L6216.57,2440.44 L6188.95,2523.3 L6106.08,2550.92 L6023.22,2578.55 L5967.98,2523.3 L5912.74,2468.06 L5940.36,2385.2 L5967.98,2302.33"/>
</g>

<g fill="none" stroke="#000000" stroke-opacity="1" stroke-width="10.41" stroke-linecap="butt" stroke-linejoin="miter" stroke-miterlimit="2.61313" transform="matrix(0.0104348,0,0,0.0104373,1,1)"
font-family="MS Shell Dlg 2" font-size="8.25" font-weight="400" font-style="normal" 
>
<path vector-effect="none" fill-rule="evenodd" d="M5967.98,2302.33 L6050.84,2274.72 L6133.7,2247.09 L6188.95,2302.33 L6244.19,2357.57 L6216.57,2440.44 L6188.95,2523.3 L6106.08,2550.92 L6023.22,2578.55 L5967.98,2523.3 L5912.74,2468.06 L5940.36,2385.2 L5967.98,2302.33"/>
</g>

<g fill="#ffffff" fill-opacity="1" stroke="none" transform="matrix(0.0104348,0,0,0.0104373,1,1)"
font-family="MS Shell Dlg 2" font-size="8.25" font-weight="400" font-style="normal" 
>
<path vector-effect="none" fill-rule="evenodd" d="M9060.84,5456.3 L9143.7,5428.68 L9226.57,5401.05 L9281.81,5456.3 L9337.05,5511.54 L9309.43,5594.4 L9281.81,5677.26 L9198.94,5704.88 L9116.08,5732.51 L9060.84,5677.26 L9005.6,5622.02 L9033.22,5539.16 L9060.84,5456.3"/>
</g>

<g fill="none" stroke="#000000" stroke-opacity="1" stroke-width="10.41" stroke-linecap="butt" stroke-linejoin="miter" stroke-miterlimit="2.61313" transform="matrix(0.0104348,0,0,0.0104373,1,1)"
font-family="MS Shell Dlg 2" font-size="8.25" font-weight="400" font-style="normal" 
>
<path vector-effect="none" fill-rule="evenodd" d="M9060.84,5456.3 L9143.7,5428.68 L9226.57,5401.05 L9281.81,5456.3 L9337.05,5511.54 L9309.43,5594.4 L9281.81,5677.26 L9198.94,5704.88 L9116.08,5732.51 L9060.84,5677.26 L9005.6,5622.02 L9033.22,5539.16 L9060.84,5456.3"/>
</g>

<g fill="#ffffff" fill-opacity="1" stroke="none" transform="matrix(0.0104348,0,0,0.0104373,1,1)"
font-family="MS Shell Dlg 2" font-size="8.25" font-weight="400" font-style="normal" 
>
<path vector-effect="none" fill-rule="evenodd" d="M6186.18,5441.3 L6213.8,5524.17 L6241.43,5607.03 L6186.18,5662.28 L6130.94,5717.52 L6048.07,5689.89 L5965.21,5662.28 L5937.59,5579.41 L5909.97,5496.55 L5965.21,5441.3 L6020.45,5386.06 L6103.32,5413.69 L6186.18,5441.3"/>
</g>

<g fill="none" stroke="#000000" stroke-opacity="1" stroke-width="10.41" stroke-linecap="butt" stroke-linejoin="miter" stroke-miterlimit="2.61313" transform="matrix(0.0104348,0,0,0.0104373,1,1)"
font-family="MS Shell Dlg 2" font-size="8.25" font-weight="400" font-style="normal" 
>
<path vector-effect="none" fill-rule="evenodd" d="M6186.18,5441.3 L6213.8,5524.17 L6241.43,5607.03 L6186.18,5662.28 L6130.94,5717.52 L6048.07,5689.89 L5965.21,5662.28 L5937.59,5579.41 L5909.97,5496.55 L5965.21,5441.3 L6020.45,5386.06 L6103.32,5413.69 L6186.18,5441.3"/>
</g>

<g fill="#ffffff" fill-opacity="1" stroke="none" transform="matrix(0.0104348,0,0,0.0104373,1,1)"
font-family="MS Shell Dlg 2" font-size="8.25" font-weight="400" font-style="normal" 
>
<path vector-effect="none" fill-rule="evenodd" d="M9323.03,2311.95 L9350.65,2394.81 L9378.28,2477.68 L9323.03,2532.92 L9267.79,2588.16 L9184.93,2560.54 L9102.06,2532.92 L9074.44,2450.06 L9046.82,2367.19 L9102.06,2311.95 L9157.3,2256.71 L9240.17,2284.33 L9323.03,2311.95"/>
</g>

<g fill="none" stroke="#000000" stroke-opacity="1" stroke-width="10.41" stroke-linecap="butt" stroke-linejoin="miter" stroke-miterlimit="2.61313" transform="matrix(0.0104348,0,0,0.0104373,1,1)"
font-family="MS Shell Dlg 2" font-size="8.25" font-weight="400" font-style="normal" 
>
<path vector-effect="none" fill-rule="evenodd" d="M9323.03,2311.95 L9350.65,2394.81 L9378.28,2477.68 L9323.03,2532.92 L9267.79,2588.16 L9184.93,2560.54 L9102.06,2532.92 L9074.44,2450.06 L9046.82,2367.19 L9102.06,2311.95 L9157.3,2256.71 L9240.17,2284.33 L9323.03,2311.95"/>
</g>

<g fill="none" stroke="none" transform="matrix(0.0104348,0,0,0.0104373,1,1)"
font-family="MS Shell Dlg 2" font-size="8.25" font-weight="400" font-style="normal" 
>
<path vector-effect="none" fill-rule="evenodd" d="M4385.02,6980.93 C5353.52,6975.08 6322.03,6969.23 6826.39,6966.3 C7330.76,6963.37 7370.98,6963.37 7379.6,6712.68 C7388.22,6461.99 7365.23,5960.61 7354.46,5708.48 C7343.69,5456.35 7345.13,5453.48 7346.56,5450.61 "/>
</g>

<g fill="none" stroke="#857848" stroke-opacity="1" stroke-width="166.67" stroke-linecap="butt" stroke-linejoin="miter" stroke-miterlimit="2.61313" transform="matrix(0.0104348,0,0,0.0104373,1,1)"
font-family="MS Shell Dlg 2" font-size="8.25" font-weight="400" font-style="normal" 
>
<path vector-effect="none" fill-rule="evenodd" d="M4385.02,6980.93 C5353.52,6975.08 6322.03,6969.23 6826.39,6966.3 C7330.76,6963.37 7370.98,6963.37 7379.6,6712.68 C7388.22,6461.99 7365.23,5960.61 7354.46,5708.48 C7343.69,5456.35 7345.13,5453.48 7346.56,5450.61 "/>
</g>

<g fill="none" stroke="none" transform="matrix(0.0104348,0,0,0.0104373,1,1)"
font-family="MS Shell Dlg 2" font-size="8.25" font-weight="400" font-style="normal" 
>
<path vector-effect="none" fill-rule="evenodd" d="M530.9,6980.93 C531.47,7311.25 532.05,7641.57 532.33,7828.28 C532.62,8014.99 532.62,8058.09 1811.94,8072.45 C3091.26,8086.82 5649.9,8072.45 6946.46,8063.11 C8243.02,8053.77 8277.5,8049.46 8284.68,7619.19 C8291.87,7188.92 8271.75,6332.69 8260.98,5904.57 C8250.2,5476.46 8248.77,5476.46 8247.33,5476.46 "/>
</g>

<g fill="none" stroke="#857848" stroke-opacity="1" stroke-width="166.67" stroke-linecap="butt" stroke-linejoin="miter" stroke-miterlimit="2.61313" transform="matrix(0.0104348,0,0,0.0104373,1,1)"
font-family="MS Shell Dlg 2" font-size="8.25" font-weight="400" font-style="normal" 
>
<path vector-effect="none" fill-rule="evenodd" d="M530.9,6980.93 C531.47,7311.25 532.05,7641.57 532.33,7828.28 C532.62,8014.99 532.62,8058.09 1811.94,8072.45 C3091.26,8086.82 5649.9,8072.45 6946.46,8063.11 C8243.02,8053.77 8277.5,8049.46 8284.68,7619.19 C8291.87,7188.92 8271.75,6332.69 8260.98,5904.57 C8250.2,5476.46 8248.77,5476.46 8247.33,5476.46 "/>
</g>

<g fill="#3e5261" fill-opacity="1" stroke="none" transform="matrix(0.0104348,0,0,0.0104373,1,1)"
font-family="MS Shell Dlg 2" font-size="8.25" font-weight="400" font-style="normal" 
>
<circle cx="7621.37" cy="3995.08" r="1953.12"/>
</g>

<g fill="none" stroke="#000000" stroke-opacity="1" stroke-width="10.41" stroke-linecap="butt" stroke-linejoin="miter" stroke-miterlimit="2.61313" transform="matrix(0.0104348,0,0,0.0104373,1,1)"
font-family="MS Shell Dlg 2" font-size="8.25" font-weight="400" font-style="normal" 
>
<circle cx="7621.37" cy="3995.08" r="1953.12"/>
</g>

<g fill="#7a4e4e" fill-opacity="1" stroke="none" transform="matrix(0.0104348,0,0,0.0104373,1,1)"
font-family="MS Shell Dlg 2" font-size="8.25" font-weight="400" font-style="normal" 
>
<circle cx="7621.37" cy="3995.08" r="1432.29"/>
</g>

<g fill="none" stroke="#000000" stroke-opacity="1" stroke-width="10.41" stroke-linecap="butt" stroke-linejoin="miter" stroke-miterlimit="2.61313" transform="matrix(0.0104348,0,0,0.0104373,1,1)"
font-family="MS Shell Dlg 2" font-size="8.25" font-weight="400" font-style="normal" 
>
<circle cx="7621.37" cy="3995.08" r="1432.29"/>
</g>

<g fill="none" stroke="none" transform="matrix(0.0104348,0,0,0.0104373,1,1)"
font-family="MS Shell Dlg 2" font-size="8.25" font-weight="400" font-style="normal" 
>
<path vector-effect="none" fill-rule="evenodd" d="M7621.37,3592.01 L7787.36,3692.78 L7953.35,3793.54 L7953.35,3995.08 L7953.35,4196.61 L7787.36,4297.38 L7621.37,4398.15 L7455.37,4297.38 L7289.38,4196.61 L7289.38,3995.08 L7289.38,3793.54 L7455.37,3692.78 L7621.37,3592.01"/>
</g>

<g fill="none" stroke="#42abbd" stroke-opacity="1" stroke-width="166.67" stroke-linecap="butt" stroke-linejoin="miter" stroke-miterlimit="2.61313" transform="matrix(0.0104348,0,0,0.0104373,1,1)"
font-family="MS Shell Dlg 2" font-size="8.25" font-weight="400" font-style="normal" 
>
<path vector-effect="none" fill-rule="evenodd" d="M7621.37,3592.01 L7787.36,3692.78 L7953.35,3793.54 L7953.35,3995.08 L7953.35,4196.61 L7787.36,4297.38 L7621.37,4398.15 L7455.37,4297.38 L7289.38,4196.61 L7289.38,3995.08 L7289.38,3793.54 L7455.37,3692.78 L7621.37,3592.01"/>
</g>

<g fill="#42abbd" fill-opacity="1" stroke="none" transform="matrix(0.0104348,0,0,0.0104373,1,1)"
font-family="MS Shell Dlg 2" font-size="8.25" font-weight="400" font-style="normal" 
>
<path vector-effect="none" fill-rule="evenodd" d="M7701.06,3210.02 L7701.06,3566.26 L7534.39,3566.26 L7534.39,3215.54 C7522.96,3211.55 7512.24,3205 7503.15,3195.91 L7289.54,2982.31 C7257.13,2949.9 7257.13,2896.87 7289.54,2864.46 L7289.55,2864.45 C7321.96,2832.04 7374.98,2832.04 7407.4,2864.45 L7611.52,3068.58 L7815.64,2864.45 C7848.05,2832.04 7901.08,2832.04 7933.49,2864.45 L7933.5,2864.46 C7965.91,2896.87 7965.91,2949.89 7933.5,2982.31 L7719.89,3195.91 C7714.18,3201.62 7707.83,3206.32 7701.06,3210.02 "/>
</g>

<g fill="#42abbd" fill-opacity="1" stroke="none" transform="matrix(0.0104348,0,0,0.0104373,1,1)"
font-family="MS Shell Dlg 2" font-size="8.25" font-weight="400" font-style="normal" 
>
<path vector-effect="none" fill-rule="evenodd" d="M7521.98,4654.69 L7521.98,4298.45 L7688.65,4298.45 L7688.65,4649.17 C7700.08,4653.16 7710.8,4659.71 7719.89,4668.8 L7933.5,4882.4 C7965.91,4914.81 7965.91,4967.84 7933.5,5000.25 L7933.49,5000.26 C7901.08,5032.67 7848.06,5032.67 7815.64,5000.26 L7611.52,4796.13 L7407.4,5000.26 C7374.99,5032.67 7321.96,5032.67 7289.55,5000.26 L7289.54,5000.25 C7257.13,4967.84 7257.13,4914.82 7289.54,4882.4 L7503.15,4668.8 C7508.86,4663.09 7515.21,4658.39 7521.98,4654.69 "/>
</g>

<g fill="#42abbd" fill-opacity="1" stroke="none" transform="matrix(0.0104348,0,0,0.0104373,1,1)"
font-family="MS Shell Dlg 2" font-size="8.25" font-weight="400" font-style="normal" 
>
<path vector-effect="none" fill-rule="evenodd" d="M7032.06,3538.49 L7340.57,3716.61 L7257.24,3860.94 L6953.51,3685.58 C6944.34,3693.48 6933.31,3699.49 6920.89,3702.82 L6629.1,3781.01 C6584.82,3792.87 6538.9,3766.36 6527.04,3722.09 L6527.04,3722.08 C6515.17,3677.81 6541.69,3631.89 6585.97,3620.02 L6864.81,3545.31 L6790.09,3266.48 C6778.22,3222.2 6804.74,3176.28 6849.01,3164.42 L6849.02,3164.42 C6893.29,3152.55 6939.21,3179.07 6951.08,3223.35 L7029.27,3515.14 C7031.36,3522.94 7032.25,3530.79 7032.08,3538.5 L7032.06,3538.49"/>
</g>

<g fill="#42abbd" fill-opacity="1" stroke="none" transform="matrix(0.0104348,0,0,0.0104373,1,1)"
font-family="MS Shell Dlg 2" font-size="8.25" font-weight="400" font-style="normal" 
>
<path vector-effect="none" fill-rule="evenodd" d="M8301.6,3694.29 L7993.09,3872.41 L7909.76,3728.07 L8213.49,3552.71 C8211.23,3540.82 8211.54,3528.27 8214.87,3515.84 L8293.05,3224.05 C8304.92,3179.77 8350.83,3153.26 8395.11,3165.12 L8395.12,3165.12 C8439.39,3176.98 8465.9,3222.9 8454.04,3267.18 L8379.32,3546.02 L8658.16,3620.73 C8702.44,3632.59 8728.95,3678.51 8717.09,3722.79 L8717.09,3722.8 C8705.23,3767.07 8659.31,3793.58 8615.03,3781.72 L8323.24,3703.53 C8315.44,3701.44 8308.19,3698.29 8301.61,3694.28 L8301.6,3694.29"/>
</g>

<g fill="#42abbd" fill-opacity="1" stroke="none" transform="matrix(0.0104348,0,0,0.0104373,1,1)"
font-family="MS Shell Dlg 2" font-size="8.25" font-weight="400" font-style="normal" 
>
<path vector-effect="none" fill-rule="evenodd" d="M6940.36,4293.02 L7248.87,4114.9 L7332.2,4259.23 L7028.47,4434.59 C7030.73,4446.48 7030.42,4459.04 7027.09,4471.46 L6948.91,4763.25 C6937.04,4807.53 6891.13,4834.04 6846.85,4822.18 L6846.84,4822.18 C6802.57,4810.32 6776.06,4764.4 6787.92,4720.12 L6862.64,4441.28 L6583.8,4366.57 C6539.52,4354.71 6513.01,4308.79 6524.87,4264.51 L6524.87,4264.5 C6536.73,4220.23 6582.65,4193.72 6626.93,4205.58 L6918.72,4283.77 C6926.52,4285.86 6933.77,4289.01 6940.35,4293.02 L6940.36,4293.02"/>
</g>

<g fill="#42abbd" fill-opacity="1" stroke="none" transform="matrix(0.0104348,0,0,0.0104373,1,1)"
font-family="MS Shell Dlg 2" font-size="8.25" font-weight="400" font-style="normal" 
>
<path vector-effect="none" fill-rule="evenodd" d="M8196.63,4426.08 L7888.12,4247.96 L7971.45,4103.63 L8275.18,4278.99 C8284.35,4271.09 8295.38,4265.08 8307.8,4261.75 L8599.59,4183.56 C8643.87,4171.7 8689.79,4198.21 8701.65,4242.48 L8701.65,4242.49 C8713.51,4286.76 8687,4332.68 8642.72,4344.55 L8363.88,4419.26 L8438.6,4698.1 C8450.46,4742.38 8423.95,4788.3 8379.68,4800.16 L8379.67,4800.16 C8335.39,4812.03 8289.48,4785.51 8277.61,4741.23 L8199.43,4449.44 C8197.34,4441.64 8196.45,4433.79 8196.62,4426.08 L8196.63,4426.08"/>
</g>

<g fill="none" stroke="#000000" stroke-opacity="1" stroke-width="1" stroke-linecap="square" stroke-linejoin="bevel" transform="matrix(0.116009,0,0,0.116009,1,1)"
font-family="MS Shell Dlg 2" font-size="8.25" font-weight="400" font-style="normal" 
>
</g>

<g fill="none" stroke="#000000" stroke-opacity="1" stroke-width="1" stroke-linecap="square" stroke-linejoin="bevel" transform="matrix(1,0,0,1,0,0)"
font-family="MS Shell Dlg 2" font-size="8.25" font-weight="400" font-style="normal" 
>
</g>

<g fill="#0000ff" fill-opacity="1" stroke="#000000" stroke-opacity="0" stroke-width="1" stroke-linecap="square" stroke-linejoin="bevel" transform="matrix(1,0,0,1,101,43.4014)"
font-family="MS Shell Dlg 2" font-size="8.25" font-weight="400" font-style="normal" 
>
<circle cx="0" cy="0" r="2"/>
</g>

<g fill="#e57373" fill-opacity="1" stroke="#e57373" stroke-opacity="1" stroke-width="0.5" stroke-linecap="square" stroke-linejoin="bevel" transform="matrix(1,0,0,1,101,43.4014)"
font-family="MS Shell Dlg 2" font-size="8.25" font-weight="400" font-style="normal" 
>
<polyline fill="none" vector-effect="none" points="-3,-3 3,-3 " />
<path vector-effect="none" fill-rule="evenodd" d="M3,-3 L1.25,-2.25 L1.25,-3.75 L3,-3"/>
</g>

<g fill="#7986cb" fill-opacity="1" stroke="#7986cb" stroke-opacity="1" stroke-width="0.5" stroke-linecap="square" stroke-linejoin="bevel" transform="matrix(1,0,0,1,101,43.4014)"
font-family="MS Shell Dlg 2" font-size="8.25" font-weight="400" font-style="normal" 
>
<polyline fill="none" vector-effect="none" points="3,3 -3,3 " />
<path vector-effect="none" fill-rule="evenodd" d="M-3,3 L-1.25,2.25 L-1.25,3.75 L-3,3"/>
</g>

<g fill="none" stroke="#000000" stroke-opacity="1" stroke-width="1" stroke-linecap="square" stroke-linejoin="bevel" transform="matrix(1,0,0,1,0,0)"
font-family="MS Shell Dlg 2" font-size="8.25" font-weight="400" font-style="normal" 
>
</g>
</g>
</svg>
