<?xml version="1.0" encoding="UTF-8"?>
<!DOCTYPE svg PUBLIC "-//W3C//DTD SVG 1.1//EN" "http://www.w3.org/Graphics/SVG/1.1/DTD/svg11.dtd">
<!-- Creator: CorelDRAW -->
<svg xmlns="http://www.w3.org/2000/svg" xml:space="preserve" width="9.58333in" height="8.12499in" version="1.1" style="shape-rendering:geometricPrecision; text-rendering:geometricPrecision; image-rendering:optimizeQuality; fill-rule:evenodd; clip-rule:evenodd"
viewBox="0 0 9583.33 8124.99"
 xmlns:xlink="http://www.w3.org/1999/xlink"
 xmlns:xodm="http://www.corel.com/coreldraw/odm/2003">
 <defs>
  <style type="text/css">
   <![CDATA[
    .str0 {stroke:black;stroke-width:10.41;stroke-miterlimit:2.61313}
    .str3 {stroke:#42ABBD;stroke-width:166.67;stroke-miterlimit:2.61313}
    .str2 {stroke:#857848;stroke-width:166.67;stroke-miterlimit:2.61313}
    .str1 {stroke:#373435;stroke-width:6.94;stroke-miterlimit:2.61313}
    .fil1 {fill:none}
    .fil4 {fill:#6B809B}
    .fil6 {fill:#6D6F4A}
    .fil5 {fill:#857D4C}
    .fil3 {fill:#3C608D}
    .fil0 {fill:black}
    .fil8 {fill:#3E5261}
    .fil10 {fill:#42ABBD}
    .fil9 {fill:#7A4E4E}
    .fil7 {fill:#8D99B8}
    .fil2 {fill:white}
   ]]>
  </style>
 </defs>
 <g id="Layer_x0020_1">
  <metadata id="CorelCorpID_0Corel-Layer"/>
  <rect class="fil0 str0" transform="matrix(0.707107 -0.707107 0.89558 0.89558 5585.25 2460)" width="708.57" height="3987.58" rx="354.17" ry="354.17"/>
  <rect class="fil0 str0" transform="matrix(0.707107 0.707107 -0.89558 0.89558 9156.45 1958.96)" width="708.57" height="3987.58" rx="354.17" ry="354.17"/>
  <rect class="fil1 str0" x="23.16" y="-8.89" width="4880.96" height="7406.82" rx="812.5" ry="812.5"/>
  <circle class="fil1 str0" cx="2463.63" cy="1917.24" r="1562.5"/>
  <circle class="fil1 str0" cx="2463.63" cy="5458.86" r="1562.5"/>
  <polygon class="fil2 str0" points="530.9,366.43 609.02,405.5 687.15,444.56 687.15,522.68 687.15,600.8 609.02,639.87 530.9,678.93 452.78,639.87 374.65,600.8 374.65,522.68 374.65,444.56 452.78,405.5 "/>
  <polygon class="fil2 str0" points="4385.02,366.43 4463.14,405.5 4541.26,444.56 4541.26,522.68 4541.26,600.8 4463.14,639.87 4385.02,678.93 4306.89,639.87 4228.76,600.8 4228.76,522.68 4228.76,444.56 4306.89,405.5 "/>
  <polygon class="fil2 str0" points="530.9,6824.69 609.02,6863.75 687.15,6902.81 687.15,6980.93 687.15,7059.06 609.02,7098.12 530.9,7137.19 452.78,7098.12 374.65,7059.06 374.65,6980.93 374.65,6902.81 452.78,6863.75 "/>
  <polygon class="fil2 str0" points="4385.02,6824.69 4463.14,6863.75 4541.26,6902.81 4541.26,6980.93 4541.26,7059.06 4463.14,7098.12 4385.02,7137.19 4306.89,7098.12 4228.76,7059.06 4228.76,6980.93 4228.76,6902.81 4306.89,6863.75 "/>
  <polygon class="fil2 str0" points="530.9,3491.39 609.02,3530.46 687.15,3569.52 687.15,3647.64 687.15,3725.76 609.02,3764.83 530.9,3803.89 452.78,3764.83 374.65,3725.76 374.65,3647.64 374.65,3569.52 452.78,3530.46 "/>
  <polygon class="fil2 str0" points="4385.02,3491.39 4463.14,3530.46 4541.26,3569.52 4541.26,3647.64 4541.26,3725.76 4463.14,3764.83 4385.02,3803.89 4306.89,3764.83 4228.76,3725.76 4228.76,3647.64 4228.76,3569.52 4306.89,3530.46 "/>
  <path class="fil3 str1" d="M2463.63 3479.74c-862.94,0 -1562.5,-699.55 -1562.5,-1562.5 0,-862.95 699.56,-1562.5 1562.5,-1562.5 862.94,0 1562.5,699.56 1562.5,1562.5 0,862.94 -699.56,1562.5 -1562.5,1562.5zm1843.26 50.72l78.12 -39.07 78.12 39.07 78.13 39.06 0 78.12 0 78.12 -78.13 39.06 -78.12 39.06 -78.12 -39.06 -78.13 -39.06 0 -78.12 0 -78.12 78.13 -39.06zm-3776 -39.07l78.12 39.07 78.13 39.06 0 78.12 0 78.12 -78.13 39.06 -78.12 39.06 -78.12 -39.06 -78.13 -39.06 0 -78.12 0 -78.12 78.13 -39.06 78.12 -39.07zm3560.72 -3500.28l-3255.96 0c-446.87,0 -812.5,365.62 -812.5,812.5l0 5781.83c0,446.87 365.62,812.5 812.5,812.5l3255.96 0c446.87,0 812.5,-365.62 812.5,-812.5l0 -5781.83c0,-446.87 -365.62,-812.5 -812.5,-812.5zm-3482.6 648.76l-78.12 39.06 -78.12 -39.06 -78.13 -39.06 0 -78.12 0 -78.12 78.13 -39.06 78.12 -39.07 78.12 39.07 78.13 39.06 0 78.12 0 78.12 -78.13 39.06zm-78.12 6184.81l78.12 39.07 78.13 39.06 0 78.12 0 78.12 -78.13 39.06 -78.12 39.06 -78.12 -39.06 -78.13 -39.06 0 -78.12 0 -78.12 78.13 -39.06 78.12 -39.07zm370.24 -1365.82c0,-862.94 699.56,-1562.5 1562.5,-1562.5 862.94,0 1562.5,699.56 1562.5,1562.5 0,862.94 -699.56,1562.5 -1562.5,1562.5 -862.94,0 -1562.5,-699.56 -1562.5,-1562.5zm3483.88 1365.82l78.12 39.07 78.13 39.06 0 78.12 0 78.12 -78.13 39.06 -78.12 39.06 -78.12 -39.06 -78.13 -39.06 0 -78.12 0 -78.12 78.13 -39.06 78.12 -39.07zm-156.25 -6302l0 -78.12 78.13 -39.06 78.12 -39.07 78.12 39.07 78.13 39.06 0 78.12 0 78.12 -78.13 39.06 -78.12 39.06 -78.12 -39.06 -78.13 -39.06 0 -78.12z"/>
  <circle class="fil1 str0" cx="2463.63" cy="1917.24" r="1302.08"/>
  <circle class="fil1 str0" cx="2463.63" cy="5458.86" r="1302.08"/>
  <path class="fil4 str1" d="M2463.63 615.16c719.12,0 1302.08,582.96 1302.08,1302.08 0,719.12 -582.96,1302.08 -1302.08,1302.08 -719.12,0 -1302.08,-582.96 -1302.08,-1302.08 0,-719.12 582.96,-1302.08 1302.08,-1302.08zm0 2864.58c862.94,0 1562.5,-699.55 1562.5,-1562.5 0,-862.95 -699.56,-1562.5 -1562.5,-1562.5 -862.94,0 -1562.5,699.56 -1562.5,1562.5 0,862.94 699.56,1562.5 1562.5,1562.5z"/>
  <path class="fil5 str1" d="M4026.13 5458.86c0,-862.94 -699.56,-1562.5 -1562.5,-1562.5 -862.94,0 -1562.5,699.56 -1562.5,1562.5 0,862.94 699.56,1562.5 1562.5,1562.5 862.94,0 1562.5,-699.56 1562.5,-1562.5zm-1562.5 -1302.08c719.12,0 1302.08,582.96 1302.08,1302.08 0,719.12 -582.96,1302.08 -1302.08,1302.08 -719.12,0 -1302.08,-582.96 -1302.08,-1302.08 0,-719.12 582.96,-1302.08 1302.08,-1302.08z"/>
  <path class="fil6 str1" d="M2463.63 3479.74c862.94,0 1562.5,-699.55 1562.5,-1562.5 0,-862.95 -699.56,-1562.5 -1562.5,-1562.5 -862.94,0 -1562.5,699.56 -1562.5,1562.5 0,862.94 699.56,1562.5 1562.5,1562.5zm0 -2864.58c719.12,0 1302.08,582.96 1302.08,1302.08 0,719.12 -582.96,1302.08 -1302.08,1302.08 -719.12,0 -1302.08,-582.96 -1302.08,-1302.08 0,-719.12 582.96,-1302.08 1302.08,-1302.08z"/>
  <path class="fil4 str1" d="M4026.13 5458.86c0,-862.94 -699.56,-1562.5 -1562.5,-1562.5 -862.94,0 -1562.5,699.56 -1562.5,1562.5 0,862.94 699.56,1562.5 1562.5,1562.5 862.94,0 1562.5,-699.56 1562.5,-1562.5zm-1562.5 -1302.08c719.12,0 1302.08,582.96 1302.08,1302.08 0,719.12 -582.96,1302.08 -1302.08,1302.08 -719.12,0 -1302.08,-582.96 -1302.08,-1302.08 0,-719.12 582.96,-1302.08 1302.08,-1302.08z"/>
  <path class="fil6 str1" d="M4026.13 5458.86c0,-862.94 -699.56,-1562.5 -1562.5,-1562.5 -862.94,0 -1562.5,699.56 -1562.5,1562.5 0,862.94 699.56,1562.5 1562.5,1562.5 862.94,0 1562.5,-699.56 1562.5,-1562.5zm-1562.5 -1302.08c719.12,0 1302.08,582.96 1302.08,1302.08 0,719.12 -582.96,1302.08 -1302.08,1302.08 -719.12,0 -1302.08,-582.96 -1302.08,-1302.08 0,-719.12 582.96,-1302.08 1302.08,-1302.08z"/>
  <path class="fil7 str0" d="M3044.59 1917.24l-580.95 0c0,273.68 260.1,495.54 580.95,495.54 320.85,0 580.95,-221.86 580.95,-495.54l-580.95 0z"/>
  <path class="fil7 str0" d="M2463.63 1336.28l0 580.95c273.68,0 495.54,-260.1 495.54,-580.95 0,-320.85 -221.86,-580.95 -495.54,-580.95l0 580.95z"/>
  <path class="fil7 str0" d="M1882.68 1917.24l580.95 0c0,-273.68 -260.1,-495.54 -580.95,-495.54 -320.85,0 -580.95,221.86 -580.95,495.54l580.95 0z"/>
  <path class="fil7 str0" d="M2443.85 2498.19l0 -580.95c-273.68,0 -495.54,260.1 -495.54,580.95 0,320.85 221.86,580.95 495.54,580.95l0 -580.95z"/>
  <circle class="fil0 str0" cx="2463.63" cy="1917.24" r="260.42"/>
  <path class="fil7 str0" d="M3044.59 5458.86l-580.95 0c0,273.68 260.1,495.54 580.95,495.54 320.85,0 580.95,-221.86 580.95,-495.54l-580.95 0z"/>
  <path class="fil7 str0" d="M2463.63 4877.91l0 580.95c273.68,0 495.54,-260.1 495.54,-580.95 0,-320.85 -221.86,-580.95 -495.54,-580.95l0 580.95z"/>
  <path class="fil7 str0" d="M1882.68 5458.86l580.95 0c0,-273.68 -260.1,-495.54 -580.95,-495.54 -320.85,0 -580.95,221.86 -580.95,495.54l580.95 0z"/>
  <path class="fil7 str0" d="M2443.85 6039.81l0 -580.95c-273.68,0 -495.54,260.1 -495.54,580.95 0,320.85 221.86,580.95 495.54,580.95l0 -580.95z"/>
  <circle class="fil0 str0" cx="2463.63" cy="5458.86" r="260.42"/>
  <polygon class="fil2 str0" points="5967.98,2302.33 6050.84,2274.72 6133.7,2247.09 6188.95,2302.33 6244.19,2357.57 6216.57,2440.44 6188.95,2523.3 6106.08,2550.92 6023.22,2578.55 5967.98,2523.3 5912.74,2468.06 5940.36,2385.2 "/>
  <polygon class="fil2 str0" points="9060.84,5456.3 9143.7,5428.68 9226.57,5401.05 9281.81,5456.3 9337.05,5511.54 9309.43,5594.4 9281.81,5677.26 9198.94,5704.88 9116.08,5732.51 9060.84,5677.26 9005.6,5622.02 9033.22,5539.16 "/>
  <polygon class="fil2 str0" points="6186.18,5441.3 6213.8,5524.17 6241.43,5607.03 6186.18,5662.28 6130.94,5717.52 6048.07,5689.89 5965.21,5662.28 5937.59,5579.41 5909.97,5496.55 5965.21,5441.3 6020.45,5386.06 6103.32,5413.69 "/>
  <polygon class="fil2 str0" points="9323.03,2311.95 9350.65,2394.81 9378.28,2477.68 9323.03,2532.92 9267.79,2588.16 9184.93,2560.54 9102.06,2532.92 9074.44,2450.06 9046.82,2367.19 9102.06,2311.95 9157.3,2256.71 9240.17,2284.33 "/>
  <path class="fil1 str2" d="M4385.02 6980.93c968.5,-5.85 1937.01,-11.7 2441.37,-14.63 504.37,-2.93 544.59,-2.93 553.21,-253.62 8.62,-250.69 -14.37,-752.07 -25.14,-1004.2 -10.77,-252.13 -9.33,-255 -7.9,-257.87"/>
  <path class="fil1 str2" d="M530.9 6980.93c0.57,330.32 1.15,660.64 1.43,847.35 0.29,186.71 0.29,229.81 1279.61,244.17 1279.32,14.37 3837.96,0 5134.52,-9.34 1296.56,-9.34 1331.04,-13.65 1338.22,-443.92 7.19,-430.27 -12.93,-1286.5 -23.7,-1714.62 -10.78,-428.11 -12.21,-428.11 -13.65,-428.11"/>
  <circle class="fil8 str0" cx="7621.37" cy="3995.08" r="1953.12"/>
  <circle class="fil9 str0" cx="7621.37" cy="3995.08" r="1432.29"/>
  <polygon class="fil1 str3" points="7621.37,3592.01 7787.36,3692.78 7953.35,3793.54 7953.35,3995.08 7953.35,4196.61 7787.36,4297.38 7621.37,4398.15 7455.37,4297.38 7289.38,4196.61 7289.38,3995.08 7289.38,3793.54 7455.37,3692.78 "/>
  <path class="fil10" d="M7701.06 3210.02l0 356.24 -166.67 0 0 -350.72c-11.43,-3.99 -22.15,-10.54 -31.24,-19.63l-213.61 -213.6c-32.41,-32.41 -32.41,-85.44 -0,-117.85l0.01 -0.01c32.41,-32.41 85.43,-32.41 117.85,0l204.12 204.13 204.12 -204.13c32.41,-32.41 85.44,-32.41 117.85,-0l0.01 0.01c32.41,32.41 32.41,85.43 -0,117.85l-213.61 213.6c-5.71,5.71 -12.06,10.41 -18.83,14.11z"/>
  <path class="fil10" d="M7521.98 4654.69l0 -356.24 166.67 0 0 350.72c11.43,3.99 22.15,10.54 31.24,19.63l213.61 213.6c32.41,32.41 32.41,85.44 0,117.85l-0.01 0.01c-32.41,32.41 -85.43,32.41 -117.85,-0l-204.12 -204.13 -204.12 204.13c-32.41,32.41 -85.44,32.41 -117.85,0l-0.01 -0.01c-32.41,-32.41 -32.41,-85.43 0,-117.85l213.61 -213.6c5.71,-5.71 12.06,-10.41 18.83,-14.11z"/>
  <path class="fil10" d="M7032.06 3538.49l308.51 178.12 -83.33 144.33 -303.73 -175.36c-9.17,7.9 -20.2,13.91 -32.62,17.24l-291.79 78.19c-44.28,11.86 -90.2,-14.65 -102.06,-58.92l0 -0.01c-11.87,-44.27 14.65,-90.19 58.93,-102.06l278.84 -74.71 -74.72 -278.83c-11.87,-44.28 14.65,-90.2 58.92,-102.06l0.01 0c44.27,-11.87 90.19,14.65 102.06,58.93l78.19 291.79c2.09,7.8 2.98,15.65 2.81,23.36z"/>
  <path class="fil10" d="M8301.6 3694.29l-308.51 178.12 -83.33 -144.34 303.73 -175.36c-2.26,-11.89 -1.95,-24.44 1.38,-36.87l78.18 -291.79c11.87,-44.28 57.78,-70.79 102.06,-58.93l0.01 0c44.27,11.86 70.78,57.78 58.92,102.06l-74.72 278.84 278.84 74.71c44.28,11.86 70.79,57.78 58.93,102.06l-0 0.01c-11.86,44.27 -57.78,70.78 -102.06,58.92l-291.79 -78.19c-7.8,-2.09 -15.05,-5.24 -21.63,-9.25z"/>
  <path class="fil10" d="M6940.36 4293.02l308.51 -178.12 83.33 144.33 -303.73 175.36c2.26,11.89 1.95,24.45 -1.38,36.87l-78.18 291.79c-11.87,44.28 -57.78,70.79 -102.06,58.93l-0.01 -0c-44.27,-11.86 -70.78,-57.78 -58.92,-102.06l74.72 -278.84 -278.84 -74.71c-44.28,-11.86 -70.79,-57.78 -58.93,-102.06l0 -0.01c11.86,-44.27 57.78,-70.78 102.06,-58.92l291.79 78.19c7.8,2.09 15.05,5.24 21.63,9.25z"/>
  <path class="fil10" d="M8196.63 4426.08l-308.51 -178.12 83.33 -144.33 303.73 175.36c9.17,-7.9 20.2,-13.91 32.62,-17.24l291.79 -78.19c44.28,-11.86 90.2,14.65 102.06,58.92l0 0.01c11.86,44.27 -14.65,90.19 -58.93,102.06l-278.84 74.71 74.72 278.84c11.86,44.28 -14.65,90.2 -58.92,102.06l-0.01 0c-44.28,11.87 -90.19,-14.65 -102.06,-58.93l-78.18 -291.79c-2.09,-7.8 -2.98,-15.65 -2.81,-23.36z"/>
 </g>
</svg>
