<?xml version="1.0" encoding="UTF-8" standalone="no"?>
<svg width="38.1mm" height="12.3472mm"
 viewBox="0 0 108 34.5843"
 xmlns="http://www.w3.org/2000/svg" xmlns:xlink="http://www.w3.org/1999/xlink"  version="1.2" baseProfile="tiny">
<title>PhidgetBubbleSensorComponent</title>
<desc>Chemunited component figure exported without name or port labels.</desc>
<defs>
</defs>
<g fill="none" stroke="black" stroke-width="1" fill-rule="evenodd" stroke-linecap="square" stroke-linejoin="bevel" >

<g fill="none" stroke="#000000" stroke-opacity="1" stroke-width="1" stroke-linecap="square" stroke-linejoin="bevel" transform="matrix(1,0,0,1,0,0)"
font-family="MS Shell Dlg 2" font-size="8.25" font-weight="400" font-style="normal" 
>
</g>

<g fill="none" stroke="#000000" stroke-opacity="1" stroke-width="1" stroke-linecap="square" stroke-linejoin="bevel" transform="matrix(1,0,0,1,0,0)"
font-family="MS Shell Dlg 2" font-size="8.25" font-weight="400" font-style="normal" 
>
</g>

<g fill="none" stroke="#000000" stroke-opacity="1" stroke-width="1" stroke-linecap="square" stroke-linejoin="bevel" transform="matrix(1.1236,0,0,1.1236,4,1)"
font-family="MS Shell Dlg 2" font-size="8.25" font-weight="400" font-style="normal" 
>
</g>

<g fill="#666666" fill-opacity="1" stroke="none" transform="matrix(0.101053,0,0,0.0977538,4,1)"
font-family="MS Shell Dlg 2" font-size="8.25" font-weight="400" font-style="normal" 
>
<path vector-effect="none" fill-rule="evenodd" d="M29.71,202.872 C29.71,176.626 48.3502,155.35 71.344,155.35 L913.276,155.35 C936.27,155.35 954.91,176.626 954.91,202.872 L954.91,277.548 C954.91,303.794 936.27,325.07 913.276,325.07 L71.344,325.07 C48.3502,325.07 29.71,303.794 29.71,277.548 L29.71,202.872"/>
</g>

<g fill="none" stroke="#000000" stroke-opacity="1" stroke-width="10.41" stroke-linecap="butt" stroke-linejoin="miter" stroke-miterlimit="2.61313" transform="matrix(0.101053,0,0,0.0977538,4,1)"
font-family="MS Shell Dlg 2" font-size="8.25" font-weight="400" font-style="normal" 
>
<path vector-effect="none" fill-rule="evenodd" d="M29.71,202.872 C29.71,176.626 48.3502,155.35 71.344,155.35 L913.276,155.35 C936.27,155.35 954.91,176.626 954.91,202.872 L954.91,277.548 C954.91,303.794 936.27,325.07 913.276,325.07 L71.344,325.07 C48.3502,325.07 29.71,303.794 29.71,277.548 L29.71,202.872"/>
</g>

<g fill="#542d00" fill-opacity="1" stroke="none" transform="matrix(0.101053,0,0,0.0977538,4,1)"
font-family="MS Shell Dlg 2" font-size="8.25" font-weight="400" font-style="normal" 
>
<path vector-effect="none" fill-rule="evenodd" d="M185.74,4.18 L350.31,4.18 L350.31,155.36 L102.41,155.36 L102.41,87.51 C102.41,41.68 139.91,4.18 185.74,4.18 "/>
</g>

<g fill="none" stroke="#000000" stroke-opacity="1" stroke-width="10.41" stroke-linecap="butt" stroke-linejoin="miter" stroke-miterlimit="2.61313" transform="matrix(0.101053,0,0,0.0977538,4,1)"
font-family="MS Shell Dlg 2" font-size="8.25" font-weight="400" font-style="normal" 
>
<path vector-effect="none" fill-rule="evenodd" d="M185.74,4.18 L350.31,4.18 L350.31,155.36 L102.41,155.36 L102.41,87.51 C102.41,41.68 139.91,4.18 185.74,4.18 "/>
</g>

<g fill="#542d00" fill-opacity="1" stroke="none" transform="matrix(0.101053,0,0,0.0977538,4,1)"
font-family="MS Shell Dlg 2" font-size="8.25" font-weight="400" font-style="normal" 
>
<path vector-effect="none" fill-rule="evenodd" d="M623.24,4.18 L787.81,4.18 C833.64,4.18 871.14,41.68 871.14,87.51 L871.14,155.36 L623.24,155.36 L623.24,4.18"/>
</g>

<g fill="none" stroke="#000000" stroke-opacity="1" stroke-width="10.41" stroke-linecap="butt" stroke-linejoin="miter" stroke-miterlimit="2.61313" transform="matrix(0.101053,0,0,0.0977538,4,1)"
font-family="MS Shell Dlg 2" font-size="8.25" font-weight="400" font-style="normal" 
>
<path vector-effect="none" fill-rule="evenodd" d="M623.24,4.18 L787.81,4.18 C833.64,4.18 871.14,41.68 871.14,87.51 L871.14,155.36 L623.24,155.36 L623.24,4.18"/>
</g>

<g fill="#f50808" fill-opacity="1" stroke="none" transform="matrix(0.101053,0,0,0.0977538,4,1)"
font-family="MS Shell Dlg 2" font-size="8.25" font-weight="400" font-style="normal" 
>
<ellipse cx="677.09" cy="76.43" rx="33.66" ry="31.25"/>
</g>

<g fill="none" stroke="#000000" stroke-opacity="1" stroke-width="10.41" stroke-linecap="butt" stroke-linejoin="miter" stroke-miterlimit="2.61313" transform="matrix(0.101053,0,0,0.0977538,4,1)"
font-family="MS Shell Dlg 2" font-size="8.25" font-weight="400" font-style="normal" 
>
<ellipse cx="677.09" cy="76.43" rx="33.66" ry="31.25"/>
</g>

<g fill="#00ff0d" fill-opacity="1" stroke="none" transform="matrix(0.101053,0,0,0.0977538,4,1)"
font-family="MS Shell Dlg 2" font-size="8.25" font-weight="400" font-style="normal" 
>
<ellipse cx="768.85" cy="75.58" rx="33.66" ry="31.25"/>
</g>

<g fill="none" stroke="#000000" stroke-opacity="1" stroke-width="10.41" stroke-linecap="butt" stroke-linejoin="miter" stroke-miterlimit="2.61313" transform="matrix(0.101053,0,0,0.0977538,4,1)"
font-family="MS Shell Dlg 2" font-size="8.25" font-weight="400" font-style="normal" 
>
<ellipse cx="768.85" cy="75.58" rx="33.66" ry="31.25"/>
</g>

<g fill="#f50808" fill-opacity="1" stroke="none" transform="matrix(0.101053,0,0,0.0977538,4,1)"
font-family="MS Shell Dlg 2" font-size="8.25" font-weight="400" font-style="normal" 
>
<ellipse cx="192.77" cy="76.43" rx="33.66" ry="31.25"/>
</g>

<g fill="none" stroke="#000000" stroke-opacity="1" stroke-width="10.41" stroke-linecap="butt" stroke-linejoin="miter" stroke-miterlimit="2.61313" transform="matrix(0.101053,0,0,0.0977538,4,1)"
font-family="MS Shell Dlg 2" font-size="8.25" font-weight="400" font-style="normal" 
>
<ellipse cx="192.77" cy="76.43" rx="33.66" ry="31.25"/>
</g>

<g fill="#00ff0d" fill-opacity="1" stroke="none" transform="matrix(0.101053,0,0,0.0977538,4,1)"
font-family="MS Shell Dlg 2" font-size="8.25" font-weight="400" font-style="normal" 
>
<ellipse cx="284.53" cy="75.58" rx="33.66" ry="31.25"/>
</g>

<g fill="none" stroke="#000000" stroke-opacity="1" stroke-width="10.41" stroke-linecap="butt" stroke-linejoin="miter" stroke-miterlimit="2.61313" transform="matrix(0.101053,0,0,0.0977538,4,1)"
font-family="MS Shell Dlg 2" font-size="8.25" font-weight="400" font-style="normal" 
>
<ellipse cx="284.53" cy="75.58" rx="33.66" ry="31.25"/>
</g>

<g fill="#000000" fill-opacity="1" stroke="none" transform="matrix(0.101053,0,0,0.0977538,4,1)"
font-family="MS Shell Dlg 2" font-size="8.25" font-weight="400" font-style="normal" 
>
<rect x="4.83" y="200.1" width="23.13" height="80.24"/>
</g>

<g fill="none" stroke="#000000" stroke-opacity="1" stroke-width="10.41" stroke-linecap="butt" stroke-linejoin="miter" stroke-miterlimit="2.61313" transform="matrix(0.101053,0,0,0.0977538,4,1)"
font-family="MS Shell Dlg 2" font-size="8.25" font-weight="400" font-style="normal" 
>
<rect x="4.83" y="200.1" width="23.13" height="80.24"/>
</g>

<g fill="#000000" fill-opacity="1" stroke="none" transform="matrix(0.101053,0,0,0.0977538,4,1)"
font-family="MS Shell Dlg 2" font-size="8.25" font-weight="400" font-style="normal" 
>
<rect x="956.92" y="195.04" width="23.13" height="80.24"/>
</g>

<g fill="none" stroke="#000000" stroke-opacity="1" stroke-width="10.41" stroke-linecap="butt" stroke-linejoin="miter" stroke-miterlimit="2.61313" transform="matrix(0.101053,0,0,0.0977538,4,1)"
font-family="MS Shell Dlg 2" font-size="8.25" font-weight="400" font-style="normal" 
>
<rect x="956.92" y="195.04" width="23.13" height="80.24"/>
</g>

<g fill="#3150bf" fill-opacity="1" stroke="none" transform="matrix(0.101053,0,0,0.0977538,4,1)"
font-family="MS Shell Dlg 2" font-size="8.25" font-weight="400" font-style="normal" 
>
<ellipse cx="407.75" cy="210.34" rx="20.78" ry="21.51"/>
</g>

<g fill="#3150bf" fill-opacity="1" stroke="none" transform="matrix(0.101053,0,0,0.0977538,4,1)"
font-family="MS Shell Dlg 2" font-size="8.25" font-weight="400" font-style="normal" 
>
<ellipse cx="444.54" cy="245.47" rx="20.78" ry="21.51"/>
</g>

<g fill="#3150bf" fill-opacity="1" stroke="none" transform="matrix(0.101053,0,0,0.0977538,4,1)"
font-family="MS Shell Dlg 2" font-size="8.25" font-weight="400" font-style="normal" 
>
<ellipse cx="507.08" cy="214.74" rx="20.78" ry="21.51"/>
</g>

<g fill="#3150bf" fill-opacity="1" stroke="none" transform="matrix(0.101053,0,0,0.0977538,4,1)"
font-family="MS Shell Dlg 2" font-size="8.25" font-weight="400" font-style="normal" 
>
<ellipse cx="597.81" cy="270.77" rx="20.78" ry="21.51"/>
</g>

<g fill="#3150bf" fill-opacity="1" stroke="none" transform="matrix(0.101053,0,0,0.0977538,4,1)"
font-family="MS Shell Dlg 2" font-size="8.25" font-weight="400" font-style="normal" 
>
<ellipse cx="650.22" cy="202.45" rx="20.78" ry="21.51"/>
</g>

<g fill="#3150bf" fill-opacity="1" stroke="none" transform="matrix(0.101053,0,0,0.0977538,4,1)"
font-family="MS Shell Dlg 2" font-size="8.25" font-weight="400" font-style="normal" 
>
<ellipse cx="332.49" cy="208.23" rx="20.78" ry="21.51"/>
</g>

<g fill="#3150bf" fill-opacity="1" stroke="none" transform="matrix(0.101053,0,0,0.0977538,4,1)"
font-family="MS Shell Dlg 2" font-size="8.25" font-weight="400" font-style="normal" 
>
<ellipse cx="317.31" cy="257.76" rx="20.78" ry="21.51"/>
</g>

<g fill="#3150bf" fill-opacity="1" stroke="none" transform="matrix(0.101053,0,0,0.0977538,4,1)"
font-family="MS Shell Dlg 2" font-size="8.25" font-weight="400" font-style="normal" 
>
<ellipse cx="198.2" cy="195.76" rx="20.78" ry="21.51"/>
</g>

<g fill="#3150bf" fill-opacity="1" stroke="none" transform="matrix(0.101053,0,0,0.0977538,4,1)"
font-family="MS Shell Dlg 2" font-size="8.25" font-weight="400" font-style="normal" 
>
<ellipse cx="96.44" cy="252.33" rx="20.78" ry="21.51"/>
</g>

<g fill="#3150bf" fill-opacity="1" stroke="none" transform="matrix(0.101053,0,0,0.0977538,4,1)"
font-family="MS Shell Dlg 2" font-size="8.25" font-weight="400" font-style="normal" 
>
<ellipse cx="705.71" cy="253.24" rx="20.78" ry="21.51"/>
</g>

<g fill="#3150bf" fill-opacity="1" stroke="none" transform="matrix(0.101053,0,0,0.0977538,4,1)"
font-family="MS Shell Dlg 2" font-size="8.25" font-weight="400" font-style="normal" 
>
<ellipse cx="789.75" cy="204.62" rx="20.78" ry="21.51"/>
</g>

<g fill="#3150bf" fill-opacity="1" stroke="none" transform="matrix(0.101053,0,0,0.0977538,4,1)"
font-family="MS Shell Dlg 2" font-size="8.25" font-weight="400" font-style="normal" 
>
<ellipse cx="853.74" cy="258.12" rx="20.78" ry="21.51"/>
</g>

<g fill="#3150bf" fill-opacity="1" stroke="none" transform="matrix(0.101053,0,0,0.0977538,4,1)"
font-family="MS Shell Dlg 2" font-size="8.25" font-weight="400" font-style="normal" 
>
<ellipse cx="252.24" cy="256.31" rx="20.78" ry="21.51"/>
</g>

<g fill="none" stroke="#000000" stroke-opacity="1" stroke-width="1" stroke-linecap="square" stroke-linejoin="bevel" transform="matrix(1.1236,0,0,1.1236,4,1)"
font-family="MS Shell Dlg 2" font-size="8.25" font-weight="400" font-style="normal" 
>
</g>

<g fill="none" stroke="#000000" stroke-opacity="1" stroke-width="1" stroke-linecap="square" stroke-linejoin="bevel" transform="matrix(1,0,0,1,0,0)"
font-family="MS Shell Dlg 2" font-size="8.25" font-weight="400" font-style="normal" 
>
</g>

<g fill="#1f2937" fill-opacity="1" stroke="#000000" stroke-opacity="0" stroke-width="1" stroke-linecap="square" stroke-linejoin="bevel" transform="matrix(1,0,0,1,102,24.2921)"
font-family="MS Shell Dlg 2" font-size="8.25" font-weight="400" font-style="normal" 
>
<circle cx="0" cy="0" r="3"/>
</g>

<g fill="none" stroke="#1f2937" stroke-opacity="1" stroke-width="1" stroke-linecap="square" stroke-linejoin="bevel" transform="matrix(1,0,0,1,102,24.2921)"
font-family="MS Shell Dlg 2" font-size="8.25" font-weight="400" font-style="normal" 
>
<path vector-effect="none" fill-rule="evenodd" d="M5,0 C5,-2.76142 2.76142,-5 0,-5 C-2.76142,-5 -5,-2.76142 -5,0 C-5,2.76142 -2.76142,5 0,5 "/>
</g>

<g fill="none" stroke="#000000" stroke-opacity="1" stroke-width="1" stroke-linecap="square" stroke-linejoin="bevel" transform="matrix(1,0,0,1,0,0)"
font-family="MS Shell Dlg 2" font-size="8.25" font-weight="400" font-style="normal" 
>
</g>

<g fill="#1f2937" fill-opacity="1" stroke="#000000" stroke-opacity="0" stroke-width="1" stroke-linecap="square" stroke-linejoin="bevel" transform="matrix(1,0,0,1,6,24.2921)"
font-family="MS Shell Dlg 2" font-size="8.25" font-weight="400" font-style="normal" 
>
<circle cx="0" cy="0" r="3"/>
</g>

<g fill="none" stroke="#1f2937" stroke-opacity="1" stroke-width="1" stroke-linecap="square" stroke-linejoin="bevel" transform="matrix(1,0,0,1,6,24.2921)"
font-family="MS Shell Dlg 2" font-size="8.25" font-weight="400" font-style="normal" 
>
<path vector-effect="none" fill-rule="evenodd" d="M5,0 C5,-2.76142 2.76142,-5 0,-5 C-2.76142,-5 -5,-2.76142 -5,0 C-5,2.76142 -2.76142,5 0,5 "/>
</g>

<g fill="none" stroke="#000000" stroke-opacity="1" stroke-width="1" stroke-linecap="square" stroke-linejoin="bevel" transform="matrix(1,0,0,1,0,0)"
font-family="MS Shell Dlg 2" font-size="8.25" font-weight="400" font-style="normal" 
>
</g>
</g>
</svg>
