<?xml version="1.0" encoding="UTF-8" standalone="no"?>
<svg width="14.1111mm" height="14.1111mm"
 viewBox="0 0 40 40"
 xmlns="http://www.w3.org/2000/svg" xmlns:xlink="http://www.w3.org/1999/xlink"  version="1.2" baseProfile="tiny">
<title>PhotoSensor</title>
<desc>Exported ChemUnited component icon</desc>
<defs>
</defs>
<g fill="none" stroke="black" stroke-width="1" fill-rule="evenodd" stroke-linecap="square" stroke-linejoin="bevel" >

<g fill="none" stroke="#000000" stroke-opacity="1" stroke-width="1" stroke-linecap="square" stroke-linejoin="bevel" transform="matrix(1,0,0,1,0,0)"
font-family="MS Shell Dlg 2" font-size="8.25" font-weight="400" font-style="normal"
>
</g>

<g fill="none" stroke="#000000" stroke-opacity="1" stroke-width="1" stroke-linecap="square" stroke-linejoin="bevel" transform="matrix(1,0,0,1,20,20)"
font-family="MS Shell Dlg 2" font-size="8.25" font-weight="400" font-style="normal"
>
</g>

<g fill="none" stroke="#000000" stroke-opacity="1" stroke-width="1" stroke-linecap="square" stroke-linejoin="bevel" transform="matrix(1,0,0,1,20,20)"
font-family="MS Shell Dlg 2" font-size="8.25" font-weight="400" font-style="normal"
>
</g>

<g fill="none" stroke="#000000" stroke-opacity="1" stroke-width="1" stroke-linecap="square" stroke-linejoin="bevel" transform="matrix(-1,0,0,-1,20,20)"
font-family="MS Shell Dlg 2" font-size="8.25" font-weight="400" font-style="normal"
>
</g>

<g fill="#2d2d2d" fill-opacity="1" stroke="#1d1d1d" stroke-opacity="1" stroke-width="1" stroke-linecap="square" stroke-linejoin="bevel" transform="matrix(-1,0,0,-1,20,20)"
font-family="MS Shell Dlg 2" font-size="8.25" font-weight="400" font-style="normal"
>
<circle cx="0" cy="0" r="20"/>
</g>

<g fill="#0000ff" fill-opacity="1" stroke="#000000" stroke-opacity="0" stroke-width="1" stroke-linecap="square" stroke-linejoin="bevel" transform="matrix(-1,0,0,-1,20,20)"
font-family="MS Shell Dlg 2" font-size="8.25" font-weight="400" font-style="normal"
>
<circle cx="0" cy="0" r="5"/>
<rect x="-5" y="0" width="10" height="6.66667"/>
</g>

<g fill="#0000ff" fill-opacity="1" stroke="#0000ff" stroke-opacity="1" stroke-width="1" stroke-linecap="square" stroke-linejoin="bevel" transform="matrix(-1,0,0,-1,20,20)"
font-family="MS Shell Dlg 2" font-size="8.25" font-weight="400" font-style="normal"
>
<path vector-effect="none" fill-rule="evenodd" d="M7.77817,-7.77817 L10.6066,-10.6066"/>
<path vector-effect="none" fill-rule="evenodd" d="M4.9939,-9.80107 L6.80986,-13.3651"/>
<path vector-effect="none" fill-rule="evenodd" d="M1.72078,-10.8646 L2.34652,-14.8153"/>
<path vector-effect="none" fill-rule="evenodd" d="M-1.72078,-10.8646 L-2.34652,-14.8153"/>
<path vector-effect="none" fill-rule="evenodd" d="M-4.9939,-9.80107 L-6.80986,-13.3651"/>
<path vector-effect="none" fill-rule="evenodd" d="M-7.77817,-7.77817 L-10.6066,-10.6066"/>
</g>

<g fill="none" stroke="#000000" stroke-opacity="1" stroke-width="1" stroke-linecap="square" stroke-linejoin="bevel" transform="matrix(-1,0,0,-1,20,20)"
font-family="MS Shell Dlg 2" font-size="8.25" font-weight="400" font-style="normal"
>
</g>

<g fill="none" stroke="#000000" stroke-opacity="1" stroke-width="1" stroke-linecap="square" stroke-linejoin="bevel" transform="matrix(1,0,0,1,0,0)"
font-family="MS Shell Dlg 2" font-size="8.25" font-weight="400" font-style="normal"
>
</g>
</g>
</svg>
