<?xml version="1.0" encoding="UTF-8" standalone="no"?>
<svg width="57.8556mm" height="28.2222mm"
 viewBox="0 0 164 80"
 xmlns="http://www.w3.org/2000/svg" xmlns:xlink="http://www.w3.org/1999/xlink"  version="1.2" baseProfile="tiny">
<title>PressureControl</title>
<desc>Exported ChemUnited component icon</desc>
<defs>
</defs>
<g fill="none" stroke="black" stroke-width="1" fill-rule="evenodd" stroke-linecap="square" stroke-linejoin="bevel" >

<g fill="none" stroke="#000000" stroke-opacity="1" stroke-width="1" stroke-linecap="square" stroke-linejoin="bevel" transform="matrix(1,0,0,1,0,0)"
font-family="MS Shell Dlg 2" font-size="8.25" font-weight="400" font-style="normal"
>
</g>

<g fill="none" stroke="#000000" stroke-opacity="1" stroke-width="1" stroke-linecap="square" stroke-linejoin="bevel" transform="matrix(1,0,0,1,4,36)"
font-family="MS Shell Dlg 2" font-size="8.25" font-weight="400" font-style="normal"
>
</g>

<g fill="none" stroke="#000000" stroke-opacity="1" stroke-width="1" stroke-linecap="square" stroke-linejoin="bevel" transform="matrix(1,0,0,1,4,36)"
font-family="MS Shell Dlg 2" font-size="8.25" font-weight="400" font-style="normal"
>
</g>

<g fill="none" stroke="#000000" stroke-opacity="1" stroke-width="1" stroke-linecap="square" stroke-linejoin="bevel" transform="matrix(1,0,0,1,4,36)"
font-family="MS Shell Dlg 2" font-size="8.25" font-weight="400" font-style="normal"
>
</g>

<g fill="#000000" fill-opacity="0" stroke="#c8c8c8" stroke-opacity="1" stroke-width="10" stroke-linecap="square" stroke-linejoin="bevel" transform="matrix(1,0,0,1,4,36)"
font-family="MS Shell Dlg 2" font-size="8.25" font-weight="400" font-style="normal"
>
<polyline fill="none" vector-effect="none" points="8,20 144,20 " />
</g>

<g fill="#000000" fill-opacity="0" stroke="#f9f9f9" stroke-opacity="1" stroke-width="4" stroke-linecap="square" stroke-linejoin="bevel" transform="matrix(1,0,0,1,4,36)"
font-family="MS Shell Dlg 2" font-size="8.25" font-weight="400" font-style="normal"
>
<polyline fill="none" vector-effect="none" points="0,20 160,20 " />
</g>

<g fill="#828282" fill-opacity="1" stroke="#c8c8c8" stroke-opacity="1" stroke-width="2" stroke-linecap="square" stroke-linejoin="bevel" transform="matrix(1,0,0,1,4,36)"
font-family="MS Shell Dlg 2" font-size="8.25" font-weight="400" font-style="normal"
>
<path vector-effect="none" fill-rule="evenodd" d="M0,1 C0,0.447715 0.447715,0 1,0 L7,0 C7.55228,0 8,0.447715 8,1 L8,39 C8,39.5523 7.55228,40 7,40 L1,40 C0.447715,40 0,39.5523 0,39 L0,1"/>
<path vector-effect="none" fill-rule="evenodd" d="M144,1 C144,0.447715 144.448,0 145,0 L151,0 C151.552,0 152,0.447715 152,1 L152,39 C152,39.5523 151.552,40 151,40 L145,40 C144.448,40 144,39.5523 144,39 L144,1"/>
</g>

<g fill="#000000" fill-opacity="0" stroke="#c8c8c8" stroke-opacity="1" stroke-width="5" stroke-linecap="square" stroke-linejoin="bevel" transform="matrix(1,0,0,1,4,36)"
font-family="MS Shell Dlg 2" font-size="8.25" font-weight="400" font-style="normal"
>
<polyline fill="none" vector-effect="none" points="80,15 80,-20 " />
</g>

<g fill="none" stroke="#000000" stroke-opacity="1" stroke-width="1" stroke-linecap="square" stroke-linejoin="bevel" transform="matrix(1,0,0,1,4,36)"
font-family="MS Shell Dlg 2" font-size="8.25" font-weight="400" font-style="normal"
>
</g>

<g fill="none" stroke="#000000" stroke-opacity="1" stroke-width="1" stroke-linecap="square" stroke-linejoin="bevel" transform="matrix(1,0,0,1,84,16)"
font-family="MS Shell Dlg 2" font-size="8.25" font-weight="400" font-style="normal"
>
</g>

<g fill="#e5e5e5" fill-opacity="1" stroke="#c8c8c8" stroke-opacity="1" stroke-width="1" stroke-linecap="square" stroke-linejoin="bevel" transform="matrix(1,0,0,1,84,16)"
font-family="MS Shell Dlg 2" font-size="8.25" font-weight="400" font-style="normal"
>
<circle cx="0" cy="0" r="16"/>
</g>

<g fill="none" stroke="#000000" stroke-opacity="1" stroke-width="1" stroke-linecap="square" stroke-linejoin="bevel" transform="matrix(1,0,0,1,84,16)"
font-family="MS Shell Dlg 2" font-size="8.25" font-weight="400" font-style="normal"
>
</g>

<g fill="none" stroke="#000000" stroke-opacity="1" stroke-width="1" stroke-linecap="square" stroke-linejoin="bevel" transform="matrix(1,0,0,1,4,56)"
font-family="MS Shell Dlg 2" font-size="8.25" font-weight="400" font-style="normal"
>
</g>

<g fill="#272727" fill-opacity="1" stroke="#000000" stroke-opacity="0" stroke-width="1" stroke-linecap="square" stroke-linejoin="bevel" transform="matrix(1,0,0,1,4,56)"
font-family="MS Shell Dlg 2" font-size="8.25" font-weight="400" font-style="normal"
>
<circle cx="0" cy="0" r="3"/>
</g>

<g fill="none" stroke="#272727" stroke-opacity="1" stroke-width="1" stroke-linecap="square" stroke-linejoin="bevel" transform="matrix(1,0,0,1,4,56)"
font-family="MS Shell Dlg 2" font-size="8.25" font-weight="400" font-style="normal"
>
<path vector-effect="none" fill-rule="evenodd" d="M4,0 C4,-2.20914 2.20914,-4 0,-4 C-2.20914,-4 -4,-2.20914 -4,0 C-4,2.20914 -2.20914,4 0,4 "/>
</g>

<g fill="none" stroke="#000000" stroke-opacity="1" stroke-width="1" stroke-linecap="square" stroke-linejoin="bevel" transform="matrix(1,0,0,1,4,56)"
font-family="MS Shell Dlg 2" font-size="8.25" font-weight="400" font-style="normal"
>
</g>

<g fill="none" stroke="#000000" stroke-opacity="1" stroke-width="1" stroke-linecap="square" stroke-linejoin="bevel" transform="matrix(1,0,0,1,154,56)"
font-family="MS Shell Dlg 2" font-size="8.25" font-weight="400" font-style="normal"
>
</g>

<g fill="#272727" fill-opacity="1" stroke="#000000" stroke-opacity="0" stroke-width="1" stroke-linecap="square" stroke-linejoin="bevel" transform="matrix(1,0,0,1,154,56)"
font-family="MS Shell Dlg 2" font-size="8.25" font-weight="400" font-style="normal"
>
<circle cx="0" cy="0" r="3"/>
</g>

<g fill="none" stroke="#272727" stroke-opacity="1" stroke-width="1" stroke-linecap="square" stroke-linejoin="bevel" transform="matrix(1,0,0,1,154,56)"
font-family="MS Shell Dlg 2" font-size="8.25" font-weight="400" font-style="normal"
>
<path vector-effect="none" fill-rule="evenodd" d="M4,0 C4,-2.20914 2.20914,-4 0,-4 C-2.20914,-4 -4,-2.20914 -4,0 C-4,2.20914 -2.20914,4 0,4 "/>
</g>

<g fill="none" stroke="#000000" stroke-opacity="1" stroke-width="1" stroke-linecap="square" stroke-linejoin="bevel" transform="matrix(1,0,0,1,154,56)"
font-family="MS Shell Dlg 2" font-size="8.25" font-weight="400" font-style="normal"
>
</g>

<g fill="none" stroke="#000000" stroke-opacity="1" stroke-width="1" stroke-linecap="square" stroke-linejoin="bevel" transform="matrix(1,0,0,1,84,16)"
font-family="MS Shell Dlg 2" font-size="8.25" font-weight="400" font-style="normal"
>
</g>

<g fill="#000000" fill-opacity="0" stroke="#c8c8c8" stroke-opacity="1" stroke-width="1" stroke-linecap="square" stroke-linejoin="bevel" transform="matrix(1,0,0,1,84,16)"
font-family="MS Shell Dlg 2" font-size="8.25" font-weight="400" font-style="normal"
>
<circle cx="0" cy="0" r="12"/>
</g>

<g fill="none" stroke="#ff0000" stroke-opacity="1" stroke-width="2" stroke-linecap="square" stroke-linejoin="bevel" transform="matrix(1,0,0,1,84,16)"
font-family="MS Shell Dlg 2" font-size="8.25" font-weight="400" font-style="normal"
>
<path vector-effect="none" fill-rule="evenodd" d="M6.00211,10.3934 C9.58775,8.31824 12,4.44082 12,0 C12,-2.93718 10.9448,-5.62789 9.1927,-7.71369 "/>
</g>

<g fill="none" stroke="#006400" stroke-opacity="1" stroke-width="2" stroke-linecap="square" stroke-linejoin="bevel" transform="matrix(1,0,0,1,84,16)"
font-family="MS Shell Dlg 2" font-size="8.25" font-weight="400" font-style="normal"
>
<path vector-effect="none" fill-rule="evenodd" d="M0,-12 C-0.35379,-12 -0.704004,-11.9847 -1.05002,-11.9547 "/>
</g>

<g fill="none" stroke="#006400" stroke-opacity="1" stroke-width="2" stroke-linecap="square" stroke-linejoin="bevel" transform="matrix(1,0,0,1,84,16)"
font-family="MS Shell Dlg 2" font-size="8.25" font-weight="400" font-style="normal"
>
<path vector-effect="none" fill-rule="evenodd" d="M-4.30505,-11.2047 C-4.63171,-11.0791 -4.95149,-10.9396 -5.26367,-10.787 "/>
</g>

<g fill="none" stroke="#006400" stroke-opacity="1" stroke-width="2" stroke-linecap="square" stroke-linejoin="bevel" transform="matrix(1,0,0,1,84,16)"
font-family="MS Shell Dlg 2" font-size="8.25" font-weight="400" font-style="normal"
>
<path vector-effect="none" fill-rule="evenodd" d="M-8.02965,-8.9178 C-8.28903,-8.6841 -8.53816,-8.43926 -8.77628,-8.18401 "/>
</g>

<g fill="none" stroke="#006400" stroke-opacity="1" stroke-width="2" stroke-linecap="square" stroke-linejoin="bevel" transform="matrix(1,0,0,1,84,16)"
font-family="MS Shell Dlg 2" font-size="8.25" font-weight="400" font-style="normal"
>
<path vector-effect="none" fill-rule="evenodd" d="M-10.7875,-5.26255 C-10.9402,-4.95011 -11.0798,-4.63006 -11.2054,-4.30312 "/>
</g>

<g fill="none" stroke="#006400" stroke-opacity="1" stroke-width="2" stroke-linecap="square" stroke-linejoin="bevel" transform="matrix(1,0,0,1,84,16)"
font-family="MS Shell Dlg 2" font-size="8.25" font-weight="400" font-style="normal"
>
<path vector-effect="none" fill-rule="evenodd" d="M-11.955,-1.0467 C-11.9848,-0.701766 -12,-0.352659 -12,0 "/>
</g>

<g fill="none" stroke="#006400" stroke-opacity="1" stroke-width="2" stroke-linecap="square" stroke-linejoin="bevel" transform="matrix(1,0,0,1,84,16)"
font-family="MS Shell Dlg 2" font-size="8.25" font-weight="400" font-style="normal"
>
<path vector-effect="none" fill-rule="evenodd" d="M-11.4773,3.514 C-11.3748,3.84901 -11.2581,4.17779 -11.1279,4.49964 "/>
</g>

<g fill="none" stroke="#006400" stroke-opacity="1" stroke-width="2" stroke-linecap="square" stroke-linejoin="bevel" transform="matrix(1,0,0,1,84,16)"
font-family="MS Shell Dlg 2" font-size="8.25" font-weight="400" font-style="normal"
>
<path vector-effect="none" fill-rule="evenodd" d="M-9.45643,7.38841 C-9.2412,7.66349 -9.01423,7.92895 -8.77627,8.18402 "/>
</g>

<g fill="none" stroke="#006400" stroke-opacity="1" stroke-width="2" stroke-linecap="square" stroke-linejoin="bevel" transform="matrix(1,0,0,1,84,16)"
font-family="MS Shell Dlg 2" font-size="8.25" font-weight="400" font-style="normal"
>
<path vector-effect="none" fill-rule="evenodd" d="M-6.00145,10.3938 C-5.70022,10.5681 -5.39071,10.7297 -5.07366,10.8778 "/>
</g>

<g fill="#c8c8c8" fill-opacity="1" stroke="#000000" stroke-opacity="0" stroke-width="1" stroke-linecap="square" stroke-linejoin="bevel" transform="matrix(1,0,0,1,84,16)"
font-family="MS Shell Dlg 2" font-size="8.25" font-weight="400" font-style="normal"
>
<circle cx="0" cy="0" r="2"/>
<path vector-effect="none" fill-rule="evenodd" d="M-2,0 L0,-7.2 L2,0 L-2,0"/>
</g>

<g fill="none" stroke="#000000" stroke-opacity="1" stroke-width="1" stroke-linecap="square" stroke-linejoin="bevel" transform="matrix(1,0,0,1,84,16)"
font-family="MS Shell Dlg 2" font-size="8.25" font-weight="400" font-style="normal"
>
</g>

<g fill="none" stroke="#000000" stroke-opacity="1" stroke-width="1" stroke-linecap="square" stroke-linejoin="bevel" transform="matrix(1,0,0,1,84,16)"
font-family="MS Shell Dlg 2" font-size="8.25" font-weight="400" font-style="normal"
>
</g>

<g fill="#000000" fill-opacity="0" stroke="#c8c8c8" stroke-opacity="1" stroke-width="3" stroke-linecap="square" stroke-linejoin="bevel" transform="matrix(1,0,0,1,84,16)"
font-family="MS Shell Dlg 2" font-size="8.25" font-weight="400" font-style="normal"
>
<path vector-effect="none" fill-rule="evenodd" d="M16,0 L32,0 L0,28.8"/>
</g>

<g fill="none" stroke="#000000" stroke-opacity="1" stroke-width="1" stroke-linecap="square" stroke-linejoin="bevel" transform="matrix(1,0,0,1,84,16)"
font-family="MS Shell Dlg 2" font-size="8.25" font-weight="400" font-style="normal"
>
</g>

<g fill="none" stroke="#000000" stroke-opacity="1" stroke-width="1" stroke-linecap="square" stroke-linejoin="bevel" transform="matrix(1,0,0,1,0,0)"
font-family="MS Shell Dlg 2" font-size="8.25" font-weight="400" font-style="normal"
>
</g>
</g>
</svg>
