<?xml version="1.0" encoding="UTF-8"?>
<!DOCTYPE svg PUBLIC "-//W3C//DTD SVG 1.1//EN" "http://www.w3.org/Graphics/SVG/1.1/DTD/svg11.dtd">
<!-- Creator: CorelDRAW -->
<svg xmlns="http://www.w3.org/2000/svg" xml:space="preserve" width="1.19791in" height="0.979165in" version="1.1" style="shape-rendering:geometricPrecision; text-rendering:geometricPrecision; image-rendering:optimizeQuality; fill-rule:evenodd; clip-rule:evenodd"
viewBox="0 0 1197.91 979.17"
 xmlns:xlink="http://www.w3.org/1999/xlink"
 xmlns:xodm="http://www.corel.com/coreldraw/odm/2003">
 <defs>
  <style type="text/css">
   <![CDATA[
    .str1 {stroke:#2E2D2D;stroke-width:31.25;stroke-miterlimit:2.61313;stroke-opacity:0.231373}
    .str0 {stroke:black;stroke-width:10.41;stroke-miterlimit:2.61313}
    .fil4 {fill:none}
    .fil0 {fill:black}
    .fil3 {fill:#DBDBDB}
    .fil2 {fill:url(#id0)}
    .fil1 {fill:url(#id1)}
   ]]>
  </style>
  <linearGradient id="id0" gradientUnits="userSpaceOnUse" x1="237.17" y1="292.89" x2="839.37" y2="292.89">
   <stop offset="0" style="stop-opacity:1; stop-color:#E89B58"/>
   <stop offset="0.921569" style="stop-opacity:1; stop-color:#F3BE80"/>
   <stop offset="1" style="stop-opacity:1; stop-color:#FFE2A8"/>
  </linearGradient>
  <linearGradient id="id1" gradientUnits="userSpaceOnUse" x1="136.51" y1="769.39" x2="940.02" y2="769.39">
   <stop offset="0" style="stop-opacity:1; stop-color:#E89B58"/>
   <stop offset="0.941176" style="stop-opacity:1; stop-color:#F3BA77"/>
   <stop offset="1" style="stop-opacity:1; stop-color:#FFDA96"/>
  </linearGradient>
 </defs>
 <g id="Layer_x0020_1">
  <metadata id="CorelCorpID_0Corel-Layer"/>
  <rect class="fil0 str0" x="902.6" y="781.25" width="121.24" height="36.13"/>
  <rect class="fil0 str0" x="830.21" y="359.61" width="121.24" height="36.13"/>
  <rect class="fil0 str0" x="29.67" y="794.35" width="121.24" height="36.13"/>
  <rect class="fil0 str0" x="125.6" y="507.2" width="121.24" height="36.13"/>
  <rect class="fil0 str0" x="115.93" y="166.54" width="121.24" height="36.13"/>
  <path class="fil1" d="M240.68 562.82l595.18 0c57.29,0 104.17,46.87 104.17,104.17l0 308.97 -803.51 0 0 -308.97c0,-57.29 46.87,-104.17 104.17,-104.17z"/>
  <path class="fil2" d="M341.33 8.99l393.87 0c57.29,0 104.17,46.87 104.17,104.17l0 463.63 -602.2 0 0 -463.63c0,-57.29 46.87,-104.17 104.17,-104.17z"/>
  <polygon class="fil3 str0" points="314.67,32.98 333.64,44.49 352.61,56.01 352.61,79.04 352.61,102.07 333.64,113.59 314.67,125.11 295.7,113.59 276.73,102.07 276.73,79.04 276.73,56.01 295.7,44.49 "/>
  <circle class="fil0 str0" cx="314.67" cy="79.04" r="26.04"/>
  <polygon class="fil3 str0" points="224.5,875.31 243.48,886.83 262.44,898.34 262.44,921.37 262.44,944.41 243.48,955.92 224.5,967.44 205.53,955.92 186.56,944.41 186.56,921.37 186.56,898.34 205.53,886.83 "/>
  <circle class="fil0 str0" cx="224.5" cy="921.37" r="26.04"/>
  <polygon class="fil3 str0" points="790.16,526.35 809.13,537.86 828.1,549.38 828.1,572.41 828.1,595.44 809.13,606.96 790.16,618.48 771.19,606.96 752.22,595.44 752.22,572.41 752.22,549.38 771.19,537.86 "/>
  <circle class="fil0 str0" cx="790.16" cy="572.41" r="26.04"/>
  <rect class="fil0 str0" x="115.93" y="144.24" width="15.15" height="80.73"/>
  <rect class="fil0 str0" x="118.02" y="484.9" width="15.15" height="80.73"/>
  <rect class="fil0 str0" x="22.09" y="772.05" width="15.15" height="80.73"/>
  <rect class="fil0 str0" x="943.87" y="337.31" width="15.15" height="80.73"/>
  <rect class="fil0 str0" x="1016.26" y="758.95" width="15.15" height="80.73"/>
  <path class="fil4 str1" d="M959.02 377.68c36.54,5.46 73.09,10.93 111.93,40.35 38.85,29.42 80,82.8 95.01,131 15.02,48.19 3.89,91.2 -9.27,126.42 -13.16,35.22 -28.36,62.65 -49.58,82 -21.22,19.35 -48.46,30.61 -75.7,41.87"/>
 </g>
</svg>
