<?xml version="1.0" encoding="UTF-8" standalone="no"?>
<svg width="35.9833mm" height="35.9833mm"
 viewBox="0 0 102 102"
 xmlns="http://www.w3.org/2000/svg" xmlns:xlink="http://www.w3.org/1999/xlink"  version="1.2" baseProfile="tiny">
<title>Sink</title>
<desc>Chemunited component figure exported without name or port labels.</desc>
<defs>
</defs>
<g fill="none" stroke="black" stroke-width="1" fill-rule="evenodd" stroke-linecap="square" stroke-linejoin="bevel" >

<g fill="none" stroke="#000000" stroke-opacity="1" stroke-width="1" stroke-linecap="square" stroke-linejoin="bevel" transform="matrix(1,0,0,1,0,0)"
font-family="MS Shell Dlg 2" font-size="8.25" font-weight="400" font-style="normal" 
>
</g>

<g fill="none" stroke="#000000" stroke-opacity="1" stroke-width="1" stroke-linecap="square" stroke-linejoin="bevel" transform="matrix(1,0,0,1,0,0)"
font-family="MS Shell Dlg 2" font-size="8.25" font-weight="400" font-style="normal" 
>
</g>

<g fill="none" stroke="#000000" stroke-opacity="1" stroke-width="1" stroke-linecap="square" stroke-linejoin="bevel" transform="matrix(1.02041,0,0,1.02041,1,1)"
font-family="MS Shell Dlg 2" font-size="8.25" font-weight="400" font-style="normal" 
>
</g>

<g fill="#c4c4c4" fill-opacity="1" stroke="none" transform="matrix(0.0914286,0,0,0.0914286,1,1)"
font-family="MS Shell Dlg 2" font-size="8.25" font-weight="400" font-style="normal" 
>
<path vector-effect="none" fill-rule="evenodd" d="M542.12,545.64 L542.12,1066.47 C254.47,1066.47 21.29,833.28 21.29,545.64 C21.29,257.99 254.48,24.81 542.12,24.81 L542.12,545.64"/>
</g>

<g fill="none" stroke="#000000" stroke-opacity="1" stroke-width="10.41" stroke-linecap="butt" stroke-linejoin="miter" stroke-miterlimit="2.61313" transform="matrix(0.0914286,0,0,0.0914286,1,1)"
font-family="MS Shell Dlg 2" font-size="8.25" font-weight="400" font-style="normal" 
>
<path vector-effect="none" fill-rule="evenodd" d="M542.12,545.64 L542.12,1066.47 C254.47,1066.47 21.29,833.28 21.29,545.64 C21.29,257.99 254.48,24.81 542.12,24.81 L542.12,545.64"/>
</g>

<g fill="#000000" fill-opacity="1" stroke="none" transform="matrix(0.0914286,0,0,0.0914286,1,1)"
font-family="MS Shell Dlg 2" font-size="8.25" font-weight="400" font-style="normal" 
>
<path vector-effect="none" fill-rule="evenodd" d="M542.12,545.64 L542.12,24.81 C829.77,24.81 1062.95,258 1062.95,545.64 C1062.95,833.29 829.76,1066.47 542.12,1066.47 L542.12,545.64"/>
</g>

<g fill="none" stroke="#000000" stroke-opacity="1" stroke-width="10.41" stroke-linecap="butt" stroke-linejoin="miter" stroke-miterlimit="2.61313" transform="matrix(0.0914286,0,0,0.0914286,1,1)"
font-family="MS Shell Dlg 2" font-size="8.25" font-weight="400" font-style="normal" 
>
<path vector-effect="none" fill-rule="evenodd" d="M542.12,545.64 L542.12,24.81 C829.77,24.81 1062.95,258 1062.95,545.64 C1062.95,833.29 829.76,1066.47 542.12,1066.47 L542.12,545.64"/>
</g>

<g fill="none" stroke="#000000" stroke-opacity="1" stroke-width="1" stroke-linecap="square" stroke-linejoin="bevel" transform="matrix(1.02041,0,0,1.02041,1,1)"
font-family="MS Shell Dlg 2" font-size="8.25" font-weight="400" font-style="normal" 
>
</g>

<g fill="none" stroke="#000000" stroke-opacity="1" stroke-width="1" stroke-linecap="square" stroke-linejoin="bevel" transform="matrix(1,0,0,1,0,0)"
font-family="MS Shell Dlg 2" font-size="8.25" font-weight="400" font-style="normal" 
>
</g>

<g fill="#1f2937" fill-opacity="1" stroke="#000000" stroke-opacity="0" stroke-width="1" stroke-linecap="square" stroke-linejoin="bevel" transform="matrix(1,0,0,1,11,51)"
font-family="MS Shell Dlg 2" font-size="8.25" font-weight="400" font-style="normal" 
>
<circle cx="0" cy="0" r="3"/>
</g>

<g fill="none" stroke="#1f2937" stroke-opacity="1" stroke-width="1" stroke-linecap="square" stroke-linejoin="bevel" transform="matrix(1,0,0,1,11,51)"
font-family="MS Shell Dlg 2" font-size="8.25" font-weight="400" font-style="normal" 
>
<path vector-effect="none" fill-rule="evenodd" d="M5,0 C5,-2.76142 2.76142,-5 0,-5 C-2.76142,-5 -5,-2.76142 -5,0 C-5,2.76142 -2.76142,5 0,5 "/>
</g>

<g fill="none" stroke="#000000" stroke-opacity="1" stroke-width="1" stroke-linecap="square" stroke-linejoin="bevel" transform="matrix(1,0,0,1,0,0)"
font-family="MS Shell Dlg 2" font-size="8.25" font-weight="400" font-style="normal" 
>
</g>
</g>
</svg>
