<?xml version="1.0" encoding="UTF-8" standalone="no"?>
<svg width="16.9333mm" height="14.1111mm"
 viewBox="0 0 48 40"
 xmlns="http://www.w3.org/2000/svg" xmlns:xlink="http://www.w3.org/1999/xlink"  version="1.2" baseProfile="tiny">
<title>SolenoidValve</title>
<desc>Exported ChemUnited component icon</desc>
<defs>
</defs>
<g fill="none" stroke="black" stroke-width="1" fill-rule="evenodd" stroke-linecap="square" stroke-linejoin="bevel" >

<g fill="none" stroke="#000000" stroke-opacity="1" stroke-width="1" stroke-linecap="square" stroke-linejoin="bevel" transform="matrix(1,0,0,1,0,0)"
font-family="MS Shell Dlg 2" font-size="8.25" font-weight="400" font-style="normal"
>
</g>

<g fill="none" stroke="#000000" stroke-opacity="1" stroke-width="1" stroke-linecap="square" stroke-linejoin="bevel" transform="matrix(1,0,0,1,4,0)"
font-family="MS Shell Dlg 2" font-size="8.25" font-weight="400" font-style="normal"
>
</g>

<g fill="none" stroke="#000000" stroke-opacity="1" stroke-width="1" stroke-linecap="square" stroke-linejoin="bevel" transform="matrix(1,0,0,1,4,0)"
font-family="MS Shell Dlg 2" font-size="8.25" font-weight="400" font-style="normal"
>
</g>

<g fill="none" stroke="#000000" stroke-opacity="1" stroke-width="1" stroke-linecap="square" stroke-linejoin="bevel" transform="matrix(1,0,0,1,4,0)"
font-family="MS Shell Dlg 2" font-size="8.25" font-weight="400" font-style="normal"
>
</g>

<g fill="#3f4a57" fill-opacity="1" stroke="none" transform="matrix(1,0,0,1,4,0)"
font-family="MS Shell Dlg 2" font-size="8.25" font-weight="400" font-style="normal"
>
<path vector-effect="none" fill-rule="evenodd" d="M10,2 C10,0.895431 10.8954,0 12,0 L28,0 C29.1046,0 30,0.895431 30,2 L30,18 C30,19.1046 29.1046,20 28,20 L12,20 C10.8954,20 10,19.1046 10,18 L10,2"/>
</g>

<g fill="#2d2d2d" fill-opacity="1" stroke="none" transform="matrix(1,0,0,1,4,0)"
font-family="MS Shell Dlg 2" font-size="8.25" font-weight="400" font-style="normal"
>
<path vector-effect="none" fill-rule="evenodd" d="M4,30 C4,28.8954 4.89543,28 6,28 L34,28 C35.1046,28 36,28.8954 36,30 L36,38 C36,39.1046 35.1046,40 34,40 L6,40 C4.89543,40 4,39.1046 4,38 L4,30"/>
<rect x="16" y="20" width="8" height="20"/>
<rect x="0" y="32" width="4" height="6"/>
<rect x="36" y="32" width="4" height="6"/>
</g>

<g fill="#e57373" fill-opacity="1" stroke="none" transform="matrix(1,0,0,1,4,0)"
font-family="MS Shell Dlg 2" font-size="8.25" font-weight="400" font-style="normal"
>
<path vector-effect="none" fill-rule="evenodd" d="M16,6 C16,4.89543 16.8954,4 18,4 L22,4 C23.1046,4 24,4.89543 24,6 L24,10 C24,11.1046 23.1046,12 22,12 L18,12 C16.8954,12 16,11.1046 16,10 L16,6"/>
</g>

<g fill="#e57373" fill-opacity="1" stroke="#ffffff" stroke-opacity="1" stroke-width="1" stroke-linecap="square" stroke-linejoin="bevel" transform="matrix(1,0,0,1,4,0)"
font-family="MS Shell Dlg 2" font-size="8.25" font-weight="400" font-style="normal"
>
<polyline fill="none" vector-effect="none" points="17.6,10.8 22.4,5.2 " />
<polyline fill="none" vector-effect="none" points="17.6,5.2 22.4,10.8 " />
</g>

<g fill="none" stroke="#000000" stroke-opacity="1" stroke-width="1" stroke-linecap="square" stroke-linejoin="bevel" transform="matrix(1,0,0,1,4,0)"
font-family="MS Shell Dlg 2" font-size="8.25" font-weight="400" font-style="normal"
>
</g>

<g fill="none" stroke="#000000" stroke-opacity="1" stroke-width="1" stroke-linecap="square" stroke-linejoin="bevel" transform="matrix(1,0,0,1,4,34)"
font-family="MS Shell Dlg 2" font-size="8.25" font-weight="400" font-style="normal"
>
</g>

<g fill="#f9f9f9" fill-opacity="1" stroke="#000000" stroke-opacity="0" stroke-width="1" stroke-linecap="square" stroke-linejoin="bevel" transform="matrix(1,0,0,1,4,34)"
font-family="MS Shell Dlg 2" font-size="8.25" font-weight="400" font-style="normal"
>
<circle cx="0" cy="0" r="3"/>
</g>

<g fill="none" stroke="#f9f9f9" stroke-opacity="1" stroke-width="1" stroke-linecap="square" stroke-linejoin="bevel" transform="matrix(1,0,0,1,4,34)"
font-family="MS Shell Dlg 2" font-size="8.25" font-weight="400" font-style="normal"
>
<path vector-effect="none" fill-rule="evenodd" d="M4,0 C4,-2.20914 2.20914,-4 0,-4 C-2.20914,-4 -4,-2.20914 -4,0 C-4,2.20914 -2.20914,4 0,4 "/>
</g>

<g fill="none" stroke="#000000" stroke-opacity="1" stroke-width="1" stroke-linecap="square" stroke-linejoin="bevel" transform="matrix(1,0,0,1,4,34)"
font-family="MS Shell Dlg 2" font-size="8.25" font-weight="400" font-style="normal"
>
</g>

<g fill="none" stroke="#000000" stroke-opacity="1" stroke-width="1" stroke-linecap="square" stroke-linejoin="bevel" transform="matrix(1,0,0,1,44,34)"
font-family="MS Shell Dlg 2" font-size="8.25" font-weight="400" font-style="normal"
>
</g>

<g fill="#f9f9f9" fill-opacity="1" stroke="#000000" stroke-opacity="0" stroke-width="1" stroke-linecap="square" stroke-linejoin="bevel" transform="matrix(1,0,0,1,44,34)"
font-family="MS Shell Dlg 2" font-size="8.25" font-weight="400" font-style="normal"
>
<circle cx="0" cy="0" r="3"/>
</g>

<g fill="none" stroke="#f9f9f9" stroke-opacity="1" stroke-width="1" stroke-linecap="square" stroke-linejoin="bevel" transform="matrix(1,0,0,1,44,34)"
font-family="MS Shell Dlg 2" font-size="8.25" font-weight="400" font-style="normal"
>
<path vector-effect="none" fill-rule="evenodd" d="M4,0 C4,-2.20914 2.20914,-4 0,-4 C-2.20914,-4 -4,-2.20914 -4,0 C-4,2.20914 -2.20914,4 0,4 "/>
</g>

<g fill="none" stroke="#000000" stroke-opacity="1" stroke-width="1" stroke-linecap="square" stroke-linejoin="bevel" transform="matrix(1,0,0,1,44,34)"
font-family="MS Shell Dlg 2" font-size="8.25" font-weight="400" font-style="normal"
>
</g>

<g fill="none" stroke="#000000" stroke-opacity="1" stroke-width="1" stroke-linecap="square" stroke-linejoin="bevel" transform="matrix(1,0,0,1,0,0)"
font-family="MS Shell Dlg 2" font-size="8.25" font-weight="400" font-style="normal"
>
</g>
</g>
</svg>
