<?xml version="1.0" encoding="UTF-8" standalone="no"?>
<svg width="37.7472mm" height="15.875mm"
 viewBox="0 0 107 44.2998"
 xmlns="http://www.w3.org/2000/svg" xmlns:xlink="http://www.w3.org/1999/xlink"  version="1.2" baseProfile="tiny">
<title>SyringePump</title>
<desc>Chemunited component figure exported without name or port labels.</desc>
<defs>
</defs>
<g fill="none" stroke="black" stroke-width="1" fill-rule="evenodd" stroke-linecap="square" stroke-linejoin="bevel" >

<g fill="none" stroke="#000000" stroke-opacity="1" stroke-width="1" stroke-linecap="square" stroke-linejoin="bevel" transform="matrix(1,0,0,1,0,0)"
font-family="MS Shell Dlg 2" font-size="8.25" font-weight="400" font-style="normal" 
>
</g>

<g fill="none" stroke="#000000" stroke-opacity="1" stroke-width="1" stroke-linecap="square" stroke-linejoin="bevel" transform="matrix(1,0,0,1,0,0)"
font-family="MS Shell Dlg 2" font-size="8.25" font-weight="400" font-style="normal" 
>
</g>

<g fill="none" stroke="#000000" stroke-opacity="1" stroke-width="1" stroke-linecap="square" stroke-linejoin="bevel" transform="matrix(0.210526,0,0,0.210526,28.5,27.7552)"
font-family="MS Shell Dlg 2" font-size="8.25" font-weight="400" font-style="normal" 
>
</g>

<g fill="#000000" fill-opacity="1" stroke="none" transform="matrix(0.0188853,0,0,0.0188635,28.5,27.7552)"
font-family="MS Shell Dlg 2" font-size="8.25" font-weight="400" font-style="normal" 
>
<path vector-effect="none" fill-rule="evenodd" d="M147.76,42.57 L147.76,570.26 C62.61,570.26 -7.05,500.59 -7.05,415.45 L-7.05,197.39 C-7.05,112.24 62.62,42.58 147.76,42.58 L147.76,42.57"/>
</g>

<g fill="none" stroke="#000000" stroke-opacity="1" stroke-width="10.41" stroke-linecap="butt" stroke-linejoin="miter" stroke-miterlimit="2.61313" transform="matrix(0.0188853,0,0,0.0188635,28.5,27.7552)"
font-family="MS Shell Dlg 2" font-size="8.25" font-weight="400" font-style="normal" 
>
<path vector-effect="none" fill-rule="evenodd" d="M147.76,42.57 L147.76,570.26 C62.61,570.26 -7.05,500.59 -7.05,415.45 L-7.05,197.39 C-7.05,112.24 62.62,42.58 147.76,42.58 L147.76,42.57"/>
</g>

<g fill="#d6d3d3" fill-opacity="1" stroke="none" transform="matrix(0.0188853,0,0,0.0188635,28.5,27.7552)"
font-family="MS Shell Dlg 2" font-size="8.25" font-weight="400" font-style="normal" 
>
<rect x="147.76" y="163.76" width="2886.84" height="285.32"/>
</g>

<g fill="none" stroke="#000000" stroke-opacity="1" stroke-width="10.41" stroke-linecap="butt" stroke-linejoin="miter" stroke-miterlimit="2.61313" transform="matrix(0.0188853,0,0,0.0188635,28.5,27.7552)"
font-family="MS Shell Dlg 2" font-size="8.25" font-weight="400" font-style="normal" 
>
<rect x="147.76" y="163.76" width="2886.84" height="285.32"/>
</g>

<g fill="#b8b8b8" fill-opacity="1" stroke="none" transform="matrix(0.0188853,0,0,0.0188635,28.5,27.7552)"
font-family="MS Shell Dlg 2" font-size="8.25" font-weight="400" font-style="normal" 
>
<path vector-effect="none" fill-rule="evenodd" d="M3034.6,136.047 C3034.6,97.6151 3062.35,66.46 3096.59,66.46 L3113.5,66.46 C3147.74,66.46 3175.49,97.6151 3175.49,136.047 L3175.49,476.783 C3175.49,515.215 3147.74,546.37 3113.5,546.37 L3096.59,546.37 C3062.35,546.37 3034.6,515.215 3034.6,476.783 L3034.6,136.047"/>
</g>

<g fill="none" stroke="#000000" stroke-opacity="1" stroke-width="10.41" stroke-linecap="butt" stroke-linejoin="miter" stroke-miterlimit="2.61313" transform="matrix(0.0188853,0,0,0.0188635,28.5,27.7552)"
font-family="MS Shell Dlg 2" font-size="8.25" font-weight="400" font-style="normal" 
>
<path vector-effect="none" fill-rule="evenodd" d="M3034.6,136.047 C3034.6,97.6151 3062.35,66.46 3096.59,66.46 L3113.5,66.46 C3147.74,66.46 3175.49,97.6151 3175.49,136.047 L3175.49,476.783 C3175.49,515.215 3147.74,546.37 3113.5,546.37 L3096.59,546.37 C3062.35,546.37 3034.6,515.215 3034.6,476.783 L3034.6,136.047"/>
</g>

<g fill="none" stroke="#000000" stroke-opacity="1" stroke-width="1" stroke-linecap="square" stroke-linejoin="bevel" transform="matrix(0.210526,0,0,0.210526,28.5,27.7552)"
font-family="MS Shell Dlg 2" font-size="8.25" font-weight="400" font-style="normal" 
>
</g>

<g fill="none" stroke="#000000" stroke-opacity="1" stroke-width="1" stroke-linecap="square" stroke-linejoin="bevel" transform="matrix(1,0,0,1,0,0)"
font-family="MS Shell Dlg 2" font-size="8.25" font-weight="400" font-style="normal" 
>
</g>

<g fill="none" stroke="#000000" stroke-opacity="1" stroke-width="1" stroke-linecap="square" stroke-linejoin="bevel" transform="matrix(0.205339,0,0,0.205339,6,1)"
font-family="MS Shell Dlg 2" font-size="8.25" font-weight="400" font-style="normal" 
>
</g>

<g fill="#3c5a64" fill-opacity="1" stroke="none" transform="matrix(0.0184616,0,0,0.0184581,6,1)"
font-family="MS Shell Dlg 2" font-size="8.25" font-weight="400" font-style="normal" 
>
<path vector-effect="none" fill-rule="evenodd" d="M169.08,1140.84 L481.58,1140.84 L481.58,2164.34 C481.58,2198.71 453.46,2226.84 419.08,2226.84 L231.58,2226.84 C197.2,2226.84 169.08,2198.71 169.08,2164.34 L169.08,1140.84"/>
</g>

<g fill="none" stroke="#000000" stroke-opacity="1" stroke-width="10.41" stroke-linecap="butt" stroke-linejoin="miter" stroke-miterlimit="2.61313" transform="matrix(0.0184616,0,0,0.0184581,6,1)"
font-family="MS Shell Dlg 2" font-size="8.25" font-weight="400" font-style="normal" 
>
<path vector-effect="none" fill-rule="evenodd" d="M169.08,1140.84 L481.58,1140.84 L481.58,2164.34 C481.58,2198.71 453.46,2226.84 419.08,2226.84 L231.58,2226.84 C197.2,2226.84 169.08,2198.71 169.08,2164.34 L169.08,1140.84"/>
</g>

<g fill="#949ba3" fill-opacity="1" stroke="none" transform="matrix(0.0184616,0,0,0.0184581,6,1)"
font-family="MS Shell Dlg 2" font-size="8.25" font-weight="400" font-style="normal" 
>
<path vector-effect="none" fill-rule="evenodd" d="M168.19,1142.54 L4366.32,1142.54 C4423.61,1142.54 4470.49,1095.67 4470.49,1038.37 L4470.49,182.9 C4470.49,125.61 4423.62,78.73 4366.32,78.73 L272.36,78.73 C215.07,78.73 168.19,125.6 168.19,182.9 L168.19,1142.53 L168.19,1142.54"/>
</g>

<g fill="none" stroke="#000000" stroke-opacity="1" stroke-width="10.41" stroke-linecap="butt" stroke-linejoin="miter" stroke-miterlimit="2.61313" transform="matrix(0.0184616,0,0,0.0184581,6,1)"
font-family="MS Shell Dlg 2" font-size="8.25" font-weight="400" font-style="normal" 
>
<path vector-effect="none" fill-rule="evenodd" d="M168.19,1142.54 L4366.32,1142.54 C4423.61,1142.54 4470.49,1095.67 4470.49,1038.37 L4470.49,182.9 C4470.49,125.61 4423.62,78.73 4366.32,78.73 L272.36,78.73 C215.07,78.73 168.19,125.6 168.19,182.9 L168.19,1142.53 L168.19,1142.54"/>
</g>

<g fill="#3c5a64" fill-opacity="1" stroke="none" transform="matrix(0.0184616,0,0,0.0184581,6,1)"
font-family="MS Shell Dlg 2" font-size="8.25" font-weight="400" font-style="normal" 
>
<rect x="4097.16" y="1142.54" width="76.09" height="1077.65"/>
</g>

<g fill="none" stroke="#000000" stroke-opacity="1" stroke-width="10.41" stroke-linecap="butt" stroke-linejoin="miter" stroke-miterlimit="2.61313" transform="matrix(0.0184616,0,0,0.0184581,6,1)"
font-family="MS Shell Dlg 2" font-size="8.25" font-weight="400" font-style="normal" 
>
<rect x="4097.16" y="1142.54" width="76.09" height="1077.65"/>
</g>

<g fill="#785b5b" fill-opacity="1" stroke="none" transform="matrix(0.0184616,0,0,0.0184581,6,1)"
font-family="MS Shell Dlg 2" font-size="8.25" font-weight="400" font-style="normal" 
>
<rect x="4171.29" y="1929.31" width="1213.4" height="51.25"/>
</g>

<g fill="none" stroke="#000000" stroke-opacity="1" stroke-width="10.41" stroke-linecap="butt" stroke-linejoin="miter" stroke-miterlimit="2.61313" transform="matrix(0.0184616,0,0,0.0184581,6,1)"
font-family="MS Shell Dlg 2" font-size="8.25" font-weight="400" font-style="normal" 
>
<rect x="4171.29" y="1929.31" width="1213.4" height="51.25"/>
</g>

<g fill="#785b5b" fill-opacity="1" stroke="none" transform="matrix(0.0184616,0,0,0.0184581,6,1)"
font-family="MS Shell Dlg 2" font-size="8.25" font-weight="400" font-style="normal" 
>
<rect x="4174.06" y="1528.99" width="1192.54" height="51.25"/>
</g>

<g fill="none" stroke="#000000" stroke-opacity="1" stroke-width="10.41" stroke-linecap="butt" stroke-linejoin="miter" stroke-miterlimit="2.61313" transform="matrix(0.0184616,0,0,0.0184581,6,1)"
font-family="MS Shell Dlg 2" font-size="8.25" font-weight="400" font-style="normal" 
>
<rect x="4174.06" y="1528.99" width="1192.54" height="51.25"/>
</g>

<g fill="#dedede" fill-opacity="1" stroke="none" transform="matrix(0.0184616,0,0,0.0184581,6,1)"
font-family="MS Shell Dlg 2" font-size="8.25" font-weight="400" font-style="normal" 
opacity="0.25098" >
<path vector-effect="none" fill-rule="evenodd" d="M1376.67,1484.92 L4038.24,1484.92 L4038.24,2025.09 L1376.67,2025.09 C1285,2025.09 1210,1950.09 1210,1858.42 L1210,1651.59 C1210,1559.92 1285,1484.92 1376.67,1484.92 "/>
</g>

<g fill="none" stroke="none" transform="matrix(0.0184616,0,0,0.0184581,6,1)"
font-family="MS Shell Dlg 2" font-size="8.25" font-weight="400" font-style="normal" 
>
<path vector-effect="none" fill-rule="evenodd" d="M1376.67,1484.92 L4038.24,1484.92 L4038.24,2025.09 L1376.67,2025.09 C1285,2025.09 1210,1950.09 1210,1858.42 L1210,1651.59 C1210,1559.92 1285,1484.92 1376.67,1484.92 "/>
</g>

<g fill="none" stroke="#000000" stroke-opacity="1" stroke-width="10.41" stroke-linecap="butt" stroke-linejoin="miter" stroke-miterlimit="2.61313" transform="matrix(0.0184616,0,0,0.0184581,6,1)"
font-family="MS Shell Dlg 2" font-size="8.25" font-weight="400" font-style="normal" 
>
<path vector-effect="none" fill-rule="evenodd" d="M1376.67,1484.92 L4038.24,1484.92 L4038.24,2025.09 L1376.67,2025.09 C1285,2025.09 1210,1950.09 1210,1858.42 L1210,1651.59 C1210,1559.92 1285,1484.92 1376.67,1484.92 "/>
</g>

<g fill="#346148" fill-opacity="1" stroke="none" transform="matrix(0.0184616,0,0,0.0184581,6,1)"
font-family="MS Shell Dlg 2" font-size="8.25" font-weight="400" font-style="normal" 
>
<path vector-effect="none" fill-rule="evenodd" d="M938.57,1659.39 L1209.81,1659.39 L1209.81,1850.52 L938.57,1850.52 C892.74,1850.52 855.24,1813.02 855.24,1767.19 L855.24,1742.72 C855.24,1696.89 892.74,1659.39 938.57,1659.39 "/>
</g>

<g fill="none" stroke="#000000" stroke-opacity="1" stroke-width="10.41" stroke-linecap="butt" stroke-linejoin="miter" stroke-miterlimit="2.61313" transform="matrix(0.0184616,0,0,0.0184581,6,1)"
font-family="MS Shell Dlg 2" font-size="8.25" font-weight="400" font-style="normal" 
>
<path vector-effect="none" fill-rule="evenodd" d="M938.57,1659.39 L1209.81,1659.39 L1209.81,1850.52 L938.57,1850.52 C892.74,1850.52 855.24,1813.02 855.24,1767.19 L855.24,1742.72 C855.24,1696.89 892.74,1659.39 938.57,1659.39 "/>
</g>

<g fill="#000000" fill-opacity="1" stroke="none" transform="matrix(0.0184616,0,0,0.0184581,6,1)"
font-family="MS Shell Dlg 2" font-size="8.25" font-weight="400" font-style="normal" 
>
<path vector-effect="none" fill-rule="evenodd" d="M59.24,1746.99 L855.43,1746.99 L855.43,1762.92 L75.17,1762.92 L59.24,1746.99"/>
</g>

<g fill="none" stroke="#000000" stroke-opacity="1" stroke-width="10.41" stroke-linecap="butt" stroke-linejoin="miter" stroke-miterlimit="2.61313" transform="matrix(0.0184616,0,0,0.0184581,6,1)"
font-family="MS Shell Dlg 2" font-size="8.25" font-weight="400" font-style="normal" 
>
<path vector-effect="none" fill-rule="evenodd" d="M59.24,1746.99 L855.43,1746.99 L855.43,1762.92 L75.17,1762.92 L59.24,1746.99"/>
</g>

<g fill="#bababa" fill-opacity="1" stroke="none" transform="matrix(0.0184616,0,0,0.0184581,6,1)"
font-family="MS Shell Dlg 2" font-size="8.25" font-weight="400" font-style="normal" 
>
<path vector-effect="none" fill-rule="evenodd" d="M4038.23,1545.75 C4038.23,1465.47 4081.64,1400.38 4135.18,1400.38 C4188.72,1400.38 4232.13,1465.47 4232.13,1545.75 L4232.13,1964.15 C4232.13,2044.43 4188.72,2109.52 4135.18,2109.52 C4081.64,2109.52 4038.23,2044.43 4038.23,1964.15 L4038.23,1545.75"/>
</g>

<g fill="none" stroke="#000000" stroke-opacity="1" stroke-width="10.41" stroke-linecap="butt" stroke-linejoin="miter" stroke-miterlimit="2.61313" transform="matrix(0.0184616,0,0,0.0184581,6,1)"
font-family="MS Shell Dlg 2" font-size="8.25" font-weight="400" font-style="normal" 
>
<path vector-effect="none" fill-rule="evenodd" d="M4038.23,1545.75 C4038.23,1465.47 4081.64,1400.38 4135.18,1400.38 C4188.72,1400.38 4232.13,1465.47 4232.13,1545.75 L4232.13,1964.15 C4232.13,2044.43 4188.72,2109.52 4135.18,2109.52 C4081.64,2109.52 4038.23,2044.43 4038.23,1964.15 L4038.23,1545.75"/>
</g>

<g fill="none" stroke="#000000" stroke-opacity="1" stroke-width="20.83" stroke-linecap="butt" stroke-linejoin="miter" stroke-miterlimit="2.61313" transform="matrix(0.0184616,0,0,0.0184581,6,1)"
font-family="MS Shell Dlg 2" font-size="8.25" font-weight="400" font-style="normal" 
>
<polyline fill="none" vector-effect="none" points="1468.93,1484.41 1471.02,1703.23 " />
</g>

<g fill="none" stroke="#000000" stroke-opacity="1" stroke-width="20.83" stroke-linecap="butt" stroke-linejoin="miter" stroke-miterlimit="2.61313" transform="matrix(0.0184616,0,0,0.0184581,6,1)"
font-family="MS Shell Dlg 2" font-size="8.25" font-weight="400" font-style="normal" 
>
<polyline fill="none" vector-effect="none" points="1521.02,1485.43 1523.1,1594.83 " />
</g>

<g fill="none" stroke="#000000" stroke-opacity="1" stroke-width="20.83" stroke-linecap="butt" stroke-linejoin="miter" stroke-miterlimit="2.61313" transform="matrix(0.0184616,0,0,0.0184581,6,1)"
font-family="MS Shell Dlg 2" font-size="8.25" font-weight="400" font-style="normal" 
>
<polyline fill="none" vector-effect="none" points="1573.1,1487.46 1575.18,1596.87 " />
</g>

<g fill="none" stroke="#000000" stroke-opacity="1" stroke-width="20.83" stroke-linecap="butt" stroke-linejoin="miter" stroke-miterlimit="2.61313" transform="matrix(0.0184616,0,0,0.0184581,6,1)"
font-family="MS Shell Dlg 2" font-size="8.25" font-weight="400" font-style="normal" 
>
<polyline fill="none" vector-effect="none" points="1625.18,1486.42 1627.26,1595.83 " />
</g>

<g fill="none" stroke="#000000" stroke-opacity="1" stroke-width="20.83" stroke-linecap="butt" stroke-linejoin="miter" stroke-miterlimit="2.61313" transform="matrix(0.0184616,0,0,0.0184581,6,1)"
font-family="MS Shell Dlg 2" font-size="8.25" font-weight="400" font-style="normal" 
>
<polyline fill="none" vector-effect="none" points="1677.26,1488.46 1679.35,1597.87 " />
</g>

<g fill="none" stroke="#000000" stroke-opacity="1" stroke-width="20.83" stroke-linecap="butt" stroke-linejoin="miter" stroke-miterlimit="2.61313" transform="matrix(0.0184616,0,0,0.0184581,6,1)"
font-family="MS Shell Dlg 2" font-size="8.25" font-weight="400" font-style="normal" 
>
<polyline fill="none" vector-effect="none" points="1729.35,1484.41 1731.43,1703.23 " />
</g>

<g fill="none" stroke="#000000" stroke-opacity="1" stroke-width="20.83" stroke-linecap="butt" stroke-linejoin="miter" stroke-miterlimit="2.61313" transform="matrix(0.0184616,0,0,0.0184581,6,1)"
font-family="MS Shell Dlg 2" font-size="8.25" font-weight="400" font-style="normal" 
>
<polyline fill="none" vector-effect="none" points="1781.43,1485.43 1783.52,1594.83 " />
</g>

<g fill="none" stroke="#000000" stroke-opacity="1" stroke-width="20.83" stroke-linecap="butt" stroke-linejoin="miter" stroke-miterlimit="2.61313" transform="matrix(0.0184616,0,0,0.0184581,6,1)"
font-family="MS Shell Dlg 2" font-size="8.25" font-weight="400" font-style="normal" 
>
<polyline fill="none" vector-effect="none" points="1833.52,1487.46 1835.6,1596.87 " />
</g>

<g fill="none" stroke="#000000" stroke-opacity="1" stroke-width="20.83" stroke-linecap="butt" stroke-linejoin="miter" stroke-miterlimit="2.61313" transform="matrix(0.0184616,0,0,0.0184581,6,1)"
font-family="MS Shell Dlg 2" font-size="8.25" font-weight="400" font-style="normal" 
>
<polyline fill="none" vector-effect="none" points="1885.6,1486.42 1887.68,1595.83 " />
</g>

<g fill="none" stroke="#000000" stroke-opacity="1" stroke-width="20.83" stroke-linecap="butt" stroke-linejoin="miter" stroke-miterlimit="2.61313" transform="matrix(0.0184616,0,0,0.0184581,6,1)"
font-family="MS Shell Dlg 2" font-size="8.25" font-weight="400" font-style="normal" 
>
<polyline fill="none" vector-effect="none" points="1937.68,1488.46 1939.76,1597.87 " />
</g>

<g fill="none" stroke="#000000" stroke-opacity="1" stroke-width="20.83" stroke-linecap="butt" stroke-linejoin="miter" stroke-miterlimit="2.61313" transform="matrix(0.0184616,0,0,0.0184581,6,1)"
font-family="MS Shell Dlg 2" font-size="8.25" font-weight="400" font-style="normal" 
>
<polyline fill="none" vector-effect="none" points="1989.76,1484.41 1991.85,1703.23 " />
</g>

<g fill="none" stroke="#000000" stroke-opacity="1" stroke-width="20.83" stroke-linecap="butt" stroke-linejoin="miter" stroke-miterlimit="2.61313" transform="matrix(0.0184616,0,0,0.0184581,6,1)"
font-family="MS Shell Dlg 2" font-size="8.25" font-weight="400" font-style="normal" 
>
<polyline fill="none" vector-effect="none" points="2041.83,1486.47 2043.91,1595.88 " />
</g>

<g fill="none" stroke="#000000" stroke-opacity="1" stroke-width="20.83" stroke-linecap="butt" stroke-linejoin="miter" stroke-miterlimit="2.61313" transform="matrix(0.0184616,0,0,0.0184581,6,1)"
font-family="MS Shell Dlg 2" font-size="8.25" font-weight="400" font-style="normal" 
>
<polyline fill="none" vector-effect="none" points="2093.91,1488.51 2096,1597.92 " />
</g>

<g fill="none" stroke="#000000" stroke-opacity="1" stroke-width="20.83" stroke-linecap="butt" stroke-linejoin="miter" stroke-miterlimit="2.61313" transform="matrix(0.0184616,0,0,0.0184581,6,1)"
font-family="MS Shell Dlg 2" font-size="8.25" font-weight="400" font-style="normal" 
>
<polyline fill="none" vector-effect="none" points="2146,1487.46 2148.08,1596.87 " />
</g>

<g fill="none" stroke="#000000" stroke-opacity="1" stroke-width="20.83" stroke-linecap="butt" stroke-linejoin="miter" stroke-miterlimit="2.61313" transform="matrix(0.0184616,0,0,0.0184581,6,1)"
font-family="MS Shell Dlg 2" font-size="8.25" font-weight="400" font-style="normal" 
>
<polyline fill="none" vector-effect="none" points="2198.08,1489.5 2200.16,1598.91 " />
</g>

<g fill="none" stroke="#000000" stroke-opacity="1" stroke-width="20.83" stroke-linecap="butt" stroke-linejoin="miter" stroke-miterlimit="2.61313" transform="matrix(0.0184616,0,0,0.0184581,6,1)"
font-family="MS Shell Dlg 2" font-size="8.25" font-weight="400" font-style="normal" 
>
<polyline fill="none" vector-effect="none" points="2250.16,1485.46 2252.24,1704.27 " />
</g>

<g fill="none" stroke="#000000" stroke-opacity="1" stroke-width="20.83" stroke-linecap="butt" stroke-linejoin="miter" stroke-miterlimit="2.61313" transform="matrix(0.0184616,0,0,0.0184581,6,1)"
font-family="MS Shell Dlg 2" font-size="8.25" font-weight="400" font-style="normal" 
>
<polyline fill="none" vector-effect="none" points="2302.25,1486.47 2304.33,1595.88 " />
</g>

<g fill="none" stroke="#000000" stroke-opacity="1" stroke-width="20.83" stroke-linecap="butt" stroke-linejoin="miter" stroke-miterlimit="2.61313" transform="matrix(0.0184616,0,0,0.0184581,6,1)"
font-family="MS Shell Dlg 2" font-size="8.25" font-weight="400" font-style="normal" 
>
<polyline fill="none" vector-effect="none" points="2354.33,1488.51 2356.41,1597.92 " />
</g>

<g fill="none" stroke="#000000" stroke-opacity="1" stroke-width="20.83" stroke-linecap="butt" stroke-linejoin="miter" stroke-miterlimit="2.61313" transform="matrix(0.0184616,0,0,0.0184581,6,1)"
font-family="MS Shell Dlg 2" font-size="8.25" font-weight="400" font-style="normal" 
>
<polyline fill="none" vector-effect="none" points="2406.41,1487.46 2408.5,1596.87 " />
</g>

<g fill="none" stroke="#000000" stroke-opacity="1" stroke-width="20.83" stroke-linecap="butt" stroke-linejoin="miter" stroke-miterlimit="2.61313" transform="matrix(0.0184616,0,0,0.0184581,6,1)"
font-family="MS Shell Dlg 2" font-size="8.25" font-weight="400" font-style="normal" 
>
<polyline fill="none" vector-effect="none" points="2458.5,1489.5 2460.58,1598.91 " />
</g>

<g fill="none" stroke="#000000" stroke-opacity="1" stroke-width="20.83" stroke-linecap="butt" stroke-linejoin="miter" stroke-miterlimit="2.61313" transform="matrix(0.0184616,0,0,0.0184581,6,1)"
font-family="MS Shell Dlg 2" font-size="8.25" font-weight="400" font-style="normal" 
>
<polyline fill="none" vector-effect="none" points="2510.58,1485.46 2512.66,1704.27 " />
</g>

<g fill="none" stroke="#000000" stroke-opacity="1" stroke-width="20.83" stroke-linecap="butt" stroke-linejoin="miter" stroke-miterlimit="2.61313" transform="matrix(0.0184616,0,0,0.0184581,6,1)"
font-family="MS Shell Dlg 2" font-size="8.25" font-weight="400" font-style="normal" 
>
<polyline fill="none" vector-effect="none" points="2564.59,1482.31 2566.67,1591.72 " />
</g>

<g fill="none" stroke="#000000" stroke-opacity="1" stroke-width="20.83" stroke-linecap="butt" stroke-linejoin="miter" stroke-miterlimit="2.61313" transform="matrix(0.0184616,0,0,0.0184581,6,1)"
font-family="MS Shell Dlg 2" font-size="8.25" font-weight="400" font-style="normal" 
>
<polyline fill="none" vector-effect="none" points="2616.67,1484.35 2618.76,1593.76 " />
</g>

<g fill="none" stroke="#000000" stroke-opacity="1" stroke-width="20.83" stroke-linecap="butt" stroke-linejoin="miter" stroke-miterlimit="2.61313" transform="matrix(0.0184616,0,0,0.0184581,6,1)"
font-family="MS Shell Dlg 2" font-size="8.25" font-weight="400" font-style="normal" 
>
<polyline fill="none" vector-effect="none" points="2668.76,1483.31 2670.84,1592.72 " />
</g>

<g fill="none" stroke="#000000" stroke-opacity="1" stroke-width="20.83" stroke-linecap="butt" stroke-linejoin="miter" stroke-miterlimit="2.61313" transform="matrix(0.0184616,0,0,0.0184581,6,1)"
font-family="MS Shell Dlg 2" font-size="8.25" font-weight="400" font-style="normal" 
>
<polyline fill="none" vector-effect="none" points="2720.84,1485.35 2722.92,1594.76 " />
</g>

<g fill="none" stroke="#000000" stroke-opacity="1" stroke-width="20.83" stroke-linecap="butt" stroke-linejoin="miter" stroke-miterlimit="2.61313" transform="matrix(0.0184616,0,0,0.0184581,6,1)"
font-family="MS Shell Dlg 2" font-size="8.25" font-weight="400" font-style="normal" 
>
<polyline fill="none" vector-effect="none" points="2772.92,1481.3 2775,1700.12 " />
</g>

<g fill="none" stroke="#000000" stroke-opacity="1" stroke-width="20.83" stroke-linecap="butt" stroke-linejoin="miter" stroke-miterlimit="2.61313" transform="matrix(0.0184616,0,0,0.0184581,6,1)"
font-family="MS Shell Dlg 2" font-size="8.25" font-weight="400" font-style="normal" 
>
<polyline fill="none" vector-effect="none" points="2825.01,1482.31 2827.09,1591.72 " />
</g>

<g fill="none" stroke="#000000" stroke-opacity="1" stroke-width="20.83" stroke-linecap="butt" stroke-linejoin="miter" stroke-miterlimit="2.61313" transform="matrix(0.0184616,0,0,0.0184581,6,1)"
font-family="MS Shell Dlg 2" font-size="8.25" font-weight="400" font-style="normal" 
>
<polyline fill="none" vector-effect="none" points="2877.09,1484.35 2879.17,1593.76 " />
</g>

<g fill="none" stroke="#000000" stroke-opacity="1" stroke-width="20.83" stroke-linecap="butt" stroke-linejoin="miter" stroke-miterlimit="2.61313" transform="matrix(0.0184616,0,0,0.0184581,6,1)"
font-family="MS Shell Dlg 2" font-size="8.25" font-weight="400" font-style="normal" 
>
<polyline fill="none" vector-effect="none" points="2929.17,1483.31 2931.26,1592.72 " />
</g>

<g fill="none" stroke="#000000" stroke-opacity="1" stroke-width="20.83" stroke-linecap="butt" stroke-linejoin="miter" stroke-miterlimit="2.61313" transform="matrix(0.0184616,0,0,0.0184581,6,1)"
font-family="MS Shell Dlg 2" font-size="8.25" font-weight="400" font-style="normal" 
>
<polyline fill="none" vector-effect="none" points="2981.26,1485.35 2983.34,1594.76 " />
</g>

<g fill="none" stroke="#000000" stroke-opacity="1" stroke-width="20.83" stroke-linecap="butt" stroke-linejoin="miter" stroke-miterlimit="2.61313" transform="matrix(0.0184616,0,0,0.0184581,6,1)"
font-family="MS Shell Dlg 2" font-size="8.25" font-weight="400" font-style="normal" 
>
<polyline fill="none" vector-effect="none" points="3033.34,1481.3 3035.42,1700.12 " />
</g>

<g fill="none" stroke="#000000" stroke-opacity="1" stroke-width="20.83" stroke-linecap="butt" stroke-linejoin="miter" stroke-miterlimit="2.61313" transform="matrix(0.0184616,0,0,0.0184581,6,1)"
font-family="MS Shell Dlg 2" font-size="8.25" font-weight="400" font-style="normal" 
>
<polyline fill="none" vector-effect="none" points="3085.41,1483.36 3087.49,1592.77 " />
</g>

<g fill="none" stroke="#000000" stroke-opacity="1" stroke-width="20.83" stroke-linecap="butt" stroke-linejoin="miter" stroke-miterlimit="2.61313" transform="matrix(0.0184616,0,0,0.0184581,6,1)"
font-family="MS Shell Dlg 2" font-size="8.25" font-weight="400" font-style="normal" 
>
<polyline fill="none" vector-effect="none" points="3137.49,1485.4 3139.57,1594.81 " />
</g>

<g fill="none" stroke="#000000" stroke-opacity="1" stroke-width="20.83" stroke-linecap="butt" stroke-linejoin="miter" stroke-miterlimit="2.61313" transform="matrix(0.0184616,0,0,0.0184581,6,1)"
font-family="MS Shell Dlg 2" font-size="8.25" font-weight="400" font-style="normal" 
>
<polyline fill="none" vector-effect="none" points="3189.57,1484.35 3191.65,1593.76 " />
</g>

<g fill="none" stroke="#000000" stroke-opacity="1" stroke-width="20.83" stroke-linecap="butt" stroke-linejoin="miter" stroke-miterlimit="2.61313" transform="matrix(0.0184616,0,0,0.0184581,6,1)"
font-family="MS Shell Dlg 2" font-size="8.25" font-weight="400" font-style="normal" 
>
<polyline fill="none" vector-effect="none" points="3241.65,1486.39 3243.74,1595.8 " />
</g>

<g fill="none" stroke="#000000" stroke-opacity="1" stroke-width="20.83" stroke-linecap="butt" stroke-linejoin="miter" stroke-miterlimit="2.61313" transform="matrix(0.0184616,0,0,0.0184581,6,1)"
font-family="MS Shell Dlg 2" font-size="8.25" font-weight="400" font-style="normal" 
>
<polyline fill="none" vector-effect="none" points="3293.74,1482.35 3295.82,1701.16 " />
</g>

<g fill="none" stroke="#000000" stroke-opacity="1" stroke-width="20.83" stroke-linecap="butt" stroke-linejoin="miter" stroke-miterlimit="2.61313" transform="matrix(0.0184616,0,0,0.0184581,6,1)"
font-family="MS Shell Dlg 2" font-size="8.25" font-weight="400" font-style="normal" 
>
<polyline fill="none" vector-effect="none" points="3345.82,1483.36 3347.91,1592.77 " />
</g>

<g fill="none" stroke="#000000" stroke-opacity="1" stroke-width="20.83" stroke-linecap="butt" stroke-linejoin="miter" stroke-miterlimit="2.61313" transform="matrix(0.0184616,0,0,0.0184581,6,1)"
font-family="MS Shell Dlg 2" font-size="8.25" font-weight="400" font-style="normal" 
>
<polyline fill="none" vector-effect="none" points="3397.91,1485.4 3399.99,1594.81 " />
</g>

<g fill="none" stroke="#000000" stroke-opacity="1" stroke-width="20.83" stroke-linecap="butt" stroke-linejoin="miter" stroke-miterlimit="2.61313" transform="matrix(0.0184616,0,0,0.0184581,6,1)"
font-family="MS Shell Dlg 2" font-size="8.25" font-weight="400" font-style="normal" 
>
<polyline fill="none" vector-effect="none" points="3449.99,1484.35 3452.07,1593.76 " />
</g>

<g fill="none" stroke="#000000" stroke-opacity="1" stroke-width="20.83" stroke-linecap="butt" stroke-linejoin="miter" stroke-miterlimit="2.61313" transform="matrix(0.0184616,0,0,0.0184581,6,1)"
font-family="MS Shell Dlg 2" font-size="8.25" font-weight="400" font-style="normal" 
>
<polyline fill="none" vector-effect="none" points="3502.07,1486.39 3504.15,1595.8 " />
</g>

<g fill="none" stroke="#000000" stroke-opacity="1" stroke-width="20.83" stroke-linecap="butt" stroke-linejoin="miter" stroke-miterlimit="2.61313" transform="matrix(0.0184616,0,0,0.0184581,6,1)"
font-family="MS Shell Dlg 2" font-size="8.25" font-weight="400" font-style="normal" 
>
<polyline fill="none" vector-effect="none" points="3554.15,1482.35 3556.24,1701.16 " />
</g>

<g fill="#ffffff" fill-opacity="1" stroke="none" transform="matrix(0.0184616,0,0,0.0184581,6,1)"
font-family="MS Shell Dlg 2" font-size="8.25" font-weight="400" font-style="normal" 
>
<rect x="3978.16" y="253.3" width="243.95" height="231.11"/>
</g>

<g fill="none" stroke="#000000" stroke-opacity="1" stroke-width="10.41" stroke-linecap="butt" stroke-linejoin="miter" stroke-miterlimit="2.61313" transform="matrix(0.0184616,0,0,0.0184581,6,1)"
font-family="MS Shell Dlg 2" font-size="8.25" font-weight="400" font-style="normal" 
>
<rect x="3978.16" y="253.3" width="243.95" height="231.11"/>
</g>

<g fill="#000000" fill-opacity="1" stroke="none" transform="matrix(0.0184616,0,0,0.0184581,6,1)"
font-family="MS Shell Dlg 2" font-size="8.25" font-weight="400" font-style="normal" 
>
<rect x="2410.5" y="249.19" width="1509.82" height="235.48"/>
</g>

<g fill="none" stroke="#000000" stroke-opacity="1" stroke-width="10.41" stroke-linecap="butt" stroke-linejoin="miter" stroke-miterlimit="2.61313" transform="matrix(0.0184616,0,0,0.0184581,6,1)"
font-family="MS Shell Dlg 2" font-size="8.25" font-weight="400" font-style="normal" 
>
<rect x="2410.5" y="249.19" width="1509.82" height="235.48"/>
</g>

<g fill="#ffffff" fill-opacity="1" stroke="none" transform="matrix(0.0184616,0,0,0.0184581,6,1)"
font-family="MS Shell Dlg 2" font-size="8.25" font-weight="400" font-style="normal" 
>
<rect x="412.59" y="288.35" width="146.83" height="110.81"/>
</g>

<g fill="none" stroke="#000000" stroke-opacity="1" stroke-width="10.41" stroke-linecap="butt" stroke-linejoin="miter" stroke-miterlimit="2.61313" transform="matrix(0.0184616,0,0,0.0184581,6,1)"
font-family="MS Shell Dlg 2" font-size="8.25" font-weight="400" font-style="normal" 
>
<rect x="412.59" y="288.35" width="146.83" height="110.81"/>
</g>

<g fill="#3c5a64" fill-opacity="1" stroke="none" transform="matrix(0.0184616,0,0,0.0184581,6,1)"
font-family="MS Shell Dlg 2" font-size="8.25" font-weight="400" font-style="normal" 
>
<path vector-effect="none" fill-rule="evenodd" d="M3280,2220.19 L3425.84,2220.19 C3471.67,2220.19 3509.17,2182.69 3509.17,2136.86 L3509.17,1703.42 C3509.17,1644.23 3460.74,1595.8 3401.55,1595.8 L3304.29,1595.8 C3245.09,1595.8 3196.67,1644.23 3196.67,1703.42 L3196.67,2136.86 C3196.67,2182.69 3234.17,2220.19 3280,2220.19 "/>
</g>

<g fill="none" stroke="#000000" stroke-opacity="1" stroke-width="10.41" stroke-linecap="butt" stroke-linejoin="miter" stroke-miterlimit="2.61313" transform="matrix(0.0184616,0,0,0.0184581,6,1)"
font-family="MS Shell Dlg 2" font-size="8.25" font-weight="400" font-style="normal" 
>
<path vector-effect="none" fill-rule="evenodd" d="M3280,2220.19 L3425.84,2220.19 C3471.67,2220.19 3509.17,2182.69 3509.17,2136.86 L3509.17,1703.42 C3509.17,1644.23 3460.74,1595.8 3401.55,1595.8 L3304.29,1595.8 C3245.09,1595.8 3196.67,1644.23 3196.67,1703.42 L3196.67,2136.86 C3196.67,2182.69 3234.17,2220.19 3280,2220.19 "/>
</g>

<g fill="#ffffff" fill-opacity="1" stroke="none" transform="matrix(0.0184616,0,0,0.0184581,6,1)"
font-family="MS Shell Dlg 2" font-size="8.25" font-weight="400" font-style="normal" 
>
<rect x="3980.02" y="586.86" width="243.95" height="231.11"/>
</g>

<g fill="none" stroke="#000000" stroke-opacity="1" stroke-width="10.41" stroke-linecap="butt" stroke-linejoin="miter" stroke-miterlimit="2.61313" transform="matrix(0.0184616,0,0,0.0184581,6,1)"
font-family="MS Shell Dlg 2" font-size="8.25" font-weight="400" font-style="normal" 
>
<rect x="3980.02" y="586.86" width="243.95" height="231.11"/>
</g>

<g fill="#000000" fill-opacity="1" stroke="none" transform="matrix(0.0184616,0,0,0.0184581,6,1)"
font-family="MS Shell Dlg 2" font-size="8.25" font-weight="400" font-style="normal" 
>
<rect x="2412.35" y="582.75" width="1509.82" height="235.48"/>
</g>

<g fill="none" stroke="#000000" stroke-opacity="1" stroke-width="10.41" stroke-linecap="butt" stroke-linejoin="miter" stroke-miterlimit="2.61313" transform="matrix(0.0184616,0,0,0.0184581,6,1)"
font-family="MS Shell Dlg 2" font-size="8.25" font-weight="400" font-style="normal" 
>
<rect x="2412.35" y="582.75" width="1509.82" height="235.48"/>
</g>

<g fill="#ffffff" fill-opacity="1" stroke="none" transform="matrix(0.0184616,0,0,0.0184581,6,1)"
font-family="MS Shell Dlg 2" font-size="8.25" font-weight="400" font-style="normal" 
>
<rect x="725.09" y="288.35" width="146.83" height="110.81"/>
</g>

<g fill="none" stroke="#000000" stroke-opacity="1" stroke-width="10.41" stroke-linecap="butt" stroke-linejoin="miter" stroke-miterlimit="2.61313" transform="matrix(0.0184616,0,0,0.0184581,6,1)"
font-family="MS Shell Dlg 2" font-size="8.25" font-weight="400" font-style="normal" 
>
<rect x="725.09" y="288.35" width="146.83" height="110.81"/>
</g>

<g fill="#ffffff" fill-opacity="1" stroke="none" transform="matrix(0.0184616,0,0,0.0184581,6,1)"
font-family="MS Shell Dlg 2" font-size="8.25" font-weight="400" font-style="normal" 
>
<rect x="1037.58" y="288.35" width="146.83" height="110.81"/>
</g>

<g fill="none" stroke="#000000" stroke-opacity="1" stroke-width="10.41" stroke-linecap="butt" stroke-linejoin="miter" stroke-miterlimit="2.61313" transform="matrix(0.0184616,0,0,0.0184581,6,1)"
font-family="MS Shell Dlg 2" font-size="8.25" font-weight="400" font-style="normal" 
>
<rect x="1037.58" y="288.35" width="146.83" height="110.81"/>
</g>

<g fill="#ffffff" fill-opacity="1" stroke="none" transform="matrix(0.0184616,0,0,0.0184581,6,1)"
font-family="MS Shell Dlg 2" font-size="8.25" font-weight="400" font-style="normal" 
>
<rect x="1350.08" y="288.35" width="146.83" height="110.81"/>
</g>

<g fill="none" stroke="#000000" stroke-opacity="1" stroke-width="10.41" stroke-linecap="butt" stroke-linejoin="miter" stroke-miterlimit="2.61313" transform="matrix(0.0184616,0,0,0.0184581,6,1)"
font-family="MS Shell Dlg 2" font-size="8.25" font-weight="400" font-style="normal" 
>
<rect x="1350.08" y="288.35" width="146.83" height="110.81"/>
</g>

<g fill="#ffffff" fill-opacity="1" stroke="none" transform="matrix(0.0184616,0,0,0.0184581,6,1)"
font-family="MS Shell Dlg 2" font-size="8.25" font-weight="400" font-style="normal" 
>
<rect x="1662.57" y="288.35" width="146.83" height="110.81"/>
</g>

<g fill="none" stroke="#000000" stroke-opacity="1" stroke-width="10.41" stroke-linecap="butt" stroke-linejoin="miter" stroke-miterlimit="2.61313" transform="matrix(0.0184616,0,0,0.0184581,6,1)"
font-family="MS Shell Dlg 2" font-size="8.25" font-weight="400" font-style="normal" 
>
<rect x="1662.57" y="288.35" width="146.83" height="110.81"/>
</g>

<g fill="#ffffff" fill-opacity="1" stroke="none" transform="matrix(0.0184616,0,0,0.0184581,6,1)"
font-family="MS Shell Dlg 2" font-size="8.25" font-weight="400" font-style="normal" 
>
<rect x="1975.07" y="288.35" width="146.83" height="110.81"/>
</g>

<g fill="none" stroke="#000000" stroke-opacity="1" stroke-width="10.41" stroke-linecap="butt" stroke-linejoin="miter" stroke-miterlimit="2.61313" transform="matrix(0.0184616,0,0,0.0184581,6,1)"
font-family="MS Shell Dlg 2" font-size="8.25" font-weight="400" font-style="normal" 
>
<rect x="1975.07" y="288.35" width="146.83" height="110.81"/>
</g>

<g fill="#ffffff" fill-opacity="1" stroke="none" transform="matrix(0.0184616,0,0,0.0184581,6,1)"
font-family="MS Shell Dlg 2" font-size="8.25" font-weight="400" font-style="normal" 
>
<rect x="412.59" y="705.01" width="146.83" height="110.81"/>
</g>

<g fill="none" stroke="#000000" stroke-opacity="1" stroke-width="10.41" stroke-linecap="butt" stroke-linejoin="miter" stroke-miterlimit="2.61313" transform="matrix(0.0184616,0,0,0.0184581,6,1)"
font-family="MS Shell Dlg 2" font-size="8.25" font-weight="400" font-style="normal" 
>
<rect x="412.59" y="705.01" width="146.83" height="110.81"/>
</g>

<g fill="#ffffff" fill-opacity="1" stroke="none" transform="matrix(0.0184616,0,0,0.0184581,6,1)"
font-family="MS Shell Dlg 2" font-size="8.25" font-weight="400" font-style="normal" 
>
<rect x="725.09" y="705.01" width="146.83" height="110.81"/>
</g>

<g fill="none" stroke="#000000" stroke-opacity="1" stroke-width="10.41" stroke-linecap="butt" stroke-linejoin="miter" stroke-miterlimit="2.61313" transform="matrix(0.0184616,0,0,0.0184581,6,1)"
font-family="MS Shell Dlg 2" font-size="8.25" font-weight="400" font-style="normal" 
>
<rect x="725.09" y="705.01" width="146.83" height="110.81"/>
</g>

<g fill="#ffffff" fill-opacity="1" stroke="none" transform="matrix(0.0184616,0,0,0.0184581,6,1)"
font-family="MS Shell Dlg 2" font-size="8.25" font-weight="400" font-style="normal" 
>
<rect x="1037.58" y="705.01" width="146.83" height="110.81"/>
</g>

<g fill="none" stroke="#000000" stroke-opacity="1" stroke-width="10.41" stroke-linecap="butt" stroke-linejoin="miter" stroke-miterlimit="2.61313" transform="matrix(0.0184616,0,0,0.0184581,6,1)"
font-family="MS Shell Dlg 2" font-size="8.25" font-weight="400" font-style="normal" 
>
<rect x="1037.58" y="705.01" width="146.83" height="110.81"/>
</g>

<g fill="#ffffff" fill-opacity="1" stroke="none" transform="matrix(0.0184616,0,0,0.0184581,6,1)"
font-family="MS Shell Dlg 2" font-size="8.25" font-weight="400" font-style="normal" 
>
<rect x="1350.08" y="705.01" width="146.83" height="110.81"/>
</g>

<g fill="none" stroke="#000000" stroke-opacity="1" stroke-width="10.41" stroke-linecap="butt" stroke-linejoin="miter" stroke-miterlimit="2.61313" transform="matrix(0.0184616,0,0,0.0184581,6,1)"
font-family="MS Shell Dlg 2" font-size="8.25" font-weight="400" font-style="normal" 
>
<rect x="1350.08" y="705.01" width="146.83" height="110.81"/>
</g>

<g fill="#ffffff" fill-opacity="1" stroke="none" transform="matrix(0.0184616,0,0,0.0184581,6,1)"
font-family="MS Shell Dlg 2" font-size="8.25" font-weight="400" font-style="normal" 
>
<rect x="1662.57" y="705.01" width="146.83" height="110.81"/>
</g>

<g fill="none" stroke="#000000" stroke-opacity="1" stroke-width="10.41" stroke-linecap="butt" stroke-linejoin="miter" stroke-miterlimit="2.61313" transform="matrix(0.0184616,0,0,0.0184581,6,1)"
font-family="MS Shell Dlg 2" font-size="8.25" font-weight="400" font-style="normal" 
>
<rect x="1662.57" y="705.01" width="146.83" height="110.81"/>
</g>

<g fill="#ffffff" fill-opacity="1" stroke="none" transform="matrix(0.0184616,0,0,0.0184581,6,1)"
font-family="MS Shell Dlg 2" font-size="8.25" font-weight="400" font-style="normal" 
>
<rect x="1975.07" y="705.01" width="146.83" height="110.81"/>
</g>

<g fill="none" stroke="#000000" stroke-opacity="1" stroke-width="10.41" stroke-linecap="butt" stroke-linejoin="miter" stroke-miterlimit="2.61313" transform="matrix(0.0184616,0,0,0.0184581,6,1)"
font-family="MS Shell Dlg 2" font-size="8.25" font-weight="400" font-style="normal" 
>
<rect x="1975.07" y="705.01" width="146.83" height="110.81"/>
</g>

<g fill="#3c5a64" fill-opacity="1" stroke="none" transform="matrix(0.0184616,0,0,0.0184581,6,1)"
font-family="MS Shell Dlg 2" font-size="8.25" font-weight="400" font-style="normal" 
>
<rect x="3204.38" y="1142.54" width="312.5" height="343.85"/>
</g>

<g fill="none" stroke="#000000" stroke-opacity="1" stroke-width="10.41" stroke-linecap="butt" stroke-linejoin="miter" stroke-miterlimit="2.61313" transform="matrix(0.0184616,0,0,0.0184581,6,1)"
font-family="MS Shell Dlg 2" font-size="8.25" font-weight="400" font-style="normal" 
>
<rect x="3204.38" y="1142.54" width="312.5" height="343.85"/>
</g>

<g fill="#3c5a64" fill-opacity="1" stroke="none" transform="matrix(0.0184616,0,0,0.0184581,6,1)"
font-family="MS Shell Dlg 2" font-size="8.25" font-weight="400" font-style="normal" 
>
<path vector-effect="none" fill-rule="evenodd" d="M1927.91,2214.33 L2073.75,2214.33 C2119.58,2214.33 2157.08,2176.83 2157.08,2131 L2157.08,1697.56 C2157.08,1638.37 2108.65,1589.94 2049.46,1589.94 L1952.2,1589.94 C1893,1589.94 1844.58,1638.37 1844.58,1697.56 L1844.58,2131 C1844.58,2176.83 1882.08,2214.33 1927.91,2214.33 "/>
</g>

<g fill="none" stroke="#000000" stroke-opacity="1" stroke-width="10.41" stroke-linecap="butt" stroke-linejoin="miter" stroke-miterlimit="2.61313" transform="matrix(0.0184616,0,0,0.0184581,6,1)"
font-family="MS Shell Dlg 2" font-size="8.25" font-weight="400" font-style="normal" 
>
<path vector-effect="none" fill-rule="evenodd" d="M1927.91,2214.33 L2073.75,2214.33 C2119.58,2214.33 2157.08,2176.83 2157.08,2131 L2157.08,1697.56 C2157.08,1638.37 2108.65,1589.94 2049.46,1589.94 L1952.2,1589.94 C1893,1589.94 1844.58,1638.37 1844.58,1697.56 L1844.58,2131 C1844.58,2176.83 1882.08,2214.33 1927.91,2214.33 "/>
</g>

<g fill="#3c5a64" fill-opacity="1" stroke="none" transform="matrix(0.0184616,0,0,0.0184581,6,1)"
font-family="MS Shell Dlg 2" font-size="8.25" font-weight="400" font-style="normal" 
>
<rect x="1852.29" y="1136.69" width="312.5" height="343.85"/>
</g>

<g fill="none" stroke="#000000" stroke-opacity="1" stroke-width="10.41" stroke-linecap="butt" stroke-linejoin="miter" stroke-miterlimit="2.61313" transform="matrix(0.0184616,0,0,0.0184581,6,1)"
font-family="MS Shell Dlg 2" font-size="8.25" font-weight="400" font-style="normal" 
>
<rect x="1852.29" y="1136.69" width="312.5" height="343.85"/>
</g>

<g fill="none" stroke="#000000" stroke-opacity="1" stroke-width="1" stroke-linecap="square" stroke-linejoin="bevel" transform="matrix(0.205339,0,0,0.205339,6,1)"
font-family="MS Shell Dlg 2" font-size="8.25" font-weight="400" font-style="normal" 
>
</g>

<g fill="none" stroke="#000000" stroke-opacity="1" stroke-width="1" stroke-linecap="square" stroke-linejoin="bevel" transform="matrix(1,0,0,1,0,0)"
font-family="MS Shell Dlg 2" font-size="8.25" font-weight="400" font-style="normal" 
>
</g>

<g fill="#1f2937" fill-opacity="1" stroke="#000000" stroke-opacity="0" stroke-width="1" stroke-linecap="square" stroke-linejoin="bevel" transform="matrix(1,0,0,1,6,33.6499)"
font-family="MS Shell Dlg 2" font-size="8.25" font-weight="400" font-style="normal" 
>
<circle cx="0" cy="0" r="3"/>
</g>

<g fill="none" stroke="#1f2937" stroke-opacity="1" stroke-width="1" stroke-linecap="square" stroke-linejoin="bevel" transform="matrix(1,0,0,1,6,33.6499)"
font-family="MS Shell Dlg 2" font-size="8.25" font-weight="400" font-style="normal" 
>
<path vector-effect="none" fill-rule="evenodd" d="M5,0 C5,-2.76142 2.76142,-5 0,-5 C-2.76142,-5 -5,-2.76142 -5,0 C-5,2.76142 -2.76142,5 0,5 "/>
</g>

<g fill="none" stroke="#000000" stroke-opacity="1" stroke-width="1" stroke-linecap="square" stroke-linejoin="bevel" transform="matrix(1,0,0,1,0,0)"
font-family="MS Shell Dlg 2" font-size="8.25" font-weight="400" font-style="normal" 
>
</g>
</g>
</svg>
