<?xml version="1.0" encoding="UTF-8" standalone="no"?>
<svg width="29.6333mm" height="42.3333mm"
 viewBox="-2 -2 88 124"
 xmlns="http://www.w3.org/2000/svg" xmlns:xlink="http://www.w3.org/1999/xlink"  version="1.2" baseProfile="tiny">
<title>TemperatureControl</title>
<desc>Exported ChemUnited component icon</desc>
<defs>
</defs>
<g fill="none" stroke="black" stroke-width="1" fill-rule="evenodd" stroke-linecap="square" stroke-linejoin="bevel" >

<g fill="none" stroke="#000000" stroke-opacity="1" stroke-width="1" stroke-linecap="square" stroke-linejoin="bevel" transform="matrix(1,0,0,1,0,0)"
font-family="MS Shell Dlg 2" font-size="8.25" font-weight="400" font-style="normal"
>
</g>

<g fill="none" stroke="#000000" stroke-opacity="1" stroke-width="1" stroke-linecap="square" stroke-linejoin="bevel" transform="matrix(1,0,0,1,0,0)"
font-family="MS Shell Dlg 2" font-size="8.25" font-weight="400" font-style="normal"
>
</g>

<g fill="none" stroke="#000000" stroke-opacity="1" stroke-width="1" stroke-linecap="square" stroke-linejoin="bevel" transform="matrix(1,0,0,1,0,0)"
font-family="MS Shell Dlg 2" font-size="8.25" font-weight="400" font-style="normal"
>
</g>

<g fill="none" stroke="#000000" stroke-opacity="1" stroke-width="1" stroke-linecap="square" stroke-linejoin="bevel" transform="matrix(1,0,0,1,0,0)"
font-family="MS Shell Dlg 2" font-size="8.25" font-weight="400" font-style="normal"
>
</g>

<g fill="#2d2d2d" fill-opacity="1" stroke="#1d1d1d" stroke-opacity="1" stroke-width="2" stroke-linecap="square" stroke-linejoin="bevel" transform="matrix(1,0,0,1,0,0)"
font-family="MS Shell Dlg 2" font-size="8.25" font-weight="400" font-style="normal"
>
<rect x="0" y="0" width="80" height="30"/>
<rect x="0" y="36" width="80" height="84"/>
</g>

<g fill="#000000" fill-opacity="1" stroke="none" transform="matrix(1,0,0,1,0,0)"
font-family="MS Shell Dlg 2" font-size="8.25" font-weight="400" font-style="normal"
>
<circle cx="7.2" cy="51.2" r="3.2"/>
<circle cx="7.2" cy="59.7714" r="3.2"/>
<circle cx="7.2" cy="68.3429" r="3.2"/>
<circle cx="7.2" cy="76.9143" r="3.2"/>
<circle cx="7.2" cy="85.4857" r="3.2"/>
<circle cx="7.2" cy="94.0571" r="3.2"/>
<circle cx="7.2" cy="102.629" r="3.2"/>
<circle cx="7.2" cy="111.2" r="3.2"/>
<circle cx="16.3429" cy="51.2" r="3.2"/>
<circle cx="16.3429" cy="59.7714" r="3.2"/>
<circle cx="16.3429" cy="68.3429" r="3.2"/>
<circle cx="16.3429" cy="76.9143" r="3.2"/>
<circle cx="16.3429" cy="85.4857" r="3.2"/>
<circle cx="16.3429" cy="94.0571" r="3.2"/>
<circle cx="16.3429" cy="102.629" r="3.2"/>
<circle cx="16.3429" cy="111.2" r="3.2"/>
<circle cx="25.4857" cy="51.2" r="3.2"/>
<circle cx="25.4857" cy="59.7714" r="3.2"/>
<circle cx="25.4857" cy="68.3429" r="3.2"/>
<circle cx="25.4857" cy="76.9143" r="3.2"/>
<circle cx="25.4857" cy="85.4857" r="3.2"/>
<circle cx="25.4857" cy="94.0571" r="3.2"/>
<circle cx="25.4857" cy="102.629" r="3.2"/>
<circle cx="25.4857" cy="111.2" r="3.2"/>
<circle cx="34.6286" cy="51.2" r="3.2"/>
<circle cx="34.6286" cy="59.7714" r="3.2"/>
<circle cx="34.6286" cy="68.3429" r="3.2"/>
<circle cx="34.6286" cy="76.9143" r="3.2"/>
<circle cx="34.6286" cy="85.4857" r="3.2"/>
<circle cx="34.6286" cy="94.0571" r="3.2"/>
<circle cx="34.6286" cy="102.629" r="3.2"/>
<circle cx="34.6286" cy="111.2" r="3.2"/>
<circle cx="43.7714" cy="51.2" r="3.2"/>
<circle cx="43.7714" cy="59.7714" r="3.2"/>
<circle cx="43.7714" cy="68.3429" r="3.2"/>
<circle cx="43.7714" cy="76.9143" r="3.2"/>
<circle cx="43.7714" cy="85.4857" r="3.2"/>
<circle cx="43.7714" cy="94.0571" r="3.2"/>
<circle cx="43.7714" cy="102.629" r="3.2"/>
<circle cx="43.7714" cy="111.2" r="3.2"/>
<circle cx="52.9143" cy="51.2" r="3.2"/>
<circle cx="52.9143" cy="59.7714" r="3.2"/>
<circle cx="52.9143" cy="68.3429" r="3.2"/>
<circle cx="52.9143" cy="76.9143" r="3.2"/>
<circle cx="52.9143" cy="85.4857" r="3.2"/>
<circle cx="52.9143" cy="94.0571" r="3.2"/>
<circle cx="52.9143" cy="102.629" r="3.2"/>
<circle cx="52.9143" cy="111.2" r="3.2"/>
<circle cx="62.0571" cy="51.2" r="3.2"/>
<circle cx="62.0571" cy="59.7714" r="3.2"/>
<circle cx="62.0571" cy="68.3429" r="3.2"/>
<circle cx="62.0571" cy="76.9143" r="3.2"/>
<circle cx="62.0571" cy="85.4857" r="3.2"/>
<circle cx="62.0571" cy="94.0571" r="3.2"/>
<circle cx="62.0571" cy="102.629" r="3.2"/>
<circle cx="62.0571" cy="111.2" r="3.2"/>
<circle cx="71.2" cy="51.2" r="3.2"/>
<circle cx="71.2" cy="59.7714" r="3.2"/>
<circle cx="71.2" cy="68.3429" r="3.2"/>
<circle cx="71.2" cy="76.9143" r="3.2"/>
<circle cx="71.2" cy="85.4857" r="3.2"/>
<circle cx="71.2" cy="94.0571" r="3.2"/>
<circle cx="71.2" cy="102.629" r="3.2"/>
<circle cx="71.2" cy="111.2" r="3.2"/>
</g>

<g fill="#000000" fill-opacity="1" stroke="#1d1d1d" stroke-opacity="1" stroke-width="2" stroke-linecap="square" stroke-linejoin="bevel" transform="matrix(1,0,0,1,0,0)"
font-family="MS Shell Dlg 2" font-size="8.25" font-weight="400" font-style="normal"
>
<rect x="40" y="6" width="26.6667" height="12"/>
</g>

<g fill="none" stroke="#000000" stroke-opacity="1" stroke-width="1" stroke-linecap="square" stroke-linejoin="bevel" transform="matrix(1,0,0,1,0,0)"
font-family="MS Shell Dlg 2" font-size="8.25" font-weight="400" font-style="normal"
>
</g>

<g fill="none" stroke="#000000" stroke-opacity="1" stroke-width="1" stroke-linecap="square" stroke-linejoin="bevel" transform="matrix(1,0,0,1,80,12)"
font-family="MS Shell Dlg 2" font-size="8.25" font-weight="400" font-style="normal"
>
</g>

<g fill="#f9f9f9" fill-opacity="1" stroke="#000000" stroke-opacity="0" stroke-width="1" stroke-linecap="square" stroke-linejoin="bevel" transform="matrix(1,0,0,1,80,12)"
font-family="MS Shell Dlg 2" font-size="8.25" font-weight="400" font-style="normal"
>
<circle cx="0" cy="0" r="3"/>
</g>

<g fill="none" stroke="#f9f9f9" stroke-opacity="1" stroke-width="1" stroke-linecap="square" stroke-linejoin="bevel" transform="matrix(1,0,0,1,80,12)"
font-family="MS Shell Dlg 2" font-size="8.25" font-weight="400" font-style="normal"
>
<path vector-effect="none" fill-rule="evenodd" d="M4,0 C4,-2.20914 2.20914,-4 0,-4 C-2.20914,-4 -4,-2.20914 -4,0 C-4,2.20914 -2.20914,4 0,4 "/>
</g>

<g fill="none" stroke="#000000" stroke-opacity="1" stroke-width="1" stroke-linecap="square" stroke-linejoin="bevel" transform="matrix(1,0,0,1,80,12)"
font-family="MS Shell Dlg 2" font-size="8.25" font-weight="400" font-style="normal"
>
</g>

<g fill="none" stroke="#000000" stroke-opacity="1" stroke-width="1" stroke-linecap="square" stroke-linejoin="bevel" transform="matrix(1,0,0,1,80,24)"
font-family="MS Shell Dlg 2" font-size="8.25" font-weight="400" font-style="normal"
>
</g>

<g fill="#f9f9f9" fill-opacity="1" stroke="#000000" stroke-opacity="0" stroke-width="1" stroke-linecap="square" stroke-linejoin="bevel" transform="matrix(1,0,0,1,80,24)"
font-family="MS Shell Dlg 2" font-size="8.25" font-weight="400" font-style="normal"
>
<circle cx="0" cy="0" r="3"/>
</g>

<g fill="none" stroke="#f9f9f9" stroke-opacity="1" stroke-width="1" stroke-linecap="square" stroke-linejoin="bevel" transform="matrix(1,0,0,1,80,24)"
font-family="MS Shell Dlg 2" font-size="8.25" font-weight="400" font-style="normal"
>
<path vector-effect="none" fill-rule="evenodd" d="M4,0 C4,-2.20914 2.20914,-4 0,-4 C-2.20914,-4 -4,-2.20914 -4,0 C-4,2.20914 -2.20914,4 0,4 "/>
</g>

<g fill="none" stroke="#000000" stroke-opacity="1" stroke-width="1" stroke-linecap="square" stroke-linejoin="bevel" transform="matrix(1,0,0,1,80,24)"
font-family="MS Shell Dlg 2" font-size="8.25" font-weight="400" font-style="normal"
>
</g>

<g fill="none" stroke="#000000" stroke-opacity="1" stroke-width="1" stroke-linecap="square" stroke-linejoin="bevel" transform="matrix(1,0,0,1,0,0)"
font-family="MS Shell Dlg 2" font-size="8.25" font-weight="400" font-style="normal"
>
</g>
</g>
</svg>
