<?xml version="1.0" encoding="UTF-8"?>
<!DOCTYPE svg PUBLIC "-//W3C//DTD SVG 1.1//EN" "http://www.w3.org/Graphics/SVG/1.1/DTD/svg11.dtd">
<!-- Creator: CorelDRAW -->
<svg xmlns="http://www.w3.org/2000/svg" xml:space="preserve" width="2.8125in" height="4.6875in" version="1.1" style="shape-rendering:geometricPrecision; text-rendering:geometricPrecision; image-rendering:optimizeQuality; fill-rule:evenodd; clip-rule:evenodd"
viewBox="0 0 2812.5 4687.5"
 xmlns:xlink="http://www.w3.org/1999/xlink"
 xmlns:xodm="http://www.corel.com/coreldraw/odm/2003">
 <defs>
  <style type="text/css">
   <![CDATA[
    .str0 {stroke:black;stroke-width:10.41;stroke-miterlimit:2.61313}
    .fil3 {fill:none}
    .fil1 {fill:#C9C9C9}
    .fil0 {fill:url(#id0)}
    .fil2 {fill:url(#id1)}
   ]]>
  </style>
  <linearGradient id="id0" gradientUnits="userSpaceOnUse" x1="104.17" y1="568.55" x2="2708.33" y2="568.55">
   <stop offset="0" style="stop-opacity:1; stop-color:#696868"/>
   <stop offset="0.839216" style="stop-opacity:1; stop-color:#B4B3B3"/>
   <stop offset="1" style="stop-opacity:1; stop-color:white"/>
  </linearGradient>
  <linearGradient id="id1" gradientUnits="userSpaceOnUse" x1="334.18" y1="2618.52" x2="2448.66" y2="2648.17">
   <stop offset="0" style="stop-opacity:0.498039; stop-color:#EBE8E8"/>
   <stop offset="0.478431" style="stop-opacity:0.498039; stop-color:#F5F3F3"/>
   <stop offset="1" style="stop-opacity:0.498039; stop-color:white"/>
  </linearGradient>
 </defs>
 <g id="Layer_x0020_1">
  <metadata id="CorelCorpID_0Corel-Layer"/>
  <rect class="fil0 str0" x="104.17" y="342.11" width="2604.17" height="452.86"/>
  <rect class="fil1 str0" x="673.99" y="215.78" width="1464.52" height="130.76"/>
  <path class="fil2 str0" d="M727.56 794.98l1327.71 0c0,216.3 176.98,393.28 393.28,393.28l0 3283.46 -2114.26 0 0 -3283.46c216.3,0 393.28,-176.97 393.28,-393.28z"/>
  <line class="fil3 str0" x1="1931.41" y1="1957.53" x2="2346.54" y2= "1957.53" />
  <line class="fil3 str0" x1="2106.19" y1="2012.15" x2="2346.53" y2= "2012.15" />
  <line class="fil3 str0" x1="2106.21" y1="2066.78" x2="2346.55" y2= "2066.78" />
  <line class="fil3 str0" x1="2106.19" y1="2121.4" x2="2346.53" y2= "2121.4" />
  <line class="fil3 str0" x1="2106.19" y1="2176.02" x2="2346.53" y2= "2176.02" />
  <line class="fil3 str0" x1="2108.93" y1="2230.64" x2="2349.26" y2= "2230.64" />
  <line class="fil3 str0" x1="1926.33" y1="2285.26" x2="2351.6" y2= "2285.26" />
  <line class="fil3 str0" x1="1931.41" y1="1957.53" x2="2346.54" y2= "1957.53" />
  <line class="fil3 str0" x1="2106.19" y1="2012.15" x2="2346.53" y2= "2012.15" />
  <line class="fil3 str0" x1="2106.21" y1="2066.78" x2="2346.55" y2= "2066.78" />
  <line class="fil3 str0" x1="2106.19" y1="2121.4" x2="2346.53" y2= "2121.4" />
  <line class="fil3 str0" x1="2106.19" y1="2176.02" x2="2346.53" y2= "2176.02" />
  <line class="fil3 str0" x1="2108.93" y1="2230.64" x2="2349.26" y2= "2230.64" />
  <line class="fil3 str0" x1="1926.33" y1="2285.26" x2="2351.6" y2= "2285.26" />
  <line class="fil3 str0" x1="2106.19" y1="2337.06" x2="2346.53" y2= "2337.06" />
  <line class="fil3 str0" x1="2106.21" y1="2391.69" x2="2346.55" y2= "2391.69" />
  <line class="fil3 str0" x1="2106.19" y1="2446.31" x2="2346.53" y2= "2446.31" />
  <line class="fil3 str0" x1="2106.19" y1="2500.93" x2="2346.53" y2= "2500.93" />
  <line class="fil3 str0" x1="2108.93" y1="2555.55" x2="2349.26" y2= "2555.55" />
  <line class="fil3 str0" x1="1926.33" y1="2610.17" x2="2351.6" y2= "2610.17" />
  <line class="fil3 str0" x1="2106.19" y1="2337.06" x2="2346.53" y2= "2337.06" />
  <line class="fil3 str0" x1="2106.21" y1="2391.69" x2="2346.55" y2= "2391.69" />
  <line class="fil3 str0" x1="2106.19" y1="2446.31" x2="2346.53" y2= "2446.31" />
  <line class="fil3 str0" x1="2106.19" y1="2500.93" x2="2346.53" y2= "2500.93" />
  <line class="fil3 str0" x1="2108.93" y1="2555.55" x2="2349.26" y2= "2555.55" />
  <line class="fil3 str0" x1="1926.33" y1="2610.17" x2="2351.6" y2= "2610.17" />
  <line class="fil3 str0" x1="2108.02" y1="2657.07" x2="2348.35" y2= "2657.07" />
  <line class="fil3 str0" x1="2108.04" y1="2711.7" x2="2348.37" y2= "2711.7" />
  <line class="fil3 str0" x1="2108.02" y1="2766.32" x2="2348.35" y2= "2766.32" />
  <line class="fil3 str0" x1="2108.02" y1="2820.94" x2="2348.35" y2= "2820.94" />
  <line class="fil3 str0" x1="2110.76" y1="2875.56" x2="2351.09" y2= "2875.56" />
  <line class="fil3 str0" x1="1928.16" y1="2930.18" x2="2353.43" y2= "2930.18" />
  <line class="fil3 str0" x1="2108.02" y1="2657.07" x2="2348.35" y2= "2657.07" />
  <line class="fil3 str0" x1="2108.04" y1="2711.7" x2="2348.37" y2= "2711.7" />
  <line class="fil3 str0" x1="2108.02" y1="2766.32" x2="2348.35" y2= "2766.32" />
  <line class="fil3 str0" x1="2108.02" y1="2820.94" x2="2348.35" y2= "2820.94" />
  <line class="fil3 str0" x1="2110.76" y1="2875.56" x2="2351.09" y2= "2875.56" />
  <line class="fil3 str0" x1="1928.16" y1="2930.18" x2="2353.43" y2= "2930.18" />
  <line class="fil3 str0" x1="2108.02" y1="2981.98" x2="2348.35" y2= "2981.98" />
  <line class="fil3 str0" x1="2108.04" y1="3036.61" x2="2348.37" y2= "3036.61" />
  <line class="fil3 str0" x1="2108.02" y1="3091.23" x2="2348.35" y2= "3091.23" />
  <line class="fil3 str0" x1="2108.02" y1="3145.85" x2="2348.35" y2= "3145.85" />
  <line class="fil3 str0" x1="2110.76" y1="3200.47" x2="2351.09" y2= "3200.47" />
  <line class="fil3 str0" x1="1928.16" y1="3255.09" x2="2353.43" y2= "3255.09" />
  <line class="fil3 str0" x1="2108.02" y1="2981.98" x2="2348.35" y2= "2981.98" />
  <line class="fil3 str0" x1="2108.04" y1="3036.61" x2="2348.37" y2= "3036.61" />
  <line class="fil3 str0" x1="2108.02" y1="3091.23" x2="2348.35" y2= "3091.23" />
  <line class="fil3 str0" x1="2108.02" y1="3145.85" x2="2348.35" y2= "3145.85" />
  <line class="fil3 str0" x1="2110.76" y1="3200.47" x2="2351.09" y2= "3200.47" />
  <line class="fil3 str0" x1="1928.16" y1="3255.09" x2="2353.43" y2= "3255.09" />
  <line class="fil3 str0" x1="2106.19" y1="2012.15" x2="2346.53" y2= "2012.15" />
  <line class="fil3 str0" x1="2106.21" y1="2066.78" x2="2346.55" y2= "2066.78" />
  <line class="fil3 str0" x1="2106.19" y1="2121.4" x2="2346.53" y2= "2121.4" />
  <line class="fil3 str0" x1="2106.19" y1="2176.02" x2="2346.53" y2= "2176.02" />
  <line class="fil3 str0" x1="2108.93" y1="2230.64" x2="2349.26" y2= "2230.64" />
  <line class="fil3 str0" x1="1926.33" y1="2285.26" x2="2351.6" y2= "2285.26" />
  <line class="fil3 str0" x1="2106.19" y1="2012.15" x2="2346.53" y2= "2012.15" />
  <line class="fil3 str0" x1="2106.21" y1="2066.78" x2="2346.55" y2= "2066.78" />
  <line class="fil3 str0" x1="2106.19" y1="2121.4" x2="2346.53" y2= "2121.4" />
  <line class="fil3 str0" x1="2106.19" y1="2176.02" x2="2346.53" y2= "2176.02" />
  <line class="fil3 str0" x1="2108.93" y1="2230.64" x2="2349.26" y2= "2230.64" />
  <line class="fil3 str0" x1="1926.33" y1="2285.26" x2="2351.6" y2= "2285.26" />
  <line class="fil3 str0" x1="2106.19" y1="2337.06" x2="2346.53" y2= "2337.06" />
  <line class="fil3 str0" x1="2106.21" y1="2391.69" x2="2346.55" y2= "2391.69" />
  <line class="fil3 str0" x1="2106.19" y1="2446.31" x2="2346.53" y2= "2446.31" />
  <line class="fil3 str0" x1="2106.19" y1="2500.93" x2="2346.53" y2= "2500.93" />
  <line class="fil3 str0" x1="2108.93" y1="2555.55" x2="2349.26" y2= "2555.55" />
  <line class="fil3 str0" x1="1926.33" y1="2610.17" x2="2351.6" y2= "2610.17" />
  <line class="fil3 str0" x1="2106.19" y1="2337.06" x2="2346.53" y2= "2337.06" />
  <line class="fil3 str0" x1="2106.21" y1="2391.69" x2="2346.55" y2= "2391.69" />
  <line class="fil3 str0" x1="2106.19" y1="2446.31" x2="2346.53" y2= "2446.31" />
  <line class="fil3 str0" x1="2106.19" y1="2500.93" x2="2346.53" y2= "2500.93" />
  <line class="fil3 str0" x1="2108.93" y1="2555.55" x2="2349.26" y2= "2555.55" />
  <line class="fil3 str0" x1="1926.33" y1="2610.17" x2="2351.6" y2= "2610.17" />
  <line class="fil3 str0" x1="2108.02" y1="2657.07" x2="2348.35" y2= "2657.07" />
  <line class="fil3 str0" x1="2108.04" y1="2711.7" x2="2348.37" y2= "2711.7" />
  <line class="fil3 str0" x1="2108.02" y1="2766.32" x2="2348.35" y2= "2766.32" />
  <line class="fil3 str0" x1="2108.02" y1="2820.94" x2="2348.35" y2= "2820.94" />
  <line class="fil3 str0" x1="2110.76" y1="2875.56" x2="2351.09" y2= "2875.56" />
  <line class="fil3 str0" x1="1928.16" y1="2930.18" x2="2353.43" y2= "2930.18" />
  <line class="fil3 str0" x1="2108.02" y1="2657.07" x2="2348.35" y2= "2657.07" />
  <line class="fil3 str0" x1="2108.04" y1="2711.7" x2="2348.37" y2= "2711.7" />
  <line class="fil3 str0" x1="2108.02" y1="2766.32" x2="2348.35" y2= "2766.32" />
  <line class="fil3 str0" x1="2108.02" y1="2820.94" x2="2348.35" y2= "2820.94" />
  <line class="fil3 str0" x1="2110.76" y1="2875.56" x2="2351.09" y2= "2875.56" />
  <line class="fil3 str0" x1="1928.16" y1="2930.18" x2="2353.43" y2= "2930.18" />
  <line class="fil3 str0" x1="2108.02" y1="2981.98" x2="2348.35" y2= "2981.98" />
  <line class="fil3 str0" x1="2108.04" y1="3036.61" x2="2348.37" y2= "3036.61" />
  <line class="fil3 str0" x1="2108.02" y1="3091.23" x2="2348.35" y2= "3091.23" />
  <line class="fil3 str0" x1="2108.02" y1="3145.85" x2="2348.35" y2= "3145.85" />
  <line class="fil3 str0" x1="2110.76" y1="3200.47" x2="2351.09" y2= "3200.47" />
  <line class="fil3 str0" x1="1928.16" y1="3255.09" x2="2353.43" y2= "3255.09" />
  <line class="fil3 str0" x1="2108.02" y1="2981.98" x2="2348.35" y2= "2981.98" />
  <line class="fil3 str0" x1="2108.04" y1="3036.61" x2="2348.37" y2= "3036.61" />
  <line class="fil3 str0" x1="2108.02" y1="3091.23" x2="2348.35" y2= "3091.23" />
  <line class="fil3 str0" x1="2108.02" y1="3145.85" x2="2348.35" y2= "3145.85" />
  <line class="fil3 str0" x1="2110.76" y1="3200.47" x2="2351.09" y2= "3200.47" />
  <line class="fil3 str0" x1="1928.16" y1="3255.09" x2="2353.43" y2= "3255.09" />
  <line class="fil3 str0" x1="2106.19" y1="2337.06" x2="2346.53" y2= "2337.06" />
  <line class="fil3 str0" x1="2106.21" y1="2391.69" x2="2346.55" y2= "2391.69" />
  <line class="fil3 str0" x1="2106.19" y1="2446.31" x2="2346.53" y2= "2446.31" />
  <line class="fil3 str0" x1="2106.19" y1="2500.93" x2="2346.53" y2= "2500.93" />
  <line class="fil3 str0" x1="2108.93" y1="2555.55" x2="2349.26" y2= "2555.55" />
  <line class="fil3 str0" x1="1926.33" y1="2610.17" x2="2351.6" y2= "2610.17" />
  <line class="fil3 str0" x1="2106.19" y1="2337.06" x2="2346.53" y2= "2337.06" />
  <line class="fil3 str0" x1="2106.21" y1="2391.69" x2="2346.55" y2= "2391.69" />
  <line class="fil3 str0" x1="2106.19" y1="2446.31" x2="2346.53" y2= "2446.31" />
  <line class="fil3 str0" x1="2106.19" y1="2500.93" x2="2346.53" y2= "2500.93" />
  <line class="fil3 str0" x1="2108.93" y1="2555.55" x2="2349.26" y2= "2555.55" />
  <line class="fil3 str0" x1="1926.33" y1="2610.17" x2="2351.6" y2= "2610.17" />
  <line class="fil3 str0" x1="2108.02" y1="2657.07" x2="2348.35" y2= "2657.07" />
  <line class="fil3 str0" x1="2108.04" y1="2711.7" x2="2348.37" y2= "2711.7" />
  <line class="fil3 str0" x1="2108.02" y1="2766.32" x2="2348.35" y2= "2766.32" />
  <line class="fil3 str0" x1="2108.02" y1="2820.94" x2="2348.35" y2= "2820.94" />
  <line class="fil3 str0" x1="2110.76" y1="2875.56" x2="2351.09" y2= "2875.56" />
  <line class="fil3 str0" x1="1928.16" y1="2930.18" x2="2353.43" y2= "2930.18" />
  <line class="fil3 str0" x1="2108.02" y1="2657.07" x2="2348.35" y2= "2657.07" />
  <line class="fil3 str0" x1="2108.04" y1="2711.7" x2="2348.37" y2= "2711.7" />
  <line class="fil3 str0" x1="2108.02" y1="2766.32" x2="2348.35" y2= "2766.32" />
  <line class="fil3 str0" x1="2108.02" y1="2820.94" x2="2348.35" y2= "2820.94" />
  <line class="fil3 str0" x1="2110.76" y1="2875.56" x2="2351.09" y2= "2875.56" />
  <line class="fil3 str0" x1="1928.16" y1="2930.18" x2="2353.43" y2= "2930.18" />
  <line class="fil3 str0" x1="2108.02" y1="2981.98" x2="2348.35" y2= "2981.98" />
  <line class="fil3 str0" x1="2108.04" y1="3036.61" x2="2348.37" y2= "3036.61" />
  <line class="fil3 str0" x1="2108.02" y1="3091.23" x2="2348.35" y2= "3091.23" />
  <line class="fil3 str0" x1="2108.02" y1="3145.85" x2="2348.35" y2= "3145.85" />
  <line class="fil3 str0" x1="2110.76" y1="3200.47" x2="2351.09" y2= "3200.47" />
  <line class="fil3 str0" x1="1928.16" y1="3255.09" x2="2353.43" y2= "3255.09" />
  <line class="fil3 str0" x1="2108.02" y1="2981.98" x2="2348.35" y2= "2981.98" />
  <line class="fil3 str0" x1="2108.04" y1="3036.61" x2="2348.37" y2= "3036.61" />
  <line class="fil3 str0" x1="2108.02" y1="3091.23" x2="2348.35" y2= "3091.23" />
  <line class="fil3 str0" x1="2108.02" y1="3145.85" x2="2348.35" y2= "3145.85" />
  <line class="fil3 str0" x1="2110.76" y1="3200.47" x2="2351.09" y2= "3200.47" />
  <line class="fil3 str0" x1="1928.16" y1="3255.09" x2="2353.43" y2= "3255.09" />
  <line class="fil3 str0" x1="2106.19" y1="2337.06" x2="2346.53" y2= "2337.06" />
  <line class="fil3 str0" x1="2106.21" y1="2391.69" x2="2346.55" y2= "2391.69" />
  <line class="fil3 str0" x1="2106.19" y1="2446.31" x2="2346.53" y2= "2446.31" />
  <line class="fil3 str0" x1="2106.19" y1="2500.93" x2="2346.53" y2= "2500.93" />
  <line class="fil3 str0" x1="2108.93" y1="2555.55" x2="2349.26" y2= "2555.55" />
  <line class="fil3 str0" x1="1926.33" y1="2610.17" x2="2351.6" y2= "2610.17" />
  <line class="fil3 str0" x1="2106.19" y1="2337.06" x2="2346.53" y2= "2337.06" />
  <line class="fil3 str0" x1="2106.21" y1="2391.69" x2="2346.55" y2= "2391.69" />
  <line class="fil3 str0" x1="2106.19" y1="2446.31" x2="2346.53" y2= "2446.31" />
  <line class="fil3 str0" x1="2106.19" y1="2500.93" x2="2346.53" y2= "2500.93" />
  <line class="fil3 str0" x1="2108.93" y1="2555.55" x2="2349.26" y2= "2555.55" />
  <line class="fil3 str0" x1="1926.33" y1="2610.17" x2="2351.6" y2= "2610.17" />
  <line class="fil3 str0" x1="2108.02" y1="2657.07" x2="2348.35" y2= "2657.07" />
  <line class="fil3 str0" x1="2108.04" y1="2711.7" x2="2348.37" y2= "2711.7" />
  <line class="fil3 str0" x1="2108.02" y1="2766.32" x2="2348.35" y2= "2766.32" />
  <line class="fil3 str0" x1="2108.02" y1="2820.94" x2="2348.35" y2= "2820.94" />
  <line class="fil3 str0" x1="2110.76" y1="2875.56" x2="2351.09" y2= "2875.56" />
  <line class="fil3 str0" x1="1928.16" y1="2930.18" x2="2353.43" y2= "2930.18" />
  <line class="fil3 str0" x1="2108.02" y1="2657.07" x2="2348.35" y2= "2657.07" />
  <line class="fil3 str0" x1="2108.04" y1="2711.7" x2="2348.37" y2= "2711.7" />
  <line class="fil3 str0" x1="2108.02" y1="2766.32" x2="2348.35" y2= "2766.32" />
  <line class="fil3 str0" x1="2108.02" y1="2820.94" x2="2348.35" y2= "2820.94" />
  <line class="fil3 str0" x1="2110.76" y1="2875.56" x2="2351.09" y2= "2875.56" />
  <line class="fil3 str0" x1="1928.16" y1="2930.18" x2="2353.43" y2= "2930.18" />
  <line class="fil3 str0" x1="2108.02" y1="2981.98" x2="2348.35" y2= "2981.98" />
  <line class="fil3 str0" x1="2108.04" y1="3036.61" x2="2348.37" y2= "3036.61" />
  <line class="fil3 str0" x1="2108.02" y1="3091.23" x2="2348.35" y2= "3091.23" />
  <line class="fil3 str0" x1="2108.02" y1="3145.85" x2="2348.35" y2= "3145.85" />
  <line class="fil3 str0" x1="2110.76" y1="3200.47" x2="2351.09" y2= "3200.47" />
  <line class="fil3 str0" x1="1928.16" y1="3255.09" x2="2353.43" y2= "3255.09" />
  <line class="fil3 str0" x1="2108.02" y1="2981.98" x2="2348.35" y2= "2981.98" />
  <line class="fil3 str0" x1="2108.04" y1="3036.61" x2="2348.37" y2= "3036.61" />
  <line class="fil3 str0" x1="2108.02" y1="3091.23" x2="2348.35" y2= "3091.23" />
  <line class="fil3 str0" x1="2108.02" y1="3145.85" x2="2348.35" y2= "3145.85" />
  <line class="fil3 str0" x1="2110.76" y1="3200.47" x2="2351.09" y2= "3200.47" />
  <line class="fil3 str0" x1="1928.16" y1="3255.09" x2="2353.43" y2= "3255.09" />
  <line class="fil3 str0" x1="2105.92" y1="3301.24" x2="2346.26" y2= "3301.24" />
  <line class="fil3 str0" x1="2105.94" y1="3355.86" x2="2346.28" y2= "3355.86" />
  <line class="fil3 str0" x1="2105.92" y1="3410.48" x2="2346.26" y2= "3410.48" />
  <line class="fil3 str0" x1="2105.92" y1="3465.11" x2="2346.26" y2= "3465.11" />
  <line class="fil3 str0" x1="2108.66" y1="3519.72" x2="2348.99" y2= "3519.72" />
  <line class="fil3 str0" x1="1926.06" y1="3574.35" x2="2351.33" y2= "3574.35" />
  <line class="fil3 str0" x1="2105.92" y1="3301.24" x2="2346.26" y2= "3301.24" />
  <line class="fil3 str0" x1="2105.94" y1="3355.86" x2="2346.28" y2= "3355.86" />
  <line class="fil3 str0" x1="2105.92" y1="3410.48" x2="2346.26" y2= "3410.48" />
  <line class="fil3 str0" x1="2105.92" y1="3465.11" x2="2346.26" y2= "3465.11" />
  <line class="fil3 str0" x1="2108.66" y1="3519.72" x2="2348.99" y2= "3519.72" />
  <line class="fil3 str0" x1="1926.06" y1="3574.35" x2="2351.33" y2= "3574.35" />
  <line class="fil3 str0" x1="2105.92" y1="3626.15" x2="2346.26" y2= "3626.15" />
  <line class="fil3 str0" x1="2105.94" y1="3680.77" x2="2346.28" y2= "3680.77" />
  <line class="fil3 str0" x1="2105.92" y1="3735.39" x2="2346.26" y2= "3735.39" />
  <line class="fil3 str0" x1="2105.92" y1="3790.01" x2="2346.26" y2= "3790.01" />
  <line class="fil3 str0" x1="2108.66" y1="3844.63" x2="2348.99" y2= "3844.63" />
  <line class="fil3 str0" x1="1926.06" y1="3899.26" x2="2351.33" y2= "3899.26" />
  <line class="fil3 str0" x1="2105.92" y1="3626.15" x2="2346.26" y2= "3626.15" />
  <line class="fil3 str0" x1="2105.94" y1="3680.77" x2="2346.28" y2= "3680.77" />
  <line class="fil3 str0" x1="2105.92" y1="3735.39" x2="2346.26" y2= "3735.39" />
  <line class="fil3 str0" x1="2105.92" y1="3790.01" x2="2346.26" y2= "3790.01" />
  <line class="fil3 str0" x1="2108.66" y1="3844.63" x2="2348.99" y2= "3844.63" />
  <line class="fil3 str0" x1="1926.06" y1="3899.26" x2="2351.33" y2= "3899.26" />
  <line class="fil3 str0" x1="2105.92" y1="3301.24" x2="2346.26" y2= "3301.24" />
  <line class="fil3 str0" x1="2105.94" y1="3355.86" x2="2346.28" y2= "3355.86" />
  <line class="fil3 str0" x1="2105.92" y1="3410.48" x2="2346.26" y2= "3410.48" />
  <line class="fil3 str0" x1="2105.92" y1="3465.11" x2="2346.26" y2= "3465.11" />
  <line class="fil3 str0" x1="2108.66" y1="3519.72" x2="2348.99" y2= "3519.72" />
  <line class="fil3 str0" x1="1926.06" y1="3574.35" x2="2351.33" y2= "3574.35" />
  <line class="fil3 str0" x1="2105.92" y1="3301.24" x2="2346.26" y2= "3301.24" />
  <line class="fil3 str0" x1="2105.94" y1="3355.86" x2="2346.28" y2= "3355.86" />
  <line class="fil3 str0" x1="2105.92" y1="3410.48" x2="2346.26" y2= "3410.48" />
  <line class="fil3 str0" x1="2105.92" y1="3465.11" x2="2346.26" y2= "3465.11" />
  <line class="fil3 str0" x1="2108.66" y1="3519.72" x2="2348.99" y2= "3519.72" />
  <line class="fil3 str0" x1="1926.06" y1="3574.35" x2="2351.33" y2= "3574.35" />
  <line class="fil3 str0" x1="2105.92" y1="3626.15" x2="2346.26" y2= "3626.15" />
  <line class="fil3 str0" x1="2105.94" y1="3680.77" x2="2346.28" y2= "3680.77" />
  <line class="fil3 str0" x1="2105.92" y1="3735.39" x2="2346.26" y2= "3735.39" />
  <line class="fil3 str0" x1="2105.92" y1="3790.01" x2="2346.26" y2= "3790.01" />
  <line class="fil3 str0" x1="2108.66" y1="3844.63" x2="2348.99" y2= "3844.63" />
  <line class="fil3 str0" x1="1926.06" y1="3899.26" x2="2351.33" y2= "3899.26" />
  <line class="fil3 str0" x1="2105.92" y1="3626.15" x2="2346.26" y2= "3626.15" />
  <line class="fil3 str0" x1="2105.94" y1="3680.77" x2="2346.28" y2= "3680.77" />
  <line class="fil3 str0" x1="2105.92" y1="3735.39" x2="2346.26" y2= "3735.39" />
  <line class="fil3 str0" x1="2105.92" y1="3790.01" x2="2346.26" y2= "3790.01" />
  <line class="fil3 str0" x1="2108.66" y1="3844.63" x2="2348.99" y2= "3844.63" />
  <line class="fil3 str0" x1="1926.06" y1="3899.26" x2="2351.33" y2= "3899.26" />
  <line class="fil3 str0" x1="2105.92" y1="3301.24" x2="2346.26" y2= "3301.24" />
  <line class="fil3 str0" x1="2105.94" y1="3355.86" x2="2346.28" y2= "3355.86" />
  <line class="fil3 str0" x1="2105.92" y1="3410.48" x2="2346.26" y2= "3410.48" />
  <line class="fil3 str0" x1="2105.92" y1="3465.11" x2="2346.26" y2= "3465.11" />
  <line class="fil3 str0" x1="2108.66" y1="3519.72" x2="2348.99" y2= "3519.72" />
  <line class="fil3 str0" x1="1926.06" y1="3574.35" x2="2351.33" y2= "3574.35" />
  <line class="fil3 str0" x1="2105.92" y1="3301.24" x2="2346.26" y2= "3301.24" />
  <line class="fil3 str0" x1="2105.94" y1="3355.86" x2="2346.28" y2= "3355.86" />
  <line class="fil3 str0" x1="2105.92" y1="3410.48" x2="2346.26" y2= "3410.48" />
  <line class="fil3 str0" x1="2105.92" y1="3465.11" x2="2346.26" y2= "3465.11" />
  <line class="fil3 str0" x1="2108.66" y1="3519.72" x2="2348.99" y2= "3519.72" />
  <line class="fil3 str0" x1="1926.06" y1="3574.35" x2="2351.33" y2= "3574.35" />
  <line class="fil3 str0" x1="2105.92" y1="3626.15" x2="2346.26" y2= "3626.15" />
  <line class="fil3 str0" x1="2105.94" y1="3680.77" x2="2346.28" y2= "3680.77" />
  <line class="fil3 str0" x1="2105.92" y1="3735.39" x2="2346.26" y2= "3735.39" />
  <line class="fil3 str0" x1="2105.92" y1="3790.01" x2="2346.26" y2= "3790.01" />
  <line class="fil3 str0" x1="2108.66" y1="3844.63" x2="2348.99" y2= "3844.63" />
  <line class="fil3 str0" x1="1926.06" y1="3899.26" x2="2351.33" y2= "3899.26" />
  <line class="fil3 str0" x1="2105.92" y1="3626.15" x2="2346.26" y2= "3626.15" />
  <line class="fil3 str0" x1="2105.94" y1="3680.77" x2="2346.28" y2= "3680.77" />
  <line class="fil3 str0" x1="2105.92" y1="3735.39" x2="2346.26" y2= "3735.39" />
  <line class="fil3 str0" x1="2105.92" y1="3790.01" x2="2346.26" y2= "3790.01" />
  <line class="fil3 str0" x1="2108.66" y1="3844.63" x2="2348.99" y2= "3844.63" />
  <line class="fil3 str0" x1="1926.06" y1="3899.26" x2="2351.33" y2= "3899.26" />
  <line class="fil3 str0" x1="2105.92" y1="3301.24" x2="2346.26" y2= "3301.24" />
  <line class="fil3 str0" x1="2105.94" y1="3355.86" x2="2346.28" y2= "3355.86" />
  <line class="fil3 str0" x1="2105.92" y1="3410.48" x2="2346.26" y2= "3410.48" />
  <line class="fil3 str0" x1="2105.92" y1="3465.11" x2="2346.26" y2= "3465.11" />
  <line class="fil3 str0" x1="2108.66" y1="3519.72" x2="2348.99" y2= "3519.72" />
  <line class="fil3 str0" x1="1926.06" y1="3574.35" x2="2351.33" y2= "3574.35" />
  <line class="fil3 str0" x1="2105.92" y1="3301.24" x2="2346.26" y2= "3301.24" />
  <line class="fil3 str0" x1="2105.94" y1="3355.86" x2="2346.28" y2= "3355.86" />
  <line class="fil3 str0" x1="2105.92" y1="3410.48" x2="2346.26" y2= "3410.48" />
  <line class="fil3 str0" x1="2105.92" y1="3465.11" x2="2346.26" y2= "3465.11" />
  <line class="fil3 str0" x1="2108.66" y1="3519.72" x2="2348.99" y2= "3519.72" />
  <line class="fil3 str0" x1="1926.06" y1="3574.35" x2="2351.33" y2= "3574.35" />
  <line class="fil3 str0" x1="2105.92" y1="3626.15" x2="2346.26" y2= "3626.15" />
  <line class="fil3 str0" x1="2105.94" y1="3680.77" x2="2346.28" y2= "3680.77" />
  <line class="fil3 str0" x1="2105.92" y1="3735.39" x2="2346.26" y2= "3735.39" />
  <line class="fil3 str0" x1="2105.92" y1="3790.01" x2="2346.26" y2= "3790.01" />
  <line class="fil3 str0" x1="2108.66" y1="3844.63" x2="2348.99" y2= "3844.63" />
  <line class="fil3 str0" x1="1926.06" y1="3899.26" x2="2351.33" y2= "3899.26" />
  <line class="fil3 str0" x1="2105.92" y1="3626.15" x2="2346.26" y2= "3626.15" />
  <line class="fil3 str0" x1="2105.94" y1="3680.77" x2="2346.28" y2= "3680.77" />
  <line class="fil3 str0" x1="2105.92" y1="3735.39" x2="2346.26" y2= "3735.39" />
  <line class="fil3 str0" x1="2105.92" y1="3790.01" x2="2346.26" y2= "3790.01" />
  <line class="fil3 str0" x1="2108.66" y1="3844.63" x2="2348.99" y2= "3844.63" />
  <line class="fil3 str0" x1="1926.06" y1="3899.26" x2="2351.33" y2= "3899.26" />
 </g>
</svg>
