<?xml version="1.0" encoding="UTF-8" standalone="no"?>
<svg width="7.05556mm" height="8.46667mm"
 viewBox="0 0 20 24"
 xmlns="http://www.w3.org/2000/svg" xmlns:xlink="http://www.w3.org/1999/xlink"  version="1.2" baseProfile="tiny">
<title>Vial</title>
<desc>Exported ChemUnited component icon</desc>
<defs>
<linearGradient gradientUnits="userSpaceOnUse" x1="0" y1="0" x2="16" y2="24" id="gradient1">
    <stop offset="0" stop-color="#000000" stop-opacity="0" />
    <stop offset="1" stop-color="#000000" stop-opacity="0" />
</linearGradient>
</defs>
<g fill="none" stroke="black" stroke-width="1" fill-rule="evenodd" stroke-linecap="square" stroke-linejoin="bevel" >

<g fill="none" stroke="#000000" stroke-opacity="1" stroke-width="1" stroke-linecap="square" stroke-linejoin="bevel" transform="matrix(1,0,0,1,0,0)"
font-family="MS Shell Dlg 2" font-size="8.25" font-weight="400" font-style="normal"
>
</g>

<g fill="none" stroke="#000000" stroke-opacity="1" stroke-width="1" stroke-linecap="square" stroke-linejoin="bevel" transform="matrix(1,0,0,1,0,0)"
font-family="MS Shell Dlg 2" font-size="8.25" font-weight="400" font-style="normal"
>
</g>

<g fill="none" stroke="#000000" stroke-opacity="1" stroke-width="1" stroke-linecap="square" stroke-linejoin="bevel" transform="matrix(1,0,0,1,0,0)"
font-family="MS Shell Dlg 2" font-size="8.25" font-weight="400" font-style="normal"
>
</g>

<g fill="none" stroke="#000000" stroke-opacity="1" stroke-width="1" stroke-linecap="square" stroke-linejoin="bevel" transform="matrix(1,0,0,1,0,0)"
font-family="MS Shell Dlg 2" font-size="8.25" font-weight="400" font-style="normal"
>
</g>

<g fill="url(#gradient1)" stroke="none" transform="matrix(1,0,0,1,0,0)"
font-family="MS Shell Dlg 2" font-size="8.25" font-weight="400" font-style="normal"
>
<path vector-effect="none" fill-rule="evenodd" d="M4,21.6 L12,21.6 L12,21.6 L4,21.6 L4,21.6"/>
</g>

<g fill="none" stroke="#000000" stroke-opacity="1" stroke-width="1" stroke-linecap="square" stroke-linejoin="bevel" transform="matrix(1,0,0,1,0,0)"
font-family="MS Shell Dlg 2" font-size="8.25" font-weight="400" font-style="normal"
>
</g>

<g fill="none" stroke="#000000" stroke-opacity="1" stroke-width="1" stroke-linecap="square" stroke-linejoin="bevel" transform="matrix(1,0,0,1,0,0)"
font-family="MS Shell Dlg 2" font-size="8.25" font-weight="400" font-style="normal"
>
</g>

<g fill="none" stroke="#c8c8c8" stroke-opacity="1" stroke-width="1" stroke-linecap="square" stroke-linejoin="bevel" transform="matrix(1,0,0,1,0,0)"
font-family="MS Shell Dlg 2" font-size="8.25" font-weight="400" font-style="normal"
>
<path vector-effect="none" fill-rule="evenodd" d="M4,6.4 C4,5.51634 4.71634,4.8 5.6,4.8 L10.4,4.8 C11.2837,4.8 12,5.51634 12,6.4 L12,20 C12,20.8837 11.2837,21.6 10.4,21.6 L5.6,21.6 C4.71634,21.6 4,20.8837 4,20 L4,6.4"/>
</g>

<g fill="#000000" fill-opacity="1" stroke="#000000" stroke-opacity="0" stroke-width="1" stroke-linecap="square" stroke-linejoin="bevel" transform="matrix(1,0,0,1,0,0)"
font-family="MS Shell Dlg 2" font-size="8.25" font-weight="400" font-style="normal"
>
<rect x="3" y="4" width="10" height="4"/>
</g>

<g fill="#000000" fill-opacity="1" stroke="#272727" stroke-opacity="1" stroke-width="1" stroke-linecap="square" stroke-linejoin="bevel" transform="matrix(1,0,0,1,0,0)"
font-family="MS Shell Dlg 2" font-size="8.25" font-weight="400" font-style="normal"
>
<polyline fill="none" vector-effect="none" points="4,12 6,12 " />
<polyline fill="none" vector-effect="none" points="4,15 6,15 " />
<polyline fill="none" vector-effect="none" points="4,18 6,18 " />
</g>

<g fill="none" stroke="#000000" stroke-opacity="1" stroke-width="1" stroke-linecap="square" stroke-linejoin="bevel" transform="matrix(1,0,0,1,0,0)"
font-family="MS Shell Dlg 2" font-size="8.25" font-weight="400" font-style="normal"
>
</g>

<g fill="none" stroke="#000000" stroke-opacity="1" stroke-width="1" stroke-linecap="square" stroke-linejoin="bevel" transform="matrix(1,0,0,1,8,4)"
font-family="MS Shell Dlg 2" font-size="8.25" font-weight="400" font-style="normal"
>
</g>

<g fill="#272727" fill-opacity="1" stroke="#000000" stroke-opacity="0" stroke-width="1" stroke-linecap="square" stroke-linejoin="bevel" transform="matrix(1,0,0,1,8,4)"
font-family="MS Shell Dlg 2" font-size="8.25" font-weight="400" font-style="normal"
>
<circle cx="0" cy="0" r="3"/>
</g>

<g fill="none" stroke="#272727" stroke-opacity="1" stroke-width="1" stroke-linecap="square" stroke-linejoin="bevel" transform="matrix(1,0,0,1,8,4)"
font-family="MS Shell Dlg 2" font-size="8.25" font-weight="400" font-style="normal"
>
<path vector-effect="none" fill-rule="evenodd" d="M4,0 C4,-2.20914 2.20914,-4 0,-4 C-2.20914,-4 -4,-2.20914 -4,0 C-4,2.20914 -2.20914,4 0,4 "/>
</g>

<g fill="none" stroke="#000000" stroke-opacity="1" stroke-width="1" stroke-linecap="square" stroke-linejoin="bevel" transform="matrix(1,0,0,1,8,4)"
font-family="MS Shell Dlg 2" font-size="8.25" font-weight="400" font-style="normal"
>
</g>

<g fill="none" stroke="#000000" stroke-opacity="1" stroke-width="1" stroke-linecap="square" stroke-linejoin="bevel" transform="matrix(1,0,0,1,16,12)"
font-family="MS Shell Dlg 2" font-size="8.25" font-weight="400" font-style="normal"
>
</g>

<g fill="#272727" fill-opacity="1" stroke="#000000" stroke-opacity="0" stroke-width="1" stroke-linecap="square" stroke-linejoin="bevel" transform="matrix(1,0,0,1,16,12)"
font-family="MS Shell Dlg 2" font-size="8.25" font-weight="400" font-style="normal"
>
<circle cx="0" cy="0" r="3"/>
</g>

<g fill="none" stroke="#272727" stroke-opacity="1" stroke-width="1" stroke-linecap="square" stroke-linejoin="bevel" transform="matrix(1,0,0,1,16,12)"
font-family="MS Shell Dlg 2" font-size="8.25" font-weight="400" font-style="normal"
>
<path vector-effect="none" fill-rule="evenodd" d="M4,0 C4,-2.20914 2.20914,-4 0,-4 C-2.20914,-4 -4,-2.20914 -4,0 C-4,2.20914 -2.20914,4 0,4 "/>
</g>

<g fill="none" stroke="#000000" stroke-opacity="1" stroke-width="1" stroke-linecap="square" stroke-linejoin="bevel" transform="matrix(1,0,0,1,16,12)"
font-family="MS Shell Dlg 2" font-size="8.25" font-weight="400" font-style="normal"
>
</g>

<g fill="none" stroke="#000000" stroke-opacity="1" stroke-width="1" stroke-linecap="square" stroke-linejoin="bevel" transform="matrix(1,0,0,1,0,0)"
font-family="MS Shell Dlg 2" font-size="8.25" font-weight="400" font-style="normal"
>
</g>
</g>
</svg>
