<?xml version="1.0" encoding="UTF-8"?>
<!DOCTYPE svg PUBLIC "-//W3C//DTD SVG 1.1//EN" "http://www.w3.org/Graphics/SVG/1.1/DTD/svg11.dtd">
<!-- Creator: CorelDRAW -->
<svg xmlns="http://www.w3.org/2000/svg" xml:space="preserve" width="6.77083in" height="6.24999in" version="1.1" style="shape-rendering:geometricPrecision; text-rendering:geometricPrecision; image-rendering:optimizeQuality; fill-rule:evenodd; clip-rule:evenodd"
viewBox="0 0 6770.83 6249.99"
 xmlns:xlink="http://www.w3.org/1999/xlink"
 xmlns:xodm="http://www.corel.com/coreldraw/odm/2003">
 <defs>
  <style type="text/css">
   <![CDATA[
    .str0 {stroke:black;stroke-width:10.41;stroke-miterlimit:2.61313}
    .str1 {stroke:#373435;stroke-width:6.94;stroke-miterlimit:2.61313}
    .fil2 {fill:none}
    .fil3 {fill:#E9E9E9}
    .fil4 {fill:#D4D4D3}
    .fil0 {fill:black}
    .fil1 {fill:#383737}
   ]]>
  </style>
 </defs>
 <g id="Layer_x0020_1">
  <metadata id="CorelCorpID_0Corel-Layer"/>
  <rect class="fil0 str0" x="157.31" y="44.76" width="6444.05" height="6105.57" rx="496.44" ry="454.21"/>
  <rect class="fil1 str0" x="512.52" y="391.7" width="5758.54" height="5492.76"/>
  <polygon class="fil0 str0" points="3463.96,506.39 3591.89,1899.99 4008.38,563.31 3842.19,1952.9 4529,731.55 4075.93,2056.41 5003.07,1003.75 4282.94,2205.98 5409.89,1368.04 4454.15,2395.08 5731.66,1808.48 4582.1,2615.47 5954.31,2305.83 4661.17,2857.48 6068.11,2838.36 4687.92,3110.56 6068.13,3382.76 4661.17,3363.64 5954.31,3915.29 4582.1,3605.65 5731.66,4412.65 4454.15,3826.04 5409.89,4853.09 4282.94,4015.15 5003.07,5217.37 4075.93,4164.72 4529,5489.57 3842.19,4268.22 4008.38,5657.81 3591.91,4321.13 3463.96,5714.73 3336.03,4321.13 2919.54,5657.81 3085.74,4268.22 2398.92,5489.57 2851.99,4164.72 1924.85,5217.37 2644.98,4015.15 1518.03,4853.09 2473.77,3826.04 1196.26,4412.65 2345.82,3605.65 973.61,3915.29 2266.76,3363.64 859.81,3382.76 2240,3110.56 859.79,2838.36 2266.76,2857.48 973.61,2305.83 2345.82,2615.47 1196.26,1808.48 2473.77,2395.08 1518.03,1368.04 2644.98,2205.98 1924.85,1003.75 2851.99,2056.41 2398.92,731.55 3085.74,1952.9 2919.54,563.31 3336.01,1899.99 "/>
  <g id="_2198356270112">
   <path class="fil2 str0" d="M3486.19 740.42c1292.43,0 2340.15,1047.72 2340.15,2340.15 0,1292.43 -1047.72,2340.15 -2340.15,2340.15 -1292.43,0 -2340.15,-1047.72 -2340.15,-2340.15 0,-1292.43 1047.72,-2340.15 2340.15,-2340.15z"/>
  </g>
  <circle class="fil2 str0" cx="3486.19" cy="3080.57" r="1197.92"/>
  <path class="fil3 str1" d="M2288.28 3080.57c0,-661.59 536.33,-1197.92 1197.92,-1197.92 661.59,0 1197.92,536.32 1197.92,1197.92 0,661.59 -536.33,1197.92 -1197.92,1197.92 -661.59,0 -1197.92,-536.32 -1197.92,-1197.92zm3538.07 0c0,-1292.43 -1047.72,-2340.15 -2340.15,-2340.15 -1292.43,0 -2340.15,1047.72 -2340.15,2340.15 0,1292.43 1047.72,2340.15 2340.15,2340.15 1292.43,0 2340.15,-1047.72 2340.15,-2340.15z"/>
  <path class="fil4 str1" d="M3486.19 1882.65c-661.59,0 -1197.92,536.32 -1197.92,1197.92 0,661.59 536.33,1197.92 1197.92,1197.92 661.59,0 1197.92,-536.32 1197.92,-1197.92 0,-661.59 -536.33,-1197.92 -1197.92,-1197.92z"/>
  <polygon class="fil0 str0" points="6065.52,526.66 6110.27,551.65 6155.03,576.64 6155.03,626.63 6155.03,676.62 6110.27,701.61 6065.52,726.61 6020.76,701.61 5976,676.62 5976,626.63 5976,576.64 6020.76,551.65 "/>
  <polygon class="fil0 str0" points="6117.62,5602.94 6162.37,5627.93 6207.13,5652.93 6207.13,5702.91 6207.13,5752.91 6162.37,5777.9 6117.62,5802.89 6072.86,5777.9 6028.11,5752.91 6028.11,5702.91 6028.11,5652.93 6072.86,5627.93 "/>
  <polygon class="fil0 str0" points="773.19,506.99 817.94,531.98 862.7,556.98 862.7,606.96 862.7,656.96 817.94,681.95 773.19,706.94 728.43,681.95 683.68,656.96 683.68,606.96 683.68,556.98 728.43,531.98 "/>
  <polygon class="fil0 str0" points="765.89,5571.33 810.65,5596.32 855.4,5621.31 855.4,5671.3 855.4,5721.29 810.65,5746.28 765.89,5771.28 721.13,5746.28 676.38,5721.29 676.38,5671.3 676.38,5621.31 721.13,5596.32 "/>
 </g>
</svg>
