<?xml version="1.0" encoding="UTF-8"?>
<!DOCTYPE svg PUBLIC "-//W3C//DTD SVG 1.1//EN" "http://www.w3.org/Graphics/SVG/1.1/DTD/svg11.dtd">
<!-- Creator: CorelDRAW -->
<svg xmlns="http://www.w3.org/2000/svg" xml:space="preserve" width="4.99999in" height="5.72917in" version="1.1" style="shape-rendering:geometricPrecision; text-rendering:geometricPrecision; image-rendering:optimizeQuality; fill-rule:evenodd; clip-rule:evenodd"
viewBox="0 0 4999.99 5729.17"
 xmlns:xlink="http://www.w3.org/1999/xlink"
 xmlns:xodm="http://www.corel.com/coreldraw/odm/2003">
 <defs>
  <style type="text/css">
   <![CDATA[
    .str0 {stroke:black;stroke-width:10.41;stroke-miterlimit:2.61313}
    .fil2 {fill:black}
    .fil1 {fill:#454444}
    .fil5 {fill:#4A4949}
    .fil3 {fill:#4D4D4D}
    .fil4 {fill:#666666}
    .fil0 {fill:gray}
   ]]>
  </style>
 </defs>
 <g id="Layer_x0020_1">
  <metadata id="CorelCorpID_0Corel-Layer"/>
  <rect class="fil0 str0" x="2809.54" y="3708.64" width="1875.41" height="575.76"/>
  <rect class="fil1 str0" x="1393.13" y="122.59" width="1996.03" height="1996.03" rx="359.3" ry="439.14"/>
  <rect class="fil2 str0" x="1194.41" y="702.83" width="198.72" height="600.21"/>
  <rect class="fil0 str0" x="346.3" y="3033.42" width="1875.41" height="575.76"/>
  <rect class="fil3 str0" x="141.57" y="2914.5" width="228.02" height="838"/>
  <rect class="fil4 str0" x="1604.85" y="2325.69" width="1681.69" height="207.06"/>
  <rect class="fil2 str0" x="2066.61" y="2118.64" width="678.38" height="207.06"/>
  <rect class="fil5 str0" x="141.57" y="4141.55" width="228.02" height="838"/>
  <rect class="fil0 str0" x="367.9" y="4281.24" width="1875.41" height="575.76"/>
  <rect class="fil1 str0" x="1083.65" y="2536.61" width="2666.95" height="2942.23" rx="392.06" ry="528.65"/>
  <rect class="fil5 str0" x="4679.14" y="3563.55" width="228.02" height="838"/>
  <circle class="fil2 str0" cx="1555.02" cy="3283.54" r="78.12"/>
  <circle class="fil2 str0" cx="1555.02" cy="3283.54" r="78.12"/>
  <circle class="fil2 str0" cx="1550.67" cy="4597.28" r="78.12"/>
  <circle class="fil2 str0" cx="3394.07" cy="4014.96" r="78.12"/>
 </g>
</svg>
