<?xml version="1.0" encoding="UTF-8"?>
<!DOCTYPE svg PUBLIC "-//W3C//DTD SVG 1.1//EN" "http://www.w3.org/Graphics/SVG/1.1/DTD/svg11.dtd">
<!-- Creator: CorelDRAW -->
<svg xmlns="http://www.w3.org/2000/svg" xml:space="preserve" width="2.08333in" height="3.51041in" version="1.1" style="shape-rendering:geometricPrecision; text-rendering:geometricPrecision; image-rendering:optimizeQuality; fill-rule:evenodd; clip-rule:evenodd"
viewBox="0 0 2083.33 3510.41"
 xmlns:xlink="http://www.w3.org/1999/xlink"
 xmlns:xodm="http://www.corel.com/coreldraw/odm/2003">
 <defs>
  <style type="text/css">
   <![CDATA[
    .str0 {stroke:black;stroke-width:10.41;stroke-miterlimit:2.61313}
    .str1 {stroke:black;stroke-width:20.83;stroke-miterlimit:2.61313}
    .fil0 {fill:none}
    .fil1 {fill:#999999}
   ]]>
  </style>
 </defs>
 <g id="Layer_x0020_1">
  <metadata id="CorelCorpID_0Corel-Layer"/>
  <rect class="fil0 str0" x="-6.31" y="295.05" width="2083.33" height="2803.26"/>
  <line class="fil0 str1" x1="1419.44" y1="406.36" x2="2011.46" y2= "406.36" />
  <line class="fil0 str1" x1="1731.91" y1="510.53" x2="2011.46" y2= "510.53" />
  <line class="fil0 str1" x1="1731.91" y1="614.69" x2="2011.46" y2= "614.69" />
  <line class="fil0 str1" x1="1731.91" y1="718.86" x2="2011.46" y2= "718.86" />
  <line class="fil0 str1" x1="1731.91" y1="823.02" x2="2011.46" y2= "823.02" />
  <line class="fil0 str1" x1="1731.91" y1="823.02" x2="2011.46" y2= "823.02" />
  <line class="fil0 str1" x1="1419.44" y1="927.19" x2="2011.46" y2= "927.19" />
  <line class="fil0 str1" x1="1731.91" y1="1031.35" x2="2011.46" y2= "1031.35" />
  <line class="fil0 str1" x1="1731.91" y1="1135.52" x2="2011.46" y2= "1135.52" />
  <line class="fil0 str1" x1="1731.91" y1="1239.69" x2="2011.46" y2= "1239.69" />
  <line class="fil0 str1" x1="1731.91" y1="1343.85" x2="2011.46" y2= "1343.85" />
  <line class="fil0 str1" x1="1731.91" y1="1343.85" x2="2011.46" y2= "1343.85" />
  <line class="fil0 str1" x1="1419.44" y1="1448.02" x2="2011.46" y2= "1448.02" />
  <line class="fil0 str1" x1="1731.91" y1="1552.18" x2="2011.46" y2= "1552.18" />
  <line class="fil0 str1" x1="1731.91" y1="1656.35" x2="2011.46" y2= "1656.35" />
  <line class="fil0 str1" x1="1731.91" y1="1760.51" x2="2011.46" y2= "1760.51" />
  <line class="fil0 str1" x1="1731.91" y1="1864.68" x2="2011.46" y2= "1864.68" />
  <line class="fil0 str1" x1="1731.91" y1="1864.68" x2="2011.46" y2= "1864.68" />
  <line class="fil0 str1" x1="1419.44" y1="1968.84" x2="2011.46" y2= "1968.84" />
  <line class="fil0 str1" x1="1731.91" y1="2073.01" x2="2011.46" y2= "2073.01" />
  <line class="fil0 str1" x1="1731.91" y1="2177.17" x2="2011.46" y2= "2177.17" />
  <line class="fil0 str1" x1="1731.91" y1="2281.34" x2="2011.46" y2= "2281.34" />
  <line class="fil0 str1" x1="1731.91" y1="2385.5" x2="2011.46" y2= "2385.5" />
  <line class="fil0 str1" x1="1731.91" y1="2385.5" x2="2011.46" y2= "2385.5" />
  <line class="fil0 str1" x1="1419.44" y1="2489.67" x2="2011.46" y2= "2489.67" />
  <line class="fil0 str1" x1="1731.91" y1="2593.83" x2="2011.46" y2= "2593.83" />
  <line class="fil0 str1" x1="1731.91" y1="2698" x2="2011.46" y2= "2698" />
  <line class="fil0 str1" x1="1731.91" y1="2802.17" x2="2011.46" y2= "2802.17" />
  <line class="fil0 str1" x1="1731.91" y1="2906.33" x2="2011.46" y2= "2906.33" />
  <line class="fil0 str1" x1="1731.91" y1="2906.33" x2="2011.46" y2= "2906.33" />
  <path class="fil1 str0" d="M-6.3 3098.31l2083.34 0 0 292.81c0,68.75 -56.25,125 -125,125l-1833.34 0c-68.75,0 -125,-56.25 -125,-125l0 -292.81z"/>
  <path class="fil1 str0" d="M118.7 15.13l1833.34 0c68.75,0 125,56.25 125,125l0 154.93 -2083.34 0 0 -154.93c0,-68.75 56.25,-125 125,-125z"/>
 </g>
</svg>
