<?xml version="1.0" encoding="UTF-8"?>
<!DOCTYPE svg PUBLIC "-//W3C//DTD SVG 1.1//EN" "http://www.w3.org/Graphics/SVG/1.1/DTD/svg11.dtd">
<!-- Creator: CorelDRAW -->
<svg xmlns="http://www.w3.org/2000/svg" xml:space="preserve" width="3.54166in" height="0.729165in" version="1.1" style="shape-rendering:geometricPrecision; text-rendering:geometricPrecision; image-rendering:optimizeQuality; fill-rule:evenodd; clip-rule:evenodd"
viewBox="0 0 3541.66 729.17"
 xmlns:xlink="http://www.w3.org/1999/xlink"
 xmlns:xodm="http://www.corel.com/coreldraw/odm/2003">
 <defs>
  <style type="text/css">
   <![CDATA[
    .str0 {stroke:black;stroke-width:10.41;stroke-miterlimit:2.61313}
    .str1 {stroke:black;stroke-width:41.67;stroke-miterlimit:2.61313}
    .fil0 {fill:none}
    .fil3 {fill:none;fill-rule:nonzero}
    .fil1 {fill:black}
    .fil2 {fill:black;fill-rule:nonzero}
   ]]>
  </style>
 </defs>
 <g id="Layer_x0020_1">
  <metadata id="CorelCorpID_0Corel-Layer"/>
  <rect class="fil0 str0" x="-2.75" y="9.13" width="3530.1" height="543.05"/>
  <rect class="fil1 str0" x="225.53" y="552.18" width="1104" height="169.38"/>
  <rect class="fil1 str0" x="2204.68" y="552.18" width="1104" height="169.38"/>
  <path class="fil2" d="M1277.61 454.68l0 -348.06 119.91 0c27.06,0 47.72,1.62 61.98,4.94 19.93,4.62 36.94,12.96 51.04,24.96 18.39,15.56 32.08,35.32 41.16,59.46 9.15,24.15 13.69,51.77 13.69,82.8 0,26.41 -3.08,49.83 -9.24,70.24 -6.16,20.42 -14.1,37.35 -23.74,50.72 -9.72,13.37 -20.25,23.9 -31.76,31.52 -11.42,7.7 -25.28,13.53 -41.48,17.5 -16.28,3.97 -34.92,5.91 -55.98,5.91l-125.58 0zm46.18 -40.83l74.21 0c22.93,0 40.91,-2.11 53.96,-6.4 13.04,-4.3 23.41,-10.29 31.19,-18.07 10.86,-10.94 19.37,-25.69 25.44,-44.16 6.08,-18.47 9.16,-40.83 9.16,-67.16 0,-36.46 -6,-64.49 -17.91,-84.1 -11.91,-19.61 -26.41,-32.73 -43.51,-39.37 -12.31,-4.78 -32.17,-7.13 -59.55,-7.13l-73 0 0 266.39z"/>
  <path id="_1" class="fil2" d="M1590.5 454.68l133.52 -348.06 50.64 0 141.78 348.06 -52.5 0 -40.27 -105.48 -146.56 0 -37.75 105.48 -48.85 0zm100.14 -142.92l118.61 0 -36.3 -96.49c-10.94,-29.33 -19.2,-53.55 -24.95,-72.67 -4.78,22.69 -11.18,44.96 -19.2,67l-38.16 102.16z"/>
  <path id="_2" class="fil2" d="M2200.81 332.58l46.18 11.67c-9.64,37.84 -26.98,66.6 -52.02,86.45 -25.03,19.85 -55.66,29.81 -91.87,29.81 -37.43,0 -67.89,-7.62 -91.39,-22.93 -23.49,-15.23 -41.32,-37.35 -53.55,-66.27 -12.23,-29.01 -18.39,-60.04 -18.39,-93.25 0,-36.22 6.89,-67.81 20.74,-94.8 13.85,-26.98 33.54,-47.48 59.06,-61.49 25.52,-14.02 53.63,-20.98 84.26,-20.98 34.84,0 64.09,8.83 87.74,26.57 23.74,17.74 40.27,42.62 49.58,74.7l-45.21 10.69c-8.02,-25.28 -19.77,-43.75 -35.08,-55.26 -15.31,-11.58 -34.59,-17.33 -57.85,-17.33 -26.66,0 -49.02,6.4 -66.92,19.2 -17.91,12.8 -30.55,30.06 -37.76,51.61 -7.29,21.63 -10.94,43.91 -10.94,66.84 0,29.57 4.3,55.42 12.88,77.45 8.59,22.12 21.96,38.56 40.1,49.5 18.15,10.94 37.76,16.36 58.9,16.36 25.76,0 47.48,-7.45 65.3,-22.28 17.83,-14.91 29.9,-36.94 36.22,-66.27z"/>
  <path id="_3" class="fil3 str1" d="M1277.61 454.68l0 -348.06 119.91 0c27.06,0 47.72,1.62 61.98,4.94 19.93,4.62 36.94,12.96 51.04,24.96 18.39,15.56 32.08,35.32 41.16,59.46 9.15,24.15 13.69,51.77 13.69,82.8 0,26.41 -3.08,49.83 -9.24,70.24 -6.16,20.42 -14.1,37.35 -23.74,50.72 -9.72,13.37 -20.25,23.9 -31.76,31.52 -11.42,7.7 -25.28,13.53 -41.48,17.5 -16.28,3.97 -34.92,5.91 -55.98,5.91l-125.58 0zm46.18 -40.83l74.21 0c22.93,0 40.91,-2.11 53.96,-6.4 13.04,-4.3 23.41,-10.29 31.19,-18.07 10.86,-10.94 19.37,-25.69 25.44,-44.16 6.08,-18.47 9.16,-40.83 9.16,-67.16 0,-36.46 -6,-64.49 -17.91,-84.1 -11.91,-19.61 -26.41,-32.73 -43.51,-39.37 -12.31,-4.78 -32.17,-7.13 -59.55,-7.13l-73 0 0 266.39z"/>
  <path id="_4" class="fil3 str1" d="M1590.5 454.68l133.52 -348.06 50.64 0 141.78 348.06 -52.5 0 -40.27 -105.48 -146.56 0 -37.75 105.48 -48.85 0zm100.14 -142.92l118.61 0 -36.3 -96.49c-10.94,-29.33 -19.2,-53.55 -24.95,-72.67 -4.78,22.69 -11.18,44.96 -19.2,67l-38.16 102.16z"/>
  <path id="_5" class="fil3 str1" d="M2200.81 332.58l46.18 11.67c-9.64,37.84 -26.98,66.6 -52.02,86.45 -25.03,19.85 -55.66,29.81 -91.87,29.81 -37.43,0 -67.89,-7.62 -91.39,-22.93 -23.49,-15.23 -41.32,-37.35 -53.55,-66.27 -12.23,-29.01 -18.39,-60.04 -18.39,-93.25 0,-36.22 6.89,-67.81 20.74,-94.8 13.85,-26.98 33.54,-47.48 59.06,-61.49 25.52,-14.02 53.63,-20.98 84.26,-20.98 34.84,0 64.09,8.83 87.74,26.57 23.74,17.74 40.27,42.62 49.58,74.7l-45.21 10.69c-8.02,-25.28 -19.77,-43.75 -35.08,-55.26 -15.31,-11.58 -34.59,-17.33 -57.85,-17.33 -26.66,0 -49.02,6.4 -66.92,19.2 -17.91,12.8 -30.55,30.06 -37.76,51.61 -7.29,21.63 -10.94,43.91 -10.94,66.84 0,29.57 4.3,55.42 12.88,77.45 8.59,22.12 21.96,38.56 40.1,49.5 18.15,10.94 37.76,16.36 58.9,16.36 25.76,0 47.48,-7.45 65.3,-22.28 17.83,-14.91 29.9,-36.94 36.22,-66.27z"/>
 </g>
</svg>
