<?xml version="1.0" encoding="UTF-8" standalone="no"?>
<svg width="35.9833mm" height="26.4583mm"
 viewBox="0 0 102 74.069"
 xmlns="http://www.w3.org/2000/svg" xmlns:xlink="http://www.w3.org/1999/xlink"  version="1.2" baseProfile="tiny">
<title>FlowReactor</title>
<desc>Chemunited component figure exported without name or port labels.</desc>
<defs>
</defs>
<g fill="none" stroke="black" stroke-width="1" fill-rule="evenodd" stroke-linecap="square" stroke-linejoin="bevel" >

<g fill="none" stroke="#000000" stroke-opacity="1" stroke-width="1" stroke-linecap="square" stroke-linejoin="bevel" transform="matrix(1,0,0,1,0,0)"
font-family="MS Shell Dlg 2" font-size="8.25" font-weight="400" font-style="normal"
>
</g>

<g fill="none" stroke="#000000" stroke-opacity="1" stroke-width="1" stroke-linecap="square" stroke-linejoin="bevel" transform="matrix(1,0,0,1,0,0)"
font-family="MS Shell Dlg 2" font-size="8.25" font-weight="400" font-style="normal"
>
</g>

<g fill="none" stroke="#000000" stroke-opacity="1" stroke-width="1" stroke-linecap="square" stroke-linejoin="bevel" transform="matrix(0,0.344828,-0.344828,0,101,1)"
font-family="MS Shell Dlg 2" font-size="8.25" font-weight="400" font-style="normal"
>
</g>

<g fill="#00d5ff" fill-opacity="1" stroke="none" transform="matrix(0,0.0310253,-0.0309677,0,101,1)"
font-family="MS Shell Dlg 2" font-size="8.25" font-weight="400" font-style="normal"
opacity="0.2" >
<path vector-effect="none" fill-rule="evenodd" d="M130.3,1.3 L2199.69,1.3 C2268.44,1.3 2324.69,57.55 2324.69,126.3 L2324.69,3091.45 C2324.69,3160.2 2268.44,3216.45 2199.69,3216.45 L130.3,3216.45 C61.55,3216.45 5.3,3160.2 5.3,3091.45 L5.3,126.3 C5.3,57.55 61.55,1.3 130.3,1.3 "/>
</g>

<g fill="none" stroke="#000000" stroke-opacity="1" stroke-width="10.41" stroke-linecap="butt" stroke-linejoin="miter" stroke-miterlimit="2.61313" transform="matrix(0,0.0310253,-0.0309677,0,101,1)"
font-family="MS Shell Dlg 2" font-size="8.25" font-weight="400" font-style="normal"
opacity="0.2" >
<path vector-effect="none" fill-rule="evenodd" d="M130.3,1.3 L2199.69,1.3 C2268.44,1.3 2324.69,57.55 2324.69,126.3 L2324.69,3091.45 C2324.69,3160.2 2268.44,3216.45 2199.69,3216.45 L130.3,3216.45 C61.55,3216.45 5.3,3160.2 5.3,3091.45 L5.3,126.3 C5.3,57.55 61.55,1.3 130.3,1.3 "/>
</g>

<g fill="none" stroke="#000000" stroke-opacity="1" stroke-width="1" stroke-linecap="square" stroke-linejoin="bevel" transform="matrix(0,0.344828,-0.344828,0,101,1)"
font-family="MS Shell Dlg 2" font-size="8.25" font-weight="400" font-style="normal"
>
</g>

<g fill="none" stroke="#000000" stroke-opacity="1" stroke-width="1" stroke-linecap="square" stroke-linejoin="bevel" transform="matrix(1,0,0,1,0,0)"
font-family="MS Shell Dlg 2" font-size="8.25" font-weight="400" font-style="normal"
>
</g>

<g fill="none" stroke="#000000" stroke-opacity="1" stroke-width="1" stroke-linecap="square" stroke-linejoin="bevel" transform="matrix(0.344828,0,0,0.344828,1,1)"
font-family="MS Shell Dlg 2" font-size="8.25" font-weight="400" font-style="normal"
>
</g>

<g fill="#e8e8e8" fill-opacity="1" stroke="none" transform="matrix(0.0309677,0,0,0.0310253,1,1)"
font-family="MS Shell Dlg 2" font-size="8.25" font-weight="400" font-style="normal"
opacity="0.501961" >
<path vector-effect="none" fill-rule="evenodd" d="M149.83,1963.55 L149.83,365.72 L337.32,178.22 L2892.99,178.22 L3080.48,365.72 L3080.48,1963.55 L2892.99,2151.04 L337.32,2151.04 L149.83,1963.55"/>
</g>

<g fill="none" stroke="#000000" stroke-opacity="1" stroke-width="10.41" stroke-linecap="butt" stroke-linejoin="miter" stroke-miterlimit="2.61313" transform="matrix(0.0309677,0,0,0.0310253,1,1)"
font-family="MS Shell Dlg 2" font-size="8.25" font-weight="400" font-style="normal"
opacity="0.501961" >
<path vector-effect="none" fill-rule="evenodd" d="M149.83,1963.55 L149.83,365.72 L337.32,178.22 L2892.99,178.22 L3080.48,365.72 L3080.48,1963.55 L2892.99,2151.04 L337.32,2151.04 L149.83,1963.55"/>
</g>

<g fill="none" stroke="#000000" stroke-opacity="1" stroke-width="1" stroke-linecap="square" stroke-linejoin="bevel" transform="matrix(0.344828,0,0,0.344828,1,1)"
font-family="MS Shell Dlg 2" font-size="8.25" font-weight="400" font-style="normal"
>
</g>

<g fill="none" stroke="#000000" stroke-opacity="1" stroke-width="1" stroke-linecap="square" stroke-linejoin="bevel" transform="matrix(1,0,0,1,0,0)"
font-family="MS Shell Dlg 2" font-size="8.25" font-weight="400" font-style="normal"
>
</g>

<g fill="none" stroke="#000000" stroke-opacity="1" stroke-width="5" stroke-linecap="round" stroke-linejoin="round" transform="matrix(1,0,0,1,9,17.0345)"
font-family="MS Shell Dlg 2" font-size="8.25" font-weight="400" font-style="normal"
>
<path vector-effect="none" fill-rule="evenodd" d="M-3,1.83697e-16 L-2.99384,-0.192211 L-2.97537,-0.383631 L-2.94468,-0.573476 L-2.90188,-0.760964 L-2.84717,-0.945325 L-2.78075,-1.1258 L-2.70291,-1.30165 L-2.61396,-1.47215 L-2.51426,-1.6366 L-2.40424,-1.79433 L-2.28434,-1.94469 L-2.15505,-2.08705 L-2.0169,-2.22083 L-1.87047,-2.34549 L-1.71635,-2.46052 L-1.55518,-2.56543 L-1.38761,-2.6598 L-1.21435,-2.74324 L-1.0361,-2.81541 L-0.853583,-2.876 L-0.667563,-2.92478 L-0.4788,-2.96155 L-0.288069,-2.98614 L-0.0961547,-2.99846 L0.0961547,-2.99846 L0.288069,-2.98614 L0.4788,-2.96155 L0.667563,-2.92478 L0.853583,-2.876 L1.0361,-2.81541 L1.21435,-2.74324 L1.38761,-2.6598 L1.55518,-2.56543 L1.71635,-2.46052 L1.87047,-2.34549 L2.0169,-2.22083 L2.15505,-2.08705 L2.28434,-1.94469 L2.40424,-1.79433 L2.51426,-1.6366 L2.61396,-1.47215 L2.70291,-1.30165 L2.78075,-1.1258 L2.84717,-0.945325 L2.90188,-0.760964 L2.94468,-0.573476 L2.97537,-0.383631 L2.99384,-0.192211 L3,-5.51091e-16 L3,40 L3.00616,40.1922 L3.02463,40.3836 L3.05532,40.5735 L3.09812,40.761 L3.15283,40.9453 L3.21925,41.1258 L3.29709,41.3017 L3.38604,41.4722 L3.48574,41.6366 L3.59576,41.7943 L3.71566,41.9447 L3.84495,42.087 L3.9831,42.2208 L4.12953,42.3455 L4.28365,42.4605 L4.44482,42.5654 L4.61239,42.6598 L4.78565,42.7432 L4.9639,42.8154 L5.14642,42.876 L5.33244,42.9248 L5.5212,42.9615 L5.71193,42.9861 L5.90385,42.9985 L6.09615,42.9985 L6.28807,42.9861 L6.4788,42.9615 L6.66756,42.9248 L6.85358,42.876 L7.0361,42.8154 L7.21435,42.7432 L7.38761,42.6598 L7.55518,42.5654 L7.71635,42.4605 L7.87047,42.3455 L8.0169,42.2208 L8.15505,42.087 L8.28434,41.9447 L8.40424,41.7943 L8.51426,41.6366 L8.61396,41.4722 L8.70291,41.3017 L8.78075,41.1258 L8.84717,40.9453 L8.90188,40.761 L8.94468,40.5735 L8.97537,40.3836 L8.99384,40.1922 L9,40 L9,1.83697e-16 L9.00616,-0.192211 L9.02463,-0.383631 L9.05532,-0.573476 L9.09812,-0.760964 L9.15283,-0.945325 L9.21925,-1.1258 L9.29709,-1.30165 L9.38604,-1.47215 L9.48574,-1.6366 L9.59576,-1.79433 L9.71566,-1.94469 L9.84495,-2.08705 L9.9831,-2.22083 L10.1295,-2.34549 L10.2837,-2.46052 L10.4448,-2.56543 L10.6124,-2.6598 L10.7856,-2.74324 L10.9639,-2.81541 L11.1464,-2.876 L11.3324,-2.92478 L11.5212,-2.96155 L11.7119,-2.98614 L11.9038,-2.99846 L12.0962,-2.99846 L12.2881,-2.98614 L12.4788,-2.96155 L12.6676,-2.92478 L12.8536,-2.876 L13.0361,-2.81541 L13.2144,-2.74324 L13.3876,-2.6598 L13.5552,-2.56543 L13.7163,-2.46052 L13.8705,-2.34549 L14.0169,-2.22083 L14.155,-2.08705 L14.2843,-1.94469 L14.4042,-1.79433 L14.5143,-1.6366 L14.614,-1.47215 L14.7029,-1.30165 L14.7808,-1.1258 L14.8472,-0.945325 L14.9019,-0.760964 L14.9447,-0.573476 L14.9754,-0.383631 L14.9938,-0.192211 L15,-5.51091e-16 L15,40 L15.0062,40.1922 L15.0246,40.3836 L15.0553,40.5735 L15.0981,40.761 L15.1528,40.9453 L15.2192,41.1258 L15.2971,41.3017 L15.386,41.4722 L15.4857,41.6366 L15.5958,41.7943 L15.7157,41.9447 L15.845,42.087 L15.9831,42.2208 L16.1295,42.3455 L16.2837,42.4605 L16.4448,42.5654 L16.6124,42.6598 L16.7856,42.7432 L16.9639,42.8154 L17.1464,42.876 L17.3324,42.9248 L17.5212,42.9615 L17.7119,42.9861 L17.9038,42.9985 L18.0962,42.9985 L18.2881,42.9861 L18.4788,42.9615 L18.6676,42.9248 L18.8536,42.876 L19.0361,42.8154 L19.2144,42.7432 L19.3876,42.6598 L19.5552,42.5654 L19.7163,42.4605 L19.8705,42.3455 L20.0169,42.2208 L20.155,42.087 L20.2843,41.9447 L20.4042,41.7943 L20.5143,41.6366 L20.614,41.4722 L20.7029,41.3017 L20.7808,41.1258 L20.8472,40.9453 L20.9019,40.761 L20.9447,40.5735 L20.9754,40.3836 L20.9938,40.1922 L21,40 L21,1.83697e-16 L21.0062,-0.192211 L21.0246,-0.383631 L21.0553,-0.573476 L21.0981,-0.760964 L21.1528,-0.945325 L21.2192,-1.1258 L21.2971,-1.30165 L21.386,-1.47215 L21.4857,-1.6366 L21.5958,-1.79433 L21.7157,-1.94469 L21.845,-2.08705 L21.9831,-2.22083 L22.1295,-2.34549 L22.2837,-2.46052 L22.4448,-2.56543 L22.6124,-2.6598 L22.7856,-2.74324 L22.9639,-2.81541 L23.1464,-2.876 L23.3324,-2.92478 L23.5212,-2.96155 L23.7119,-2.98614 L23.9038,-2.99846 L24.0962,-2.99846 L24.2881,-2.98614 L24.4788,-2.96155 L24.6676,-2.92478 L24.8536,-2.876 L25.0361,-2.81541 L25.2144,-2.74324 L25.3876,-2.6598 L25.5552,-2.56543 L25.7163,-2.46052 L25.8705,-2.34549 L26.0169,-2.22083 L26.155,-2.08705 L26.2843,-1.94469 L26.4042,-1.79433 L26.5143,-1.6366 L26.614,-1.47215 L26.7029,-1.30165 L26.7808,-1.1258 L26.8472,-0.945325 L26.9019,-0.760964 L26.9447,-0.573476 L26.9754,-0.383631 L26.9938,-0.192211 L27,-5.51091e-16 L27,40 L27.0062,40.1922 L27.0246,40.3836 L27.0553,40.5735 L27.0981,40.761 L27.1528,40.9453 L27.2192,41.1258 L27.2971,41.3017 L27.386,41.4722 L27.4857,41.6366 L27.5958,41.7943 L27.7157,41.9447 L27.845,42.087 L27.9831,42.2208 L28.1295,42.3455 L28.2837,42.4605 L28.4448,42.5654 L28.6124,42.6598 L28.7856,42.7432 L28.9639,42.8154 L29.1464,42.876 L29.3324,42.9248 L29.5212,42.9615 L29.7119,42.9861 L29.9038,42.9985 L30.0962,42.9985 L30.2881,42.9861 L30.4788,42.9615 L30.6676,42.9248 L30.8536,42.876 L31.0361,42.8154 L31.2144,42.7432 L31.3876,42.6598 L31.5552,42.5654 L31.7163,42.4605 L31.8705,42.3455 L32.0169,42.2208 L32.155,42.087 L32.2843,41.9447 L32.4042,41.7943 L32.5143,41.6366 L32.614,41.4722 L32.7029,41.3017 L32.7808,41.1258 L32.8472,40.9453 L32.9019,40.761 L32.9447,40.5735 L32.9754,40.3836 L32.9938,40.1922 L33,40 L33,1.83697e-16 L33.0062,-0.192211 L33.0246,-0.383631 L33.0553,-0.573476 L33.0981,-0.760964 L33.1528,-0.945325 L33.2192,-1.1258 L33.2971,-1.30165 L33.386,-1.47215 L33.4857,-1.6366 L33.5958,-1.79433 L33.7157,-1.94469 L33.845,-2.08705 L33.9831,-2.22083 L34.1295,-2.34549 L34.2837,-2.46052 L34.4448,-2.56543 L34.6124,-2.6598 L34.7856,-2.74324 L34.9639,-2.81541 L35.1464,-2.876 L35.3324,-2.92478 L35.5212,-2.96155 L35.7119,-2.98614 L35.9038,-2.99846 L36.0962,-2.99846 L36.2881,-2.98614 L36.4788,-2.96155 L36.6676,-2.92478 L36.8536,-2.876 L37.0361,-2.81541 L37.2144,-2.74324 L37.3876,-2.6598 L37.5552,-2.56543 L37.7163,-2.46052 L37.8705,-2.34549 L38.0169,-2.22083 L38.155,-2.08705 L38.2843,-1.94469 L38.4042,-1.79433 L38.5143,-1.6366 L38.614,-1.47215 L38.7029,-1.30165 L38.7808,-1.1258 L38.8472,-0.945325 L38.9019,-0.760964 L38.9447,-0.573476 L38.9754,-0.383631 L38.9938,-0.192211 L39,-5.51091e-16 L39,40 L39.0062,40.1922 L39.0246,40.3836 L39.0553,40.5735 L39.0981,40.761 L39.1528,40.9453 L39.2192,41.1258 L39.2971,41.3017 L39.386,41.4722 L39.4857,41.6366 L39.5958,41.7943 L39.7157,41.9447 L39.845,42.087 L39.9831,42.2208 L40.1295,42.3455 L40.2837,42.4605 L40.4448,42.5654 L40.6124,42.6598 L40.7856,42.7432 L40.9639,42.8154 L41.1464,42.876 L41.3324,42.9248 L41.5212,42.9615 L41.7119,42.9861 L41.9038,42.9985 L42.0962,42.9985 L42.2881,42.9861 L42.4788,42.9615 L42.6676,42.9248 L42.8536,42.876 L43.0361,42.8154 L43.2144,42.7432 L43.3876,42.6598 L43.5552,42.5654 L43.7163,42.4605 L43.8705,42.3455 L44.0169,42.2208 L44.155,42.087 L44.2843,41.9447 L44.4042,41.7943 L44.5143,41.6366 L44.614,41.4722 L44.7029,41.3017 L44.7808,41.1258 L44.8472,40.9453 L44.9019,40.761 L44.9447,40.5735 L44.9754,40.3836 L44.9938,40.1922 L45,40 L45,1.83697e-16 L45.0062,-0.192211 L45.0246,-0.383631 L45.0553,-0.573476 L45.0981,-0.760964 L45.1528,-0.945325 L45.2192,-1.1258 L45.2971,-1.30165 L45.386,-1.47215 L45.4857,-1.6366 L45.5958,-1.79433 L45.7157,-1.94469 L45.845,-2.08705 L45.9831,-2.22083 L46.1295,-2.34549 L46.2837,-2.46052 L46.4448,-2.56543 L46.6124,-2.6598 L46.7856,-2.74324 L46.9639,-2.81541 L47.1464,-2.876 L47.3324,-2.92478 L47.5212,-2.96155 L47.7119,-2.98614 L47.9038,-2.99846 L48.0962,-2.99846 L48.2881,-2.98614 L48.4788,-2.96155 L48.6676,-2.92478 L48.8536,-2.876 L49.0361,-2.81541 L49.2144,-2.74324 L49.3876,-2.6598 L49.5552,-2.56543 L49.7163,-2.46052 L49.8705,-2.34549 L50.0169,-2.22083 L50.155,-2.08705 L50.2843,-1.94469 L50.4042,-1.79433 L50.5143,-1.6366 L50.614,-1.47215 L50.7029,-1.30165 L50.7808,-1.1258 L50.8472,-0.945325 L50.9019,-0.760964 L50.9447,-0.573476 L50.9754,-0.383631 L50.9938,-0.192211 L51,-5.51091e-16 L51,40 L51.0062,40.1922 L51.0246,40.3836 L51.0553,40.5735 L51.0981,40.761 L51.1528,40.9453 L51.2192,41.1258 L51.2971,41.3017 L51.386,41.4722 L51.4857,41.6366 L51.5958,41.7943 L51.7157,41.9447 L51.845,42.087 L51.9831,42.2208 L52.1295,42.3455 L52.2837,42.4605 L52.4448,42.5654 L52.6124,42.6598 L52.7856,42.7432 L52.9639,42.8154 L53.1464,42.876 L53.3324,42.9248 L53.5212,42.9615 L53.7119,42.9861 L53.9038,42.9985 L54.0962,42.9985 L54.2881,42.9861 L54.4788,42.9615 L54.6676,42.9248 L54.8536,42.876 L55.0361,42.8154 L55.2144,42.7432 L55.3876,42.6598 L55.5552,42.5654 L55.7163,42.4605 L55.8705,42.3455 L56.0169,42.2208 L56.155,42.087 L56.2843,41.9447 L56.4042,41.7943 L56.5143,41.6366 L56.614,41.4722 L56.7029,41.3017 L56.7808,41.1258 L56.8472,40.9453 L56.9019,40.761 L56.9447,40.5735 L56.9754,40.3836 L56.9938,40.1922 L57,40 L57,1.83697e-16 L57.0062,-0.192211 L57.0246,-0.383631 L57.0553,-0.573476 L57.0981,-0.760964 L57.1528,-0.945325 L57.2192,-1.1258 L57.2971,-1.30165 L57.386,-1.47215 L57.4857,-1.6366 L57.5958,-1.79433 L57.7157,-1.94469 L57.845,-2.08705 L57.9831,-2.22083 L58.1295,-2.34549 L58.2837,-2.46052 L58.4448,-2.56543 L58.6124,-2.6598 L58.7856,-2.74324 L58.9639,-2.81541 L59.1464,-2.876 L59.3324,-2.92478 L59.5212,-2.96155 L59.7119,-2.98614 L59.9038,-2.99846 L60.0962,-2.99846 L60.2881,-2.98614 L60.4788,-2.96155 L60.6676,-2.92478 L60.8536,-2.876 L61.0361,-2.81541 L61.2144,-2.74324 L61.3876,-2.6598 L61.5552,-2.56543 L61.7163,-2.46052 L61.8705,-2.34549 L62.0169,-2.22083 L62.155,-2.08705 L62.2843,-1.94469 L62.4042,-1.79433 L62.5143,-1.6366 L62.614,-1.47215 L62.7029,-1.30165 L62.7808,-1.1258 L62.8472,-0.945325 L62.9019,-0.760964 L62.9447,-0.573476 L62.9754,-0.383631 L62.9938,-0.192211 L63,-5.51091e-16 L63,40 L63.0062,40.1922 L63.0246,40.3836 L63.0553,40.5735 L63.0981,40.761 L63.1528,40.9453 L63.2192,41.1258 L63.2971,41.3017 L63.386,41.4722 L63.4857,41.6366 L63.5958,41.7943 L63.7157,41.9447 L63.845,42.087 L63.9831,42.2208 L64.1295,42.3455 L64.2837,42.4605 L64.4448,42.5654 L64.6124,42.6598 L64.7856,42.7432 L64.9639,42.8154 L65.1464,42.876 L65.3324,42.9248 L65.5212,42.9615 L65.7119,42.9861 L65.9038,42.9985 L66.0962,42.9985 L66.2881,42.9861 L66.4788,42.9615 L66.6676,42.9248 L66.8536,42.876 L67.0361,42.8154 L67.2144,42.7432 L67.3876,42.6598 L67.5552,42.5654 L67.7163,42.4605 L67.8705,42.3455 L68.0169,42.2208 L68.155,42.087 L68.2843,41.9447 L68.4042,41.7943 L68.5143,41.6366 L68.614,41.4722 L68.7029,41.3017 L68.7808,41.1258 L68.8472,40.9453 L68.9019,40.761 L68.9447,40.5735 L68.9754,40.3836 L68.9938,40.1922 L69,40 L69,1.83697e-16 L69.0062,-0.192211 L69.0246,-0.383631 L69.0553,-0.573476 L69.0981,-0.760964 L69.1528,-0.945325 L69.2192,-1.1258 L69.2971,-1.30165 L69.386,-1.47215 L69.4857,-1.6366 L69.5958,-1.79433 L69.7157,-1.94469 L69.845,-2.08705 L69.9831,-2.22083 L70.1295,-2.34549 L70.2837,-2.46052 L70.4448,-2.56543 L70.6124,-2.6598 L70.7856,-2.74324 L70.9639,-2.81541 L71.1464,-2.876 L71.3324,-2.92478 L71.5212,-2.96155 L71.7119,-2.98614 L71.9038,-2.99846 L72.0962,-2.99846 L72.2881,-2.98614 L72.4788,-2.96155 L72.6676,-2.92478 L72.8536,-2.876 L73.0361,-2.81541 L73.2144,-2.74324 L73.3876,-2.6598 L73.5552,-2.56543 L73.7163,-2.46052 L73.8705,-2.34549 L74.0169,-2.22083 L74.155,-2.08705 L74.2843,-1.94469 L74.4042,-1.79433 L74.5143,-1.6366 L74.614,-1.47215 L74.7029,-1.30165 L74.7808,-1.1258 L74.8472,-0.945325 L74.9019,-0.760964 L74.9447,-0.573476 L74.9754,-0.383631 L74.9938,-0.192211 L75,-5.51091e-16 L75,40 L75.0062,40.1922 L75.0246,40.3836 L75.0553,40.5735 L75.0981,40.761 L75.1528,40.9453 L75.2192,41.1258 L75.2971,41.3017 L75.386,41.4722 L75.4857,41.6366 L75.5958,41.7943 L75.7157,41.9447 L75.845,42.087 L75.9831,42.2208 L76.1295,42.3455 L76.2837,42.4605 L76.4448,42.5654 L76.6124,42.6598 L76.7856,42.7432 L76.9639,42.8154 L77.1464,42.876 L77.3324,42.9248 L77.5212,42.9615 L77.7119,42.9861 L77.9038,42.9985 L78.0962,42.9985 L78.2881,42.9861 L78.4788,42.9615 L78.6676,42.9248 L78.8536,42.876 L79.0361,42.8154 L79.2144,42.7432 L79.3876,42.6598 L79.5552,42.5654 L79.7163,42.4605 L79.8705,42.3455 L80.0169,42.2208 L80.155,42.087 L80.2843,41.9447 L80.4042,41.7943 L80.5143,41.6366 L80.614,41.4722 L80.7029,41.3017 L80.7808,41.1258 L80.8472,40.9453 L80.9019,40.761 L80.9447,40.5735 L80.9754,40.3836 L80.9938,40.1922 L81,40 L81,1.83697e-16 L81.0062,-0.192211 L81.0246,-0.383631 L81.0553,-0.573476 L81.0981,-0.760964 L81.1528,-0.945325 L81.2192,-1.1258 L81.2971,-1.30165 L81.386,-1.47215 L81.4857,-1.6366 L81.5958,-1.79433 L81.7157,-1.94469 L81.845,-2.08705 L81.9831,-2.22083 L82.1295,-2.34549 L82.2837,-2.46052 L82.4448,-2.56543 L82.6124,-2.6598 L82.7856,-2.74324 L82.9639,-2.81541 L83.1464,-2.876 L83.3324,-2.92478 L83.5212,-2.96155 L83.7119,-2.98614 L83.9038,-2.99846 L84.0962,-2.99846 L84.2881,-2.98614 L84.4788,-2.96155 L84.6676,-2.92478 L84.8536,-2.876 L85.0361,-2.81541 L85.2144,-2.74324 L85.3876,-2.6598 L85.5552,-2.56543 L85.7163,-2.46052 L85.8705,-2.34549 L86.0169,-2.22083 L86.155,-2.08705 L86.2843,-1.94469 L86.4042,-1.79433 L86.5143,-1.6366 L86.614,-1.47215 L86.7029,-1.30165 L86.7808,-1.1258 L86.8472,-0.945325 L86.9019,-0.760964 L86.9447,-0.573476 L86.9754,-0.383631 L86.9938,-0.192211 L87,-5.51091e-16"/>
</g>

<g fill="none" stroke="#000000" stroke-opacity="1" stroke-width="1" stroke-linecap="square" stroke-linejoin="bevel" transform="matrix(1,0,0,1,0,0)"
font-family="MS Shell Dlg 2" font-size="8.25" font-weight="400" font-style="normal"
>
</g>

<g fill="none" stroke="#e8e8e8" stroke-opacity="1" stroke-width="2" stroke-linecap="round" stroke-linejoin="round" transform="matrix(1,0,0,1,9,17.0345)"
font-family="MS Shell Dlg 2" font-size="8.25" font-weight="400" font-style="normal"
>
<path vector-effect="none" fill-rule="evenodd" d="M-3,1.83697e-16 L-2.99384,-0.192211 L-2.97537,-0.383631 L-2.94468,-0.573476 L-2.90188,-0.760964 L-2.84717,-0.945325 L-2.78075,-1.1258 L-2.70291,-1.30165 L-2.61396,-1.47215 L-2.51426,-1.6366 L-2.40424,-1.79433 L-2.28434,-1.94469 L-2.15505,-2.08705 L-2.0169,-2.22083 L-1.87047,-2.34549 L-1.71635,-2.46052 L-1.55518,-2.56543 L-1.38761,-2.6598 L-1.21435,-2.74324 L-1.0361,-2.81541 L-0.853583,-2.876 L-0.667563,-2.92478 L-0.4788,-2.96155 L-0.288069,-2.98614 L-0.0961547,-2.99846 L0.0961547,-2.99846 L0.288069,-2.98614 L0.4788,-2.96155 L0.667563,-2.92478 L0.853583,-2.876 L1.0361,-2.81541 L1.21435,-2.74324 L1.38761,-2.6598 L1.55518,-2.56543 L1.71635,-2.46052 L1.87047,-2.34549 L2.0169,-2.22083 L2.15505,-2.08705 L2.28434,-1.94469 L2.40424,-1.79433 L2.51426,-1.6366 L2.61396,-1.47215 L2.70291,-1.30165 L2.78075,-1.1258 L2.84717,-0.945325 L2.90188,-0.760964 L2.94468,-0.573476 L2.97537,-0.383631 L2.99384,-0.192211 L3,-5.51091e-16 L3,40 L3.00616,40.1922 L3.02463,40.3836 L3.05532,40.5735 L3.09812,40.761 L3.15283,40.9453 L3.21925,41.1258 L3.29709,41.3017 L3.38604,41.4722 L3.48574,41.6366 L3.59576,41.7943 L3.71566,41.9447 L3.84495,42.087 L3.9831,42.2208 L4.12953,42.3455 L4.28365,42.4605 L4.44482,42.5654 L4.61239,42.6598 L4.78565,42.7432 L4.9639,42.8154 L5.14642,42.876 L5.33244,42.9248 L5.5212,42.9615 L5.71193,42.9861 L5.90385,42.9985 L6.09615,42.9985 L6.28807,42.9861 L6.4788,42.9615 L6.66756,42.9248 L6.85358,42.876 L7.0361,42.8154 L7.21435,42.7432 L7.38761,42.6598 L7.55518,42.5654 L7.71635,42.4605 L7.87047,42.3455 L8.0169,42.2208 L8.15505,42.087 L8.28434,41.9447 L8.40424,41.7943 L8.51426,41.6366 L8.61396,41.4722 L8.70291,41.3017 L8.78075,41.1258 L8.84717,40.9453 L8.90188,40.761 L8.94468,40.5735 L8.97537,40.3836 L8.99384,40.1922 L9,40 L9,1.83697e-16 L9.00616,-0.192211 L9.02463,-0.383631 L9.05532,-0.573476 L9.09812,-0.760964 L9.15283,-0.945325 L9.21925,-1.1258 L9.29709,-1.30165 L9.38604,-1.47215 L9.48574,-1.6366 L9.59576,-1.79433 L9.71566,-1.94469 L9.84495,-2.08705 L9.9831,-2.22083 L10.1295,-2.34549 L10.2837,-2.46052 L10.4448,-2.56543 L10.6124,-2.6598 L10.7856,-2.74324 L10.9639,-2.81541 L11.1464,-2.876 L11.3324,-2.92478 L11.5212,-2.96155 L11.7119,-2.98614 L11.9038,-2.99846 L12.0962,-2.99846 L12.2881,-2.98614 L12.4788,-2.96155 L12.6676,-2.92478 L12.8536,-2.876 L13.0361,-2.81541 L13.2144,-2.74324 L13.3876,-2.6598 L13.5552,-2.56543 L13.7163,-2.46052 L13.8705,-2.34549 L14.0169,-2.22083 L14.155,-2.08705 L14.2843,-1.94469 L14.4042,-1.79433 L14.5143,-1.6366 L14.614,-1.47215 L14.7029,-1.30165 L14.7808,-1.1258 L14.8472,-0.945325 L14.9019,-0.760964 L14.9447,-0.573476 L14.9754,-0.383631 L14.9938,-0.192211 L15,-5.51091e-16 L15,40 L15.0062,40.1922 L15.0246,40.3836 L15.0553,40.5735 L15.0981,40.761 L15.1528,40.9453 L15.2192,41.1258 L15.2971,41.3017 L15.386,41.4722 L15.4857,41.6366 L15.5958,41.7943 L15.7157,41.9447 L15.845,42.087 L15.9831,42.2208 L16.1295,42.3455 L16.2837,42.4605 L16.4448,42.5654 L16.6124,42.6598 L16.7856,42.7432 L16.9639,42.8154 L17.1464,42.876 L17.3324,42.9248 L17.5212,42.9615 L17.7119,42.9861 L17.9038,42.9985 L18.0962,42.9985 L18.2881,42.9861 L18.4788,42.9615 L18.6676,42.9248 L18.8536,42.876 L19.0361,42.8154 L19.2144,42.7432 L19.3876,42.6598 L19.5552,42.5654 L19.7163,42.4605 L19.8705,42.3455 L20.0169,42.2208 L20.155,42.087 L20.2843,41.9447 L20.4042,41.7943 L20.5143,41.6366 L20.614,41.4722 L20.7029,41.3017 L20.7808,41.1258 L20.8472,40.9453 L20.9019,40.761 L20.9447,40.5735 L20.9754,40.3836 L20.9938,40.1922 L21,40 L21,1.83697e-16 L21.0062,-0.192211 L21.0246,-0.383631 L21.0553,-0.573476 L21.0981,-0.760964 L21.1528,-0.945325 L21.2192,-1.1258 L21.2971,-1.30165 L21.386,-1.47215 L21.4857,-1.6366 L21.5958,-1.79433 L21.7157,-1.94469 L21.845,-2.08705 L21.9831,-2.22083 L22.1295,-2.34549 L22.2837,-2.46052 L22.4448,-2.56543 L22.6124,-2.6598 L22.7856,-2.74324 L22.9639,-2.81541 L23.1464,-2.876 L23.3324,-2.92478 L23.5212,-2.96155 L23.7119,-2.98614 L23.9038,-2.99846 L24.0962,-2.99846 L24.2881,-2.98614 L24.4788,-2.96155 L24.6676,-2.92478 L24.8536,-2.876 L25.0361,-2.81541 L25.2144,-2.74324 L25.3876,-2.6598 L25.5552,-2.56543 L25.7163,-2.46052 L25.8705,-2.34549 L26.0169,-2.22083 L26.155,-2.08705 L26.2843,-1.94469 L26.4042,-1.79433 L26.5143,-1.6366 L26.614,-1.47215 L26.7029,-1.30165 L26.7808,-1.1258 L26.8472,-0.945325 L26.9019,-0.760964 L26.9447,-0.573476 L26.9754,-0.383631 L26.9938,-0.192211 L27,-5.51091e-16 L27,40 L27.0062,40.1922 L27.0246,40.3836 L27.0553,40.5735 L27.0981,40.761 L27.1528,40.9453 L27.2192,41.1258 L27.2971,41.3017 L27.386,41.4722 L27.4857,41.6366 L27.5958,41.7943 L27.7157,41.9447 L27.845,42.087 L27.9831,42.2208 L28.1295,42.3455 L28.2837,42.4605 L28.4448,42.5654 L28.6124,42.6598 L28.7856,42.7432 L28.9639,42.8154 L29.1464,42.876 L29.3324,42.9248 L29.5212,42.9615 L29.7119,42.9861 L29.9038,42.9985 L30.0962,42.9985 L30.2881,42.9861 L30.4788,42.9615 L30.6676,42.9248 L30.8536,42.876 L31.0361,42.8154 L31.2144,42.7432 L31.3876,42.6598 L31.5552,42.5654 L31.7163,42.4605 L31.8705,42.3455 L32.0169,42.2208 L32.155,42.087 L32.2843,41.9447 L32.4042,41.7943 L32.5143,41.6366 L32.614,41.4722 L32.7029,41.3017 L32.7808,41.1258 L32.8472,40.9453 L32.9019,40.761 L32.9447,40.5735 L32.9754,40.3836 L32.9938,40.1922 L33,40 L33,1.83697e-16 L33.0062,-0.192211 L33.0246,-0.383631 L33.0553,-0.573476 L33.0981,-0.760964 L33.1528,-0.945325 L33.2192,-1.1258 L33.2971,-1.30165 L33.386,-1.47215 L33.4857,-1.6366 L33.5958,-1.79433 L33.7157,-1.94469 L33.845,-2.08705 L33.9831,-2.22083 L34.1295,-2.34549 L34.2837,-2.46052 L34.4448,-2.56543 L34.6124,-2.6598 L34.7856,-2.74324 L34.9639,-2.81541 L35.1464,-2.876 L35.3324,-2.92478 L35.5212,-2.96155 L35.7119,-2.98614 L35.9038,-2.99846 L36.0962,-2.99846 L36.2881,-2.98614 L36.4788,-2.96155 L36.6676,-2.92478 L36.8536,-2.876 L37.0361,-2.81541 L37.2144,-2.74324 L37.3876,-2.6598 L37.5552,-2.56543 L37.7163,-2.46052 L37.8705,-2.34549 L38.0169,-2.22083 L38.155,-2.08705 L38.2843,-1.94469 L38.4042,-1.79433 L38.5143,-1.6366 L38.614,-1.47215 L38.7029,-1.30165 L38.7808,-1.1258 L38.8472,-0.945325 L38.9019,-0.760964 L38.9447,-0.573476 L38.9754,-0.383631 L38.9938,-0.192211 L39,-5.51091e-16 L39,40 L39.0062,40.1922 L39.0246,40.3836 L39.0553,40.5735 L39.0981,40.761 L39.1528,40.9453 L39.2192,41.1258 L39.2971,41.3017 L39.386,41.4722 L39.4857,41.6366 L39.5958,41.7943 L39.7157,41.9447 L39.845,42.087 L39.9831,42.2208 L40.1295,42.3455 L40.2837,42.4605 L40.4448,42.5654 L40.6124,42.6598 L40.7856,42.7432 L40.9639,42.8154 L41.1464,42.876 L41.3324,42.9248 L41.5212,42.9615 L41.7119,42.9861 L41.9038,42.9985 L42.0962,42.9985 L42.2881,42.9861 L42.4788,42.9615 L42.6676,42.9248 L42.8536,42.876 L43.0361,42.8154 L43.2144,42.7432 L43.3876,42.6598 L43.5552,42.5654 L43.7163,42.4605 L43.8705,42.3455 L44.0169,42.2208 L44.155,42.087 L44.2843,41.9447 L44.4042,41.7943 L44.5143,41.6366 L44.614,41.4722 L44.7029,41.3017 L44.7808,41.1258 L44.8472,40.9453 L44.9019,40.761 L44.9447,40.5735 L44.9754,40.3836 L44.9938,40.1922 L45,40 L45,1.83697e-16 L45.0062,-0.192211 L45.0246,-0.383631 L45.0553,-0.573476 L45.0981,-0.760964 L45.1528,-0.945325 L45.2192,-1.1258 L45.2971,-1.30165 L45.386,-1.47215 L45.4857,-1.6366 L45.5958,-1.79433 L45.7157,-1.94469 L45.845,-2.08705 L45.9831,-2.22083 L46.1295,-2.34549 L46.2837,-2.46052 L46.4448,-2.56543 L46.6124,-2.6598 L46.7856,-2.74324 L46.9639,-2.81541 L47.1464,-2.876 L47.3324,-2.92478 L47.5212,-2.96155 L47.7119,-2.98614 L47.9038,-2.99846 L48.0962,-2.99846 L48.2881,-2.98614 L48.4788,-2.96155 L48.6676,-2.92478 L48.8536,-2.876 L49.0361,-2.81541 L49.2144,-2.74324 L49.3876,-2.6598 L49.5552,-2.56543 L49.7163,-2.46052 L49.8705,-2.34549 L50.0169,-2.22083 L50.155,-2.08705 L50.2843,-1.94469 L50.4042,-1.79433 L50.5143,-1.6366 L50.614,-1.47215 L50.7029,-1.30165 L50.7808,-1.1258 L50.8472,-0.945325 L50.9019,-0.760964 L50.9447,-0.573476 L50.9754,-0.383631 L50.9938,-0.192211 L51,-5.51091e-16 L51,40 L51.0062,40.1922 L51.0246,40.3836 L51.0553,40.5735 L51.0981,40.761 L51.1528,40.9453 L51.2192,41.1258 L51.2971,41.3017 L51.386,41.4722 L51.4857,41.6366 L51.5958,41.7943 L51.7157,41.9447 L51.845,42.087 L51.9831,42.2208 L52.1295,42.3455 L52.2837,42.4605 L52.4448,42.5654 L52.6124,42.6598 L52.7856,42.7432 L52.9639,42.8154 L53.1464,42.876 L53.3324,42.9248 L53.5212,42.9615 L53.7119,42.9861 L53.9038,42.9985 L54.0962,42.9985 L54.2881,42.9861 L54.4788,42.9615 L54.6676,42.9248 L54.8536,42.876 L55.0361,42.8154 L55.2144,42.7432 L55.3876,42.6598 L55.5552,42.5654 L55.7163,42.4605 L55.8705,42.3455 L56.0169,42.2208 L56.155,42.087 L56.2843,41.9447 L56.4042,41.7943 L56.5143,41.6366 L56.614,41.4722 L56.7029,41.3017 L56.7808,41.1258 L56.8472,40.9453 L56.9019,40.761 L56.9447,40.5735 L56.9754,40.3836 L56.9938,40.1922 L57,40 L57,1.83697e-16 L57.0062,-0.192211 L57.0246,-0.383631 L57.0553,-0.573476 L57.0981,-0.760964 L57.1528,-0.945325 L57.2192,-1.1258 L57.2971,-1.30165 L57.386,-1.47215 L57.4857,-1.6366 L57.5958,-1.79433 L57.7157,-1.94469 L57.845,-2.08705 L57.9831,-2.22083 L58.1295,-2.34549 L58.2837,-2.46052 L58.4448,-2.56543 L58.6124,-2.6598 L58.7856,-2.74324 L58.9639,-2.81541 L59.1464,-2.876 L59.3324,-2.92478 L59.5212,-2.96155 L59.7119,-2.98614 L59.9038,-2.99846 L60.0962,-2.99846 L60.2881,-2.98614 L60.4788,-2.96155 L60.6676,-2.92478 L60.8536,-2.876 L61.0361,-2.81541 L61.2144,-2.74324 L61.3876,-2.6598 L61.5552,-2.56543 L61.7163,-2.46052 L61.8705,-2.34549 L62.0169,-2.22083 L62.155,-2.08705 L62.2843,-1.94469 L62.4042,-1.79433 L62.5143,-1.6366 L62.614,-1.47215 L62.7029,-1.30165 L62.7808,-1.1258 L62.8472,-0.945325 L62.9019,-0.760964 L62.9447,-0.573476 L62.9754,-0.383631 L62.9938,-0.192211 L63,-5.51091e-16 L63,40 L63.0062,40.1922 L63.0246,40.3836 L63.0553,40.5735 L63.0981,40.761 L63.1528,40.9453 L63.2192,41.1258 L63.2971,41.3017 L63.386,41.4722 L63.4857,41.6366 L63.5958,41.7943 L63.7157,41.9447 L63.845,42.087 L63.9831,42.2208 L64.1295,42.3455 L64.2837,42.4605 L64.4448,42.5654 L64.6124,42.6598 L64.7856,42.7432 L64.9639,42.8154 L65.1464,42.876 L65.3324,42.9248 L65.5212,42.9615 L65.7119,42.9861 L65.9038,42.9985 L66.0962,42.9985 L66.2881,42.9861 L66.4788,42.9615 L66.6676,42.9248 L66.8536,42.876 L67.0361,42.8154 L67.2144,42.7432 L67.3876,42.6598 L67.5552,42.5654 L67.7163,42.4605 L67.8705,42.3455 L68.0169,42.2208 L68.155,42.087 L68.2843,41.9447 L68.4042,41.7943 L68.5143,41.6366 L68.614,41.4722 L68.7029,41.3017 L68.7808,41.1258 L68.8472,40.9453 L68.9019,40.761 L68.9447,40.5735 L68.9754,40.3836 L68.9938,40.1922 L69,40 L69,1.83697e-16 L69.0062,-0.192211 L69.0246,-0.383631 L69.0553,-0.573476 L69.0981,-0.760964 L69.1528,-0.945325 L69.2192,-1.1258 L69.2971,-1.30165 L69.386,-1.47215 L69.4857,-1.6366 L69.5958,-1.79433 L69.7157,-1.94469 L69.845,-2.08705 L69.9831,-2.22083 L70.1295,-2.34549 L70.2837,-2.46052 L70.4448,-2.56543 L70.6124,-2.6598 L70.7856,-2.74324 L70.9639,-2.81541 L71.1464,-2.876 L71.3324,-2.92478 L71.5212,-2.96155 L71.7119,-2.98614 L71.9038,-2.99846 L72.0962,-2.99846 L72.2881,-2.98614 L72.4788,-2.96155 L72.6676,-2.92478 L72.8536,-2.876 L73.0361,-2.81541 L73.2144,-2.74324 L73.3876,-2.6598 L73.5552,-2.56543 L73.7163,-2.46052 L73.8705,-2.34549 L74.0169,-2.22083 L74.155,-2.08705 L74.2843,-1.94469 L74.4042,-1.79433 L74.5143,-1.6366 L74.614,-1.47215 L74.7029,-1.30165 L74.7808,-1.1258 L74.8472,-0.945325 L74.9019,-0.760964 L74.9447,-0.573476 L74.9754,-0.383631 L74.9938,-0.192211 L75,-5.51091e-16 L75,40 L75.0062,40.1922 L75.0246,40.3836 L75.0553,40.5735 L75.0981,40.761 L75.1528,40.9453 L75.2192,41.1258 L75.2971,41.3017 L75.386,41.4722 L75.4857,41.6366 L75.5958,41.7943 L75.7157,41.9447 L75.845,42.087 L75.9831,42.2208 L76.1295,42.3455 L76.2837,42.4605 L76.4448,42.5654 L76.6124,42.6598 L76.7856,42.7432 L76.9639,42.8154 L77.1464,42.876 L77.3324,42.9248 L77.5212,42.9615 L77.7119,42.9861 L77.9038,42.9985 L78.0962,42.9985 L78.2881,42.9861 L78.4788,42.9615 L78.6676,42.9248 L78.8536,42.876 L79.0361,42.8154 L79.2144,42.7432 L79.3876,42.6598 L79.5552,42.5654 L79.7163,42.4605 L79.8705,42.3455 L80.0169,42.2208 L80.155,42.087 L80.2843,41.9447 L80.4042,41.7943 L80.5143,41.6366 L80.614,41.4722 L80.7029,41.3017 L80.7808,41.1258 L80.8472,40.9453 L80.9019,40.761 L80.9447,40.5735 L80.9754,40.3836 L80.9938,40.1922 L81,40 L81,1.83697e-16 L81.0062,-0.192211 L81.0246,-0.383631 L81.0553,-0.573476 L81.0981,-0.760964 L81.1528,-0.945325 L81.2192,-1.1258 L81.2971,-1.30165 L81.386,-1.47215 L81.4857,-1.6366 L81.5958,-1.79433 L81.7157,-1.94469 L81.845,-2.08705 L81.9831,-2.22083 L82.1295,-2.34549 L82.2837,-2.46052 L82.4448,-2.56543 L82.6124,-2.6598 L82.7856,-2.74324 L82.9639,-2.81541 L83.1464,-2.876 L83.3324,-2.92478 L83.5212,-2.96155 L83.7119,-2.98614 L83.9038,-2.99846 L84.0962,-2.99846 L84.2881,-2.98614 L84.4788,-2.96155 L84.6676,-2.92478 L84.8536,-2.876 L85.0361,-2.81541 L85.2144,-2.74324 L85.3876,-2.6598 L85.5552,-2.56543 L85.7163,-2.46052 L85.8705,-2.34549 L86.0169,-2.22083 L86.155,-2.08705 L86.2843,-1.94469 L86.4042,-1.79433 L86.5143,-1.6366 L86.614,-1.47215 L86.7029,-1.30165 L86.7808,-1.1258 L86.8472,-0.945325 L86.9019,-0.760964 L86.9447,-0.573476 L86.9754,-0.383631 L86.9938,-0.192211 L87,-5.51091e-16"/>
</g>

<g fill="none" stroke="#000000" stroke-opacity="1" stroke-width="1" stroke-linecap="square" stroke-linejoin="bevel" transform="matrix(1,0,0,1,0,0)"
font-family="MS Shell Dlg 2" font-size="8.25" font-weight="400" font-style="normal"
>
</g>

<g fill="#1f2937" fill-opacity="1" stroke="#000000" stroke-opacity="0" stroke-width="1" stroke-linecap="square" stroke-linejoin="bevel" transform="matrix(1,0,0,1,6,17.0345)"
font-family="MS Shell Dlg 2" font-size="8.25" font-weight="400" font-style="normal"
>
<circle cx="0" cy="0" r="3"/>
</g>

<g fill="none" stroke="#1f2937" stroke-opacity="1" stroke-width="1" stroke-linecap="square" stroke-linejoin="bevel" transform="matrix(1,0,0,1,6,17.0345)"
font-family="MS Shell Dlg 2" font-size="8.25" font-weight="400" font-style="normal"
>
<path vector-effect="none" fill-rule="evenodd" d="M5,0 C5,-2.76142 2.76142,-5 0,-5 C-2.76142,-5 -5,-2.76142 -5,0 C-5,2.76142 -2.76142,5 0,5 "/>
</g>

<g fill="none" stroke="#000000" stroke-opacity="1" stroke-width="1" stroke-linecap="square" stroke-linejoin="bevel" transform="matrix(1,0,0,1,0,0)"
font-family="MS Shell Dlg 2" font-size="8.25" font-weight="400" font-style="normal"
>
</g>

<g fill="#1f2937" fill-opacity="1" stroke="#000000" stroke-opacity="0" stroke-width="1" stroke-linecap="square" stroke-linejoin="bevel" transform="matrix(1,0,0,1,96,17.0345)"
font-family="MS Shell Dlg 2" font-size="8.25" font-weight="400" font-style="normal"
>
<circle cx="0" cy="0" r="3"/>
</g>

<g fill="none" stroke="#1f2937" stroke-opacity="1" stroke-width="1" stroke-linecap="square" stroke-linejoin="bevel" transform="matrix(1,0,0,1,96,17.0345)"
font-family="MS Shell Dlg 2" font-size="8.25" font-weight="400" font-style="normal"
>
<path vector-effect="none" fill-rule="evenodd" d="M5,0 C5,-2.76142 2.76142,-5 0,-5 C-2.76142,-5 -5,-2.76142 -5,0 C-5,2.76142 -2.76142,5 0,5 "/>
</g>

<g fill="none" stroke="#000000" stroke-opacity="1" stroke-width="1" stroke-linecap="square" stroke-linejoin="bevel" transform="matrix(1,0,0,1,0,0)"
font-family="MS Shell Dlg 2" font-size="8.25" font-weight="400" font-style="normal"
>
</g>
</g>
</svg>
