<?xml version="1.0" encoding="UTF-8"?>
<!DOCTYPE svg PUBLIC "-//W3C//DTD SVG 1.1//EN" "http://www.w3.org/Graphics/SVG/1.1/DTD/svg11.dtd">
<!-- Creator: CorelDRAW -->
<svg xmlns="http://www.w3.org/2000/svg" xml:space="preserve" width="5.35433in" height="3.64173in" version="1.1" style="shape-rendering:geometricPrecision; text-rendering:geometricPrecision; image-rendering:optimizeQuality; fill-rule:evenodd; clip-rule:evenodd"
viewBox="0 0 5354.33 3641.73"
 xmlns:xlink="http://www.w3.org/1999/xlink"
 xmlns:xodm="http://www.corel.com/coreldraw/odm/2003">
 <defs>
  <style type="text/css">
   <![CDATA[
    .str0 {stroke:#2B2A29;stroke-width:6.94;stroke-miterlimit:2.61313}
    .str1 {stroke:#2B2A29;stroke-width:3;stroke-miterlimit:2.61313}
    .fil3 {fill:none}
    .fil0 {fill:#FEFEFE}
    .fil11 {fill:#2B2A29}
    .fil13 {fill:#FBF9FA}
    .fil14 {fill:#F8F9FA}
    .fil17 {fill:#ECE8E9}
    .fil5 {fill:#C82F5C}
    .fil1 {fill:#D7D5D6}
    .fil12 {fill:#CFC9CA}
    .fil15 {fill:#B62852}
    .fil2 {fill:#C8C5C5}
    .fil7 {fill:#B8AD25}
    .fil10 {fill:#A39D9D}
    .fil8 {fill:#A1418F}
    .fil16 {fill:#5EC0C7}
    .fil9 {fill:#36ABB0}
    .fil6 {fill:#35A844}
    .fil4 {fill:#3F62AA}
   ]]>
  </style>
 </defs>
 <g id="Layer_x0020_1">
  <metadata id="CorelCorpID_0Corel-Layer"/>
  <rect class="fil0 str0" x="2325.16" y="717.33" width="803.32" height="2708.04"/>
  <ellipse class="fil1 str0" cx="2727.74" cy="2070.96" rx="39.49" ry="34.34"/>
  <rect class="fil0 str0" x="5128.06" y="106.22" width="158.42" height="3410.77"/>
  <rect class="fil2 str0" x="254.73" y="3234.09" width="4873.85" height="200.36"/>
  <rect class="fil0 str0" x="92.27" y="104.15" width="158.42" height="3410.77"/>
  <rect class="fil0 str0" x="168.43" y="103.28" width="5059.72" height="614.05"/>
  <path class="fil3 str0" d="M468.09 2422.03l3.17 -0.02c37.98,-0.24 69.2,30.64 69.37,68.62l2.92 617.61c0.18,37.98 -30.74,69.24 -68.72,69.48l-0 0c-37.98,0.24 -69.2,-30.64 -69.38,-68.62l-2.93 -620.78c-0.17,-36.24 29.34,-66.07 65.58,-66.3z"/>
  <ellipse class="fil3 str0" cx="469.13" cy="2456.98" rx="62.31" ry="31.15"/>
  <path class="fil4" d="M467.93 2698.93l3.16 -0.01c37.98,-0.15 69.28,30.8 69.57,68.78l2.53 336.72c0.29,37.98 -30.55,69.17 -68.53,69.32l0 0c-37.98,0.15 -69.28,-30.8 -69.57,-68.78l-2.55 -339.88c-0.27,-36.24 29.15,-66 65.39,-66.15z"/>
  <ellipse class="fil3 str0" cx="472.87" cy="2733.46" rx="62.31" ry="30.59"/>
  <rect class="fil2 str0" x="305.02" y="3182.59" width="4775.78" height="50.09"/>
  <path class="fil3 str0" d="M624.96 2422.03l3.17 -0.02c37.98,-0.24 69.2,30.64 69.37,68.62l2.92 617.61c0.18,37.98 -30.74,69.24 -68.72,69.48l-0 0c-37.98,0.24 -69.2,-30.64 -69.38,-68.62l-2.93 -620.78c-0.17,-36.24 29.34,-66.07 65.58,-66.3z"/>
  <ellipse class="fil3 str0" cx="626" cy="2456.99" rx="62.31" ry="31.15"/>
  <path class="fil4" d="M624.8 2698.93l3.16 -0.01c37.98,-0.15 69.28,30.8 69.57,68.78l2.53 336.72c0.29,37.98 -30.55,69.17 -68.53,69.32l0 0c-37.98,0.15 -69.28,-30.8 -69.57,-68.78l-2.55 -339.88c-0.27,-36.24 29.15,-66 65.39,-66.15z"/>
  <ellipse class="fil3 str0" cx="629.74" cy="2733.46" rx="62.31" ry="30.59"/>
  <path class="fil3 str0" d="M777.22 2422.03l3.17 -0.02c37.98,-0.24 69.2,30.64 69.37,68.62l2.92 617.61c0.18,37.98 -30.74,69.24 -68.72,69.48l-0 0c-37.98,0.24 -69.2,-30.64 -69.38,-68.62l-2.93 -620.78c-0.17,-36.24 29.34,-66.07 65.58,-66.3z"/>
  <ellipse class="fil3 str0" cx="778.27" cy="2456.98" rx="62.31" ry="31.15"/>
  <path class="fil4" d="M777.06 2698.93l3.16 -0.01c37.98,-0.15 69.28,30.8 69.57,68.78l2.53 336.72c0.29,37.98 -30.55,69.17 -68.53,69.32l0 0c-37.98,0.15 -69.28,-30.8 -69.57,-68.78l-2.55 -339.88c-0.27,-36.24 29.15,-66 65.39,-66.15z"/>
  <ellipse class="fil3 str0" cx="782" cy="2733.46" rx="62.31" ry="30.59"/>
  <path class="fil3 str0" d="M934.09 2422.03l3.17 -0.02c37.98,-0.24 69.2,30.64 69.37,68.62l2.92 617.61c0.18,37.98 -30.74,69.24 -68.72,69.48l-0 0c-37.98,0.24 -69.2,-30.64 -69.38,-68.62l-2.93 -620.78c-0.17,-36.24 29.34,-66.07 65.58,-66.3z"/>
  <ellipse class="fil3 str0" cx="935.14" cy="2456.99" rx="62.31" ry="31.15"/>
  <path class="fil4" d="M933.93 2698.93l3.16 -0.01c37.98,-0.15 69.28,30.8 69.57,68.78l2.53 336.72c0.29,37.98 -30.55,69.17 -68.53,69.32l0 0c-37.98,0.15 -69.28,-30.8 -69.57,-68.78l-2.55 -339.88c-0.27,-36.24 29.15,-66 65.39,-66.15z"/>
  <ellipse class="fil3 str0" cx="938.87" cy="2733.46" rx="62.31" ry="30.59"/>
  <path class="fil3 str0" d="M1088.52 2422.07l3.17 -0.02c37.98,-0.24 69.2,30.64 69.37,68.62l2.92 617.61c0.18,37.98 -30.74,69.24 -68.72,69.48l-0 0c-37.98,0.24 -69.2,-30.64 -69.38,-68.62l-2.93 -620.78c-0.17,-36.24 29.34,-66.07 65.58,-66.3z"/>
  <ellipse class="fil3 str0" cx="1089.57" cy="2457.02" rx="62.31" ry="31.15"/>
  <path class="fil4" d="M1088.36 2698.97l3.16 -0.01c37.98,-0.15 69.28,30.8 69.57,68.78l2.53 336.72c0.29,37.98 -30.55,69.17 -68.53,69.32l0 0c-37.98,0.15 -69.28,-30.8 -69.57,-68.78l-2.55 -339.88c-0.27,-36.24 29.15,-66 65.39,-66.15z"/>
  <ellipse class="fil3 str0" cx="1093.3" cy="2733.5" rx="62.31" ry="30.59"/>
  <path class="fil3 str0" d="M1245.39 2422.07l3.17 -0.02c37.98,-0.24 69.2,30.64 69.37,68.62l2.92 617.61c0.18,37.98 -30.74,69.24 -68.72,69.48l-0 0c-37.98,0.24 -69.2,-30.64 -69.38,-68.62l-2.93 -620.78c-0.17,-36.24 29.34,-66.07 65.58,-66.3z"/>
  <ellipse class="fil3 str0" cx="1246.44" cy="2457.03" rx="62.31" ry="31.15"/>
  <path class="fil4" d="M1245.23 2698.97l3.16 -0.01c37.98,-0.15 69.28,30.8 69.57,68.78l2.53 336.72c0.29,37.98 -30.55,69.17 -68.53,69.32l0 0c-37.98,0.15 -69.28,-30.8 -69.57,-68.78l-2.55 -339.88c-0.27,-36.24 29.15,-66 65.39,-66.15z"/>
  <ellipse class="fil3 str0" cx="1250.17" cy="2733.5" rx="62.31" ry="30.59"/>
  <path class="fil3 str0" d="M1402.26 2422.03l3.17 -0.02c37.98,-0.24 69.2,30.64 69.37,68.62l2.92 617.61c0.18,37.98 -30.74,69.24 -68.72,69.48l-0 0c-37.98,0.24 -69.2,-30.64 -69.38,-68.62l-2.93 -620.78c-0.17,-36.24 29.34,-66.07 65.58,-66.3z"/>
  <ellipse class="fil3 str0" cx="1403.3" cy="2456.98" rx="62.31" ry="31.15"/>
  <path class="fil5" d="M1402.09 2698.93l3.16 -0.01c37.98,-0.15 69.28,30.8 69.57,68.78l2.53 336.72c0.29,37.98 -30.55,69.17 -68.53,69.32l0 0c-37.98,0.15 -69.28,-30.8 -69.57,-68.78l-2.55 -339.88c-0.27,-36.24 29.15,-66 65.39,-66.15z"/>
  <ellipse class="fil3 str0" cx="1407.04" cy="2733.46" rx="62.31" ry="30.59"/>
  <path class="fil3 str0" d="M1559.13 2422.03l3.17 -0.02c37.98,-0.24 69.2,30.64 69.37,68.62l2.92 617.61c0.18,37.98 -30.74,69.24 -68.72,69.48l-0 0c-37.98,0.24 -69.2,-30.64 -69.38,-68.62l-2.93 -620.78c-0.17,-36.24 29.34,-66.07 65.58,-66.3z"/>
  <ellipse class="fil3 str0" cx="1560.17" cy="2456.99" rx="62.31" ry="31.15"/>
  <path class="fil5" d="M1558.96 2698.93l3.16 -0.01c37.98,-0.15 69.28,30.8 69.57,68.78l2.53 336.72c0.29,37.98 -30.55,69.17 -68.53,69.32l0 0c-37.98,0.15 -69.28,-30.8 -69.57,-68.78l-2.55 -339.88c-0.27,-36.24 29.15,-66 65.39,-66.15z"/>
  <ellipse class="fil3 str0" cx="1563.91" cy="2733.46" rx="62.31" ry="30.59"/>
  <path class="fil3 str0" d="M1711.39 2422.03l3.17 -0.02c37.98,-0.24 69.2,30.64 69.37,68.62l2.92 617.61c0.18,37.98 -30.74,69.24 -68.72,69.48l-0 0c-37.98,0.24 -69.2,-30.64 -69.38,-68.62l-2.93 -620.78c-0.17,-36.24 29.34,-66.07 65.58,-66.3z"/>
  <ellipse class="fil3 str0" cx="1712.44" cy="2456.98" rx="62.31" ry="31.15"/>
  <path class="fil5" d="M1711.23 2698.93l3.16 -0.01c37.98,-0.15 69.28,30.8 69.57,68.78l2.53 336.72c0.29,37.98 -30.55,69.17 -68.53,69.32l0 0c-37.98,0.15 -69.28,-30.8 -69.57,-68.78l-2.55 -339.88c-0.27,-36.24 29.15,-66 65.39,-66.15z"/>
  <ellipse class="fil3 str0" cx="1716.17" cy="2733.46" rx="62.31" ry="30.59"/>
  <path class="fil3 str0" d="M1868.26 2422.03l3.17 -0.02c37.98,-0.24 69.2,30.64 69.37,68.62l2.92 617.61c0.18,37.98 -30.74,69.24 -68.72,69.48l-0 0c-37.98,0.24 -69.2,-30.64 -69.38,-68.62l-2.93 -620.78c-0.17,-36.24 29.34,-66.07 65.58,-66.3z"/>
  <ellipse class="fil3 str0" cx="1869.31" cy="2456.99" rx="62.31" ry="31.15"/>
  <path class="fil5" d="M1868.1 2698.93l3.16 -0.01c37.98,-0.15 69.28,30.8 69.57,68.78l2.53 336.72c0.29,37.98 -30.55,69.17 -68.53,69.32l0 0c-37.98,0.15 -69.28,-30.8 -69.57,-68.78l-2.55 -339.88c-0.27,-36.24 29.15,-66 65.39,-66.15z"/>
  <ellipse class="fil3 str0" cx="1873.04" cy="2733.46" rx="62.31" ry="30.59"/>
  <path class="fil3 str0" d="M2022.69 2422.07l3.17 -0.02c37.98,-0.24 69.2,30.64 69.37,68.62l2.92 617.61c0.18,37.98 -30.74,69.24 -68.72,69.48l-0 0c-37.98,0.24 -69.2,-30.64 -69.38,-68.62l-2.93 -620.78c-0.17,-36.24 29.34,-66.07 65.58,-66.3z"/>
  <ellipse class="fil3 str0" cx="2023.74" cy="2457.02" rx="62.31" ry="31.15"/>
  <path class="fil5" d="M2022.53 2698.97l3.16 -0.01c37.98,-0.15 69.28,30.8 69.57,68.78l2.53 336.72c0.29,37.98 -30.55,69.17 -68.53,69.32l0 0c-37.98,0.15 -69.28,-30.8 -69.57,-68.78l-2.55 -339.88c-0.27,-36.24 29.15,-66 65.39,-66.15z"/>
  <ellipse class="fil3 str0" cx="2027.47" cy="2733.5" rx="62.31" ry="30.59"/>
  <path class="fil3 str0" d="M2179.56 2422.07l3.17 -0.02c37.98,-0.24 69.2,30.64 69.37,68.62l2.92 617.61c0.18,37.98 -30.74,69.24 -68.72,69.48l-0 0c-37.98,0.24 -69.2,-30.64 -69.38,-68.62l-2.93 -620.78c-0.17,-36.24 29.34,-66.07 65.58,-66.3z"/>
  <ellipse class="fil3 str0" cx="2180.61" cy="2457.03" rx="62.31" ry="31.15"/>
  <path class="fil5" d="M2179.4 2698.97l3.16 -0.01c37.98,-0.15 69.28,30.8 69.57,68.78l2.53 336.72c0.29,37.98 -30.55,69.17 -68.53,69.32l0 0c-37.98,0.15 -69.28,-30.8 -69.57,-68.78l-2.55 -339.88c-0.27,-36.24 29.15,-66 65.39,-66.15z"/>
  <ellipse class="fil3 str0" cx="2184.34" cy="2733.5" rx="62.31" ry="30.59"/>
  <path class="fil3 str0" d="M2334.98 2418.59l3.17 -0.02c37.98,-0.24 69.2,30.64 69.37,68.62l2.92 617.61c0.18,37.98 -30.74,69.24 -68.72,69.48l-0 0c-37.98,0.24 -69.2,-30.64 -69.38,-68.62l-2.93 -620.78c-0.17,-36.24 29.34,-66.07 65.58,-66.3z"/>
  <ellipse class="fil3 str0" cx="2336.02" cy="2453.55" rx="62.31" ry="31.15"/>
  <path class="fil6" d="M2334.81 2695.5l3.16 -0.01c37.98,-0.15 69.28,30.8 69.57,68.78l2.53 336.72c0.29,37.98 -30.55,69.17 -68.53,69.32l0 0c-37.98,0.15 -69.28,-30.8 -69.57,-68.78l-2.55 -339.88c-0.27,-36.24 29.15,-66 65.39,-66.15z"/>
  <ellipse class="fil3 str0" cx="2339.76" cy="2730.03" rx="62.31" ry="30.59"/>
  <path class="fil3 str0" d="M2491.85 2418.6l3.17 -0.02c37.98,-0.24 69.2,30.64 69.37,68.62l2.92 617.61c0.18,37.98 -30.74,69.24 -68.72,69.48l-0 0c-37.98,0.24 -69.2,-30.64 -69.38,-68.62l-2.93 -620.78c-0.17,-36.24 29.34,-66.07 65.58,-66.3z"/>
  <ellipse class="fil3 str0" cx="2492.89" cy="2453.55" rx="62.31" ry="31.15"/>
  <path class="fil6" d="M2491.69 2695.5l3.16 -0.01c37.98,-0.15 69.28,30.8 69.57,68.78l2.53 336.72c0.29,37.98 -30.55,69.17 -68.53,69.32l0 0c-37.98,0.15 -69.28,-30.8 -69.57,-68.78l-2.55 -339.88c-0.27,-36.24 29.15,-66 65.39,-66.15z"/>
  <ellipse class="fil3 str0" cx="2496.63" cy="2730.03" rx="62.31" ry="30.59"/>
  <path class="fil3 str0" d="M2644.11 2418.59l3.17 -0.02c37.98,-0.24 69.2,30.64 69.37,68.62l2.92 617.61c0.18,37.98 -30.74,69.24 -68.72,69.48l-0 0c-37.98,0.24 -69.2,-30.64 -69.38,-68.62l-2.93 -620.78c-0.17,-36.24 29.34,-66.07 65.58,-66.3z"/>
  <ellipse class="fil3 str0" cx="2645.16" cy="2453.55" rx="62.31" ry="31.15"/>
  <path class="fil6" d="M2643.95 2695.5l3.16 -0.01c37.98,-0.15 69.28,30.8 69.57,68.78l2.53 336.72c0.29,37.98 -30.55,69.17 -68.53,69.32l0 0c-37.98,0.15 -69.28,-30.8 -69.57,-68.78l-2.55 -339.88c-0.27,-36.24 29.15,-66 65.39,-66.15z"/>
  <ellipse class="fil3 str0" cx="2648.89" cy="2730.03" rx="62.31" ry="30.59"/>
  <path class="fil3 str0" d="M2800.98 2418.6l3.17 -0.02c37.98,-0.24 69.2,30.64 69.37,68.62l2.92 617.61c0.18,37.98 -30.74,69.24 -68.72,69.48l-0 0c-37.98,0.24 -69.2,-30.64 -69.38,-68.62l-2.93 -620.78c-0.17,-36.24 29.34,-66.07 65.58,-66.3z"/>
  <ellipse class="fil3 str0" cx="2802.03" cy="2453.55" rx="62.31" ry="31.15"/>
  <path class="fil6" d="M2800.82 2695.5l3.16 -0.01c37.98,-0.15 69.28,30.8 69.57,68.78l2.53 336.72c0.29,37.98 -30.55,69.17 -68.53,69.32l0 0c-37.98,0.15 -69.28,-30.8 -69.57,-68.78l-2.55 -339.88c-0.27,-36.24 29.15,-66 65.39,-66.15z"/>
  <ellipse class="fil3 str0" cx="2805.76" cy="2730.03" rx="62.31" ry="30.59"/>
  <path class="fil3 str0" d="M2955.41 2418.63l3.17 -0.02c37.98,-0.24 69.2,30.64 69.37,68.62l2.92 617.61c0.18,37.98 -30.74,69.24 -68.72,69.48l-0 0c-37.98,0.24 -69.2,-30.64 -69.38,-68.62l-2.93 -620.78c-0.17,-36.24 29.34,-66.07 65.58,-66.3z"/>
  <ellipse class="fil3 str0" cx="2956.46" cy="2453.59" rx="62.31" ry="31.15"/>
  <path class="fil7" d="M2955.25 2695.54l3.16 -0.01c37.98,-0.15 69.28,30.8 69.57,68.78l2.53 336.72c0.29,37.98 -30.55,69.17 -68.53,69.32l0 0c-37.98,0.15 -69.28,-30.8 -69.57,-68.78l-2.55 -339.88c-0.27,-36.24 29.15,-66 65.39,-66.15z"/>
  <ellipse class="fil3 str0" cx="2960.19" cy="2730.06" rx="62.31" ry="30.59"/>
  <path class="fil3 str0" d="M3112.28 2418.64l3.17 -0.02c37.98,-0.24 69.2,30.64 69.37,68.62l2.92 617.61c0.18,37.98 -30.74,69.24 -68.72,69.48l-0 0c-37.98,0.24 -69.2,-30.64 -69.38,-68.62l-2.93 -620.78c-0.17,-36.24 29.34,-66.07 65.58,-66.3z"/>
  <ellipse class="fil3 str0" cx="3113.33" cy="2453.59" rx="62.31" ry="31.15"/>
  <path class="fil7" d="M3112.12 2695.54l3.16 -0.01c37.98,-0.15 69.28,30.8 69.57,68.78l2.53 336.72c0.29,37.98 -30.55,69.17 -68.53,69.32l0 0c-37.98,0.15 -69.28,-30.8 -69.57,-68.78l-2.55 -339.88c-0.27,-36.24 29.15,-66 65.39,-66.15z"/>
  <ellipse class="fil3 str0" cx="3117.06" cy="2730.07" rx="62.31" ry="30.59"/>
  <path class="fil3 str0" d="M3269.15 2418.59l3.17 -0.02c37.98,-0.24 69.2,30.64 69.37,68.62l2.92 617.61c0.18,37.98 -30.74,69.24 -68.72,69.48l-0 0c-37.98,0.24 -69.2,-30.64 -69.38,-68.62l-2.93 -620.78c-0.17,-36.24 29.34,-66.07 65.58,-66.3z"/>
  <ellipse class="fil3 str0" cx="3270.19" cy="2453.55" rx="62.31" ry="31.15"/>
  <path class="fil7" d="M3268.98 2695.5l3.16 -0.01c37.98,-0.15 69.28,30.8 69.57,68.78l2.53 336.72c0.29,37.98 -30.55,69.17 -68.53,69.32l0 0c-37.98,0.15 -69.28,-30.8 -69.57,-68.78l-2.55 -339.88c-0.27,-36.24 29.15,-66 65.39,-66.15z"/>
  <ellipse class="fil3 str0" cx="3273.93" cy="2730.03" rx="62.31" ry="30.59"/>
  <path class="fil3 str0" d="M3426.02 2418.6l3.17 -0.02c37.98,-0.24 69.2,30.64 69.37,68.62l2.92 617.61c0.18,37.98 -30.74,69.24 -68.72,69.48l-0 0c-37.98,0.24 -69.2,-30.64 -69.38,-68.62l-2.93 -620.78c-0.17,-36.24 29.34,-66.07 65.58,-66.3z"/>
  <ellipse class="fil3 str0" cx="3427.06" cy="2453.55" rx="62.31" ry="31.15"/>
  <path class="fil7" d="M3425.85 2695.5l3.16 -0.01c37.98,-0.15 69.28,30.8 69.57,68.78l2.53 336.72c0.29,37.98 -30.55,69.17 -68.53,69.32l0 0c-37.98,0.15 -69.28,-30.8 -69.57,-68.78l-2.55 -339.88c-0.27,-36.24 29.15,-66 65.39,-66.15z"/>
  <ellipse class="fil3 str0" cx="3430.8" cy="2730.03" rx="62.31" ry="30.59"/>
  <path class="fil3 str0" d="M3578.28 2418.59l3.17 -0.02c37.98,-0.24 69.2,30.64 69.37,68.62l2.92 617.61c0.18,37.98 -30.74,69.24 -68.72,69.48l-0 0c-37.98,0.24 -69.2,-30.64 -69.38,-68.62l-2.93 -620.78c-0.17,-36.24 29.34,-66.07 65.58,-66.3z"/>
  <ellipse class="fil3 str0" cx="3579.33" cy="2453.55" rx="62.31" ry="31.15"/>
  <path class="fil8" d="M3578.12 2695.5l3.16 -0.01c37.98,-0.15 69.28,30.8 69.57,68.78l2.53 336.72c0.29,37.98 -30.55,69.17 -68.53,69.32l0 0c-37.98,0.15 -69.28,-30.8 -69.57,-68.78l-2.55 -339.88c-0.27,-36.24 29.15,-66 65.39,-66.15z"/>
  <ellipse class="fil3 str0" cx="3583.06" cy="2730.03" rx="62.31" ry="30.59"/>
  <path class="fil3 str0" d="M3735.15 2418.6l3.17 -0.02c37.98,-0.24 69.2,30.64 69.37,68.62l2.92 617.61c0.18,37.98 -30.74,69.24 -68.72,69.48l-0 0c-37.98,0.24 -69.2,-30.64 -69.38,-68.62l-2.93 -620.78c-0.17,-36.24 29.34,-66.07 65.58,-66.3z"/>
  <ellipse class="fil3 str0" cx="3736.2" cy="2453.55" rx="62.31" ry="31.15"/>
  <path class="fil8" d="M3734.99 2695.5l3.16 -0.01c37.98,-0.15 69.28,30.8 69.57,68.78l2.53 336.72c0.29,37.98 -30.55,69.17 -68.53,69.32l0 0c-37.98,0.15 -69.28,-30.8 -69.57,-68.78l-2.55 -339.88c-0.27,-36.24 29.15,-66 65.39,-66.15z"/>
  <ellipse class="fil3 str0" cx="3739.93" cy="2730.03" rx="62.31" ry="30.59"/>
  <path class="fil3 str0" d="M3889.58 2418.63l3.17 -0.02c37.98,-0.24 69.2,30.64 69.37,68.62l2.92 617.61c0.18,37.98 -30.74,69.24 -68.72,69.48l-0 0c-37.98,0.24 -69.2,-30.64 -69.38,-68.62l-2.93 -620.78c-0.17,-36.24 29.34,-66.07 65.58,-66.3z"/>
  <ellipse class="fil3 str0" cx="3890.63" cy="2453.59" rx="62.31" ry="31.15"/>
  <path class="fil8" d="M3889.42 2695.54l3.16 -0.01c37.98,-0.15 69.28,30.8 69.57,68.78l2.53 336.72c0.29,37.98 -30.55,69.17 -68.53,69.32l0 0c-37.98,0.15 -69.28,-30.8 -69.57,-68.78l-2.55 -339.88c-0.27,-36.24 29.15,-66 65.39,-66.15z"/>
  <ellipse class="fil3 str0" cx="3894.36" cy="2730.06" rx="62.31" ry="30.59"/>
  <path class="fil3 str0" d="M4046.45 2418.64l3.17 -0.02c37.98,-0.24 69.2,30.64 69.37,68.62l2.92 617.61c0.18,37.98 -30.74,69.24 -68.72,69.48l-0 0c-37.98,0.24 -69.2,-30.64 -69.38,-68.62l-2.93 -620.78c-0.17,-36.24 29.34,-66.07 65.58,-66.3z"/>
  <ellipse class="fil3 str0" cx="4047.5" cy="2453.59" rx="62.31" ry="31.15"/>
  <path class="fil8" d="M4046.29 2695.54l3.16 -0.01c37.98,-0.15 69.28,30.8 69.57,68.78l2.53 336.72c0.29,37.98 -30.55,69.17 -68.53,69.32l0 0c-37.98,0.15 -69.28,-30.8 -69.57,-68.78l-2.55 -339.88c-0.27,-36.24 29.15,-66 65.39,-66.15z"/>
  <ellipse class="fil3 str0" cx="4051.23" cy="2730.07" rx="62.31" ry="30.59"/>
  <path class="fil3 str0" d="M4206.3 2422.03l3.17 -0.02c37.98,-0.24 69.2,30.64 69.37,68.62l2.92 617.61c0.18,37.98 -30.74,69.24 -68.72,69.48l-0 0c-37.98,0.24 -69.2,-30.64 -69.38,-68.62l-2.93 -620.78c-0.17,-36.24 29.34,-66.07 65.58,-66.3z"/>
  <ellipse class="fil3 str0" cx="4207.34" cy="2456.98" rx="62.31" ry="31.15"/>
  <path class="fil8" d="M4206.13 2698.93l3.16 -0.01c37.98,-0.15 69.28,30.8 69.57,68.78l2.53 336.72c0.29,37.98 -30.55,69.17 -68.53,69.32l0 0c-37.98,0.15 -69.28,-30.8 -69.57,-68.78l-2.55 -339.88c-0.27,-36.24 29.15,-66 65.39,-66.15z"/>
  <ellipse class="fil3 str0" cx="4211.08" cy="2733.46" rx="62.31" ry="30.59"/>
  <path class="fil3 str0" d="M4363.17 2422.03l3.17 -0.02c37.98,-0.24 69.2,30.64 69.37,68.62l2.92 617.61c0.18,37.98 -30.74,69.24 -68.72,69.48l-0 0c-37.98,0.24 -69.2,-30.64 -69.38,-68.62l-2.93 -620.78c-0.17,-36.24 29.34,-66.07 65.58,-66.3z"/>
  <ellipse class="fil3 str0" cx="4364.21" cy="2456.99" rx="62.31" ry="31.15"/>
  <path class="fil9" d="M4363 2698.93l3.16 -0.01c37.98,-0.15 69.28,30.8 69.57,68.78l2.53 336.72c0.29,37.98 -30.55,69.17 -68.53,69.32l0 0c-37.98,0.15 -69.28,-30.8 -69.57,-68.78l-2.55 -339.88c-0.27,-36.24 29.15,-66 65.39,-66.15z"/>
  <ellipse class="fil3 str0" cx="4367.95" cy="2733.46" rx="62.31" ry="30.59"/>
  <path class="fil3 str0" d="M4517.6 2422.07l3.17 -0.02c37.98,-0.24 69.2,30.64 69.37,68.62l2.92 617.61c0.18,37.98 -30.74,69.24 -68.72,69.48l-0 0c-37.98,0.24 -69.2,-30.64 -69.38,-68.62l-2.93 -620.78c-0.17,-36.24 29.34,-66.07 65.58,-66.3z"/>
  <ellipse class="fil3 str0" cx="4518.65" cy="2457.02" rx="62.31" ry="31.15"/>
  <path class="fil9" d="M4517.44 2698.97l3.16 -0.01c37.98,-0.15 69.28,30.8 69.57,68.78l2.53 336.72c0.29,37.98 -30.55,69.17 -68.53,69.32l0 0c-37.98,0.15 -69.28,-30.8 -69.57,-68.78l-2.55 -339.88c-0.27,-36.24 29.15,-66 65.39,-66.15z"/>
  <ellipse class="fil3 str0" cx="4522.38" cy="2733.5" rx="62.31" ry="30.59"/>
  <path class="fil3 str0" d="M4674.47 2422.07l3.17 -0.02c37.98,-0.24 69.2,30.64 69.37,68.62l2.92 617.61c0.18,37.98 -30.74,69.24 -68.72,69.48l-0 0c-37.98,0.24 -69.2,-30.64 -69.38,-68.62l-2.93 -620.78c-0.17,-36.24 29.34,-66.07 65.58,-66.3z"/>
  <ellipse class="fil3 str0" cx="4675.52" cy="2457.03" rx="62.31" ry="31.15"/>
  <path class="fil9" d="M4674.31 2698.97l3.16 -0.01c37.98,-0.15 69.28,30.8 69.57,68.78l2.53 336.72c0.29,37.98 -30.55,69.17 -68.53,69.32l0 0c-37.98,0.15 -69.28,-30.8 -69.57,-68.78l-2.55 -339.88c-0.27,-36.24 29.15,-66 65.39,-66.15z"/>
  <ellipse class="fil3 str0" cx="4679.25" cy="2733.5" rx="62.31" ry="30.59"/>
  <ellipse class="fil3 str0" cx="2726.82" cy="2071.35" rx="23.69" ry="22.56"/>
  <rect class="fil0 str0" x="384.53" y="2796.01" width="4404.86" height="23.28"/>
  <rect class="fil0 str0" x="374.08" y="2936.1" width="4404.86" height="23.28"/>
  <rect class="fil3 str0" x="1025.33" y="2980.72" width="316.8" height="156.16" rx="118.13" ry="55.87"/>
  <rect class="fil3 str0" x="968.51" y="2779.93" width="426.11" height="401.56" rx="46.42" ry="41.97"/>
  <path class="fil0 str0" d="M1350.89 2779.94l-338.63 0c-24.06,0 -43.74,19.68 -43.74,43.74l0 314.08c0,24.06 19.68,43.74 43.74,43.74l338.63 0c24.06,0 43.74,-19.68 43.74,-43.74l0 -314.08c0,-24.06 -19.68,-43.74 -43.74,-43.74zm-267.32 200.78l200.34 0c32.03,0 58.23,26.2 58.23,58.23l0 39.7c0,32.03 -26.2,58.23 -58.23,58.23l-200.34 0c-32.03,0 -58.23,-26.2 -58.23,-58.23l0 -39.7c0,-32.03 26.2,-58.23 58.23,-58.23z"/>
  <ellipse class="fil3 str0" cx="1009.9" cy="2807.65" rx="13.3" ry="11.64"/>
  <ellipse class="fil3 str0" cx="1008.77" cy="2943.87" rx="13.3" ry="11.64"/>
  <ellipse class="fil3 str0" cx="1350.51" cy="2807.67" rx="13.3" ry="11.64"/>
  <ellipse class="fil3 str0" cx="1353.52" cy="2946.74" rx="13.3" ry="11.64"/>
  <rect class="fil3 str0" x="2055.71" y="2978.79" width="316.8" height="156.16" rx="118.13" ry="55.87"/>
  <rect class="fil3 str0" x="1998.88" y="2778.01" width="426.11" height="401.56" rx="46.42" ry="41.97"/>
  <path class="fil0 str0" d="M2381.26 2778.01l-338.63 0c-24.06,0 -43.74,19.68 -43.74,43.74l0 314.08c0,24.06 19.68,43.74 43.74,43.74l338.63 0c24.06,0 43.74,-19.68 43.74,-43.74l0 -314.08c0,-24.06 -19.68,-43.74 -43.74,-43.74zm-267.32 200.78l200.34 0c32.03,0 58.23,26.2 58.23,58.23l0 39.7c0,32.03 -26.2,58.23 -58.23,58.23l-200.34 0c-32.03,0 -58.23,-26.2 -58.23,-58.23l0 -39.7c0,-32.03 26.2,-58.23 58.23,-58.23z"/>
  <ellipse class="fil3 str0" cx="2040.28" cy="2805.72" rx="13.3" ry="11.64"/>
  <ellipse class="fil3 str0" cx="2039.15" cy="2941.94" rx="13.3" ry="11.64"/>
  <ellipse class="fil3 str0" cx="2380.88" cy="2805.74" rx="13.3" ry="11.64"/>
  <ellipse class="fil3 str0" cx="2383.89" cy="2944.81" rx="13.3" ry="11.64"/>
  <rect class="fil3 str0" x="3251.03" y="2978.79" width="316.8" height="156.16" rx="118.13" ry="55.87"/>
  <rect class="fil3 str0" x="3194.2" y="2778.01" width="426.11" height="401.56" rx="46.42" ry="41.97"/>
  <path class="fil0 str0" d="M3576.58 2778.01l-338.63 0c-24.06,0 -43.74,19.68 -43.74,43.74l0 314.08c0,24.06 19.68,43.74 43.74,43.74l338.63 0c24.06,0 43.74,-19.68 43.74,-43.74l0 -314.08c0,-24.06 -19.68,-43.74 -43.74,-43.74zm-267.32 200.78l200.34 0c32.03,0 58.23,26.2 58.23,58.23l0 39.7c0,32.03 -26.2,58.23 -58.23,58.23l-200.34 0c-32.03,0 -58.23,-26.2 -58.23,-58.23l0 -39.7c0,-32.03 26.2,-58.23 58.23,-58.23z"/>
  <ellipse class="fil3 str0" cx="3235.59" cy="2805.72" rx="13.3" ry="11.64"/>
  <ellipse class="fil3 str0" cx="3234.46" cy="2941.94" rx="13.3" ry="11.64"/>
  <ellipse class="fil3 str0" cx="3576.2" cy="2805.74" rx="13.3" ry="11.64"/>
  <ellipse class="fil3 str0" cx="3579.21" cy="2944.81" rx="13.3" ry="11.64"/>
  <rect class="fil3 str0" x="4394.51" y="2976.81" width="316.8" height="156.16" rx="118.13" ry="55.87"/>
  <rect class="fil3 str0" x="4337.68" y="2776.03" width="426.11" height="401.56" rx="46.42" ry="41.97"/>
  <path class="fil0 str0" d="M4720.06 2776.03l-338.63 0c-24.06,0 -43.74,19.68 -43.74,43.74l0 314.08c0,24.06 19.68,43.74 43.74,43.74l338.63 0c24.06,0 43.74,-19.68 43.74,-43.74l0 -314.08c0,-24.06 -19.68,-43.74 -43.74,-43.74zm-267.32 200.78l200.34 0c32.03,0 58.23,26.2 58.23,58.23l0 39.7c0,32.03 -26.2,58.23 -58.23,58.23l-200.34 0c-32.03,0 -58.23,-26.2 -58.23,-58.23l0 -39.7c0,-32.03 26.2,-58.23 58.23,-58.23z"/>
  <ellipse class="fil3 str0" cx="4379.07" cy="2803.74" rx="13.3" ry="11.64"/>
  <ellipse class="fil3 str0" cx="4377.94" cy="2939.96" rx="13.3" ry="11.64"/>
  <ellipse class="fil3 str0" cx="4719.68" cy="2803.76" rx="13.3" ry="11.64"/>
  <ellipse class="fil3 str0" cx="4722.69" cy="2942.83" rx="13.3" ry="11.64"/>
  <rect class="fil10 str0" x="250.69" y="749.17" width="4877.37" height="41.35"/>
  <rect class="fil0 str0" x="3584.38" y="794.02" width="122.82" height="899.2"/>
  <rect class="fil11 str0" x="3633.98" y="794.02" width="27.95" height="899.2"/>
  <rect class="fil12 str0" x="3584.38" y="1670.26" width="122.82" height="22.95"/>
  <path class="fil13 str0" d="M3715.46 1130.62l65.16 0c80.33,0 146.06,-65.73 146.06,-146.06l0 -183.11c0,-4.55 -3.72,-8.27 -8.27,-8.27l-202.96 0c-4.55,0 -8.27,3.72 -8.27,8.27l0 320.91c0,4.55 3.72,8.27 8.27,8.27z"/>
  <path class="fil14 str0" d="M3510.95 1132.73l65.16 0c4.55,0 8.27,-3.72 8.27,-8.27l0 -320.91c0,-4.55 -3.72,-8.27 -8.27,-8.27l-202.96 0c-4.55,0 -8.27,3.72 -8.27,8.27l0 183.11c0,80.33 65.73,146.06 146.06,146.06z"/>
  <rect class="fil1 str0" x="3606.03" y="1060.57" width="81.32" height="79.15"/>
  <rect class="fil15 str0" x="3606.03" y="1113.7" width="81.32" height="26.02"/>
  <rect class="fil14 str0" x="3636.4" y="1141.23" width="19.52" height="61.81"/>
  <rect class="fil16" x="3629.69" y="1142.44" width="36.67" height="18.43"/>
  <path class="fil17 str1" d="M3637.85 1192.9l14.47 0 0 1091.56c0,7.96 -6.51,14.47 -14.47,14.47l0 0 0 -1106.04z"/>
  <ellipse class="fil11 str0" cx="2660.11" cy="389.28" rx="44.12" ry="41.92"/>
 </g>
</svg>
