<?xml version="1.0" encoding="UTF-8"?>
<!DOCTYPE svg PUBLIC "-//W3C//DTD SVG 1.1//EN" "http://www.w3.org/Graphics/SVG/1.1/DTD/svg11.dtd">
<!-- Creator: CorelDRAW -->
<svg xmlns="http://www.w3.org/2000/svg" xml:space="preserve" width="2.49999in" height="4.37499in" version="1.1" style="shape-rendering:geometricPrecision; text-rendering:geometricPrecision; image-rendering:optimizeQuality; fill-rule:evenodd; clip-rule:evenodd"
viewBox="0 0 2499.99 4374.99"
 xmlns:xlink="http://www.w3.org/1999/xlink"
 xmlns:xodm="http://www.corel.com/coreldraw/odm/2003">
 <defs>
  <style type="text/css">
   <![CDATA[
    .str3 {stroke:black;stroke-width:10.41;stroke-miterlimit:2.61313;stroke-opacity:0.341176}
    .str1 {stroke:black;stroke-width:10.41;stroke-miterlimit:2.61313;stroke-opacity:0.501961}
    .str0 {stroke:black;stroke-width:10.41;stroke-miterlimit:2.61313}
    .str4 {stroke:#414A87;stroke-width:10.41;stroke-miterlimit:2.61313}
    .str2 {stroke:#E0E0E3;stroke-width:20.83;stroke-miterlimit:2.61313}
    .fil4 {fill:none}
    .fil6 {fill:black}
    .fil7 {fill:#404040}
    .fil11 {fill:#414A87}
    .fil1 {fill:#525151}
    .fil10 {fill:#945151}
    .fil0 {fill:#BFBFBF}
    .fil5 {fill:#C2C2C2}
    .fil2 {fill:#EBEBEB}
    .fil8 {fill:black;fill-rule:nonzero}
    .fil9 {fill:#457C96;fill-opacity:0.341176}
    .fil3 {fill:#4D4D4D;fill-opacity:0.501961}
   ]]>
  </style>
 </defs>
 <g id="Layer_x0020_1">
  <metadata id="CorelCorpID_0Corel-Layer"/>
  <rect class="fil0 str0" x="148.55" y="4264.82" width="576.27" height="72.92"/>
  <path class="fil1 str0" d="M1775.11 4321.58c-0.01,-86.27 21.5,-56.49 -111.84,-64.67 -326.25,-20.01 -539.54,-14.75 -864.05,3.84 -95.11,5.45 -75.58,-21.64 -75.59,76.83 363.03,-19.39 609.24,-33.79 976.94,-5.76l68.16 1.5 6.39 -11.74z"/>
  <rect class="fil0 str0" x="1769.36" y="4264.82" width="576.27" height="72.92"/>
  <rect class="fil2 str0" x="58.32" y="4160.82" width="2381.72" height="99.31"/>
  <polygon class="fil3 str1" points="58.32,3752.75 2440.04,3752.75 2440.04,4160.82 58.32,4160.82 "/>
  <rect class="fil2 str0" x="58.32" y="3648.56" width="2381.72" height="99.31"/>
  <rect class="fil0 str0" x="149.42" y="3591.82" width="1156.58" height="53.98"/>
  <rect class="fil0 str0" x="148.55" y="4264.82" width="576.27" height="72.92"/>
  <rect class="fil0 str0" x="1483.66" y="3591.82" width="864" height="53.98"/>
  <rect class="fil0 str0" x="146.75" y="3533.05" width="870.73" height="53.98"/>
  <rect class="fil0 str0" x="1267.27" y="3533.05" width="1083.06" height="53.98"/>
  <rect class="fil2 str0" x="58.32" y="3430.96" width="2381.72" height="99.31"/>
  <polygon class="fil3 str1" points="62.39,2095.43 2444.11,2095.43 2444.11,3425.4 62.39,3425.4 "/>
  <rect class="fil4 str0" x="1422.77" y="3095.41" width="1020.51" height="329.99"/>
  <rect class="fil4 str0" x="1422.77" y="2764.02" width="1018.05" height="329.99"/>
  <rect class="fil4 str0" x="1424.72" y="2435.88" width="1018.56" height="329.99"/>
  <rect class="fil4 str0" x="1422.77" y="2102.8" width="1021.98" height="329.99"/>
  <circle class="fil4 str2" cx="1933.76" cy="2267.84" r="41.67"/>
  <circle class="fil4 str2" cx="1933.76" cy="2600.86" r="41.67"/>
  <circle class="fil4 str2" cx="1933.76" cy="2928.99" r="41.67"/>
  <circle class="fil4 str2" cx="1933.76" cy="3260.44" r="41.67"/>
  <path class="fil5 str0" d="M1385.79 2695.76l33.3 0 0 151.61 -33.3 0c-28.46,0 -51.75,-23.28 -51.75,-51.75l0 -48.12c0,-28.46 23.28,-51.75 51.75,-51.75z"/>
  <rect class="fil2 str0" x="58.32" y="1993.4" width="2381.72" height="99.31"/>
  <rect class="fil6 str0" x="1017.48" y="3533.05" width="249.79" height="53.98"/>
  <rect class="fil6 str0" x="1306.01" y="3591.82" width="177.66" height="53.98"/>
  <line class="fil4 str0" x1="1806.4" y1="3690.76" x2="1806.4" y2= "4202.23" />
  <rect class="fil0 str0" x="324.05" y="1939.78" width="692.29" height="53.98"/>
  <rect class="fil0 str0" x="324.05" y="1884.76" width="691.42" height="53.98"/>
  <rect class="fil0 str0" x="1499.76" y="1939.78" width="742.6" height="53.98"/>
  <rect class="fil0 str0" x="1498.89" y="1884.76" width="743.47" height="53.98"/>
  <rect class="fil7 str0" x="1017.79" y="1883.04" width="481.11" height="53.98"/>
  <rect class="fil6 str0" x="1016.65" y="1938.58" width="481.11" height="53.98"/>
  <rect class="fil2 str0" x="73.4" y="1325.17" width="2381.72" height="551.31" rx="720.02" ry="158.73"/>
  <path class="fil6 str0" d="M1264.29 1332.8l110 0c0,53.37 -49.25,96.65 -110,96.65 -60.75,0 -110,-43.27 -110,-96.65l110 0z"/>
  <g>
   <path class="fil8" d="M278.02 1583.4l-6.36 -0 0.01 -10.41c486.94,0.3 964.34,-9.5 1455.6,-6.37l505.33 7.65 -0.01 10.41c-643.63,16.03 -1253.21,1.11 -1891.86,-1.14l-62.71 -0.13z"/>
  </g>
  <rect class="fil2 str0" x="48.23" y="735.11" width="2381.72" height="99.31"/>
  <rect class="fil0 str0" x="313.96" y="681.5" width="692.29" height="53.98"/>
  <rect class="fil0 str0" x="313.96" y="626.47" width="691.42" height="53.98"/>
  <rect class="fil0 str0" x="1489.67" y="681.5" width="742.6" height="53.98"/>
  <rect class="fil0 str0" x="1488.8" y="626.47" width="743.47" height="53.98"/>
  <rect class="fil7 str0" x="1007.7" y="624.75" width="481.11" height="53.98"/>
  <rect class="fil6 str0" x="1006.56" y="680.3" width="481.11" height="53.98"/>
  <rect class="fil0 str0" x="322.59" y="1272.32" width="1916.37" height="53.98"/>
  <rect class="fil0 str0" x="322.59" y="1217.3" width="691.42" height="53.98"/>
  <rect class="fil0 str0" x="1497.43" y="1217.3" width="743.47" height="53.98"/>
  <rect class="fil7 str0" x="1016.33" y="1215.58" width="481.11" height="53.98"/>
  <rect class="fil2 str0" x="44.86" y="1111.84" width="2381.72" height="99.31"/>
  <polygon class="fil3 str1" points="47.85,838.24 2429.57,838.24 2429.57,1109.69 47.85,1109.69 "/>
  <line class="fil4 str0" x1="1868.34" y1="794.62" x2="1868.34" y2= "1147.87" />
  <path class="fil9 str3" d="M277.16 177.27l119.66 0c0,45.83 37.5,83.33 83.33,83.33l0 355 -286.32 0 0 -355c45.83,0 83.33,-37.5 83.33,-83.33z"/>
  <rect class="fil6 str0" x="264.85" y="157.33" width="147.89" height="16.93"/>
  <rect class="fil10 str0" x="287.37" y="87.49" width="101.56" height="69.49"/>
  <rect class="fil6 str0" x="291.05" y="40.2" width="37.54" height="11.2"/>
  <rect class="fil6 str0" x="303.73" y="50.07" width="12.18" height="33.58"/>
  <polygon class="fil11 str4" points="366.75,91.62 362.24,65.93 357.74,40.25 366.76,40.25 375.77,40.25 371.26,65.93 "/>
  <path class="fil9 str3" d="M511.22 174.32l119.66 0c0,45.83 37.5,83.33 83.33,83.33l0 355 -286.32 0 0 -355c45.83,0 83.33,-37.5 83.33,-83.33z"/>
  <rect class="fil6 str0" x="498.91" y="154.39" width="147.89" height="16.93"/>
  <rect class="fil10 str0" x="521.43" y="84.55" width="101.56" height="69.49"/>
  <rect class="fil6 str0" x="525.11" y="37.25" width="37.54" height="11.2"/>
  <rect class="fil6 str0" x="537.79" y="47.13" width="12.18" height="33.58"/>
  <polygon class="fil11 str4" points="600.81,88.67 596.31,62.99 591.8,37.31 600.82,37.31 609.83,37.31 605.33,62.99 "/>
  <path class="fil9 str3" d="M909.45 175.72l119.66 0c0,45.83 37.5,83.33 83.33,83.33l0 355 -286.32 0 0 -355c45.83,0 83.33,-37.5 83.33,-83.33z"/>
  <rect class="fil6 str0" x="897.14" y="155.79" width="147.89" height="16.93"/>
  <rect class="fil10 str0" x="919.66" y="85.95" width="101.56" height="69.49"/>
  <rect class="fil6 str0" x="923.34" y="38.65" width="37.54" height="11.2"/>
  <rect class="fil6 str0" x="936.02" y="48.52" width="12.18" height="33.58"/>
  <polygon class="fil11 str4" points="999.04,90.07 994.53,64.39 990.02,38.7 999.04,38.7 1008.06,38.7 1003.55,64.39 "/>
  <path class="fil9 str3" d="M2088.67 175.72l119.66 0c0,45.83 37.5,83.33 83.33,83.33l0 355 -286.32 0 0 -355c45.83,0 83.33,-37.5 83.33,-83.33z"/>
  <rect class="fil6 str0" x="2076.35" y="155.79" width="147.89" height="16.93"/>
  <rect class="fil10 str0" x="2098.87" y="85.95" width="101.56" height="69.49"/>
  <rect class="fil6 str0" x="2102.55" y="38.65" width="37.54" height="11.2"/>
  <rect class="fil6 str0" x="2115.23" y="48.53" width="12.18" height="33.58"/>
  <polygon class="fil11 str4" points="2178.26,90.07 2173.75,64.39 2169.24,38.71 2178.26,38.71 2187.28,38.71 2182.77,64.39 "/>
  <path class="fil9 str3" d="M1571.15 175.72l119.66 0c0,45.83 37.5,83.33 83.33,83.33l0 355 -286.32 0 0 -355c45.83,0 83.33,-37.5 83.33,-83.33z"/>
  <rect class="fil6 str0" x="1558.84" y="155.79" width="147.89" height="16.93"/>
  <rect class="fil10 str0" x="1581.36" y="85.95" width="101.56" height="69.49"/>
  <rect class="fil6 str0" x="1585.04" y="38.65" width="37.54" height="11.2"/>
  <rect class="fil6 str0" x="1597.72" y="48.53" width="12.18" height="33.58"/>
  <polygon class="fil11 str4" points="1660.74,90.07 1656.23,64.39 1651.72,38.71 1660.74,38.71 1669.76,38.71 1665.25,64.39 "/>
  <rect class="fil2 str0" x="54.14" y="520.64" width="2381.72" height="99.31"/>
 </g>
</svg>
