<?xml version="1.0" encoding="UTF-8"?>
<!DOCTYPE svg PUBLIC "-//W3C//DTD SVG 1.1//EN" "http://www.w3.org/Graphics/SVG/1.1/DTD/svg11.dtd">
<!-- Creator: CorelDRAW -->
<svg xmlns="http://www.w3.org/2000/svg" xml:space="preserve" width="2.23958in" height="1.66666in" version="1.1" style="shape-rendering:geometricPrecision; text-rendering:geometricPrecision; image-rendering:optimizeQuality; fill-rule:evenodd; clip-rule:evenodd"
viewBox="0 0 2239.58 1666.66"
 xmlns:xlink="http://www.w3.org/1999/xlink"
 xmlns:xodm="http://www.corel.com/coreldraw/odm/2003">
 <defs>
  <style type="text/css">
   <![CDATA[
    .str0 {stroke:black;stroke-width:10.41;stroke-miterlimit:2.61313}
    .str1 {stroke:#616161;stroke-width:41.67;stroke-miterlimit:2.61313}
    .fil5 {fill:none}
    .fil4 {fill:black}
    .fil9 {fill:dimgray}
    .fil6 {fill:#6B6B6B}
    .fil3 {fill:#919191}
    .fil7 {fill:#C9C9C9}
    .fil8 {fill:#D1D1D1}
    .fil2 {fill:#E8E5E5}
    .fil1 {fill:#FCFCFC}
    .fil0 {fill:white}
   ]]>
  </style>
 </defs>
 <g id="Layer_x0020_1">
  <metadata id="CorelCorpID_0Corel-Layer"/>
  <rect class="fil0 str0" x="9.75" y="15.18" width="2221.36" height="1487.92" rx="41.67" ry="41.67"/>
  <circle class="fil1 str0" cx="699.92" cy="1132.85" r="182.29"/>
  <rect class="fil2 str0" x="1221.95" y="847.1" width="904.73" height="569.42" rx="86.21" ry="83.33"/>
  <rect class="fil3 str0" x="107.33" y="56.51" width="2035.01" height="457.06" rx="104.78" ry="83.33"/>
  <rect class="fil4 str0" x="193.21" y="114.99" width="920.39" height="332.29" rx="45.78" ry="62.5"/>
  <circle class="fil5 str0" cx="1430.28" cy="1131.81" r="156.25"/>
  <circle class="fil5 str0" cx="1888.17" cy="1131.81" r="156.25"/>
  <circle class="fil5 str0" cx="1888.17" cy="1131.81" r="140.62"/>
  <circle class="fil5 str0" cx="1430.28" cy="1131.81" r="140.62"/>
  <circle class="fil6 str0" cx="1306.94" cy="912.77" r="26.04"/>
  <circle class="fil5 str0" cx="1306.94" cy="912.77" r="41.67"/>
  <circle class="fil6 str0" cx="2036.09" cy="912.77" r="26.04"/>
  <circle class="fil5 str0" cx="2036.09" cy="912.77" r="41.67"/>
  <circle class="fil6 str0" cx="1306.94" cy="1329.43" r="26.04"/>
  <circle class="fil5 str0" cx="1306.94" cy="1329.43" r="41.67"/>
  <circle class="fil6 str0" cx="2036.09" cy="1329.43" r="26.04"/>
  <circle class="fil5 str0" cx="2036.09" cy="1329.43" r="41.67"/>
  <rect class="fil7 str0" x="1338.28" y="802.53" width="194.89" height="35.14"/>
  <rect class="fil8 str0" x="1374.73" y="732.04" width="122" height="70.49"/>
  <rect class="fil4 str0" x="1405.98" y="712.7" width="59.51" height="19.34"/>
  <rect class="fil7 str0" x="1801.79" y="810.4" width="194.89" height="35.14"/>
  <rect class="fil8 str0" x="1838.23" y="739.92" width="122" height="70.49"/>
  <rect class="fil4 str0" x="1869.48" y="720.58" width="59.51" height="19.34"/>
  <polygon class="fil4 str0" points="699.92,1028.69 732.11,1038.63 764.3,1048.58 784.19,1074.62 804.08,1100.67 804.08,1132.85 804.08,1165.04 784.19,1191.09 764.3,1217.13 732.11,1227.07 699.92,1237.02 667.73,1227.07 635.54,1217.13 615.65,1191.09 595.75,1165.04 595.75,1132.85 595.75,1100.67 615.65,1074.62 635.54,1048.58 667.73,1038.63 "/>
  <rect class="fil4 str0" x="670.16" y="859.54" width="59.51" height="91.02"/>
  <rect class="fil9 str0" x="645.44" y="1354.77" width="103.35" height="16.09"/>
  <rect class="fil4 str0" x="670.16" y="1315.15" width="59.51" height="39.62"/>
  <rect class="fil4 str0" x="882.21" y="1103.52" width="41.52" height="58.66"/>
  <path class="fil5 str1" d="M1435.73 686.42c-0.19,-21.43 -0.38,-42.85 -48.03,-52.9 -47.65,-10.06 -142.76,-8.75 -194.25,-8.09 -51.49,0.65 -59.37,0.65 -63.96,78.39 -4.59,77.73 -5.9,233.19 -6.23,315.18 -0.33,82 0.33,90.52 -27.33,97.26 -27.66,6.73 -83.62,11.67 -111.6,14.13 -27.98,2.47 -27.98,2.47 -27.98,2.47"/>
  <path class="fil5 str1" d="M1904.5 694.3c-1.97,-36.19 -3.94,-72.37 -5.09,-92.75 -1.15,-20.39 -1.48,-24.98 -194.98,-25.8 -193.5,-0.82 -580.19,2.13 -780.42,3.61 -200.23,1.48 -214,1.48 -220.28,43.55 -6.28,42.07 -5.05,126.21 -3.82,210.36"/>
  <rect class="fil9 str0" x="648.24" y="833.26" width="103.35" height="26.28"/>
  <rect class="fil9 str0" x="1384.06" y="686.42" width="103.35" height="26.28"/>
  <rect class="fil9 str0" x="1847.56" y="694.3" width="103.35" height="26.28"/>
  <rect class="fil9 str0" x="923.72" y="1094.46" width="32.63" height="76.8"/>
  <circle class="fil0 str0" cx="1402.65" cy="171.89" r="41.67"/>
  <circle class="fil0 str0" cx="1234.23" cy="176.44" r="41.67"/>
  <circle class="fil0 str0" cx="1715.15" cy="171.89" r="41.67"/>
  <circle class="fil0 str0" cx="1546.72" cy="176.44" r="41.67"/>
  <circle class="fil0 str0" cx="1402.65" cy="380.22" r="41.67"/>
  <circle class="fil0 str0" cx="1234.23" cy="384.77" r="41.67"/>
  <circle class="fil0 str0" cx="1715.15" cy="380.22" r="41.67"/>
  <circle class="fil0 str0" cx="1546.72" cy="384.77" r="41.67"/>
  <rect class="fil7 str0" x="1341.19" y="1416.52" width="194.89" height="35.14"/>
  <rect class="fil7 str0" x="1802.98" y="1416.77" width="194.89" height="35.14"/>
  <rect class="fil7 str0" x="1375.45" y="1451.66" width="126.39" height="25.56"/>
  <rect class="fil7 str0" x="1341.19" y="1477.21" width="194.89" height="102.68"/>
  <rect class="fil7 str0" x="1833.06" y="1453.15" width="126.39" height="25.56"/>
  <rect class="fil7 str0" x="1798.81" y="1478.7" width="194.89" height="102.68"/>
  <polygon class="fil4 str0" points="1438.65,1501.77 1462.79,1509.23 1486.93,1516.69 1501.85,1536.22 1516.77,1555.76 1516.77,1579.9 1516.77,1604.04 1501.85,1623.57 1486.93,1643.1 1462.79,1650.56 1438.65,1658.02 1414.51,1650.56 1390.37,1643.1 1375.44,1623.57 1360.52,1604.04 1360.52,1579.9 1360.52,1555.76 1375.44,1536.22 1390.37,1516.69 1414.51,1509.23 "/>
  <polygon class="fil4 str0" points="1896.26,1503.26 1920.39,1510.72 1944.54,1518.18 1959.46,1537.71 1974.38,1557.24 1974.38,1581.39 1974.38,1605.53 1959.46,1625.06 1944.54,1644.59 1920.39,1652.05 1896.26,1659.51 1872.11,1652.05 1847.97,1644.59 1833.05,1625.06 1818.13,1605.53 1818.13,1581.39 1818.13,1557.24 1833.05,1537.71 1847.97,1518.18 1872.11,1510.72 "/>
 </g>
</svg>
