<?xml version="1.0" encoding="UTF-8"?>
<!DOCTYPE svg PUBLIC "-//W3C//DTD SVG 1.1//EN" "http://www.w3.org/Graphics/SVG/1.1/DTD/svg11.dtd">
<!-- Creator: CorelDRAW -->
<svg xmlns="http://www.w3.org/2000/svg" xml:space="preserve" width="3.54166in" height="3.85417in" version="1.1" style="shape-rendering:geometricPrecision; text-rendering:geometricPrecision; image-rendering:optimizeQuality; fill-rule:evenodd; clip-rule:evenodd"
viewBox="0 0 3541.66 3854.17"
 xmlns:xlink="http://www.w3.org/1999/xlink"
 xmlns:xodm="http://www.corel.com/coreldraw/odm/2003">
 <defs>
  <style type="text/css">
   <![CDATA[
    .str0 {stroke:black;stroke-width:10.41;stroke-miterlimit:2.61313}
    .fil3 {fill:black}
    .fil6 {fill:#045266}
    .fil2 {fill:#342DB5}
    .fil1 {fill:#8A8A8A}
    .fil4 {fill:#A6A3A3}
    .fil5 {fill:#BABABA}
    .fil0 {fill:#E8E8E8}
    .fil7 {fill:white}
   ]]>
  </style>
 </defs>
 <g id="Layer_x0020_1">
  <metadata id="CorelCorpID_0Corel-Layer"/>
  <rect class="fil0 str0" x="424.13" y="2607.15" width="2692.65" height="1180.98"/>
  <rect class="fil1 str0" x="2275.97" y="1473.99" width="547.98" height="1133.74"/>
  <rect class="fil2 str0" x="2408.19" y="1330.45" width="249.71" height="143.54"/>
  <rect class="fil3 str0" x="2386.04" y="1264.32" width="292.89" height="66.13"/>
  <rect class="fil3 str0" x="518.61" y="150.7" width="368.46" height="47.24"/>
  <rect class="fil4 str0" x="234.1" y="3122.06" width="189.07" height="406.26"/>
  <rect class="fil5 str0" x="74.39" y="3188.09" width="160.61" height="245.65"/>
  <rect class="fil3 str0" x="1002.43" y="144.12" width="368.46" height="47.24"/>
  <rect class="fil3 str0" x="1472.17" y="150.7" width="368.46" height="47.24"/>
  <rect class="fil6 str0" x="425.7" y="197.94" width="1849.28" height="2816.22"/>
  <rect class="fil4 str0" x="3112.94" y="3017.71" width="189.07" height="406.26"/>
  <rect class="fil5 str0" x="3300.97" y="3088.63" width="160.61" height="245.65"/>
  <rect class="fil7" x="586.39" y="2356.54" width="986.43" height="300.63"/>
  <polygon class="fil7" points="1941.56,2496.36 1673.81,2642.81 1406.07,2789.25 1406.07,2496.36 1406.07,2203.46 1673.81,2349.91 "/>
 </g>
</svg>
