<?xml version="1.0" encoding="UTF-8" standalone="no"?>
<svg width="14.8167mm" height="50.8mm"
 viewBox="0 0 42 143.308"
 xmlns="http://www.w3.org/2000/svg" xmlns:xlink="http://www.w3.org/1999/xlink"  version="1.2" baseProfile="tiny">
<title>MultiChannelADC</title>
<desc>Chemunited component figure exported without name or port labels.</desc>
<defs>
</defs>
<g fill="none" stroke="black" stroke-width="1" fill-rule="evenodd" stroke-linecap="square" stroke-linejoin="bevel" >

<g fill="none" stroke="#000000" stroke-opacity="1" stroke-width="1" stroke-linecap="square" stroke-linejoin="bevel" transform="matrix(1,0,0,1,0,0)"
font-family="MS Shell Dlg 2" font-size="8.25" font-weight="400" font-style="normal"
>
</g>

<g fill="none" stroke="#000000" stroke-opacity="1" stroke-width="1" stroke-linecap="square" stroke-linejoin="bevel" transform="matrix(1,0,0,1,0,0)"
font-family="MS Shell Dlg 2" font-size="8.25" font-weight="400" font-style="normal"
>
</g>

<g fill="#ffffff" fill-opacity="1" stroke="#000000" stroke-opacity="1" stroke-width="1" stroke-linecap="square" stroke-linejoin="bevel" transform="matrix(1,0,0,1,21,67)"
font-family="MS Shell Dlg 2" font-size="8.25" font-weight="400" font-style="normal"
>
<rect x="-7.5" y="-66" width="15" height="132"/>
</g>

<g fill="#ffffff" fill-opacity="1" stroke="#e8f5e9" stroke-opacity="1" stroke-width="2" stroke-linecap="square" stroke-linejoin="bevel" transform="matrix(1,0,0,1,21,67)"
font-family="MS Shell Dlg 2" font-size="8.25" font-weight="400" font-style="normal"
>
<circle cx="0" cy="-58" r="4"/>
<circle cx="0" cy="-42" r="4"/>
<circle cx="0" cy="-26" r="4"/>
<circle cx="0" cy="-10" r="4"/>
<circle cx="0" cy="6" r="4"/>
<circle cx="0" cy="22" r="4"/>
<circle cx="0" cy="38" r="4"/>
<circle cx="0" cy="54" r="4"/>
</g>

<g fill="none" stroke="#000000" stroke-opacity="1" stroke-width="1" stroke-linecap="square" stroke-linejoin="bevel" transform="matrix(1,0,0,1,0,0)"
font-family="MS Shell Dlg 2" font-size="8.25" font-weight="400" font-style="normal"
>
</g>

<g fill="none" stroke="#000000" stroke-opacity="1" stroke-width="1" stroke-linecap="square" stroke-linejoin="bevel" transform="matrix(0.125786,0,0,0.125786,1,133)"
font-family="MS Shell Dlg 2" font-size="8.25" font-weight="400" font-style="normal"
>
</g>

<g fill="none" stroke="none" transform="matrix(0.0112941,0,0,0.0111699,1,133)"
font-family="MS Shell Dlg 2" font-size="8.25" font-weight="400" font-style="normal"
>
<rect x="-2.75" y="61.21" width="3530.1" height="543.05"/>
</g>

<g fill="none" stroke="#000000" stroke-opacity="1" stroke-width="10.41" stroke-linecap="butt" stroke-linejoin="miter" stroke-miterlimit="2.61313" transform="matrix(0.0112941,0,0,0.0111699,1,133)"
font-family="MS Shell Dlg 2" font-size="8.25" font-weight="400" font-style="normal"
>
<rect x="-2.75" y="61.21" width="3530.1" height="543.05"/>
</g>

<g fill="#000000" fill-opacity="1" stroke="none" transform="matrix(0.0112941,0,0,0.0111699,1,133)"
font-family="MS Shell Dlg 2" font-size="8.25" font-weight="400" font-style="normal"
>
<rect x="225.53" y="604.26" width="1104" height="169.38"/>
</g>

<g fill="none" stroke="#000000" stroke-opacity="1" stroke-width="10.41" stroke-linecap="butt" stroke-linejoin="miter" stroke-miterlimit="2.61313" transform="matrix(0.0112941,0,0,0.0111699,1,133)"
font-family="MS Shell Dlg 2" font-size="8.25" font-weight="400" font-style="normal"
>
<rect x="225.53" y="604.26" width="1104" height="169.38"/>
</g>

<g fill="#000000" fill-opacity="1" stroke="none" transform="matrix(0.0112941,0,0,0.0111699,1,133)"
font-family="MS Shell Dlg 2" font-size="8.25" font-weight="400" font-style="normal"
>
<rect x="2204.68" y="604.26" width="1104" height="169.38"/>
</g>

<g fill="none" stroke="#000000" stroke-opacity="1" stroke-width="10.41" stroke-linecap="butt" stroke-linejoin="miter" stroke-miterlimit="2.61313" transform="matrix(0.0112941,0,0,0.0111699,1,133)"
font-family="MS Shell Dlg 2" font-size="8.25" font-weight="400" font-style="normal"
>
<rect x="2204.68" y="604.26" width="1104" height="169.38"/>
</g>

<g fill="#000000" fill-opacity="1" stroke="none" transform="matrix(0.0112941,0,0,0.0111699,1,133)"
font-family="MS Shell Dlg 2" font-size="8.25" font-weight="400" font-style="normal"
>
<path vector-effect="none" fill-rule="nonzero" d="M1239.45,506.76 L1372.97,158.7 L1423.61,158.7 L1565.39,506.76 L1512.89,506.76 L1472.62,401.28 L1326.06,401.28 L1288.31,506.76 L1239.46,506.76 L1239.45,506.76 M1339.59,363.84 L1458.2,363.84 L1421.9,267.35 C1410.96,238.02 1402.7,213.8 1396.95,194.68 C1392.17,217.37 1385.77,239.64 1377.75,261.68 L1339.59,363.84"/>
</g>

<g fill="#000000" fill-opacity="1" stroke="none" transform="matrix(0.0112941,0,0,0.0111699,1,133)"
font-family="MS Shell Dlg 2" font-size="8.25" font-weight="400" font-style="normal"
>
<path vector-effect="none" fill-rule="nonzero" d="M1601.85,506.76 L1601.85,158.7 L1721.76,158.7 C1748.82,158.7 1769.48,160.32 1783.74,163.64 C1803.67,168.26 1820.68,176.6 1834.78,188.6 C1853.17,204.16 1866.86,223.92 1875.94,248.06 C1885.09,272.21 1889.63,299.83 1889.63,330.86 C1889.63,357.27 1886.55,380.69 1880.39,401.1 C1874.23,421.52 1866.29,438.45 1856.65,451.82 C1846.93,465.19 1836.4,475.72 1824.89,483.34 C1813.47,491.04 1799.61,496.87 1783.41,500.84 C1767.13,504.81 1748.49,506.75 1727.43,506.75 L1601.85,506.75 L1601.85,506.76 M1648.03,465.93 L1722.24,465.93 C1745.17,465.93 1763.15,463.82 1776.2,459.53 C1789.24,455.23 1799.61,449.24 1807.39,441.46 C1818.25,430.52 1826.76,415.77 1832.83,397.3 C1838.91,378.83 1841.99,356.47 1841.99,330.14 C1841.99,293.68 1835.99,265.65 1824.08,246.04 C1812.17,226.43 1797.67,213.31 1780.57,206.67 C1768.26,201.89 1748.4,199.54 1721.02,199.54 L1648.02,199.54 L1648.02,465.93 L1648.03,465.93"/>
</g>

<g fill="#000000" fill-opacity="1" stroke="none" transform="matrix(0.0112941,0,0,0.0111699,1,133)"
font-family="MS Shell Dlg 2" font-size="8.25" font-weight="400" font-style="normal"
>
<path vector-effect="none" fill-rule="nonzero" d="M2200.81,384.67 L2246.99,396.34 C2237.35,434.18 2220.01,462.94 2194.97,482.79 C2169.94,502.64 2139.31,512.6 2103.1,512.6 C2065.67,512.6 2035.21,504.98 2011.71,489.67 C1988.22,474.44 1970.39,452.32 1958.16,423.4 C1945.93,394.39 1939.77,363.36 1939.77,330.15 C1939.77,293.93 1946.66,262.34 1960.51,235.35 C1974.36,208.37 1994.05,187.87 2019.57,173.86 C2045.09,159.84 2073.2,152.88 2103.83,152.88 C2138.67,152.88 2167.92,161.71 2191.57,179.45 C2215.31,197.19 2231.84,222.07 2241.15,254.15 L2195.94,264.84 C2187.92,239.56 2176.17,221.09 2160.86,209.58 C2145.55,198 2126.27,192.25 2103.01,192.25 C2076.35,192.25 2053.99,198.65 2036.09,211.45 C2018.18,224.25 2005.54,241.51 1998.33,263.06 C1991.04,284.69 1987.39,306.97 1987.39,329.9 C1987.39,359.47 1991.69,385.32 2000.27,407.35 C2008.86,429.47 2022.23,445.91 2040.37,456.85 C2058.52,467.79 2078.13,473.21 2099.27,473.21 C2125.03,473.21 2146.75,465.76 2164.57,450.93 C2182.4,436.02 2194.47,413.99 2200.79,384.66 L2200.81,384.67"/>
</g>

<g fill="none" stroke="none" transform="matrix(0.0112941,0,0,0.0111699,1,133)"
font-family="MS Shell Dlg 2" font-size="8.25" font-weight="400" font-style="normal"
>
<path vector-effect="none" fill-rule="nonzero" d="M1239.45,506.76 L1372.97,158.7 L1423.61,158.7 L1565.39,506.76 L1512.89,506.76 L1472.62,401.28 L1326.06,401.28 L1288.31,506.76 L1239.46,506.76 L1239.45,506.76 M1339.59,363.84 L1458.2,363.84 L1421.9,267.35 C1410.96,238.02 1402.7,213.8 1396.95,194.68 C1392.17,217.37 1385.77,239.64 1377.75,261.68 L1339.59,363.84"/>
</g>

<g fill="none" stroke="#000000" stroke-opacity="1" stroke-width="41.67" stroke-linecap="butt" stroke-linejoin="miter" stroke-miterlimit="2.61313" transform="matrix(0.0112941,0,0,0.0111699,1,133)"
font-family="MS Shell Dlg 2" font-size="8.25" font-weight="400" font-style="normal"
>
<path vector-effect="none" fill-rule="nonzero" d="M1239.45,506.76 L1372.97,158.7 L1423.61,158.7 L1565.39,506.76 L1512.89,506.76 L1472.62,401.28 L1326.06,401.28 L1288.31,506.76 L1239.46,506.76 L1239.45,506.76 M1339.59,363.84 L1458.2,363.84 L1421.9,267.35 C1410.96,238.02 1402.7,213.8 1396.95,194.68 C1392.17,217.37 1385.77,239.64 1377.75,261.68 L1339.59,363.84"/>
</g>

<g fill="none" stroke="none" transform="matrix(0.0112941,0,0,0.0111699,1,133)"
font-family="MS Shell Dlg 2" font-size="8.25" font-weight="400" font-style="normal"
>
<path vector-effect="none" fill-rule="nonzero" d="M1601.85,506.76 L1601.85,158.7 L1721.76,158.7 C1748.82,158.7 1769.48,160.32 1783.74,163.64 C1803.67,168.26 1820.68,176.6 1834.78,188.6 C1853.17,204.16 1866.86,223.92 1875.94,248.06 C1885.09,272.21 1889.63,299.83 1889.63,330.86 C1889.63,357.27 1886.55,380.69 1880.39,401.1 C1874.23,421.52 1866.29,438.45 1856.65,451.82 C1846.93,465.19 1836.4,475.72 1824.89,483.34 C1813.47,491.04 1799.61,496.87 1783.41,500.84 C1767.13,504.81 1748.49,506.75 1727.43,506.75 L1601.85,506.75 L1601.85,506.76 M1648.03,465.93 L1722.24,465.93 C1745.17,465.93 1763.15,463.82 1776.2,459.53 C1789.24,455.23 1799.61,449.24 1807.39,441.46 C1818.25,430.52 1826.76,415.77 1832.83,397.3 C1838.91,378.83 1841.99,356.47 1841.99,330.14 C1841.99,293.68 1835.99,265.65 1824.08,246.04 C1812.17,226.43 1797.67,213.31 1780.57,206.67 C1768.26,201.89 1748.4,199.54 1721.02,199.54 L1648.02,199.54 L1648.02,465.93 L1648.03,465.93"/>
</g>

<g fill="none" stroke="#000000" stroke-opacity="1" stroke-width="41.67" stroke-linecap="butt" stroke-linejoin="miter" stroke-miterlimit="2.61313" transform="matrix(0.0112941,0,0,0.0111699,1,133)"
font-family="MS Shell Dlg 2" font-size="8.25" font-weight="400" font-style="normal"
>
<path vector-effect="none" fill-rule="nonzero" d="M1601.85,506.76 L1601.85,158.7 L1721.76,158.7 C1748.82,158.7 1769.48,160.32 1783.74,163.64 C1803.67,168.26 1820.68,176.6 1834.78,188.6 C1853.17,204.16 1866.86,223.92 1875.94,248.06 C1885.09,272.21 1889.63,299.83 1889.63,330.86 C1889.63,357.27 1886.55,380.69 1880.39,401.1 C1874.23,421.52 1866.29,438.45 1856.65,451.82 C1846.93,465.19 1836.4,475.72 1824.89,483.34 C1813.47,491.04 1799.61,496.87 1783.41,500.84 C1767.13,504.81 1748.49,506.75 1727.43,506.75 L1601.85,506.75 L1601.85,506.76 M1648.03,465.93 L1722.24,465.93 C1745.17,465.93 1763.15,463.82 1776.2,459.53 C1789.24,455.23 1799.61,449.24 1807.39,441.46 C1818.25,430.52 1826.76,415.77 1832.83,397.3 C1838.91,378.83 1841.99,356.47 1841.99,330.14 C1841.99,293.68 1835.99,265.65 1824.08,246.04 C1812.17,226.43 1797.67,213.31 1780.57,206.67 C1768.26,201.89 1748.4,199.54 1721.02,199.54 L1648.02,199.54 L1648.02,465.93 L1648.03,465.93"/>
</g>

<g fill="none" stroke="none" transform="matrix(0.0112941,0,0,0.0111699,1,133)"
font-family="MS Shell Dlg 2" font-size="8.25" font-weight="400" font-style="normal"
>
<path vector-effect="none" fill-rule="nonzero" d="M2200.81,384.67 L2246.99,396.34 C2237.35,434.18 2220.01,462.94 2194.97,482.79 C2169.94,502.64 2139.31,512.6 2103.1,512.6 C2065.67,512.6 2035.21,504.98 2011.71,489.67 C1988.22,474.44 1970.39,452.32 1958.16,423.4 C1945.93,394.39 1939.77,363.36 1939.77,330.15 C1939.77,293.93 1946.66,262.34 1960.51,235.35 C1974.36,208.37 1994.05,187.87 2019.57,173.86 C2045.09,159.84 2073.2,152.88 2103.83,152.88 C2138.67,152.88 2167.92,161.71 2191.57,179.45 C2215.31,197.19 2231.84,222.07 2241.15,254.15 L2195.94,264.84 C2187.92,239.56 2176.17,221.09 2160.86,209.58 C2145.55,198 2126.27,192.25 2103.01,192.25 C2076.35,192.25 2053.99,198.65 2036.09,211.45 C2018.18,224.25 2005.54,241.51 1998.33,263.06 C1991.04,284.69 1987.39,306.97 1987.39,329.9 C1987.39,359.47 1991.69,385.32 2000.27,407.35 C2008.86,429.47 2022.23,445.91 2040.37,456.85 C2058.52,467.79 2078.13,473.21 2099.27,473.21 C2125.03,473.21 2146.75,465.76 2164.57,450.93 C2182.4,436.02 2194.47,413.99 2200.79,384.66 L2200.81,384.67"/>
</g>

<g fill="none" stroke="#000000" stroke-opacity="1" stroke-width="41.67" stroke-linecap="butt" stroke-linejoin="miter" stroke-miterlimit="2.61313" transform="matrix(0.0112941,0,0,0.0111699,1,133)"
font-family="MS Shell Dlg 2" font-size="8.25" font-weight="400" font-style="normal"
>
<path vector-effect="none" fill-rule="nonzero" d="M2200.81,384.67 L2246.99,396.34 C2237.35,434.18 2220.01,462.94 2194.97,482.79 C2169.94,502.64 2139.31,512.6 2103.1,512.6 C2065.67,512.6 2035.21,504.98 2011.71,489.67 C1988.22,474.44 1970.39,452.32 1958.16,423.4 C1945.93,394.39 1939.77,363.36 1939.77,330.15 C1939.77,293.93 1946.66,262.34 1960.51,235.35 C1974.36,208.37 1994.05,187.87 2019.57,173.86 C2045.09,159.84 2073.2,152.88 2103.83,152.88 C2138.67,152.88 2167.92,161.71 2191.57,179.45 C2215.31,197.19 2231.84,222.07 2241.15,254.15 L2195.94,264.84 C2187.92,239.56 2176.17,221.09 2160.86,209.58 C2145.55,198 2126.27,192.25 2103.01,192.25 C2076.35,192.25 2053.99,198.65 2036.09,211.45 C2018.18,224.25 2005.54,241.51 1998.33,263.06 C1991.04,284.69 1987.39,306.97 1987.39,329.9 C1987.39,359.47 1991.69,385.32 2000.27,407.35 C2008.86,429.47 2022.23,445.91 2040.37,456.85 C2058.52,467.79 2078.13,473.21 2099.27,473.21 C2125.03,473.21 2146.75,465.76 2164.57,450.93 C2182.4,436.02 2194.47,413.99 2200.79,384.66 L2200.81,384.67"/>
</g>

<g fill="none" stroke="#000000" stroke-opacity="1" stroke-width="1" stroke-linecap="square" stroke-linejoin="bevel" transform="matrix(0.125786,0,0,0.125786,1,133)"
font-family="MS Shell Dlg 2" font-size="8.25" font-weight="400" font-style="normal"
>
</g>

<g fill="none" stroke="#000000" stroke-opacity="1" stroke-width="1" stroke-linecap="square" stroke-linejoin="bevel" transform="matrix(1,0,0,1,0,0)"
font-family="MS Shell Dlg 2" font-size="8.25" font-weight="400" font-style="normal"
>
</g>

<g fill="#808000" fill-opacity="1" stroke="#000000" stroke-opacity="0" stroke-width="1" stroke-linecap="square" stroke-linejoin="bevel" transform="matrix(1,0,0,1,21,9)"
font-family="MS Shell Dlg 2" font-size="8.25" font-weight="400" font-style="normal"
>
<circle cx="0" cy="0" r="2"/>
</g>

<g fill="none" stroke="#000000" stroke-opacity="1" stroke-width="1" stroke-linecap="square" stroke-linejoin="bevel" transform="matrix(1,0,0,1,0,0)"
font-family="MS Shell Dlg 2" font-size="8.25" font-weight="400" font-style="normal"
>
</g>

<g fill="#808000" fill-opacity="1" stroke="#000000" stroke-opacity="0" stroke-width="1" stroke-linecap="square" stroke-linejoin="bevel" transform="matrix(1,0,0,1,21,25)"
font-family="MS Shell Dlg 2" font-size="8.25" font-weight="400" font-style="normal"
>
<circle cx="0" cy="0" r="2"/>
</g>

<g fill="none" stroke="#000000" stroke-opacity="1" stroke-width="1" stroke-linecap="square" stroke-linejoin="bevel" transform="matrix(1,0,0,1,0,0)"
font-family="MS Shell Dlg 2" font-size="8.25" font-weight="400" font-style="normal"
>
</g>

<g fill="#808000" fill-opacity="1" stroke="#000000" stroke-opacity="0" stroke-width="1" stroke-linecap="square" stroke-linejoin="bevel" transform="matrix(1,0,0,1,21,41)"
font-family="MS Shell Dlg 2" font-size="8.25" font-weight="400" font-style="normal"
>
<circle cx="0" cy="0" r="2"/>
</g>

<g fill="none" stroke="#000000" stroke-opacity="1" stroke-width="1" stroke-linecap="square" stroke-linejoin="bevel" transform="matrix(1,0,0,1,0,0)"
font-family="MS Shell Dlg 2" font-size="8.25" font-weight="400" font-style="normal"
>
</g>

<g fill="#808000" fill-opacity="1" stroke="#000000" stroke-opacity="0" stroke-width="1" stroke-linecap="square" stroke-linejoin="bevel" transform="matrix(1,0,0,1,21,57)"
font-family="MS Shell Dlg 2" font-size="8.25" font-weight="400" font-style="normal"
>
<circle cx="0" cy="0" r="2"/>
</g>

<g fill="none" stroke="#000000" stroke-opacity="1" stroke-width="1" stroke-linecap="square" stroke-linejoin="bevel" transform="matrix(1,0,0,1,0,0)"
font-family="MS Shell Dlg 2" font-size="8.25" font-weight="400" font-style="normal"
>
</g>

<g fill="#808000" fill-opacity="1" stroke="#000000" stroke-opacity="0" stroke-width="1" stroke-linecap="square" stroke-linejoin="bevel" transform="matrix(1,0,0,1,21,73)"
font-family="MS Shell Dlg 2" font-size="8.25" font-weight="400" font-style="normal"
>
<circle cx="0" cy="0" r="2"/>
</g>

<g fill="none" stroke="#000000" stroke-opacity="1" stroke-width="1" stroke-linecap="square" stroke-linejoin="bevel" transform="matrix(1,0,0,1,0,0)"
font-family="MS Shell Dlg 2" font-size="8.25" font-weight="400" font-style="normal"
>
</g>

<g fill="#808000" fill-opacity="1" stroke="#000000" stroke-opacity="0" stroke-width="1" stroke-linecap="square" stroke-linejoin="bevel" transform="matrix(1,0,0,1,21,89)"
font-family="MS Shell Dlg 2" font-size="8.25" font-weight="400" font-style="normal"
>
<circle cx="0" cy="0" r="2"/>
</g>

<g fill="none" stroke="#000000" stroke-opacity="1" stroke-width="1" stroke-linecap="square" stroke-linejoin="bevel" transform="matrix(1,0,0,1,0,0)"
font-family="MS Shell Dlg 2" font-size="8.25" font-weight="400" font-style="normal"
>
</g>

<g fill="#808000" fill-opacity="1" stroke="#000000" stroke-opacity="0" stroke-width="1" stroke-linecap="square" stroke-linejoin="bevel" transform="matrix(1,0,0,1,21,105)"
font-family="MS Shell Dlg 2" font-size="8.25" font-weight="400" font-style="normal"
>
<circle cx="0" cy="0" r="2"/>
</g>

<g fill="none" stroke="#000000" stroke-opacity="1" stroke-width="1" stroke-linecap="square" stroke-linejoin="bevel" transform="matrix(1,0,0,1,0,0)"
font-family="MS Shell Dlg 2" font-size="8.25" font-weight="400" font-style="normal"
>
</g>

<g fill="#808000" fill-opacity="1" stroke="#000000" stroke-opacity="0" stroke-width="1" stroke-linecap="square" stroke-linejoin="bevel" transform="matrix(1,0,0,1,21,121)"
font-family="MS Shell Dlg 2" font-size="8.25" font-weight="400" font-style="normal"
>
<circle cx="0" cy="0" r="2"/>
</g>

<g fill="none" stroke="#000000" stroke-opacity="1" stroke-width="1" stroke-linecap="square" stroke-linejoin="bevel" transform="matrix(1,0,0,1,0,0)"
font-family="MS Shell Dlg 2" font-size="8.25" font-weight="400" font-style="normal"
>
</g>
</g>
</svg>
