<?xml version="1.0" encoding="UTF-8" standalone="no"?>
<svg width="14.8167mm" height="50.4472mm"
 viewBox="0 0 42 142.176"
 xmlns="http://www.w3.org/2000/svg" xmlns:xlink="http://www.w3.org/1999/xlink"  version="1.2" baseProfile="tiny">
<title>MultiChannelDAC</title>
<desc>Chemunited component figure exported without name or port labels.</desc>
<defs>
</defs>
<g fill="none" stroke="black" stroke-width="1" fill-rule="evenodd" stroke-linecap="square" stroke-linejoin="bevel" >

<g fill="none" stroke="#000000" stroke-opacity="1" stroke-width="1" stroke-linecap="square" stroke-linejoin="bevel" transform="matrix(1,0,0,1,0,0)"
font-family="MS Shell Dlg 2" font-size="8.25" font-weight="400" font-style="normal"
>
</g>

<g fill="none" stroke="#000000" stroke-opacity="1" stroke-width="1" stroke-linecap="square" stroke-linejoin="bevel" transform="matrix(1,0,0,1,0,0)"
font-family="MS Shell Dlg 2" font-size="8.25" font-weight="400" font-style="normal"
>
</g>

<g fill="#ffffff" fill-opacity="1" stroke="#000000" stroke-opacity="1" stroke-width="1" stroke-linecap="square" stroke-linejoin="bevel" transform="matrix(1,0,0,1,21,67)"
font-family="MS Shell Dlg 2" font-size="8.25" font-weight="400" font-style="normal"
>
<rect x="-7.5" y="-66" width="15" height="132"/>
</g>

<g fill="#ffffff" fill-opacity="1" stroke="#e8f5e9" stroke-opacity="1" stroke-width="2" stroke-linecap="square" stroke-linejoin="bevel" transform="matrix(1,0,0,1,21,67)"
font-family="MS Shell Dlg 2" font-size="8.25" font-weight="400" font-style="normal"
>
<circle cx="0" cy="-58" r="4"/>
<circle cx="0" cy="-42" r="4"/>
<circle cx="0" cy="-26" r="4"/>
<circle cx="0" cy="-10" r="4"/>
<circle cx="0" cy="6" r="4"/>
<circle cx="0" cy="22" r="4"/>
<circle cx="0" cy="38" r="4"/>
<circle cx="0" cy="54" r="4"/>
</g>

<g fill="none" stroke="#000000" stroke-opacity="1" stroke-width="1" stroke-linecap="square" stroke-linejoin="bevel" transform="matrix(1,0,0,1,0,0)"
font-family="MS Shell Dlg 2" font-size="8.25" font-weight="400" font-style="normal"
>
</g>

<g fill="none" stroke="#000000" stroke-opacity="1" stroke-width="1" stroke-linecap="square" stroke-linejoin="bevel" transform="matrix(0.125786,0,0,0.125786,1,133)"
font-family="MS Shell Dlg 2" font-size="8.25" font-weight="400" font-style="normal"
>
</g>

<g fill="none" stroke="none" transform="matrix(0.0112941,0,0,0.0112129,1,133)"
font-family="MS Shell Dlg 2" font-size="8.25" font-weight="400" font-style="normal"
>
<rect x="-2.75" y="9.13" width="3530.1" height="543.05"/>
</g>

<g fill="none" stroke="#000000" stroke-opacity="1" stroke-width="10.41" stroke-linecap="butt" stroke-linejoin="miter" stroke-miterlimit="2.61313" transform="matrix(0.0112941,0,0,0.0112129,1,133)"
font-family="MS Shell Dlg 2" font-size="8.25" font-weight="400" font-style="normal"
>
<rect x="-2.75" y="9.13" width="3530.1" height="543.05"/>
</g>

<g fill="#000000" fill-opacity="1" stroke="none" transform="matrix(0.0112941,0,0,0.0112129,1,133)"
font-family="MS Shell Dlg 2" font-size="8.25" font-weight="400" font-style="normal"
>
<rect x="225.53" y="552.18" width="1104" height="169.38"/>
</g>

<g fill="none" stroke="#000000" stroke-opacity="1" stroke-width="10.41" stroke-linecap="butt" stroke-linejoin="miter" stroke-miterlimit="2.61313" transform="matrix(0.0112941,0,0,0.0112129,1,133)"
font-family="MS Shell Dlg 2" font-size="8.25" font-weight="400" font-style="normal"
>
<rect x="225.53" y="552.18" width="1104" height="169.38"/>
</g>

<g fill="#000000" fill-opacity="1" stroke="none" transform="matrix(0.0112941,0,0,0.0112129,1,133)"
font-family="MS Shell Dlg 2" font-size="8.25" font-weight="400" font-style="normal"
>
<rect x="2204.68" y="552.18" width="1104" height="169.38"/>
</g>

<g fill="none" stroke="#000000" stroke-opacity="1" stroke-width="10.41" stroke-linecap="butt" stroke-linejoin="miter" stroke-miterlimit="2.61313" transform="matrix(0.0112941,0,0,0.0112129,1,133)"
font-family="MS Shell Dlg 2" font-size="8.25" font-weight="400" font-style="normal"
>
<rect x="2204.68" y="552.18" width="1104" height="169.38"/>
</g>

<g fill="#000000" fill-opacity="1" stroke="none" transform="matrix(0.0112941,0,0,0.0112129,1,133)"
font-family="MS Shell Dlg 2" font-size="8.25" font-weight="400" font-style="normal"
>
<path vector-effect="none" fill-rule="nonzero" d="M1277.61,454.68 L1277.61,106.62 L1397.52,106.62 C1424.58,106.62 1445.24,108.24 1459.5,111.56 C1479.43,116.18 1496.44,124.52 1510.54,136.52 C1528.93,152.08 1542.62,171.84 1551.7,195.98 C1560.85,220.13 1565.39,247.75 1565.39,278.78 C1565.39,305.19 1562.31,328.61 1556.15,349.02 C1549.99,369.44 1542.05,386.37 1532.41,399.74 C1522.69,413.11 1512.16,423.64 1500.65,431.26 C1489.23,438.96 1475.37,444.79 1459.17,448.76 C1442.89,452.73 1424.25,454.67 1403.19,454.67 L1277.61,454.67 L1277.61,454.68 M1323.79,413.85 L1398,413.85 C1420.93,413.85 1438.91,411.74 1451.96,407.45 C1465,403.15 1475.37,397.16 1483.15,389.38 C1494.01,378.44 1502.52,363.69 1508.59,345.22 C1514.67,326.75 1517.75,304.39 1517.75,278.06 C1517.75,241.6 1511.75,213.57 1499.84,193.96 C1487.93,174.35 1473.43,161.23 1456.33,154.59 C1444.02,149.81 1424.16,147.46 1396.78,147.46 L1323.78,147.46 L1323.78,413.85 L1323.79,413.85"/>
</g>

<g fill="#000000" fill-opacity="1" stroke="none" transform="matrix(0.0112941,0,0,0.0112129,1,133)"
font-family="MS Shell Dlg 2" font-size="8.25" font-weight="400" font-style="normal"
>
<path vector-effect="none" fill-rule="nonzero" d="M1590.5,454.68 L1724.02,106.62 L1774.66,106.62 L1916.44,454.68 L1863.94,454.68 L1823.67,349.2 L1677.11,349.2 L1639.36,454.68 L1590.51,454.68 L1590.5,454.68 M1690.64,311.76 L1809.25,311.76 L1772.95,215.27 C1762.01,185.94 1753.75,161.72 1748,142.6 C1743.22,165.29 1736.82,187.56 1728.8,209.6 L1690.64,311.76"/>
</g>

<g fill="#000000" fill-opacity="1" stroke="none" transform="matrix(0.0112941,0,0,0.0112129,1,133)"
font-family="MS Shell Dlg 2" font-size="8.25" font-weight="400" font-style="normal"
>
<path vector-effect="none" fill-rule="nonzero" d="M2200.81,332.58 L2246.99,344.25 C2237.35,382.09 2220.01,410.85 2194.97,430.7 C2169.94,450.55 2139.31,460.51 2103.1,460.51 C2065.67,460.51 2035.21,452.89 2011.71,437.58 C1988.22,422.35 1970.39,400.23 1958.16,371.31 C1945.93,342.3 1939.77,311.27 1939.77,278.06 C1939.77,241.84 1946.66,210.25 1960.51,183.26 C1974.36,156.28 1994.05,135.78 2019.57,121.77 C2045.09,107.75 2073.2,100.79 2103.83,100.79 C2138.67,100.79 2167.92,109.62 2191.57,127.36 C2215.31,145.1 2231.84,169.98 2241.15,202.06 L2195.94,212.75 C2187.92,187.47 2176.17,169 2160.86,157.49 C2145.55,145.91 2126.27,140.16 2103.01,140.16 C2076.35,140.16 2053.99,146.56 2036.09,159.36 C2018.18,172.16 2005.54,189.42 1998.33,210.97 C1991.04,232.6 1987.39,254.88 1987.39,277.81 C1987.39,307.38 1991.69,333.23 2000.27,355.26 C2008.86,377.38 2022.23,393.82 2040.37,404.76 C2058.52,415.7 2078.13,421.12 2099.27,421.12 C2125.03,421.12 2146.75,413.67 2164.57,398.84 C2182.4,383.93 2194.47,361.9 2200.79,332.57 L2200.81,332.58"/>
</g>

<g fill="none" stroke="none" transform="matrix(0.0112941,0,0,0.0112129,1,133)"
font-family="MS Shell Dlg 2" font-size="8.25" font-weight="400" font-style="normal"
>
<path vector-effect="none" fill-rule="nonzero" d="M1277.61,454.68 L1277.61,106.62 L1397.52,106.62 C1424.58,106.62 1445.24,108.24 1459.5,111.56 C1479.43,116.18 1496.44,124.52 1510.54,136.52 C1528.93,152.08 1542.62,171.84 1551.7,195.98 C1560.85,220.13 1565.39,247.75 1565.39,278.78 C1565.39,305.19 1562.31,328.61 1556.15,349.02 C1549.99,369.44 1542.05,386.37 1532.41,399.74 C1522.69,413.11 1512.16,423.64 1500.65,431.26 C1489.23,438.96 1475.37,444.79 1459.17,448.76 C1442.89,452.73 1424.25,454.67 1403.19,454.67 L1277.61,454.67 L1277.61,454.68 M1323.79,413.85 L1398,413.85 C1420.93,413.85 1438.91,411.74 1451.96,407.45 C1465,403.15 1475.37,397.16 1483.15,389.38 C1494.01,378.44 1502.52,363.69 1508.59,345.22 C1514.67,326.75 1517.75,304.39 1517.75,278.06 C1517.75,241.6 1511.75,213.57 1499.84,193.96 C1487.93,174.35 1473.43,161.23 1456.33,154.59 C1444.02,149.81 1424.16,147.46 1396.78,147.46 L1323.78,147.46 L1323.78,413.85 L1323.79,413.85"/>
</g>

<g fill="none" stroke="#000000" stroke-opacity="1" stroke-width="41.67" stroke-linecap="butt" stroke-linejoin="miter" stroke-miterlimit="2.61313" transform="matrix(0.0112941,0,0,0.0112129,1,133)"
font-family="MS Shell Dlg 2" font-size="8.25" font-weight="400" font-style="normal"
>
<path vector-effect="none" fill-rule="nonzero" d="M1277.61,454.68 L1277.61,106.62 L1397.52,106.62 C1424.58,106.62 1445.24,108.24 1459.5,111.56 C1479.43,116.18 1496.44,124.52 1510.54,136.52 C1528.93,152.08 1542.62,171.84 1551.7,195.98 C1560.85,220.13 1565.39,247.75 1565.39,278.78 C1565.39,305.19 1562.31,328.61 1556.15,349.02 C1549.99,369.44 1542.05,386.37 1532.41,399.74 C1522.69,413.11 1512.16,423.64 1500.65,431.26 C1489.23,438.96 1475.37,444.79 1459.17,448.76 C1442.89,452.73 1424.25,454.67 1403.19,454.67 L1277.61,454.67 L1277.61,454.68 M1323.79,413.85 L1398,413.85 C1420.93,413.85 1438.91,411.74 1451.96,407.45 C1465,403.15 1475.37,397.16 1483.15,389.38 C1494.01,378.44 1502.52,363.69 1508.59,345.22 C1514.67,326.75 1517.75,304.39 1517.75,278.06 C1517.75,241.6 1511.75,213.57 1499.84,193.96 C1487.93,174.35 1473.43,161.23 1456.33,154.59 C1444.02,149.81 1424.16,147.46 1396.78,147.46 L1323.78,147.46 L1323.78,413.85 L1323.79,413.85"/>
</g>

<g fill="none" stroke="none" transform="matrix(0.0112941,0,0,0.0112129,1,133)"
font-family="MS Shell Dlg 2" font-size="8.25" font-weight="400" font-style="normal"
>
<path vector-effect="none" fill-rule="nonzero" d="M1590.5,454.68 L1724.02,106.62 L1774.66,106.62 L1916.44,454.68 L1863.94,454.68 L1823.67,349.2 L1677.11,349.2 L1639.36,454.68 L1590.51,454.68 L1590.5,454.68 M1690.64,311.76 L1809.25,311.76 L1772.95,215.27 C1762.01,185.94 1753.75,161.72 1748,142.6 C1743.22,165.29 1736.82,187.56 1728.8,209.6 L1690.64,311.76"/>
</g>

<g fill="none" stroke="#000000" stroke-opacity="1" stroke-width="41.67" stroke-linecap="butt" stroke-linejoin="miter" stroke-miterlimit="2.61313" transform="matrix(0.0112941,0,0,0.0112129,1,133)"
font-family="MS Shell Dlg 2" font-size="8.25" font-weight="400" font-style="normal"
>
<path vector-effect="none" fill-rule="nonzero" d="M1590.5,454.68 L1724.02,106.62 L1774.66,106.62 L1916.44,454.68 L1863.94,454.68 L1823.67,349.2 L1677.11,349.2 L1639.36,454.68 L1590.51,454.68 L1590.5,454.68 M1690.64,311.76 L1809.25,311.76 L1772.95,215.27 C1762.01,185.94 1753.75,161.72 1748,142.6 C1743.22,165.29 1736.82,187.56 1728.8,209.6 L1690.64,311.76"/>
</g>

<g fill="none" stroke="none" transform="matrix(0.0112941,0,0,0.0112129,1,133)"
font-family="MS Shell Dlg 2" font-size="8.25" font-weight="400" font-style="normal"
>
<path vector-effect="none" fill-rule="nonzero" d="M2200.81,332.58 L2246.99,344.25 C2237.35,382.09 2220.01,410.85 2194.97,430.7 C2169.94,450.55 2139.31,460.51 2103.1,460.51 C2065.67,460.51 2035.21,452.89 2011.71,437.58 C1988.22,422.35 1970.39,400.23 1958.16,371.31 C1945.93,342.3 1939.77,311.27 1939.77,278.06 C1939.77,241.84 1946.66,210.25 1960.51,183.26 C1974.36,156.28 1994.05,135.78 2019.57,121.77 C2045.09,107.75 2073.2,100.79 2103.83,100.79 C2138.67,100.79 2167.92,109.62 2191.57,127.36 C2215.31,145.1 2231.84,169.98 2241.15,202.06 L2195.94,212.75 C2187.92,187.47 2176.17,169 2160.86,157.49 C2145.55,145.91 2126.27,140.16 2103.01,140.16 C2076.35,140.16 2053.99,146.56 2036.09,159.36 C2018.18,172.16 2005.54,189.42 1998.33,210.97 C1991.04,232.6 1987.39,254.88 1987.39,277.81 C1987.39,307.38 1991.69,333.23 2000.27,355.26 C2008.86,377.38 2022.23,393.82 2040.37,404.76 C2058.52,415.7 2078.13,421.12 2099.27,421.12 C2125.03,421.12 2146.75,413.67 2164.57,398.84 C2182.4,383.93 2194.47,361.9 2200.79,332.57 L2200.81,332.58"/>
</g>

<g fill="none" stroke="#000000" stroke-opacity="1" stroke-width="41.67" stroke-linecap="butt" stroke-linejoin="miter" stroke-miterlimit="2.61313" transform="matrix(0.0112941,0,0,0.0112129,1,133)"
font-family="MS Shell Dlg 2" font-size="8.25" font-weight="400" font-style="normal"
>
<path vector-effect="none" fill-rule="nonzero" d="M2200.81,332.58 L2246.99,344.25 C2237.35,382.09 2220.01,410.85 2194.97,430.7 C2169.94,450.55 2139.31,460.51 2103.1,460.51 C2065.67,460.51 2035.21,452.89 2011.71,437.58 C1988.22,422.35 1970.39,400.23 1958.16,371.31 C1945.93,342.3 1939.77,311.27 1939.77,278.06 C1939.77,241.84 1946.66,210.25 1960.51,183.26 C1974.36,156.28 1994.05,135.78 2019.57,121.77 C2045.09,107.75 2073.2,100.79 2103.83,100.79 C2138.67,100.79 2167.92,109.62 2191.57,127.36 C2215.31,145.1 2231.84,169.98 2241.15,202.06 L2195.94,212.75 C2187.92,187.47 2176.17,169 2160.86,157.49 C2145.55,145.91 2126.27,140.16 2103.01,140.16 C2076.35,140.16 2053.99,146.56 2036.09,159.36 C2018.18,172.16 2005.54,189.42 1998.33,210.97 C1991.04,232.6 1987.39,254.88 1987.39,277.81 C1987.39,307.38 1991.69,333.23 2000.27,355.26 C2008.86,377.38 2022.23,393.82 2040.37,404.76 C2058.52,415.7 2078.13,421.12 2099.27,421.12 C2125.03,421.12 2146.75,413.67 2164.57,398.84 C2182.4,383.93 2194.47,361.9 2200.79,332.57 L2200.81,332.58"/>
</g>

<g fill="none" stroke="#000000" stroke-opacity="1" stroke-width="1" stroke-linecap="square" stroke-linejoin="bevel" transform="matrix(0.125786,0,0,0.125786,1,133)"
font-family="MS Shell Dlg 2" font-size="8.25" font-weight="400" font-style="normal"
>
</g>

<g fill="none" stroke="#000000" stroke-opacity="1" stroke-width="1" stroke-linecap="square" stroke-linejoin="bevel" transform="matrix(1,0,0,1,0,0)"
font-family="MS Shell Dlg 2" font-size="8.25" font-weight="400" font-style="normal"
>
</g>

<g fill="#808000" fill-opacity="1" stroke="#000000" stroke-opacity="0" stroke-width="1" stroke-linecap="square" stroke-linejoin="bevel" transform="matrix(1,0,0,1,21,9)"
font-family="MS Shell Dlg 2" font-size="8.25" font-weight="400" font-style="normal"
>
<circle cx="0" cy="0" r="2"/>
</g>

<g fill="none" stroke="#000000" stroke-opacity="1" stroke-width="1" stroke-linecap="square" stroke-linejoin="bevel" transform="matrix(1,0,0,1,0,0)"
font-family="MS Shell Dlg 2" font-size="8.25" font-weight="400" font-style="normal"
>
</g>

<g fill="#808000" fill-opacity="1" stroke="#000000" stroke-opacity="0" stroke-width="1" stroke-linecap="square" stroke-linejoin="bevel" transform="matrix(1,0,0,1,21,25)"
font-family="MS Shell Dlg 2" font-size="8.25" font-weight="400" font-style="normal"
>
<circle cx="0" cy="0" r="2"/>
</g>

<g fill="none" stroke="#000000" stroke-opacity="1" stroke-width="1" stroke-linecap="square" stroke-linejoin="bevel" transform="matrix(1,0,0,1,0,0)"
font-family="MS Shell Dlg 2" font-size="8.25" font-weight="400" font-style="normal"
>
</g>

<g fill="#808000" fill-opacity="1" stroke="#000000" stroke-opacity="0" stroke-width="1" stroke-linecap="square" stroke-linejoin="bevel" transform="matrix(1,0,0,1,21,41)"
font-family="MS Shell Dlg 2" font-size="8.25" font-weight="400" font-style="normal"
>
<circle cx="0" cy="0" r="2"/>
</g>

<g fill="none" stroke="#000000" stroke-opacity="1" stroke-width="1" stroke-linecap="square" stroke-linejoin="bevel" transform="matrix(1,0,0,1,0,0)"
font-family="MS Shell Dlg 2" font-size="8.25" font-weight="400" font-style="normal"
>
</g>

<g fill="#808000" fill-opacity="1" stroke="#000000" stroke-opacity="0" stroke-width="1" stroke-linecap="square" stroke-linejoin="bevel" transform="matrix(1,0,0,1,21,57)"
font-family="MS Shell Dlg 2" font-size="8.25" font-weight="400" font-style="normal"
>
<circle cx="0" cy="0" r="2"/>
</g>

<g fill="none" stroke="#000000" stroke-opacity="1" stroke-width="1" stroke-linecap="square" stroke-linejoin="bevel" transform="matrix(1,0,0,1,0,0)"
font-family="MS Shell Dlg 2" font-size="8.25" font-weight="400" font-style="normal"
>
</g>

<g fill="#808000" fill-opacity="1" stroke="#000000" stroke-opacity="0" stroke-width="1" stroke-linecap="square" stroke-linejoin="bevel" transform="matrix(1,0,0,1,21,73)"
font-family="MS Shell Dlg 2" font-size="8.25" font-weight="400" font-style="normal"
>
<circle cx="0" cy="0" r="2"/>
</g>

<g fill="none" stroke="#000000" stroke-opacity="1" stroke-width="1" stroke-linecap="square" stroke-linejoin="bevel" transform="matrix(1,0,0,1,0,0)"
font-family="MS Shell Dlg 2" font-size="8.25" font-weight="400" font-style="normal"
>
</g>

<g fill="#808000" fill-opacity="1" stroke="#000000" stroke-opacity="0" stroke-width="1" stroke-linecap="square" stroke-linejoin="bevel" transform="matrix(1,0,0,1,21,89)"
font-family="MS Shell Dlg 2" font-size="8.25" font-weight="400" font-style="normal"
>
<circle cx="0" cy="0" r="2"/>
</g>

<g fill="none" stroke="#000000" stroke-opacity="1" stroke-width="1" stroke-linecap="square" stroke-linejoin="bevel" transform="matrix(1,0,0,1,0,0)"
font-family="MS Shell Dlg 2" font-size="8.25" font-weight="400" font-style="normal"
>
</g>

<g fill="#808000" fill-opacity="1" stroke="#000000" stroke-opacity="0" stroke-width="1" stroke-linecap="square" stroke-linejoin="bevel" transform="matrix(1,0,0,1,21,105)"
font-family="MS Shell Dlg 2" font-size="8.25" font-weight="400" font-style="normal"
>
<circle cx="0" cy="0" r="2"/>
</g>

<g fill="none" stroke="#000000" stroke-opacity="1" stroke-width="1" stroke-linecap="square" stroke-linejoin="bevel" transform="matrix(1,0,0,1,0,0)"
font-family="MS Shell Dlg 2" font-size="8.25" font-weight="400" font-style="normal"
>
</g>

<g fill="#808000" fill-opacity="1" stroke="#000000" stroke-opacity="0" stroke-width="1" stroke-linecap="square" stroke-linejoin="bevel" transform="matrix(1,0,0,1,21,121)"
font-family="MS Shell Dlg 2" font-size="8.25" font-weight="400" font-style="normal"
>
<circle cx="0" cy="0" r="2"/>
</g>

<g fill="none" stroke="#000000" stroke-opacity="1" stroke-width="1" stroke-linecap="square" stroke-linejoin="bevel" transform="matrix(1,0,0,1,0,0)"
font-family="MS Shell Dlg 2" font-size="8.25" font-weight="400" font-style="normal"
>
</g>
</g>
</svg>
