<?xml version="1.0" encoding="UTF-8"?>
<!DOCTYPE svg PUBLIC "-//W3C//DTD SVG 1.1//EN" "http://www.w3.org/Graphics/SVG/1.1/DTD/svg11.dtd">
<!-- Creator: CorelDRAW -->
<svg xmlns="http://www.w3.org/2000/svg" xml:space="preserve" width="1.45833in" height="0.468748in" version="1.1" style="shape-rendering:geometricPrecision; text-rendering:geometricPrecision; image-rendering:optimizeQuality; fill-rule:evenodd; clip-rule:evenodd"
viewBox="0 0 1458.33 468.75"
 xmlns:xlink="http://www.w3.org/1999/xlink"
 xmlns:xodm="http://www.corel.com/coreldraw/odm/2003">
 <defs>
  <style type="text/css">
   <![CDATA[
    .fil7 {fill:#0088FF}
    .fil6 {fill:#02578F}
    .fil8 {fill:#7D7D7D}
    .fil3 {fill:#8D8F02}
    .fil1 {fill:#8F0202}
    .fil0 {fill:#993A3A}
    .fil2 {fill:#C41D1D}
    .fil4 {fill:#F5ED03}
    .fil5 {fill:#FFF705}
   ]]>
  </style>
 </defs>
 <g id="Layer_x0020_1">
  <metadata id="CorelCorpID_0Corel-Layer"/>
  <rect class="fil0" transform="matrix(2.64845E-14 -1 1 2.64845E-14 95.3858 152.953)" width="57.25" height="225.44"/>
  <rect class="fil1" transform="matrix(2.64845E-14 -1 1 2.64845E-14 95.3858 152.953)" width="57.25" height="225.44"/>
  <path class="fil2" d="M131.17 254.94l0 -101.98 153.87 0 0 101.98c0,42.32 -34.62,76.94 -76.94,76.94l0 0c-42.32,0 -76.94,-34.62 -76.94,-76.94z"/>
  <g id="_2763957125872">
   <rect class="fil2" transform="matrix(0.7133 -0.231765 0.24873 0.765514 1.25733 313.24)" width="120.84" height="18.77" rx="12.75" ry="12.75"/>
   <rect class="fil2" transform="matrix(0.440844 -0.606769 -0.651185 -0.473113 88.2763 433.012)" width="120.84" height="18.77" rx="12.75" ry="12.75"/>
   <rect class="fil2" transform="matrix(-0.440844 -0.606769 -0.651185 0.473113 342.507 424.119)" width="120.84" height="18.77" rx="12.75" ry="12.75"/>
   <rect class="fil2" transform="matrix(-0.7133 -0.231765 0.24873 -0.765514 412.611 327.629)" width="120.84" height="18.77" rx="12.75" ry="12.75"/>
   <rect class="fil2" transform="matrix(1.98636E-14 -0.750008 0.804909 2.13176E-14 201.707 469.868)" width="120.84" height="18.77" rx="12.75" ry="12.75"/>
  </g>
  <rect class="fil0" transform="matrix(2.64845E-14 -1 1 2.64845E-14 616.213 152.953)" width="57.25" height="225.44"/>
  <rect class="fil3" transform="matrix(2.64845E-14 -1 1 2.64845E-14 616.213 152.953)" width="57.25" height="225.44"/>
  <path class="fil4" d="M652 254.94l0 -101.98 153.87 0 0 101.98c0,42.32 -34.62,76.94 -76.94,76.94l0 0c-42.32,0 -76.94,-34.62 -76.94,-76.94z"/>
  <g id="_2763957124528">
   <rect class="fil5" transform="matrix(0.7133 -0.231765 0.24873 0.765514 522.084 313.24)" width="120.84" height="18.77" rx="12.75" ry="12.75"/>
   <rect class="fil5" transform="matrix(0.440844 -0.606769 -0.651185 -0.473113 609.103 433.012)" width="120.84" height="18.77" rx="12.75" ry="12.75"/>
   <rect class="fil5" transform="matrix(-0.440844 -0.606769 -0.651185 0.473113 863.334 424.119)" width="120.84" height="18.77" rx="12.75" ry="12.75"/>
   <rect class="fil5" transform="matrix(-0.7133 -0.231765 0.24873 -0.765514 933.438 327.629)" width="120.84" height="18.77" rx="12.75" ry="12.75"/>
   <rect class="fil5" transform="matrix(1.98636E-14 -0.750008 0.804909 2.13176E-14 722.534 469.868)" width="120.84" height="18.77" rx="12.75" ry="12.75"/>
  </g>
  <rect class="fil0" transform="matrix(2.64845E-14 -1 1 2.64845E-14 1137.04 152.953)" width="57.25" height="225.44"/>
  <rect class="fil6" transform="matrix(2.64845E-14 -1 1 2.64845E-14 1137.04 152.953)" width="57.25" height="225.44"/>
  <path class="fil7" d="M1172.82 254.94l0 -101.98 153.87 0 0 101.98c0,42.32 -34.62,76.94 -76.94,76.94l0 0c-42.32,0 -76.94,-34.62 -76.94,-76.94z"/>
  <g id="_2763957125200">
   <rect class="fil7" transform="matrix(0.7133 -0.231765 0.24873 0.765514 1042.91 313.24)" width="120.84" height="18.77" rx="12.75" ry="12.75"/>
   <rect class="fil7" transform="matrix(0.440844 -0.606769 -0.651185 -0.473113 1129.93 433.012)" width="120.84" height="18.77" rx="12.75" ry="12.75"/>
   <rect class="fil7" transform="matrix(-0.440844 -0.606769 -0.651185 0.473113 1384.16 424.119)" width="120.84" height="18.77" rx="12.75" ry="12.75"/>
   <rect class="fil7" transform="matrix(-0.7133 -0.231765 0.24873 -0.765514 1454.26 327.629)" width="120.84" height="18.77" rx="12.75" ry="12.75"/>
   <rect class="fil7" transform="matrix(1.98636E-14 -0.750008 0.804909 2.13176E-14 1243.36 469.868)" width="120.84" height="18.77" rx="12.75" ry="12.75"/>
  </g>
  <rect class="fil8" transform="matrix(2.64845E-14 -1 1.02959 2.72681E-14 56.6594 95.7008)" width="88.79" height="1308.89" rx="20.83" ry="20.83"/>
 </g>
</svg>
