<?xml version="1.0" encoding="UTF-8" standalone="no"?>
<svg width="14.8167mm" height="14.8167mm"
 viewBox="0 0 42 42"
 xmlns="http://www.w3.org/2000/svg" xmlns:xlink="http://www.w3.org/1999/xlink"  version="1.2" baseProfile="tiny">
<title>PowerControl</title>
<desc>Chemunited component figure exported without name or port labels.</desc>
<defs>
<linearGradient gradientUnits="userSpaceOnUse" x1="236.98" y1="477.02" x2="796.01" y2="633.64" id="gradient1">
    <stop offset="0" stop-color="#cc2929" stop-opacity="1" />
    <stop offset="0.74902" stop-color="#e59494" stop-opacity="1" />
    <stop offset="1" stop-color="#ffffff" stop-opacity="1" />
</linearGradient>
</defs>
<g fill="none" stroke="black" stroke-width="1" fill-rule="evenodd" stroke-linecap="square" stroke-linejoin="bevel" >

<g fill="none" stroke="#000000" stroke-opacity="1" stroke-width="1" stroke-linecap="square" stroke-linejoin="bevel" transform="matrix(1,0,0,1,0,0)"
font-family="MS Shell Dlg 2" font-size="8.25" font-weight="400" font-style="normal"
>
</g>

<g fill="none" stroke="#000000" stroke-opacity="1" stroke-width="1" stroke-linecap="square" stroke-linejoin="bevel" transform="matrix(1,0,0,1,0,0)"
font-family="MS Shell Dlg 2" font-size="8.25" font-weight="400" font-style="normal"
>
</g>

<g fill="none" stroke="#000000" stroke-opacity="1" stroke-width="1" stroke-linecap="square" stroke-linejoin="bevel" transform="matrix(0.425532,0,0,0.425532,1,1)"
font-family="MS Shell Dlg 2" font-size="8.25" font-weight="400" font-style="normal"
>
</g>

<g fill="#e8e8e8" fill-opacity="1" stroke="none" transform="matrix(0.0081736,0.00162558,-0.00177753,0.00893765,20.8058,21.1204)"
font-family="MS Shell Dlg 2" font-size="8.25" font-weight="400" font-style="normal"
>
<ellipse cx="0" cy="0" rx="2376.14" ry="2173.01"/>
</g>

<g fill="none" stroke="#000000" stroke-opacity="1" stroke-width="10.41" stroke-linecap="butt" stroke-linejoin="miter" stroke-miterlimit="2.61313" transform="matrix(0.0081736,0.00162558,-0.00177753,0.00893765,20.8058,21.1204)"
font-family="MS Shell Dlg 2" font-size="8.25" font-weight="400" font-style="normal"
>
<ellipse cx="0" cy="0" rx="2376.14" ry="2173.01"/>
</g>

<g fill="url(#gradient1)" stroke="none" transform="matrix(0.0380199,0,0,0.0380199,1,1)"
font-family="MS Shell Dlg 2" font-size="8.25" font-weight="400" font-style="normal"
>
<path vector-effect="none" fill-rule="evenodd" d="M420.08,976.44 L793.91,348.43 L594.61,348.43 L656.97,134.21 L343.56,134.21 L239.08,493.07 L420.08,493.07 L420.08,976.44"/>
</g>

<g fill="none" stroke="#000000" stroke-opacity="1" stroke-width="1" stroke-linecap="square" stroke-linejoin="bevel" transform="matrix(0.425532,0,0,0.425532,1,1)"
font-family="MS Shell Dlg 2" font-size="8.25" font-weight="400" font-style="normal"
>
</g>

<g fill="none" stroke="#000000" stroke-opacity="1" stroke-width="1" stroke-linecap="square" stroke-linejoin="bevel" transform="matrix(1,0,0,1,0,0)"
font-family="MS Shell Dlg 2" font-size="8.25" font-weight="400" font-style="normal"
>
</g>
</g>
</svg>
