<?xml version="1.0" encoding="UTF-8"?>
<!DOCTYPE svg PUBLIC "-//W3C//DTD SVG 1.1//EN" "http://www.w3.org/Graphics/SVG/1.1/DTD/svg11.dtd">
<!-- Creator: CorelDRAW -->
<svg xmlns="http://www.w3.org/2000/svg" xml:space="preserve" width="6.77083in" height="6.24999in" version="1.1" style="shape-rendering:geometricPrecision; text-rendering:geometricPrecision; image-rendering:optimizeQuality; fill-rule:evenodd; clip-rule:evenodd"
viewBox="0 0 6770.83 6249.99"
 xmlns:xlink="http://www.w3.org/1999/xlink"
 xmlns:xodm="http://www.corel.com/coreldraw/odm/2003">
 <defs>
  <style type="text/css">
   <![CDATA[
    .str0 {stroke:black;stroke-width:10.41;stroke-miterlimit:2.61313}
    .str1 {stroke:#2B2A29;stroke-width:6.94;stroke-miterlimit:2.61313}
    .fil2 {fill:none}
    .fil3 {fill:#EEEEEF}
    .fil4 {fill:#DCDADA}
    .fil0 {fill:black}
    .fil1 {fill:#383737}
   ]]>
  </style>
 </defs>
 <g id="Layer_x0020_1">
  <metadata id="CorelCorpID_0Corel-Layer"/>
  <rect class="fil0 str0" x="163.39" y="72.21" width="6444.05" height="6105.57" rx="496.44" ry="454.21"/>
  <rect class="fil1 str0" x="506.15" y="378.61" width="5758.54" height="5492.76"/>
  <polygon class="fil0 str0" points="3385.41,520.83 3513.34,1914.42 3929.83,577.74 3763.64,1967.33 4450.45,745.98 3997.39,2070.84 4924.52,1018.19 4204.4,2220.41 5331.35,1382.47 4375.61,2409.52 5653.11,1822.91 4503.56,2629.9 5875.77,2320.27 4582.62,2871.92 5989.56,2852.8 4609.37,3125 5989.58,3397.19 4582.62,3378.07 5875.77,3929.72 4503.56,3620.09 5653.11,4427.08 4375.61,3840.47 5331.35,4867.52 4204.4,4029.58 4924.52,5231.8 3997.39,4179.15 4450.45,5504 3763.64,4282.66 3929.83,5672.25 3513.36,4335.57 3385.41,5729.16 3257.48,4335.57 2840.99,5672.25 3007.19,4282.66 2320.37,5504 2773.44,4179.15 1846.3,5231.8 2566.43,4029.58 1439.48,4867.52 2395.22,3840.47 1117.72,4427.08 2267.27,3620.09 895.06,3929.72 2188.21,3378.07 781.26,3397.19 2161.45,3125 781.24,2852.8 2188.21,2871.92 895.06,2320.27 2267.27,2629.9 1117.72,1822.91 2395.22,2409.52 1439.48,1382.47 2566.43,2220.41 1846.3,1018.19 2773.44,2070.84 2320.37,745.98 3007.19,1967.33 2840.99,577.74 3257.46,1914.42 "/>
  <g id="_2062840146048">
   <path class="fil2 str0" d="M3385.41 784.84c1292.43,0 2340.15,1047.72 2340.15,2340.15 0,1292.43 -1047.72,2340.15 -2340.15,2340.15 -1292.43,0 -2340.15,-1047.72 -2340.15,-2340.15 0,-1292.43 1047.72,-2340.15 2340.15,-2340.15z"/>
  </g>
  <circle class="fil2 str0" cx="3385.42" cy="3125" r="1197.92"/>
  <path class="fil3 str1" d="M2187.5 3125c0,-661.59 536.33,-1197.92 1197.92,-1197.92 661.59,0 1197.92,536.32 1197.92,1197.92 0,661.59 -536.33,1197.92 -1197.92,1197.92 -661.59,0 -1197.92,-536.32 -1197.92,-1197.92zm3538.07 0c0,-1292.43 -1047.72,-2340.15 -2340.15,-2340.15 -1292.43,0 -2340.15,1047.72 -2340.15,2340.15 0,1292.43 1047.72,2340.15 2340.15,2340.15 1292.43,0 2340.15,-1047.72 2340.15,-2340.15z"/>
  <path class="fil4 str1" d="M3385.41 1927.08c-661.59,0 -1197.92,536.32 -1197.92,1197.92 0,661.59 536.33,1197.92 1197.92,1197.92 661.59,0 1197.92,-536.32 1197.92,-1197.92 0,-661.59 -536.33,-1197.92 -1197.92,-1197.92z"/>
  <polygon class="fil0 str0" points="6065.52,526.66 6110.27,551.65 6155.03,576.64 6155.03,626.63 6155.03,676.62 6110.27,701.61 6065.52,726.61 6020.76,701.61 5976,676.62 5976,626.63 5976,576.64 6020.76,551.65 "/>
  <polygon class="fil0 str0" points="6117.62,5602.94 6162.37,5627.93 6207.13,5652.93 6207.13,5702.91 6207.13,5752.91 6162.37,5777.9 6117.62,5802.89 6072.86,5777.9 6028.11,5752.91 6028.11,5702.91 6028.11,5652.93 6072.86,5627.93 "/>
  <polygon class="fil0 str0" points="773.19,506.99 817.94,531.98 862.7,556.98 862.7,606.96 862.7,656.96 817.94,681.95 773.19,706.94 728.43,681.95 683.68,656.96 683.68,606.96 683.68,556.98 728.43,531.98 "/>
  <polygon class="fil0 str0" points="765.89,5571.33 810.65,5596.32 855.4,5621.31 855.4,5671.3 855.4,5721.29 810.65,5746.28 765.89,5771.28 721.13,5746.28 676.38,5721.29 676.38,5671.3 676.38,5621.31 721.13,5596.32 "/>
 </g>
</svg>
