<?xml version="1.0" encoding="UTF-8"?>
<!DOCTYPE svg PUBLIC "-//W3C//DTD SVG 1.1//EN" "http://www.w3.org/Graphics/SVG/1.1/DTD/svg11.dtd">
<!-- Creator: CorelDRAW -->
<svg xmlns="http://www.w3.org/2000/svg" xml:space="preserve" width="5.41666in" height="2.29166in" version="1.1" style="shape-rendering:geometricPrecision; text-rendering:geometricPrecision; image-rendering:optimizeQuality; fill-rule:evenodd; clip-rule:evenodd"
viewBox="0 0 5416.66 2291.66"
 xmlns:xlink="http://www.w3.org/1999/xlink"
 xmlns:xodm="http://www.corel.com/coreldraw/odm/2003">
 <defs>
  <style type="text/css">
   <![CDATA[
    .str0 {stroke:black;stroke-width:10.41;stroke-miterlimit:2.61313}
    .str1 {stroke:black;stroke-width:20.83;stroke-miterlimit:2.61313}
    .fil4 {fill:none}
    .fil6 {fill:black}
    .fil5 {fill:#346148}
    .fil0 {fill:#3C5A64}
    .fil2 {fill:#785B5B}
    .fil1 {fill:#949BA3}
    .fil7 {fill:#BABABA}
    .fil8 {fill:white}
    .fil3 {fill:#DEDEDE;fill-opacity:0.250980}
   ]]>
  </style>
 </defs>
 <g id="Layer_x0020_1">
  <metadata id="CorelCorpID_0Corel-Layer"/>
  <path class="fil0 str0" d="M169.08 1140.84l312.5 0 0 1023.5c0,34.37 -28.12,62.5 -62.5,62.5l-187.5 0c-34.38,0 -62.5,-28.13 -62.5,-62.5l0 -1023.5z"/>
  <path class="fil1 str0" d="M168.19 1142.54l4198.13 0c57.29,0 104.17,-46.87 104.17,-104.17l0 -855.47c0,-57.29 -46.87,-104.17 -104.17,-104.17l-4093.96 0c-57.29,0 -104.17,46.87 -104.17,104.17l0 959.63z"/>
  <rect class="fil0 str0" x="4097.16" y="1142.54" width="76.09" height="1077.65"/>
  <rect class="fil2 str0" x="4171.29" y="1929.31" width="1213.4" height="51.25"/>
  <rect class="fil2 str0" x="4174.06" y="1528.99" width="1192.54" height="51.25"/>
  <g>
   <path class="fil3" d="M1376.67 1484.92l2661.57 0 0 540.17 -2661.57 0c-91.67,0 -166.67,-75 -166.67,-166.67l0 -206.83c0,-91.67 75,-166.67 166.67,-166.67z"/>
   <path id="_1" class="fil4 str0" d="M1376.67 1484.92l2661.57 0 0 540.17 -2661.57 0c-91.67,0 -166.67,-75 -166.67,-166.67l0 -206.83c0,-91.67 75,-166.67 166.67,-166.67z"/>
  </g>
  <path class="fil5 str0" d="M938.57 1659.39l271.24 0 0 191.13 -271.24 0c-45.83,0 -83.33,-37.5 -83.33,-83.33l0 -24.47c0,-45.83 37.5,-83.33 83.33,-83.33z"/>
  <polygon class="fil6 str0" points="59.24,1746.99 855.43,1746.99 855.43,1762.92 75.17,1762.92 59.24,1746.99 "/>
  <rect class="fil7 str0" x="4038.23" y="1400.38" width="193.9" height="709.14" rx="145.83" ry="145.83"/>
  <line class="fil4 str1" x1="1468.93" y1="1484.41" x2="1471.02" y2= "1703.23" />
  <line class="fil4 str1" x1="1521.02" y1="1485.43" x2="1523.1" y2= "1594.83" />
  <line class="fil4 str1" x1="1573.1" y1="1487.46" x2="1575.18" y2= "1596.87" />
  <line class="fil4 str1" x1="1625.18" y1="1486.42" x2="1627.26" y2= "1595.83" />
  <line class="fil4 str1" x1="1677.26" y1="1488.46" x2="1679.35" y2= "1597.87" />
  <line class="fil4 str1" x1="1729.35" y1="1484.41" x2="1731.43" y2= "1703.23" />
  <line class="fil4 str1" x1="1781.43" y1="1485.43" x2="1783.52" y2= "1594.83" />
  <line class="fil4 str1" x1="1833.52" y1="1487.46" x2="1835.6" y2= "1596.87" />
  <line class="fil4 str1" x1="1885.6" y1="1486.42" x2="1887.68" y2= "1595.83" />
  <line class="fil4 str1" x1="1937.68" y1="1488.46" x2="1939.76" y2= "1597.87" />
  <line class="fil4 str1" x1="1989.76" y1="1484.41" x2="1991.85" y2= "1703.23" />
  <line class="fil4 str1" x1="2041.83" y1="1486.47" x2="2043.91" y2= "1595.88" />
  <line class="fil4 str1" x1="2093.91" y1="1488.51" x2="2096" y2= "1597.92" />
  <line class="fil4 str1" x1="2146" y1="1487.46" x2="2148.08" y2= "1596.87" />
  <line class="fil4 str1" x1="2198.08" y1="1489.5" x2="2200.16" y2= "1598.91" />
  <line class="fil4 str1" x1="2250.16" y1="1485.46" x2="2252.24" y2= "1704.27" />
  <line class="fil4 str1" x1="2302.25" y1="1486.47" x2="2304.33" y2= "1595.88" />
  <line class="fil4 str1" x1="2354.33" y1="1488.51" x2="2356.41" y2= "1597.92" />
  <line class="fil4 str1" x1="2406.41" y1="1487.46" x2="2408.5" y2= "1596.87" />
  <line class="fil4 str1" x1="2458.5" y1="1489.5" x2="2460.58" y2= "1598.91" />
  <line class="fil4 str1" x1="2510.58" y1="1485.46" x2="2512.66" y2= "1704.27" />
  <line class="fil4 str1" x1="2564.59" y1="1482.31" x2="2566.67" y2= "1591.72" />
  <line class="fil4 str1" x1="2616.67" y1="1484.35" x2="2618.76" y2= "1593.76" />
  <line class="fil4 str1" x1="2668.76" y1="1483.31" x2="2670.84" y2= "1592.72" />
  <line class="fil4 str1" x1="2720.84" y1="1485.35" x2="2722.92" y2= "1594.76" />
  <line class="fil4 str1" x1="2772.92" y1="1481.3" x2="2775" y2= "1700.12" />
  <line class="fil4 str1" x1="2825.01" y1="1482.31" x2="2827.09" y2= "1591.72" />
  <line class="fil4 str1" x1="2877.09" y1="1484.35" x2="2879.17" y2= "1593.76" />
  <line class="fil4 str1" x1="2929.17" y1="1483.31" x2="2931.26" y2= "1592.72" />
  <line class="fil4 str1" x1="2981.26" y1="1485.35" x2="2983.34" y2= "1594.76" />
  <line class="fil4 str1" x1="3033.34" y1="1481.3" x2="3035.42" y2= "1700.12" />
  <line class="fil4 str1" x1="3085.41" y1="1483.36" x2="3087.49" y2= "1592.77" />
  <line class="fil4 str1" x1="3137.49" y1="1485.4" x2="3139.57" y2= "1594.81" />
  <line class="fil4 str1" x1="3189.57" y1="1484.35" x2="3191.65" y2= "1593.76" />
  <line class="fil4 str1" x1="3241.65" y1="1486.39" x2="3243.74" y2= "1595.8" />
  <line class="fil4 str1" x1="3293.74" y1="1482.35" x2="3295.82" y2= "1701.16" />
  <line class="fil4 str1" x1="3345.82" y1="1483.36" x2="3347.91" y2= "1592.77" />
  <line class="fil4 str1" x1="3397.91" y1="1485.4" x2="3399.99" y2= "1594.81" />
  <line class="fil4 str1" x1="3449.99" y1="1484.35" x2="3452.07" y2= "1593.76" />
  <line class="fil4 str1" x1="3502.07" y1="1486.39" x2="3504.15" y2= "1595.8" />
  <line class="fil4 str1" x1="3554.15" y1="1482.35" x2="3556.24" y2= "1701.16" />
  <rect class="fil8 str0" x="3978.16" y="253.3" width="243.95" height="231.11"/>
  <rect class="fil6 str0" x="2410.5" y="249.19" width="1509.82" height="235.48"/>
  <rect class="fil8 str0" x="412.59" y="288.35" width="146.83" height="110.81"/>
  <path class="fil0 str0" d="M3280 2220.19l145.84 0c45.83,0 83.33,-37.5 83.33,-83.33l0 -433.44c0,-59.19 -48.43,-107.62 -107.62,-107.62l-97.26 0c-59.2,0 -107.62,48.43 -107.62,107.62l0 433.44c0,45.83 37.5,83.33 83.33,83.33z"/>
  <rect class="fil8 str0" x="3980.02" y="586.86" width="243.95" height="231.11"/>
  <rect class="fil6 str0" x="2412.35" y="582.75" width="1509.82" height="235.48"/>
  <rect class="fil8 str0" x="725.09" y="288.35" width="146.83" height="110.81"/>
  <rect class="fil8 str0" x="1037.58" y="288.35" width="146.83" height="110.81"/>
  <rect class="fil8 str0" x="1350.08" y="288.35" width="146.83" height="110.81"/>
  <rect class="fil8 str0" x="1662.57" y="288.35" width="146.83" height="110.81"/>
  <rect class="fil8 str0" x="1975.07" y="288.35" width="146.83" height="110.81"/>
  <rect class="fil8 str0" x="412.59" y="705.01" width="146.83" height="110.81"/>
  <rect class="fil8 str0" x="725.09" y="705.01" width="146.83" height="110.81"/>
  <rect class="fil8 str0" x="1037.58" y="705.01" width="146.83" height="110.81"/>
  <rect class="fil8 str0" x="1350.08" y="705.01" width="146.83" height="110.81"/>
  <rect class="fil8 str0" x="1662.57" y="705.01" width="146.83" height="110.81"/>
  <rect class="fil8 str0" x="1975.07" y="705.01" width="146.83" height="110.81"/>
  <rect class="fil0 str0" x="3204.38" y="1142.54" width="312.5" height="343.85"/>
  <path class="fil0 str0" d="M1927.91 2214.33l145.84 0c45.83,0 83.33,-37.5 83.33,-83.33l0 -433.44c0,-59.19 -48.43,-107.62 -107.62,-107.62l-97.26 0c-59.2,0 -107.62,48.43 -107.62,107.62l0 433.44c0,45.83 37.5,83.33 83.33,83.33z"/>
  <rect class="fil0 str0" x="1852.29" y="1136.69" width="312.5" height="343.85"/>
 </g>
</svg>
