<?xml version="1.0" encoding="UTF-8" standalone="no"?>
<svg width="24.3417mm" height="35.9833mm"
 viewBox="0 0 68.548 102"
 xmlns="http://www.w3.org/2000/svg" xmlns:xlink="http://www.w3.org/1999/xlink"  version="1.2" baseProfile="tiny">
<title>TemperatureControl</title>
<desc>Chemunited component figure exported without name or port labels.</desc>
<defs>
<linearGradient gradientUnits="userSpaceOnUse" x1="379.94" y1="711.34" x2="608.24" y2="711.34" id="gradient1">
    <stop offset="0" stop-color="#000000" stop-opacity="1" />
    <stop offset="0.968627" stop-color="#7f7f7f" stop-opacity="1" />
    <stop offset="1" stop-color="#ffffff" stop-opacity="1" />
</linearGradient>
<linearGradient gradientUnits="userSpaceOnUse" x1="231.62" y1="2103.33" x2="1853.73" y2="2103.33" id="gradient2">
    <stop offset="0" stop-color="#c7c7c4" stop-opacity="1" />
    <stop offset="1" stop-color="#ffffff" stop-opacity="1" />
</linearGradient>
</defs>
<g fill="none" stroke="black" stroke-width="1" fill-rule="evenodd" stroke-linecap="square" stroke-linejoin="bevel" >

<g fill="none" stroke="#000000" stroke-opacity="1" stroke-width="1" stroke-linecap="square" stroke-linejoin="bevel" transform="matrix(1,0,0,1,0,0)"
font-family="MS Shell Dlg 2" font-size="8.25" font-weight="400" font-style="normal"
>
</g>

<g fill="none" stroke="#000000" stroke-opacity="1" stroke-width="1" stroke-linecap="square" stroke-linejoin="bevel" transform="matrix(1,0,0,1,0,0)"
font-family="MS Shell Dlg 2" font-size="8.25" font-weight="400" font-style="normal"
>
</g>

<g fill="none" stroke="#000000" stroke-opacity="1" stroke-width="1" stroke-linecap="square" stroke-linejoin="bevel" transform="matrix(0.355872,0,0,0.355872,1,1)"
font-family="MS Shell Dlg 2" font-size="8.25" font-weight="400" font-style="normal"
>
</g>

<g fill="none" stroke="none" transform="matrix(0.0319431,0,0,0.0320001,1,1)"
font-family="MS Shell Dlg 2" font-size="8.25" font-weight="400" font-style="normal"
>
<rect x="231.62" y="1298.91" width="1622.11" height="1608.84"/>
</g>

<g fill="none" stroke="#000000" stroke-opacity="1" stroke-width="10.41" stroke-linecap="butt" stroke-linejoin="miter" stroke-miterlimit="2.61313" transform="matrix(0.0319431,0,0,0.0320001,1,1)"
font-family="MS Shell Dlg 2" font-size="8.25" font-weight="400" font-style="normal"
>
<rect x="231.62" y="1298.91" width="1622.11" height="1608.84"/>
</g>

<g fill="#000000" fill-opacity="1" stroke="none" transform="matrix(0.0319431,0,0,0.0320001,1,1)"
font-family="MS Shell Dlg 2" font-size="8.25" font-weight="400" font-style="normal"
>
<rect x="293.29" y="2907.76" width="177.19" height="118.72"/>
</g>

<g fill="none" stroke="#000000" stroke-opacity="1" stroke-width="10.41" stroke-linecap="butt" stroke-linejoin="miter" stroke-miterlimit="2.61313" transform="matrix(0.0319431,0,0,0.0320001,1,1)"
font-family="MS Shell Dlg 2" font-size="8.25" font-weight="400" font-style="normal"
>
<rect x="293.29" y="2907.76" width="177.19" height="118.72"/>
</g>

<g fill="#2b3240" fill-opacity="1" stroke="none" transform="matrix(0.0319431,0,0,0.0320001,1,1)"
font-family="MS Shell Dlg 2" font-size="8.25" font-weight="400" font-style="normal"
>
<rect x="229.6" y="92.9" width="1624.13" height="1206.02"/>
</g>

<g fill="none" stroke="#000000" stroke-opacity="1" stroke-width="10.41" stroke-linecap="butt" stroke-linejoin="miter" stroke-miterlimit="2.61313" transform="matrix(0.0319431,0,0,0.0320001,1,1)"
font-family="MS Shell Dlg 2" font-size="8.25" font-weight="400" font-style="normal"
>
<rect x="229.6" y="92.9" width="1624.13" height="1206.02"/>
</g>

<g fill="url(#gradient1)" stroke="none" transform="matrix(0.0319431,0,0,0.0320001,1,1)"
font-family="MS Shell Dlg 2" font-size="8.25" font-weight="400" font-style="normal"
>
<path vector-effect="none" fill-rule="evenodd" d="M379.94,291.27 C505.51,291.27 608.24,394 608.24,519.57 L608.24,903.13 C608.24,1028.7 505.51,1131.43 379.94,1131.43 L379.94,291.28 L379.94,291.27"/>
</g>

<g fill="none" stroke="#000000" stroke-opacity="1" stroke-width="10.41" stroke-linecap="butt" stroke-linejoin="miter" stroke-miterlimit="2.61313" transform="matrix(0.0319431,0,0,0.0320001,1,1)"
font-family="MS Shell Dlg 2" font-size="8.25" font-weight="400" font-style="normal"
>
<path vector-effect="none" fill-rule="evenodd" d="M379.94,291.27 C505.51,291.27 608.24,394 608.24,519.57 L608.24,903.13 C608.24,1028.7 505.51,1131.43 379.94,1131.43 L379.94,291.28 L379.94,291.27"/>
</g>

<g fill="none" stroke="#5e2945" stroke-opacity="1" stroke-width="5" stroke-linecap="butt" stroke-linejoin="miter" stroke-miterlimit="10" transform="matrix(0.0319431,0,0,0.0320001,1,1)"
font-family="MS Shell Dlg 2" font-size="8.25" font-weight="400" font-style="normal"
>
<polyline fill="none" vector-effect="none" points="1509.5,915.28 1153.88,559.67 " />
</g>

<g fill="none" stroke="#17006e" stroke-opacity="1" stroke-width="5" stroke-linecap="butt" stroke-linejoin="miter" stroke-miterlimit="10" transform="matrix(0.0319431,0,0,0.0320001,1,1)"
font-family="MS Shell Dlg 2" font-size="8.25" font-weight="400" font-style="normal"
>
<polyline fill="none" vector-effect="none" points="1554.75,870.03 1199.13,514.41 " />
</g>

<g fill="none" stroke="#369959" stroke-opacity="1" stroke-width="5" stroke-linecap="butt" stroke-linejoin="miter" stroke-miterlimit="10" transform="matrix(0.0319431,0,0,0.0320001,1,1)"
font-family="MS Shell Dlg 2" font-size="8.25" font-weight="400" font-style="normal"
>
<polyline fill="none" vector-effect="none" points="1573.84,850.94 1218.22,495.32 " />
</g>

<g fill="none" stroke="#e35cde" stroke-opacity="1" stroke-width="5" stroke-linecap="butt" stroke-linejoin="miter" stroke-miterlimit="10" transform="matrix(0.0319431,0,0,0.0320001,1,1)"
font-family="MS Shell Dlg 2" font-size="8.25" font-weight="400" font-style="normal"
>
<polyline fill="none" vector-effect="none" points="1616.97,807.8 1261.36,452.19 " />
</g>

<g fill="none" stroke="#7dad63" stroke-opacity="1" stroke-width="5" stroke-linecap="butt" stroke-linejoin="miter" stroke-miterlimit="10" transform="matrix(0.0319431,0,0,0.0320001,1,1)"
font-family="MS Shell Dlg 2" font-size="8.25" font-weight="400" font-style="normal"
>
<polyline fill="none" vector-effect="none" points="1653.74,771.04 1298.13,415.42 " />
</g>

<g fill="none" stroke="#b0a38c" stroke-opacity="1" stroke-width="5" stroke-linecap="butt" stroke-linejoin="miter" stroke-miterlimit="10" transform="matrix(0.0319431,0,0,0.0320001,1,1)"
font-family="MS Shell Dlg 2" font-size="8.25" font-weight="400" font-style="normal"
>
<polyline fill="none" vector-effect="none" points="1675.67,749.12 1320.04,393.5 " />
</g>

<g fill="none" stroke="#8785de" stroke-opacity="1" stroke-width="5" stroke-linecap="butt" stroke-linejoin="miter" stroke-miterlimit="10" transform="matrix(0.0319431,0,0,0.0320001,1,1)"
font-family="MS Shell Dlg 2" font-size="8.25" font-weight="400" font-style="normal"
>
<polyline fill="none" vector-effect="none" points="1692.64,732.15 1337.02,376.52 " />
</g>

<g fill="none" stroke="#21338c" stroke-opacity="1" stroke-width="5" stroke-linecap="butt" stroke-linejoin="miter" stroke-miterlimit="10" transform="matrix(0.0319431,0,0,0.0320001,1,1)"
font-family="MS Shell Dlg 2" font-size="8.25" font-weight="400" font-style="normal"
>
<polyline fill="none" vector-effect="none" points="1692.64,732.15 1337.02,376.52 " />
</g>

<g fill="none" stroke="#173308" stroke-opacity="1" stroke-width="5" stroke-linecap="butt" stroke-linejoin="miter" stroke-miterlimit="10" transform="matrix(0.0319431,0,0,0.0320001,1,1)"
font-family="MS Shell Dlg 2" font-size="8.25" font-weight="400" font-style="normal"
>
<polyline fill="none" vector-effect="none" points="1716.68,708.11 1361.06,352.48 " />
</g>

<g fill="none" stroke="#870026" stroke-opacity="1" stroke-width="5" stroke-linecap="butt" stroke-linejoin="miter" stroke-miterlimit="10" transform="matrix(0.0319431,0,0,0.0320001,1,1)"
font-family="MS Shell Dlg 2" font-size="8.25" font-weight="400" font-style="normal"
>
<polyline fill="none" vector-effect="none" points="1764.76,660.02 1409.14,304.4 " />
</g>

<g fill="none" stroke="#cf14de" stroke-opacity="1" stroke-width="5" stroke-linecap="butt" stroke-linejoin="miter" stroke-miterlimit="10" transform="matrix(0.0319431,0,0,0.0320001,1,1)"
font-family="MS Shell Dlg 2" font-size="8.25" font-weight="400" font-style="normal"
>
<polyline fill="none" vector-effect="none" points="1804.36,620.42 1448.74,264.8 " />
</g>

<g fill="none" stroke="#a63dbf" stroke-opacity="1" stroke-width="5" stroke-linecap="butt" stroke-linejoin="miter" stroke-miterlimit="10" transform="matrix(0.0319431,0,0,0.0320001,1,1)"
font-family="MS Shell Dlg 2" font-size="8.25" font-weight="400" font-style="normal"
>
<polyline fill="none" vector-effect="none" points="1810.72,614.06 1455.1,258.44 " />
</g>

<g fill="none" stroke="#7d3326" stroke-opacity="1" stroke-width="5" stroke-linecap="butt" stroke-linejoin="miter" stroke-miterlimit="10" transform="matrix(0.0319431,0,0,0.0320001,1,1)"
font-family="MS Shell Dlg 2" font-size="8.25" font-weight="400" font-style="normal"
>
<polyline fill="none" vector-effect="none" points="1842.54,582.24 1486.92,226.62 " />
</g>

<g fill="none" stroke="#7d8545" stroke-opacity="1" stroke-width="5" stroke-linecap="butt" stroke-linejoin="miter" stroke-miterlimit="10" transform="matrix(0.0319431,0,0,0.0320001,1,1)"
font-family="MS Shell Dlg 2" font-size="8.25" font-weight="400" font-style="normal"
>
<polyline fill="none" vector-effect="none" points="1858.81,565.98 1503.19,210.35 " />
</g>

<g fill="none" stroke="#c4cc12" stroke-opacity="1" stroke-width="5" stroke-linecap="butt" stroke-linejoin="miter" stroke-miterlimit="10" transform="matrix(0.0319431,0,0,0.0320001,1,1)"
font-family="MS Shell Dlg 2" font-size="8.25" font-weight="400" font-style="normal"
>
<polyline fill="none" vector-effect="none" points="1898.41,526.38 1542.78,170.76 " />
</g>

<g fill="none" stroke="#40ad4f" stroke-opacity="1" stroke-width="5" stroke-linecap="butt" stroke-linejoin="miter" stroke-miterlimit="10" transform="matrix(0.0319431,0,0,0.0320001,1,1)"
font-family="MS Shell Dlg 2" font-size="8.25" font-weight="400" font-style="normal"
>
<polyline fill="none" vector-effect="none" points="1189.94,601.39 1545.56,245.76 " />
</g>

<g fill="none" stroke="#87e0fc" stroke-opacity="1" stroke-width="5" stroke-linecap="butt" stroke-linejoin="miter" stroke-miterlimit="10" transform="matrix(0.0319431,0,0,0.0320001,1,1)"
font-family="MS Shell Dlg 2" font-size="8.25" font-weight="400" font-style="normal"
>
<polyline fill="none" vector-effect="none" points="1241.56,653 1597.18,297.38 " />
</g>

<g fill="none" stroke="#4a1f26" stroke-opacity="1" stroke-width="5" stroke-linecap="butt" stroke-linejoin="miter" stroke-miterlimit="10" transform="matrix(0.0319431,0,0,0.0320001,1,1)"
font-family="MS Shell Dlg 2" font-size="8.25" font-weight="400" font-style="normal"
>
<polyline fill="none" vector-effect="none" points="1245.8,657.24 1601.42,301.63 " />
</g>

<g fill="none" stroke="#a6b826" stroke-opacity="1" stroke-width="5" stroke-linecap="butt" stroke-linejoin="miter" stroke-miterlimit="10" transform="matrix(0.0319431,0,0,0.0320001,1,1)"
font-family="MS Shell Dlg 2" font-size="8.25" font-weight="400" font-style="normal"
>
<polyline fill="none" vector-effect="none" points="1283.98,695.43 1639.6,339.81 " />
</g>

<g fill="none" stroke="#17998c" stroke-opacity="1" stroke-width="5" stroke-linecap="butt" stroke-linejoin="miter" stroke-miterlimit="10" transform="matrix(0.0319431,0,0,0.0320001,1,1)"
font-family="MS Shell Dlg 2" font-size="8.25" font-weight="400" font-style="normal"
>
<polyline fill="none" vector-effect="none" points="1328.53,739.98 1684.15,384.36 " />
</g>

<g fill="none" stroke="#87b808" stroke-opacity="1" stroke-width="5" stroke-linecap="butt" stroke-linejoin="miter" stroke-miterlimit="10" transform="matrix(0.0319431,0,0,0.0320001,1,1)"
font-family="MS Shell Dlg 2" font-size="8.25" font-weight="400" font-style="normal"
>
<polyline fill="none" vector-effect="none" points="1339.14,750.59 1694.76,394.96 " />
</g>

<g fill="none" stroke="#69d6bf" stroke-opacity="1" stroke-width="5" stroke-linecap="butt" stroke-linejoin="miter" stroke-miterlimit="10" transform="matrix(0.0319431,0,0,0.0320001,1,1)"
font-family="MS Shell Dlg 2" font-size="8.25" font-weight="400" font-style="normal"
>
<polyline fill="none" vector-effect="none" points="1380.15,791.6 1735.77,435.98 " />
</g>

<g fill="none" stroke="#7d7aab" stroke-opacity="1" stroke-width="5" stroke-linecap="butt" stroke-linejoin="miter" stroke-miterlimit="10" transform="matrix(0.0319431,0,0,0.0320001,1,1)"
font-family="MS Shell Dlg 2" font-size="8.25" font-weight="400" font-style="normal"
>
<polyline fill="none" vector-effect="none" points="1381.56,793.01 1737.19,437.39 " />
</g>

<g fill="none" stroke="#73668c" stroke-opacity="1" stroke-width="5" stroke-linecap="butt" stroke-linejoin="miter" stroke-miterlimit="10" transform="matrix(0.0319431,0,0,0.0320001,1,1)"
font-family="MS Shell Dlg 2" font-size="8.25" font-weight="400" font-style="normal"
>
<polyline fill="none" vector-effect="none" points="1394.29,805.74 1749.91,450.12 " />
</g>

<g fill="none" stroke="#7d29b5" stroke-opacity="1" stroke-width="5" stroke-linecap="butt" stroke-linejoin="miter" stroke-miterlimit="10" transform="matrix(0.0319431,0,0,0.0320001,1,1)"
font-family="MS Shell Dlg 2" font-size="8.25" font-weight="400" font-style="normal"
>
<polyline fill="none" vector-effect="none" points="1396.41,807.86 1752.03,452.24 " />
</g>

<g fill="none" stroke="#ed5ce8" stroke-opacity="1" stroke-width="5" stroke-linecap="butt" stroke-linejoin="miter" stroke-miterlimit="10" transform="matrix(0.0319431,0,0,0.0320001,1,1)"
font-family="MS Shell Dlg 2" font-size="8.25" font-weight="400" font-style="normal"
>
<polyline fill="none" vector-effect="none" points="1448.74,860.19 1804.36,504.57 " />
</g>

<g fill="none" stroke="#03d6c9" stroke-opacity="1" stroke-width="5" stroke-linecap="butt" stroke-linejoin="miter" stroke-miterlimit="10" transform="matrix(0.0319431,0,0,0.0320001,1,1)"
font-family="MS Shell Dlg 2" font-size="8.25" font-weight="400" font-style="normal"
>
<polyline fill="none" vector-effect="none" points="1474.9,886.35 1830.52,530.73 " />
</g>

<g fill="none" stroke="#91e008" stroke-opacity="1" stroke-width="5" stroke-linecap="butt" stroke-linejoin="miter" stroke-miterlimit="10" transform="matrix(0.0319431,0,0,0.0320001,1,1)"
font-family="MS Shell Dlg 2" font-size="8.25" font-weight="400" font-style="normal"
>
<polyline fill="none" vector-effect="none" points="1493.29,904.74 1848.91,549.11 " />
</g>

<g fill="none" stroke="#f77abf" stroke-opacity="1" stroke-width="5" stroke-linecap="butt" stroke-linejoin="miter" stroke-miterlimit="10" transform="matrix(0.0319431,0,0,0.0320001,1,1)"
font-family="MS Shell Dlg 2" font-size="8.25" font-weight="400" font-style="normal"
>
<polyline fill="none" vector-effect="none" points="1496.11,907.56 1851.74,551.94 " />
</g>

<g fill="none" stroke="#ba853b" stroke-opacity="1" stroke-width="5" stroke-linecap="butt" stroke-linejoin="miter" stroke-miterlimit="10" transform="matrix(0.0319431,0,0,0.0320001,1,1)"
font-family="MS Shell Dlg 2" font-size="8.25" font-weight="400" font-style="normal"
>
<polyline fill="none" vector-effect="none" points="1514.5,925.95 1870.12,570.33 " />
</g>

<g fill="none" stroke="none" transform="matrix(0.0319431,0,0,0.0320001,1,1)"
font-family="MS Shell Dlg 2" font-size="8.25" font-weight="400" font-style="normal"
>
<path vector-effect="none" fill-rule="evenodd" d="M1345.53,399.83 L1685.66,399.83 L1685.66,705.94 L1345.53,705.94 L1345.53,399.83"/>
</g>

<g fill="none" stroke="#000000" stroke-opacity="1" stroke-width="10.41" stroke-linecap="butt" stroke-linejoin="miter" stroke-miterlimit="2.61313" transform="matrix(0.0319431,0,0,0.0320001,1,1)"
font-family="MS Shell Dlg 2" font-size="8.25" font-weight="400" font-style="normal"
>
<path vector-effect="none" fill-rule="evenodd" d="M1345.53,399.83 L1685.66,399.83 L1685.66,705.94 L1345.53,705.94 L1345.53,399.83"/>
</g>

<g fill="#000000" fill-opacity="1" stroke="none" transform="matrix(0.0319431,0,0,0.0320001,1,1)"
font-family="MS Shell Dlg 2" font-size="8.25" font-weight="400" font-style="normal"
>
<rect x="1610.51" y="1146.71" width="89.4" height="71.52"/>
</g>

<g fill="none" stroke="#000000" stroke-opacity="1" stroke-width="10.41" stroke-linecap="butt" stroke-linejoin="miter" stroke-miterlimit="2.61313" transform="matrix(0.0319431,0,0,0.0320001,1,1)"
font-family="MS Shell Dlg 2" font-size="8.25" font-weight="400" font-style="normal"
>
<rect x="1610.51" y="1146.71" width="89.4" height="71.52"/>
</g>

<g fill="none" stroke="none" transform="matrix(0.0319431,0,0,0.0320001,1,1)"
font-family="MS Shell Dlg 2" font-size="8.25" font-weight="400" font-style="normal"
>
<ellipse cx="392.22" cy="1440.94" rx="65.72" ry="59.15"/>
</g>

<g fill="none" stroke="#000000" stroke-opacity="1" stroke-width="10.41" stroke-linecap="butt" stroke-linejoin="miter" stroke-miterlimit="2.61313" transform="matrix(0.0319431,0,0,0.0320001,1,1)"
font-family="MS Shell Dlg 2" font-size="8.25" font-weight="400" font-style="normal"
>
<ellipse cx="392.22" cy="1440.94" rx="65.72" ry="59.15"/>
</g>

<g fill="none" stroke="none" transform="matrix(0.0319431,0,0,0.0320001,1,1)"
font-family="MS Shell Dlg 2" font-size="8.25" font-weight="400" font-style="normal"
>
<ellipse cx="577.31" cy="1436.78" rx="65.72" ry="59.15"/>
</g>

<g fill="none" stroke="#000000" stroke-opacity="1" stroke-width="10.41" stroke-linecap="butt" stroke-linejoin="miter" stroke-miterlimit="2.61313" transform="matrix(0.0319431,0,0,0.0320001,1,1)"
font-family="MS Shell Dlg 2" font-size="8.25" font-weight="400" font-style="normal"
>
<ellipse cx="577.31" cy="1436.78" rx="65.72" ry="59.15"/>
</g>

<g fill="none" stroke="none" transform="matrix(0.0319431,0,0,0.0320001,1,1)"
font-family="MS Shell Dlg 2" font-size="8.25" font-weight="400" font-style="normal"
>
<ellipse cx="769.41" cy="1438.9" rx="65.72" ry="59.15"/>
</g>

<g fill="none" stroke="#000000" stroke-opacity="1" stroke-width="10.41" stroke-linecap="butt" stroke-linejoin="miter" stroke-miterlimit="2.61313" transform="matrix(0.0319431,0,0,0.0320001,1,1)"
font-family="MS Shell Dlg 2" font-size="8.25" font-weight="400" font-style="normal"
>
<ellipse cx="769.41" cy="1438.9" rx="65.72" ry="59.15"/>
</g>

<g fill="none" stroke="none" transform="matrix(0.0319431,0,0,0.0320001,1,1)"
font-family="MS Shell Dlg 2" font-size="8.25" font-weight="400" font-style="normal"
>
<ellipse cx="954.5" cy="1434.75" rx="65.72" ry="59.15"/>
</g>

<g fill="none" stroke="#000000" stroke-opacity="1" stroke-width="10.41" stroke-linecap="butt" stroke-linejoin="miter" stroke-miterlimit="2.61313" transform="matrix(0.0319431,0,0,0.0320001,1,1)"
font-family="MS Shell Dlg 2" font-size="8.25" font-weight="400" font-style="normal"
>
<ellipse cx="954.5" cy="1434.75" rx="65.72" ry="59.15"/>
</g>

<g fill="none" stroke="none" transform="matrix(0.0319431,0,0,0.0320001,1,1)"
font-family="MS Shell Dlg 2" font-size="8.25" font-weight="400" font-style="normal"
>
<ellipse cx="384.78" cy="1630.78" rx="65.72" ry="59.15"/>
</g>

<g fill="none" stroke="#000000" stroke-opacity="1" stroke-width="10.41" stroke-linecap="butt" stroke-linejoin="miter" stroke-miterlimit="2.61313" transform="matrix(0.0319431,0,0,0.0320001,1,1)"
font-family="MS Shell Dlg 2" font-size="8.25" font-weight="400" font-style="normal"
>
<ellipse cx="384.78" cy="1630.78" rx="65.72" ry="59.15"/>
</g>

<g fill="none" stroke="none" transform="matrix(0.0319431,0,0,0.0320001,1,1)"
font-family="MS Shell Dlg 2" font-size="8.25" font-weight="400" font-style="normal"
>
<ellipse cx="569.87" cy="1626.63" rx="65.72" ry="59.15"/>
</g>

<g fill="none" stroke="#000000" stroke-opacity="1" stroke-width="10.41" stroke-linecap="butt" stroke-linejoin="miter" stroke-miterlimit="2.61313" transform="matrix(0.0319431,0,0,0.0320001,1,1)"
font-family="MS Shell Dlg 2" font-size="8.25" font-weight="400" font-style="normal"
>
<ellipse cx="569.87" cy="1626.63" rx="65.72" ry="59.15"/>
</g>

<g fill="none" stroke="none" transform="matrix(0.0319431,0,0,0.0320001,1,1)"
font-family="MS Shell Dlg 2" font-size="8.25" font-weight="400" font-style="normal"
>
<ellipse cx="761.97" cy="1628.75" rx="65.72" ry="59.15"/>
</g>

<g fill="none" stroke="#000000" stroke-opacity="1" stroke-width="10.41" stroke-linecap="butt" stroke-linejoin="miter" stroke-miterlimit="2.61313" transform="matrix(0.0319431,0,0,0.0320001,1,1)"
font-family="MS Shell Dlg 2" font-size="8.25" font-weight="400" font-style="normal"
>
<ellipse cx="761.97" cy="1628.75" rx="65.72" ry="59.15"/>
</g>

<g fill="none" stroke="none" transform="matrix(0.0319431,0,0,0.0320001,1,1)"
font-family="MS Shell Dlg 2" font-size="8.25" font-weight="400" font-style="normal"
>
<ellipse cx="947.06" cy="1624.59" rx="65.72" ry="59.15"/>
</g>

<g fill="none" stroke="#000000" stroke-opacity="1" stroke-width="10.41" stroke-linecap="butt" stroke-linejoin="miter" stroke-miterlimit="2.61313" transform="matrix(0.0319431,0,0,0.0320001,1,1)"
font-family="MS Shell Dlg 2" font-size="8.25" font-weight="400" font-style="normal"
>
<ellipse cx="947.06" cy="1624.59" rx="65.72" ry="59.15"/>
</g>

<g fill="none" stroke="none" transform="matrix(0.0319431,0,0,0.0320001,1,1)"
font-family="MS Shell Dlg 2" font-size="8.25" font-weight="400" font-style="normal"
>
<ellipse cx="390.52" cy="1818.06" rx="65.72" ry="59.15"/>
</g>

<g fill="none" stroke="#000000" stroke-opacity="1" stroke-width="10.41" stroke-linecap="butt" stroke-linejoin="miter" stroke-miterlimit="2.61313" transform="matrix(0.0319431,0,0,0.0320001,1,1)"
font-family="MS Shell Dlg 2" font-size="8.25" font-weight="400" font-style="normal"
>
<ellipse cx="390.52" cy="1818.06" rx="65.72" ry="59.15"/>
</g>

<g fill="none" stroke="none" transform="matrix(0.0319431,0,0,0.0320001,1,1)"
font-family="MS Shell Dlg 2" font-size="8.25" font-weight="400" font-style="normal"
>
<ellipse cx="575.61" cy="1813.9" rx="65.72" ry="59.15"/>
</g>

<g fill="none" stroke="#000000" stroke-opacity="1" stroke-width="10.41" stroke-linecap="butt" stroke-linejoin="miter" stroke-miterlimit="2.61313" transform="matrix(0.0319431,0,0,0.0320001,1,1)"
font-family="MS Shell Dlg 2" font-size="8.25" font-weight="400" font-style="normal"
>
<ellipse cx="575.61" cy="1813.9" rx="65.72" ry="59.15"/>
</g>

<g fill="none" stroke="none" transform="matrix(0.0319431,0,0,0.0320001,1,1)"
font-family="MS Shell Dlg 2" font-size="8.25" font-weight="400" font-style="normal"
>
<ellipse cx="767.7" cy="1816.02" rx="65.72" ry="59.15"/>
</g>

<g fill="none" stroke="#000000" stroke-opacity="1" stroke-width="10.41" stroke-linecap="butt" stroke-linejoin="miter" stroke-miterlimit="2.61313" transform="matrix(0.0319431,0,0,0.0320001,1,1)"
font-family="MS Shell Dlg 2" font-size="8.25" font-weight="400" font-style="normal"
>
<ellipse cx="767.7" cy="1816.02" rx="65.72" ry="59.15"/>
</g>

<g fill="none" stroke="none" transform="matrix(0.0319431,0,0,0.0320001,1,1)"
font-family="MS Shell Dlg 2" font-size="8.25" font-weight="400" font-style="normal"
>
<ellipse cx="952.79" cy="1811.87" rx="65.72" ry="59.15"/>
</g>

<g fill="none" stroke="#000000" stroke-opacity="1" stroke-width="10.41" stroke-linecap="butt" stroke-linejoin="miter" stroke-miterlimit="2.61313" transform="matrix(0.0319431,0,0,0.0320001,1,1)"
font-family="MS Shell Dlg 2" font-size="8.25" font-weight="400" font-style="normal"
>
<ellipse cx="952.79" cy="1811.87" rx="65.72" ry="59.15"/>
</g>

<g fill="none" stroke="none" transform="matrix(0.0319431,0,0,0.0320001,1,1)"
font-family="MS Shell Dlg 2" font-size="8.25" font-weight="400" font-style="normal"
>
<ellipse cx="383.08" cy="2007.9" rx="65.72" ry="59.15"/>
</g>

<g fill="none" stroke="#000000" stroke-opacity="1" stroke-width="10.41" stroke-linecap="butt" stroke-linejoin="miter" stroke-miterlimit="2.61313" transform="matrix(0.0319431,0,0,0.0320001,1,1)"
font-family="MS Shell Dlg 2" font-size="8.25" font-weight="400" font-style="normal"
>
<ellipse cx="383.08" cy="2007.9" rx="65.72" ry="59.15"/>
</g>

<g fill="none" stroke="none" transform="matrix(0.0319431,0,0,0.0320001,1,1)"
font-family="MS Shell Dlg 2" font-size="8.25" font-weight="400" font-style="normal"
>
<ellipse cx="568.17" cy="2003.75" rx="65.72" ry="59.15"/>
</g>

<g fill="none" stroke="#000000" stroke-opacity="1" stroke-width="10.41" stroke-linecap="butt" stroke-linejoin="miter" stroke-miterlimit="2.61313" transform="matrix(0.0319431,0,0,0.0320001,1,1)"
font-family="MS Shell Dlg 2" font-size="8.25" font-weight="400" font-style="normal"
>
<ellipse cx="568.17" cy="2003.75" rx="65.72" ry="59.15"/>
</g>

<g fill="none" stroke="none" transform="matrix(0.0319431,0,0,0.0320001,1,1)"
font-family="MS Shell Dlg 2" font-size="8.25" font-weight="400" font-style="normal"
>
<ellipse cx="760.26" cy="2005.87" rx="65.72" ry="59.15"/>
</g>

<g fill="none" stroke="#000000" stroke-opacity="1" stroke-width="10.41" stroke-linecap="butt" stroke-linejoin="miter" stroke-miterlimit="2.61313" transform="matrix(0.0319431,0,0,0.0320001,1,1)"
font-family="MS Shell Dlg 2" font-size="8.25" font-weight="400" font-style="normal"
>
<ellipse cx="760.26" cy="2005.87" rx="65.72" ry="59.15"/>
</g>

<g fill="none" stroke="none" transform="matrix(0.0319431,0,0,0.0320001,1,1)"
font-family="MS Shell Dlg 2" font-size="8.25" font-weight="400" font-style="normal"
>
<ellipse cx="945.35" cy="2001.71" rx="65.72" ry="59.15"/>
</g>

<g fill="none" stroke="#000000" stroke-opacity="1" stroke-width="10.41" stroke-linecap="butt" stroke-linejoin="miter" stroke-miterlimit="2.61313" transform="matrix(0.0319431,0,0,0.0320001,1,1)"
font-family="MS Shell Dlg 2" font-size="8.25" font-weight="400" font-style="normal"
>
<ellipse cx="945.35" cy="2001.71" rx="65.72" ry="59.15"/>
</g>

<g fill="none" stroke="none" transform="matrix(0.0319431,0,0,0.0320001,1,1)"
font-family="MS Shell Dlg 2" font-size="8.25" font-weight="400" font-style="normal"
>
<ellipse cx="388.26" cy="2194.82" rx="65.72" ry="59.15"/>
</g>

<g fill="none" stroke="#000000" stroke-opacity="1" stroke-width="10.41" stroke-linecap="butt" stroke-linejoin="miter" stroke-miterlimit="2.61313" transform="matrix(0.0319431,0,0,0.0320001,1,1)"
font-family="MS Shell Dlg 2" font-size="8.25" font-weight="400" font-style="normal"
>
<ellipse cx="388.26" cy="2194.82" rx="65.72" ry="59.15"/>
</g>

<g fill="none" stroke="none" transform="matrix(0.0319431,0,0,0.0320001,1,1)"
font-family="MS Shell Dlg 2" font-size="8.25" font-weight="400" font-style="normal"
>
<ellipse cx="573.34" cy="2190.67" rx="65.72" ry="59.15"/>
</g>

<g fill="none" stroke="#000000" stroke-opacity="1" stroke-width="10.41" stroke-linecap="butt" stroke-linejoin="miter" stroke-miterlimit="2.61313" transform="matrix(0.0319431,0,0,0.0320001,1,1)"
font-family="MS Shell Dlg 2" font-size="8.25" font-weight="400" font-style="normal"
>
<ellipse cx="573.34" cy="2190.67" rx="65.72" ry="59.15"/>
</g>

<g fill="none" stroke="none" transform="matrix(0.0319431,0,0,0.0320001,1,1)"
font-family="MS Shell Dlg 2" font-size="8.25" font-weight="400" font-style="normal"
>
<ellipse cx="765.44" cy="2192.79" rx="65.72" ry="59.15"/>
</g>

<g fill="none" stroke="#000000" stroke-opacity="1" stroke-width="10.41" stroke-linecap="butt" stroke-linejoin="miter" stroke-miterlimit="2.61313" transform="matrix(0.0319431,0,0,0.0320001,1,1)"
font-family="MS Shell Dlg 2" font-size="8.25" font-weight="400" font-style="normal"
>
<ellipse cx="765.44" cy="2192.79" rx="65.72" ry="59.15"/>
</g>

<g fill="none" stroke="none" transform="matrix(0.0319431,0,0,0.0320001,1,1)"
font-family="MS Shell Dlg 2" font-size="8.25" font-weight="400" font-style="normal"
>
<ellipse cx="950.53" cy="2188.63" rx="65.72" ry="59.15"/>
</g>

<g fill="none" stroke="#000000" stroke-opacity="1" stroke-width="10.41" stroke-linecap="butt" stroke-linejoin="miter" stroke-miterlimit="2.61313" transform="matrix(0.0319431,0,0,0.0320001,1,1)"
font-family="MS Shell Dlg 2" font-size="8.25" font-weight="400" font-style="normal"
>
<ellipse cx="950.53" cy="2188.63" rx="65.72" ry="59.15"/>
</g>

<g fill="none" stroke="none" transform="matrix(0.0319431,0,0,0.0320001,1,1)"
font-family="MS Shell Dlg 2" font-size="8.25" font-weight="400" font-style="normal"
>
<ellipse cx="380.81" cy="2384.67" rx="65.72" ry="59.15"/>
</g>

<g fill="none" stroke="#000000" stroke-opacity="1" stroke-width="10.41" stroke-linecap="butt" stroke-linejoin="miter" stroke-miterlimit="2.61313" transform="matrix(0.0319431,0,0,0.0320001,1,1)"
font-family="MS Shell Dlg 2" font-size="8.25" font-weight="400" font-style="normal"
>
<ellipse cx="380.81" cy="2384.67" rx="65.72" ry="59.15"/>
</g>

<g fill="none" stroke="none" transform="matrix(0.0319431,0,0,0.0320001,1,1)"
font-family="MS Shell Dlg 2" font-size="8.25" font-weight="400" font-style="normal"
>
<ellipse cx="565.9" cy="2380.52" rx="65.72" ry="59.15"/>
</g>

<g fill="none" stroke="#000000" stroke-opacity="1" stroke-width="10.41" stroke-linecap="butt" stroke-linejoin="miter" stroke-miterlimit="2.61313" transform="matrix(0.0319431,0,0,0.0320001,1,1)"
font-family="MS Shell Dlg 2" font-size="8.25" font-weight="400" font-style="normal"
>
<ellipse cx="565.9" cy="2380.52" rx="65.72" ry="59.15"/>
</g>

<g fill="none" stroke="none" transform="matrix(0.0319431,0,0,0.0320001,1,1)"
font-family="MS Shell Dlg 2" font-size="8.25" font-weight="400" font-style="normal"
>
<ellipse cx="758" cy="2382.63" rx="65.72" ry="59.15"/>
</g>

<g fill="none" stroke="#000000" stroke-opacity="1" stroke-width="10.41" stroke-linecap="butt" stroke-linejoin="miter" stroke-miterlimit="2.61313" transform="matrix(0.0319431,0,0,0.0320001,1,1)"
font-family="MS Shell Dlg 2" font-size="8.25" font-weight="400" font-style="normal"
>
<ellipse cx="758" cy="2382.63" rx="65.72" ry="59.15"/>
</g>

<g fill="none" stroke="none" transform="matrix(0.0319431,0,0,0.0320001,1,1)"
font-family="MS Shell Dlg 2" font-size="8.25" font-weight="400" font-style="normal"
>
<ellipse cx="943.09" cy="2378.48" rx="65.72" ry="59.15"/>
</g>

<g fill="none" stroke="#000000" stroke-opacity="1" stroke-width="10.41" stroke-linecap="butt" stroke-linejoin="miter" stroke-miterlimit="2.61313" transform="matrix(0.0319431,0,0,0.0320001,1,1)"
font-family="MS Shell Dlg 2" font-size="8.25" font-weight="400" font-style="normal"
>
<ellipse cx="943.09" cy="2378.48" rx="65.72" ry="59.15"/>
</g>

<g fill="none" stroke="none" transform="matrix(0.0319431,0,0,0.0320001,1,1)"
font-family="MS Shell Dlg 2" font-size="8.25" font-weight="400" font-style="normal"
>
<ellipse cx="386.55" cy="2571.94" rx="65.72" ry="59.15"/>
</g>

<g fill="none" stroke="#000000" stroke-opacity="1" stroke-width="10.41" stroke-linecap="butt" stroke-linejoin="miter" stroke-miterlimit="2.61313" transform="matrix(0.0319431,0,0,0.0320001,1,1)"
font-family="MS Shell Dlg 2" font-size="8.25" font-weight="400" font-style="normal"
>
<ellipse cx="386.55" cy="2571.94" rx="65.72" ry="59.15"/>
</g>

<g fill="none" stroke="none" transform="matrix(0.0319431,0,0,0.0320001,1,1)"
font-family="MS Shell Dlg 2" font-size="8.25" font-weight="400" font-style="normal"
>
<ellipse cx="571.64" cy="2567.79" rx="65.72" ry="59.15"/>
</g>

<g fill="none" stroke="#000000" stroke-opacity="1" stroke-width="10.41" stroke-linecap="butt" stroke-linejoin="miter" stroke-miterlimit="2.61313" transform="matrix(0.0319431,0,0,0.0320001,1,1)"
font-family="MS Shell Dlg 2" font-size="8.25" font-weight="400" font-style="normal"
>
<ellipse cx="571.64" cy="2567.79" rx="65.72" ry="59.15"/>
</g>

<g fill="none" stroke="none" transform="matrix(0.0319431,0,0,0.0320001,1,1)"
font-family="MS Shell Dlg 2" font-size="8.25" font-weight="400" font-style="normal"
>
<ellipse cx="763.74" cy="2569.91" rx="65.72" ry="59.15"/>
</g>

<g fill="none" stroke="#000000" stroke-opacity="1" stroke-width="10.41" stroke-linecap="butt" stroke-linejoin="miter" stroke-miterlimit="2.61313" transform="matrix(0.0319431,0,0,0.0320001,1,1)"
font-family="MS Shell Dlg 2" font-size="8.25" font-weight="400" font-style="normal"
>
<ellipse cx="763.74" cy="2569.91" rx="65.72" ry="59.15"/>
</g>

<g fill="none" stroke="none" transform="matrix(0.0319431,0,0,0.0320001,1,1)"
font-family="MS Shell Dlg 2" font-size="8.25" font-weight="400" font-style="normal"
>
<ellipse cx="948.82" cy="2565.75" rx="65.72" ry="59.15"/>
</g>

<g fill="none" stroke="#000000" stroke-opacity="1" stroke-width="10.41" stroke-linecap="butt" stroke-linejoin="miter" stroke-miterlimit="2.61313" transform="matrix(0.0319431,0,0,0.0320001,1,1)"
font-family="MS Shell Dlg 2" font-size="8.25" font-weight="400" font-style="normal"
>
<ellipse cx="948.82" cy="2565.75" rx="65.72" ry="59.15"/>
</g>

<g fill="none" stroke="none" transform="matrix(0.0319431,0,0,0.0320001,1,1)"
font-family="MS Shell Dlg 2" font-size="8.25" font-weight="400" font-style="normal"
>
<ellipse cx="379.11" cy="2761.79" rx="65.72" ry="59.15"/>
</g>

<g fill="none" stroke="#000000" stroke-opacity="1" stroke-width="10.41" stroke-linecap="butt" stroke-linejoin="miter" stroke-miterlimit="2.61313" transform="matrix(0.0319431,0,0,0.0320001,1,1)"
font-family="MS Shell Dlg 2" font-size="8.25" font-weight="400" font-style="normal"
>
<ellipse cx="379.11" cy="2761.79" rx="65.72" ry="59.15"/>
</g>

<g fill="none" stroke="none" transform="matrix(0.0319431,0,0,0.0320001,1,1)"
font-family="MS Shell Dlg 2" font-size="8.25" font-weight="400" font-style="normal"
>
<ellipse cx="564.2" cy="2757.63" rx="65.72" ry="59.15"/>
</g>

<g fill="none" stroke="#000000" stroke-opacity="1" stroke-width="10.41" stroke-linecap="butt" stroke-linejoin="miter" stroke-miterlimit="2.61313" transform="matrix(0.0319431,0,0,0.0320001,1,1)"
font-family="MS Shell Dlg 2" font-size="8.25" font-weight="400" font-style="normal"
>
<ellipse cx="564.2" cy="2757.63" rx="65.72" ry="59.15"/>
</g>

<g fill="none" stroke="none" transform="matrix(0.0319431,0,0,0.0320001,1,1)"
font-family="MS Shell Dlg 2" font-size="8.25" font-weight="400" font-style="normal"
>
<ellipse cx="756.3" cy="2759.75" rx="65.72" ry="59.15"/>
</g>

<g fill="none" stroke="#000000" stroke-opacity="1" stroke-width="10.41" stroke-linecap="butt" stroke-linejoin="miter" stroke-miterlimit="2.61313" transform="matrix(0.0319431,0,0,0.0320001,1,1)"
font-family="MS Shell Dlg 2" font-size="8.25" font-weight="400" font-style="normal"
>
<ellipse cx="756.3" cy="2759.75" rx="65.72" ry="59.15"/>
</g>

<g fill="none" stroke="none" transform="matrix(0.0319431,0,0,0.0320001,1,1)"
font-family="MS Shell Dlg 2" font-size="8.25" font-weight="400" font-style="normal"
>
<ellipse cx="941.38" cy="2755.6" rx="65.72" ry="59.15"/>
</g>

<g fill="none" stroke="#000000" stroke-opacity="1" stroke-width="10.41" stroke-linecap="butt" stroke-linejoin="miter" stroke-miterlimit="2.61313" transform="matrix(0.0319431,0,0,0.0320001,1,1)"
font-family="MS Shell Dlg 2" font-size="8.25" font-weight="400" font-style="normal"
>
<ellipse cx="941.38" cy="2755.6" rx="65.72" ry="59.15"/>
</g>

<g fill="none" stroke="none" transform="matrix(0.0319431,0,0,0.0320001,1,1)"
font-family="MS Shell Dlg 2" font-size="8.25" font-weight="400" font-style="normal"
>
<ellipse cx="1157.68" cy="1445.57" rx="65.72" ry="59.15"/>
</g>

<g fill="none" stroke="#000000" stroke-opacity="1" stroke-width="10.41" stroke-linecap="butt" stroke-linejoin="miter" stroke-miterlimit="2.61313" transform="matrix(0.0319431,0,0,0.0320001,1,1)"
font-family="MS Shell Dlg 2" font-size="8.25" font-weight="400" font-style="normal"
>
<ellipse cx="1157.68" cy="1445.57" rx="65.72" ry="59.15"/>
</g>

<g fill="none" stroke="none" transform="matrix(0.0319431,0,0,0.0320001,1,1)"
font-family="MS Shell Dlg 2" font-size="8.25" font-weight="400" font-style="normal"
>
<ellipse cx="1342.77" cy="1441.42" rx="65.72" ry="59.15"/>
</g>

<g fill="none" stroke="#000000" stroke-opacity="1" stroke-width="10.41" stroke-linecap="butt" stroke-linejoin="miter" stroke-miterlimit="2.61313" transform="matrix(0.0319431,0,0,0.0320001,1,1)"
font-family="MS Shell Dlg 2" font-size="8.25" font-weight="400" font-style="normal"
>
<ellipse cx="1342.77" cy="1441.42" rx="65.72" ry="59.15"/>
</g>

<g fill="none" stroke="none" transform="matrix(0.0319431,0,0,0.0320001,1,1)"
font-family="MS Shell Dlg 2" font-size="8.25" font-weight="400" font-style="normal"
>
<ellipse cx="1534.87" cy="1443.54" rx="65.72" ry="59.15"/>
</g>

<g fill="none" stroke="#000000" stroke-opacity="1" stroke-width="10.41" stroke-linecap="butt" stroke-linejoin="miter" stroke-miterlimit="2.61313" transform="matrix(0.0319431,0,0,0.0320001,1,1)"
font-family="MS Shell Dlg 2" font-size="8.25" font-weight="400" font-style="normal"
>
<ellipse cx="1534.87" cy="1443.54" rx="65.72" ry="59.15"/>
</g>

<g fill="none" stroke="none" transform="matrix(0.0319431,0,0,0.0320001,1,1)"
font-family="MS Shell Dlg 2" font-size="8.25" font-weight="400" font-style="normal"
>
<ellipse cx="1719.95" cy="1439.38" rx="65.72" ry="59.15"/>
</g>

<g fill="none" stroke="#000000" stroke-opacity="1" stroke-width="10.41" stroke-linecap="butt" stroke-linejoin="miter" stroke-miterlimit="2.61313" transform="matrix(0.0319431,0,0,0.0320001,1,1)"
font-family="MS Shell Dlg 2" font-size="8.25" font-weight="400" font-style="normal"
>
<ellipse cx="1719.95" cy="1439.38" rx="65.72" ry="59.15"/>
</g>

<g fill="none" stroke="none" transform="matrix(0.0319431,0,0,0.0320001,1,1)"
font-family="MS Shell Dlg 2" font-size="8.25" font-weight="400" font-style="normal"
>
<ellipse cx="1150.24" cy="1635.42" rx="65.72" ry="59.15"/>
</g>

<g fill="none" stroke="#000000" stroke-opacity="1" stroke-width="10.41" stroke-linecap="butt" stroke-linejoin="miter" stroke-miterlimit="2.61313" transform="matrix(0.0319431,0,0,0.0320001,1,1)"
font-family="MS Shell Dlg 2" font-size="8.25" font-weight="400" font-style="normal"
>
<ellipse cx="1150.24" cy="1635.42" rx="65.72" ry="59.15"/>
</g>

<g fill="none" stroke="none" transform="matrix(0.0319431,0,0,0.0320001,1,1)"
font-family="MS Shell Dlg 2" font-size="8.25" font-weight="400" font-style="normal"
>
<ellipse cx="1335.33" cy="1631.26" rx="65.72" ry="59.15"/>
</g>

<g fill="none" stroke="#000000" stroke-opacity="1" stroke-width="10.41" stroke-linecap="butt" stroke-linejoin="miter" stroke-miterlimit="2.61313" transform="matrix(0.0319431,0,0,0.0320001,1,1)"
font-family="MS Shell Dlg 2" font-size="8.25" font-weight="400" font-style="normal"
>
<ellipse cx="1335.33" cy="1631.26" rx="65.72" ry="59.15"/>
</g>

<g fill="none" stroke="none" transform="matrix(0.0319431,0,0,0.0320001,1,1)"
font-family="MS Shell Dlg 2" font-size="8.25" font-weight="400" font-style="normal"
>
<ellipse cx="1527.43" cy="1633.38" rx="65.72" ry="59.15"/>
</g>

<g fill="none" stroke="#000000" stroke-opacity="1" stroke-width="10.41" stroke-linecap="butt" stroke-linejoin="miter" stroke-miterlimit="2.61313" transform="matrix(0.0319431,0,0,0.0320001,1,1)"
font-family="MS Shell Dlg 2" font-size="8.25" font-weight="400" font-style="normal"
>
<ellipse cx="1527.43" cy="1633.38" rx="65.72" ry="59.15"/>
</g>

<g fill="none" stroke="none" transform="matrix(0.0319431,0,0,0.0320001,1,1)"
font-family="MS Shell Dlg 2" font-size="8.25" font-weight="400" font-style="normal"
>
<ellipse cx="1712.51" cy="1629.23" rx="65.72" ry="59.15"/>
</g>

<g fill="none" stroke="#000000" stroke-opacity="1" stroke-width="10.41" stroke-linecap="butt" stroke-linejoin="miter" stroke-miterlimit="2.61313" transform="matrix(0.0319431,0,0,0.0320001,1,1)"
font-family="MS Shell Dlg 2" font-size="8.25" font-weight="400" font-style="normal"
>
<ellipse cx="1712.51" cy="1629.23" rx="65.72" ry="59.15"/>
</g>

<g fill="none" stroke="none" transform="matrix(0.0319431,0,0,0.0320001,1,1)"
font-family="MS Shell Dlg 2" font-size="8.25" font-weight="400" font-style="normal"
>
<ellipse cx="1155.98" cy="1822.69" rx="65.72" ry="59.15"/>
</g>

<g fill="none" stroke="#000000" stroke-opacity="1" stroke-width="10.41" stroke-linecap="butt" stroke-linejoin="miter" stroke-miterlimit="2.61313" transform="matrix(0.0319431,0,0,0.0320001,1,1)"
font-family="MS Shell Dlg 2" font-size="8.25" font-weight="400" font-style="normal"
>
<ellipse cx="1155.98" cy="1822.69" rx="65.72" ry="59.15"/>
</g>

<g fill="none" stroke="none" transform="matrix(0.0319431,0,0,0.0320001,1,1)"
font-family="MS Shell Dlg 2" font-size="8.25" font-weight="400" font-style="normal"
>
<ellipse cx="1341.06" cy="1818.54" rx="65.72" ry="59.15"/>
</g>

<g fill="none" stroke="#000000" stroke-opacity="1" stroke-width="10.41" stroke-linecap="butt" stroke-linejoin="miter" stroke-miterlimit="2.61313" transform="matrix(0.0319431,0,0,0.0320001,1,1)"
font-family="MS Shell Dlg 2" font-size="8.25" font-weight="400" font-style="normal"
>
<ellipse cx="1341.06" cy="1818.54" rx="65.72" ry="59.15"/>
</g>

<g fill="none" stroke="none" transform="matrix(0.0319431,0,0,0.0320001,1,1)"
font-family="MS Shell Dlg 2" font-size="8.25" font-weight="400" font-style="normal"
>
<ellipse cx="1533.16" cy="1820.65" rx="65.72" ry="59.15"/>
</g>

<g fill="none" stroke="#000000" stroke-opacity="1" stroke-width="10.41" stroke-linecap="butt" stroke-linejoin="miter" stroke-miterlimit="2.61313" transform="matrix(0.0319431,0,0,0.0320001,1,1)"
font-family="MS Shell Dlg 2" font-size="8.25" font-weight="400" font-style="normal"
>
<ellipse cx="1533.16" cy="1820.65" rx="65.72" ry="59.15"/>
</g>

<g fill="none" stroke="none" transform="matrix(0.0319431,0,0,0.0320001,1,1)"
font-family="MS Shell Dlg 2" font-size="8.25" font-weight="400" font-style="normal"
>
<ellipse cx="1718.25" cy="1816.5" rx="65.72" ry="59.15"/>
</g>

<g fill="none" stroke="#000000" stroke-opacity="1" stroke-width="10.41" stroke-linecap="butt" stroke-linejoin="miter" stroke-miterlimit="2.61313" transform="matrix(0.0319431,0,0,0.0320001,1,1)"
font-family="MS Shell Dlg 2" font-size="8.25" font-weight="400" font-style="normal"
>
<ellipse cx="1718.25" cy="1816.5" rx="65.72" ry="59.15"/>
</g>

<g fill="none" stroke="none" transform="matrix(0.0319431,0,0,0.0320001,1,1)"
font-family="MS Shell Dlg 2" font-size="8.25" font-weight="400" font-style="normal"
>
<ellipse cx="1148.54" cy="2012.54" rx="65.72" ry="59.15"/>
</g>

<g fill="none" stroke="#000000" stroke-opacity="1" stroke-width="10.41" stroke-linecap="butt" stroke-linejoin="miter" stroke-miterlimit="2.61313" transform="matrix(0.0319431,0,0,0.0320001,1,1)"
font-family="MS Shell Dlg 2" font-size="8.25" font-weight="400" font-style="normal"
>
<ellipse cx="1148.54" cy="2012.54" rx="65.72" ry="59.15"/>
</g>

<g fill="none" stroke="none" transform="matrix(0.0319431,0,0,0.0320001,1,1)"
font-family="MS Shell Dlg 2" font-size="8.25" font-weight="400" font-style="normal"
>
<ellipse cx="1333.62" cy="2008.38" rx="65.72" ry="59.15"/>
</g>

<g fill="none" stroke="#000000" stroke-opacity="1" stroke-width="10.41" stroke-linecap="butt" stroke-linejoin="miter" stroke-miterlimit="2.61313" transform="matrix(0.0319431,0,0,0.0320001,1,1)"
font-family="MS Shell Dlg 2" font-size="8.25" font-weight="400" font-style="normal"
>
<ellipse cx="1333.62" cy="2008.38" rx="65.72" ry="59.15"/>
</g>

<g fill="none" stroke="none" transform="matrix(0.0319431,0,0,0.0320001,1,1)"
font-family="MS Shell Dlg 2" font-size="8.25" font-weight="400" font-style="normal"
>
<ellipse cx="1525.72" cy="2010.5" rx="65.72" ry="59.15"/>
</g>

<g fill="none" stroke="#000000" stroke-opacity="1" stroke-width="10.41" stroke-linecap="butt" stroke-linejoin="miter" stroke-miterlimit="2.61313" transform="matrix(0.0319431,0,0,0.0320001,1,1)"
font-family="MS Shell Dlg 2" font-size="8.25" font-weight="400" font-style="normal"
>
<ellipse cx="1525.72" cy="2010.5" rx="65.72" ry="59.15"/>
</g>

<g fill="none" stroke="none" transform="matrix(0.0319431,0,0,0.0320001,1,1)"
font-family="MS Shell Dlg 2" font-size="8.25" font-weight="400" font-style="normal"
>
<ellipse cx="1710.81" cy="2006.35" rx="65.72" ry="59.15"/>
</g>

<g fill="none" stroke="#000000" stroke-opacity="1" stroke-width="10.41" stroke-linecap="butt" stroke-linejoin="miter" stroke-miterlimit="2.61313" transform="matrix(0.0319431,0,0,0.0320001,1,1)"
font-family="MS Shell Dlg 2" font-size="8.25" font-weight="400" font-style="normal"
>
<ellipse cx="1710.81" cy="2006.35" rx="65.72" ry="59.15"/>
</g>

<g fill="none" stroke="none" transform="matrix(0.0319431,0,0,0.0320001,1,1)"
font-family="MS Shell Dlg 2" font-size="8.25" font-weight="400" font-style="normal"
>
<ellipse cx="1153.71" cy="2199.46" rx="65.72" ry="59.15"/>
</g>

<g fill="none" stroke="#000000" stroke-opacity="1" stroke-width="10.41" stroke-linecap="butt" stroke-linejoin="miter" stroke-miterlimit="2.61313" transform="matrix(0.0319431,0,0,0.0320001,1,1)"
font-family="MS Shell Dlg 2" font-size="8.25" font-weight="400" font-style="normal"
>
<ellipse cx="1153.71" cy="2199.46" rx="65.72" ry="59.15"/>
</g>

<g fill="none" stroke="none" transform="matrix(0.0319431,0,0,0.0320001,1,1)"
font-family="MS Shell Dlg 2" font-size="8.25" font-weight="400" font-style="normal"
>
<ellipse cx="1338.8" cy="2195.3" rx="65.72" ry="59.15"/>
</g>

<g fill="none" stroke="#000000" stroke-opacity="1" stroke-width="10.41" stroke-linecap="butt" stroke-linejoin="miter" stroke-miterlimit="2.61313" transform="matrix(0.0319431,0,0,0.0320001,1,1)"
font-family="MS Shell Dlg 2" font-size="8.25" font-weight="400" font-style="normal"
>
<ellipse cx="1338.8" cy="2195.3" rx="65.72" ry="59.15"/>
</g>

<g fill="none" stroke="none" transform="matrix(0.0319431,0,0,0.0320001,1,1)"
font-family="MS Shell Dlg 2" font-size="8.25" font-weight="400" font-style="normal"
>
<ellipse cx="1530.9" cy="2197.42" rx="65.72" ry="59.15"/>
</g>

<g fill="none" stroke="#000000" stroke-opacity="1" stroke-width="10.41" stroke-linecap="butt" stroke-linejoin="miter" stroke-miterlimit="2.61313" transform="matrix(0.0319431,0,0,0.0320001,1,1)"
font-family="MS Shell Dlg 2" font-size="8.25" font-weight="400" font-style="normal"
>
<ellipse cx="1530.9" cy="2197.42" rx="65.72" ry="59.15"/>
</g>

<g fill="none" stroke="none" transform="matrix(0.0319431,0,0,0.0320001,1,1)"
font-family="MS Shell Dlg 2" font-size="8.25" font-weight="400" font-style="normal"
>
<ellipse cx="1715.98" cy="2193.27" rx="65.72" ry="59.15"/>
</g>

<g fill="none" stroke="#000000" stroke-opacity="1" stroke-width="10.41" stroke-linecap="butt" stroke-linejoin="miter" stroke-miterlimit="2.61313" transform="matrix(0.0319431,0,0,0.0320001,1,1)"
font-family="MS Shell Dlg 2" font-size="8.25" font-weight="400" font-style="normal"
>
<ellipse cx="1715.98" cy="2193.27" rx="65.72" ry="59.15"/>
</g>

<g fill="none" stroke="none" transform="matrix(0.0319431,0,0,0.0320001,1,1)"
font-family="MS Shell Dlg 2" font-size="8.25" font-weight="400" font-style="normal"
>
<ellipse cx="1146.27" cy="2389.3" rx="65.72" ry="59.15"/>
</g>

<g fill="none" stroke="#000000" stroke-opacity="1" stroke-width="10.41" stroke-linecap="butt" stroke-linejoin="miter" stroke-miterlimit="2.61313" transform="matrix(0.0319431,0,0,0.0320001,1,1)"
font-family="MS Shell Dlg 2" font-size="8.25" font-weight="400" font-style="normal"
>
<ellipse cx="1146.27" cy="2389.3" rx="65.72" ry="59.15"/>
</g>

<g fill="none" stroke="none" transform="matrix(0.0319431,0,0,0.0320001,1,1)"
font-family="MS Shell Dlg 2" font-size="8.25" font-weight="400" font-style="normal"
>
<ellipse cx="1331.36" cy="2385.15" rx="65.72" ry="59.15"/>
</g>

<g fill="none" stroke="#000000" stroke-opacity="1" stroke-width="10.41" stroke-linecap="butt" stroke-linejoin="miter" stroke-miterlimit="2.61313" transform="matrix(0.0319431,0,0,0.0320001,1,1)"
font-family="MS Shell Dlg 2" font-size="8.25" font-weight="400" font-style="normal"
>
<ellipse cx="1331.36" cy="2385.15" rx="65.72" ry="59.15"/>
</g>

<g fill="none" stroke="none" transform="matrix(0.0319431,0,0,0.0320001,1,1)"
font-family="MS Shell Dlg 2" font-size="8.25" font-weight="400" font-style="normal"
>
<ellipse cx="1523.46" cy="2387.27" rx="65.72" ry="59.15"/>
</g>

<g fill="none" stroke="#000000" stroke-opacity="1" stroke-width="10.41" stroke-linecap="butt" stroke-linejoin="miter" stroke-miterlimit="2.61313" transform="matrix(0.0319431,0,0,0.0320001,1,1)"
font-family="MS Shell Dlg 2" font-size="8.25" font-weight="400" font-style="normal"
>
<ellipse cx="1523.46" cy="2387.27" rx="65.72" ry="59.15"/>
</g>

<g fill="none" stroke="none" transform="matrix(0.0319431,0,0,0.0320001,1,1)"
font-family="MS Shell Dlg 2" font-size="8.25" font-weight="400" font-style="normal"
>
<ellipse cx="1708.54" cy="2383.11" rx="65.72" ry="59.15"/>
</g>

<g fill="none" stroke="#000000" stroke-opacity="1" stroke-width="10.41" stroke-linecap="butt" stroke-linejoin="miter" stroke-miterlimit="2.61313" transform="matrix(0.0319431,0,0,0.0320001,1,1)"
font-family="MS Shell Dlg 2" font-size="8.25" font-weight="400" font-style="normal"
>
<ellipse cx="1708.54" cy="2383.11" rx="65.72" ry="59.15"/>
</g>

<g fill="none" stroke="none" transform="matrix(0.0319431,0,0,0.0320001,1,1)"
font-family="MS Shell Dlg 2" font-size="8.25" font-weight="400" font-style="normal"
>
<ellipse cx="1152.01" cy="2576.57" rx="65.72" ry="59.15"/>
</g>

<g fill="none" stroke="#000000" stroke-opacity="1" stroke-width="10.41" stroke-linecap="butt" stroke-linejoin="miter" stroke-miterlimit="2.61313" transform="matrix(0.0319431,0,0,0.0320001,1,1)"
font-family="MS Shell Dlg 2" font-size="8.25" font-weight="400" font-style="normal"
>
<ellipse cx="1152.01" cy="2576.57" rx="65.72" ry="59.15"/>
</g>

<g fill="none" stroke="none" transform="matrix(0.0319431,0,0,0.0320001,1,1)"
font-family="MS Shell Dlg 2" font-size="8.25" font-weight="400" font-style="normal"
>
<ellipse cx="1337.09" cy="2572.42" rx="65.72" ry="59.15"/>
</g>

<g fill="none" stroke="#000000" stroke-opacity="1" stroke-width="10.41" stroke-linecap="butt" stroke-linejoin="miter" stroke-miterlimit="2.61313" transform="matrix(0.0319431,0,0,0.0320001,1,1)"
font-family="MS Shell Dlg 2" font-size="8.25" font-weight="400" font-style="normal"
>
<ellipse cx="1337.09" cy="2572.42" rx="65.72" ry="59.15"/>
</g>

<g fill="none" stroke="none" transform="matrix(0.0319431,0,0,0.0320001,1,1)"
font-family="MS Shell Dlg 2" font-size="8.25" font-weight="400" font-style="normal"
>
<ellipse cx="1529.19" cy="2574.54" rx="65.72" ry="59.15"/>
</g>

<g fill="none" stroke="#000000" stroke-opacity="1" stroke-width="10.41" stroke-linecap="butt" stroke-linejoin="miter" stroke-miterlimit="2.61313" transform="matrix(0.0319431,0,0,0.0320001,1,1)"
font-family="MS Shell Dlg 2" font-size="8.25" font-weight="400" font-style="normal"
>
<ellipse cx="1529.19" cy="2574.54" rx="65.72" ry="59.15"/>
</g>

<g fill="none" stroke="none" transform="matrix(0.0319431,0,0,0.0320001,1,1)"
font-family="MS Shell Dlg 2" font-size="8.25" font-weight="400" font-style="normal"
>
<ellipse cx="1714.28" cy="2570.39" rx="65.72" ry="59.15"/>
</g>

<g fill="none" stroke="#000000" stroke-opacity="1" stroke-width="10.41" stroke-linecap="butt" stroke-linejoin="miter" stroke-miterlimit="2.61313" transform="matrix(0.0319431,0,0,0.0320001,1,1)"
font-family="MS Shell Dlg 2" font-size="8.25" font-weight="400" font-style="normal"
>
<ellipse cx="1714.28" cy="2570.39" rx="65.72" ry="59.15"/>
</g>

<g fill="none" stroke="none" transform="matrix(0.0319431,0,0,0.0320001,1,1)"
font-family="MS Shell Dlg 2" font-size="8.25" font-weight="400" font-style="normal"
>
<ellipse cx="1144.57" cy="2766.42" rx="65.72" ry="59.15"/>
</g>

<g fill="none" stroke="#000000" stroke-opacity="1" stroke-width="10.41" stroke-linecap="butt" stroke-linejoin="miter" stroke-miterlimit="2.61313" transform="matrix(0.0319431,0,0,0.0320001,1,1)"
font-family="MS Shell Dlg 2" font-size="8.25" font-weight="400" font-style="normal"
>
<ellipse cx="1144.57" cy="2766.42" rx="65.72" ry="59.15"/>
</g>

<g fill="none" stroke="none" transform="matrix(0.0319431,0,0,0.0320001,1,1)"
font-family="MS Shell Dlg 2" font-size="8.25" font-weight="400" font-style="normal"
>
<ellipse cx="1329.65" cy="2762.27" rx="65.72" ry="59.15"/>
</g>

<g fill="none" stroke="#000000" stroke-opacity="1" stroke-width="10.41" stroke-linecap="butt" stroke-linejoin="miter" stroke-miterlimit="2.61313" transform="matrix(0.0319431,0,0,0.0320001,1,1)"
font-family="MS Shell Dlg 2" font-size="8.25" font-weight="400" font-style="normal"
>
<ellipse cx="1329.65" cy="2762.27" rx="65.72" ry="59.15"/>
</g>

<g fill="none" stroke="none" transform="matrix(0.0319431,0,0,0.0320001,1,1)"
font-family="MS Shell Dlg 2" font-size="8.25" font-weight="400" font-style="normal"
>
<ellipse cx="1521.75" cy="2764.39" rx="65.72" ry="59.15"/>
</g>

<g fill="none" stroke="#000000" stroke-opacity="1" stroke-width="10.41" stroke-linecap="butt" stroke-linejoin="miter" stroke-miterlimit="2.61313" transform="matrix(0.0319431,0,0,0.0320001,1,1)"
font-family="MS Shell Dlg 2" font-size="8.25" font-weight="400" font-style="normal"
>
<ellipse cx="1521.75" cy="2764.39" rx="65.72" ry="59.15"/>
</g>

<g fill="none" stroke="none" transform="matrix(0.0319431,0,0,0.0320001,1,1)"
font-family="MS Shell Dlg 2" font-size="8.25" font-weight="400" font-style="normal"
>
<ellipse cx="1706.84" cy="2760.23" rx="65.72" ry="59.15"/>
</g>

<g fill="none" stroke="#000000" stroke-opacity="1" stroke-width="10.41" stroke-linecap="butt" stroke-linejoin="miter" stroke-miterlimit="2.61313" transform="matrix(0.0319431,0,0,0.0320001,1,1)"
font-family="MS Shell Dlg 2" font-size="8.25" font-weight="400" font-style="normal"
>
<ellipse cx="1706.84" cy="2760.23" rx="65.72" ry="59.15"/>
</g>

<g fill="#000000" fill-opacity="1" stroke="none" transform="matrix(0.0319431,0,0,0.0320001,1,1)"
font-family="MS Shell Dlg 2" font-size="8.25" font-weight="400" font-style="normal"
>
<rect x="1559.87" y="2913.38" width="177.19" height="118.72"/>
</g>

<g fill="none" stroke="#000000" stroke-opacity="1" stroke-width="10.41" stroke-linecap="butt" stroke-linejoin="miter" stroke-miterlimit="2.61313" transform="matrix(0.0319431,0,0,0.0320001,1,1)"
font-family="MS Shell Dlg 2" font-size="8.25" font-weight="400" font-style="normal"
>
<rect x="1559.87" y="2913.38" width="177.19" height="118.72"/>
</g>

<g fill="url(#gradient2)" stroke="none" transform="matrix(0.0319431,0,0,0.0320001,1,1)"
font-family="MS Shell Dlg 2" font-size="8.25" font-weight="400" font-style="normal"
>
<path vector-effect="none" fill-rule="evenodd" d="M504.15,1626.63 C504.15,1593.96 533.58,1567.48 569.87,1567.48 C606.17,1567.48 635.59,1593.96 635.59,1626.63 C635.59,1659.3 606.16,1685.78 569.87,1685.78 C533.57,1685.78 504.15,1659.3 504.15,1626.63 M767.71,1875.17 C731.41,1875.17 701.99,1848.69 701.99,1816.02 C701.99,1783.35 731.42,1756.87 767.71,1756.87 C804.01,1756.87 833.43,1783.35 833.43,1816.02 C833.43,1848.69 804,1875.17 767.71,1875.17 M760.27,1946.72 C796.57,1946.72 825.99,1973.2 825.99,2005.87 C825.99,2038.54 796.56,2065.02 760.27,2065.02 C723.97,2065.02 694.55,2038.54 694.55,2005.87 C694.55,1973.2 723.98,1946.72 760.27,1946.72 M884.81,2188.64 C884.81,2155.97 914.24,2129.49 950.53,2129.49 C986.83,2129.49 1016.25,2155.97 1016.25,2188.64 C1016.25,2221.31 986.82,2247.79 950.53,2247.79 C914.23,2247.79 884.81,2221.31 884.81,2188.64 M1080.55,2389.31 C1080.55,2356.64 1109.98,2330.16 1146.27,2330.16 C1182.57,2330.16 1211.99,2356.64 1211.99,2389.31 C1211.99,2421.98 1182.56,2448.46 1146.27,2448.46 C1109.97,2448.46 1080.55,2421.98 1080.55,2389.31 M1271.37,2572.43 C1271.37,2539.76 1300.8,2513.28 1337.09,2513.28 C1373.39,2513.28 1402.81,2539.76 1402.81,2572.43 C1402.81,2605.1 1373.38,2631.58 1337.09,2631.58 C1300.79,2631.58 1271.37,2605.1 1271.37,2572.43 M470.48,2907.76 L1853.72,2907.76 L1853.72,1298.92 L231.61,1298.92 L231.61,2907.76 L293.29,2907.76 L470.48,2907.76 M879.63,2001.72 C879.63,1969.05 909.06,1942.57 945.35,1942.57 C981.65,1942.57 1011.07,1969.05 1011.07,2001.72 C1011.07,2034.39 981.64,2060.87 945.35,2060.87 C909.05,2060.87 879.63,2034.39 879.63,2001.72 M1153.71,2258.61 C1117.41,2258.61 1087.99,2232.13 1087.99,2199.46 C1087.99,2166.79 1117.42,2140.31 1153.71,2140.31 C1190.01,2140.31 1219.43,2166.79 1219.43,2199.46 C1219.43,2232.13 1190,2258.61 1153.71,2258.61 M1331.36,2444.3 C1295.06,2444.3 1265.64,2417.82 1265.64,2385.15 C1265.64,2352.48 1295.07,2326 1331.36,2326 C1367.66,2326 1397.08,2352.48 1397.08,2385.15 C1397.08,2417.82 1367.65,2444.3 1331.36,2444.3 M1521.75,2705.24 C1558.05,2705.24 1587.47,2731.72 1587.47,2764.39 C1587.47,2797.06 1558.04,2823.54 1521.75,2823.54 C1485.45,2823.54 1456.03,2797.06 1456.03,2764.39 C1456.03,2731.72 1485.46,2705.24 1521.75,2705.24 M1329.65,2703.12 C1365.95,2703.12 1395.37,2729.6 1395.37,2762.27 C1395.37,2794.94 1365.94,2821.42 1329.65,2821.42 C1293.35,2821.42 1263.93,2794.94 1263.93,2762.27 C1263.93,2729.6 1293.36,2703.12 1329.65,2703.12 M575.6,1754.75 C611.9,1754.75 641.32,1781.23 641.32,1813.9 C641.32,1846.57 611.89,1873.05 575.6,1873.05 C539.3,1873.05 509.88,1846.57 509.88,1813.9 C509.88,1781.23 539.31,1754.75 575.6,1754.75 M943.08,2319.33 C979.38,2319.33 1008.8,2345.81 1008.8,2378.48 C1008.8,2411.15 979.37,2437.63 943.08,2437.63 C906.78,2437.63 877.36,2411.15 877.36,2378.48 C877.36,2345.81 906.79,2319.33 943.08,2319.33 M1086.28,2576.57 C1086.28,2543.9 1115.71,2517.42 1152,2517.42 C1188.3,2517.42 1217.72,2543.9 1217.72,2576.57 C1217.72,2609.24 1188.29,2635.72 1152,2635.72 C1115.7,2635.72 1086.28,2609.24 1086.28,2576.57 M1144.56,2707.27 C1180.86,2707.27 1210.28,2733.75 1210.28,2766.42 C1210.28,2799.09 1180.85,2825.57 1144.56,2825.57 C1108.26,2825.57 1078.84,2799.09 1078.84,2766.42 C1078.84,2733.75 1108.27,2707.27 1144.56,2707.27 M1529.19,2515.39 C1565.49,2515.39 1594.91,2541.87 1594.91,2574.54 C1594.91,2607.21 1565.48,2633.69 1529.19,2633.69 C1492.89,2633.69 1463.47,2607.21 1463.47,2574.54 C1463.47,2541.87 1492.9,2515.39 1529.19,2515.39 M1082.81,2012.54 C1082.81,1979.87 1112.24,1953.39 1148.53,1953.39 C1184.83,1953.39 1214.25,1979.87 1214.25,2012.54 C1214.25,2045.21 1184.82,2071.69 1148.53,2071.69 C1112.23,2071.69 1082.81,2045.21 1082.81,2012.54 M1273.07,2195.31 C1273.07,2162.64 1302.5,2136.16 1338.79,2136.16 C1375.09,2136.16 1404.51,2162.64 1404.51,2195.31 C1404.51,2227.98 1375.08,2254.46 1338.79,2254.46 C1302.49,2254.46 1273.07,2227.98 1273.07,2195.31 M1523.45,2328.12 C1559.75,2328.12 1589.17,2354.6 1589.17,2387.27 C1589.17,2419.94 1559.74,2446.42 1523.45,2446.42 C1487.15,2446.42 1457.73,2419.94 1457.73,2387.27 C1457.73,2354.6 1487.16,2328.12 1523.45,2328.12 M887.06,1811.87 C887.06,1779.2 916.49,1752.72 952.78,1752.72 C989.08,1752.72 1018.5,1779.2 1018.5,1811.87 C1018.5,1844.54 989.07,1871.02 952.78,1871.02 C916.48,1871.02 887.06,1844.54 887.06,1811.87 M1267.89,2008.39 C1267.89,1975.72 1297.32,1949.24 1333.61,1949.24 C1369.91,1949.24 1399.33,1975.72 1399.33,2008.39 C1399.33,2041.06 1369.9,2067.54 1333.61,2067.54 C1297.31,2067.54 1267.89,2041.06 1267.89,2008.39 M1530.89,2138.28 C1567.19,2138.28 1596.61,2164.76 1596.61,2197.43 C1596.61,2230.1 1567.18,2256.58 1530.89,2256.58 C1494.59,2256.58 1465.17,2230.1 1465.17,2197.43 C1465.17,2164.76 1494.6,2138.28 1530.89,2138.28 M696.24,1628.76 C696.24,1596.09 725.67,1569.61 761.96,1569.61 C798.26,1569.61 827.68,1596.09 827.68,1628.76 C827.68,1661.43 798.25,1687.91 761.96,1687.91 C725.66,1687.91 696.24,1661.43 696.24,1628.76 M1090.25,1822.7 C1090.25,1790.03 1119.68,1763.55 1155.97,1763.55 C1192.27,1763.55 1221.69,1790.03 1221.69,1822.7 C1221.69,1855.37 1192.26,1881.85 1155.97,1881.85 C1119.67,1881.85 1090.25,1855.37 1090.25,1822.7 M1341.06,1877.7 C1304.76,1877.7 1275.34,1851.22 1275.34,1818.55 C1275.34,1785.88 1304.77,1759.4 1341.06,1759.4 C1377.36,1759.4 1406.78,1785.88 1406.78,1818.55 C1406.78,1851.22 1377.35,1877.7 1341.06,1877.7 M1525.72,1951.37 C1562.02,1951.37 1591.44,1977.85 1591.44,2010.52 C1591.44,2043.19 1562.01,2069.67 1525.72,2069.67 C1489.42,2069.67 1460,2043.19 1460,2010.52 C1460,1977.85 1489.43,1951.37 1525.72,1951.37 M947.05,1683.76 C910.75,1683.76 881.33,1657.28 881.33,1624.61 C881.33,1591.94 910.76,1565.46 947.05,1565.46 C983.35,1565.46 1012.77,1591.94 1012.77,1624.61 C1012.77,1657.28 983.34,1683.76 947.05,1683.76 M1150.24,1694.58 C1113.94,1694.58 1084.52,1668.1 1084.52,1635.43 C1084.52,1602.76 1113.95,1576.28 1150.24,1576.28 C1186.54,1576.28 1215.96,1602.76 1215.96,1635.43 C1215.96,1668.1 1186.53,1694.58 1150.24,1694.58 M1467.44,1820.67 C1467.44,1788 1496.87,1761.52 1533.16,1761.52 C1569.46,1761.52 1598.88,1788 1598.88,1820.67 C1598.88,1853.34 1569.45,1879.82 1533.16,1879.82 C1496.86,1879.82 1467.44,1853.34 1467.44,1820.67 M1269.61,1631.28 C1269.61,1598.61 1299.04,1572.13 1335.33,1572.13 C1371.63,1572.13 1401.05,1598.61 1401.05,1631.28 C1401.05,1663.95 1371.62,1690.43 1335.33,1690.43 C1299.03,1690.43 1269.61,1663.95 1269.61,1631.28 M1461.71,1633.4 C1461.71,1600.73 1491.14,1574.25 1527.43,1574.25 C1563.73,1574.25 1593.15,1600.73 1593.15,1633.4 C1593.15,1666.07 1563.72,1692.55 1527.43,1692.55 C1491.13,1692.55 1461.71,1666.07 1461.71,1633.4 M699.73,2192.81 C699.73,2160.14 729.16,2133.66 765.45,2133.66 C801.75,2133.66 831.17,2160.14 831.17,2192.81 C831.17,2225.48 801.74,2251.96 765.45,2251.96 C729.15,2251.96 699.73,2225.48 699.73,2192.81 M883.11,2565.77 C883.11,2533.1 912.54,2506.62 948.83,2506.62 C985.13,2506.62 1014.55,2533.1 1014.55,2565.77 C1014.55,2598.44 985.12,2624.92 948.83,2624.92 C912.53,2624.92 883.11,2598.44 883.11,2565.77 M941.39,2696.47 C977.69,2696.47 1007.11,2722.95 1007.11,2755.62 C1007.11,2788.29 977.68,2814.77 941.39,2814.77 C905.09,2814.77 875.67,2788.29 875.67,2755.62 C875.67,2722.95 905.1,2696.47 941.39,2696.47 M568.17,1944.62 C604.47,1944.62 633.89,1971.1 633.89,2003.77 C633.89,2036.44 604.46,2062.92 568.17,2062.92 C531.87,2062.92 502.45,2036.44 502.45,2003.77 C502.45,1971.1 531.88,1944.62 568.17,1944.62 M692.28,2382.66 C692.28,2349.99 721.71,2323.51 758,2323.51 C794.3,2323.51 823.72,2349.99 823.72,2382.66 C823.72,2415.33 794.29,2441.81 758,2441.81 C721.7,2441.81 692.28,2415.33 692.28,2382.66 M698.02,2569.93 C698.02,2537.26 727.45,2510.78 763.74,2510.78 C800.04,2510.78 829.46,2537.26 829.46,2569.93 C829.46,2602.6 800.03,2629.08 763.74,2629.08 C727.44,2629.08 698.02,2602.6 698.02,2569.93 M756.3,2700.63 C792.6,2700.63 822.02,2727.11 822.02,2759.78 C822.02,2792.45 792.59,2818.93 756.3,2818.93 C720,2818.93 690.58,2792.45 690.58,2759.78 C690.58,2727.11 720.01,2700.63 756.3,2700.63 M507.63,2190.7 C507.63,2158.03 537.06,2131.55 573.35,2131.55 C609.65,2131.55 639.07,2158.03 639.07,2190.7 C639.07,2223.37 609.64,2249.85 573.35,2249.85 C537.05,2249.85 507.63,2223.37 507.63,2190.7 M500.19,2380.55 C500.19,2347.88 529.62,2321.4 565.91,2321.4 C602.21,2321.4 631.63,2347.88 631.63,2380.55 C631.63,2413.22 602.2,2439.7 565.91,2439.7 C529.61,2439.7 500.19,2413.22 500.19,2380.55 M571.65,2508.67 C607.95,2508.67 637.37,2535.15 637.37,2567.82 C637.37,2600.49 607.94,2626.97 571.65,2626.97 C535.35,2626.97 505.93,2600.49 505.93,2567.82 C505.93,2535.15 535.36,2508.67 571.65,2508.67 M564.21,2698.52 C600.51,2698.52 629.93,2725 629.93,2757.67 C629.93,2790.34 600.5,2816.82 564.21,2816.82 C527.91,2816.82 498.49,2790.34 498.49,2757.67 C498.49,2725 527.92,2698.52 564.21,2698.52 M1706.85,2701.12 C1743.15,2701.12 1772.57,2727.6 1772.57,2760.27 C1772.57,2792.94 1743.14,2819.42 1706.85,2819.42 C1670.55,2819.42 1641.13,2792.94 1641.13,2760.27 C1641.13,2727.6 1670.56,2701.12 1706.85,2701.12 M1714.29,2511.27 C1750.59,2511.27 1780.01,2537.75 1780.01,2570.42 C1780.01,2603.09 1750.58,2629.57 1714.29,2629.57 C1677.99,2629.57 1648.57,2603.09 1648.57,2570.42 C1648.57,2537.75 1678,2511.27 1714.29,2511.27 M1708.55,2324 C1744.85,2324 1774.27,2350.48 1774.27,2383.15 C1774.27,2415.82 1744.84,2442.3 1708.55,2442.3 C1672.25,2442.3 1642.83,2415.82 1642.83,2383.15 C1642.83,2350.48 1672.26,2324 1708.55,2324 M1715.99,2134.15 C1752.29,2134.15 1781.71,2160.63 1781.71,2193.3 C1781.71,2225.97 1752.28,2252.45 1715.99,2252.45 C1679.69,2252.45 1650.27,2225.97 1650.27,2193.3 C1650.27,2160.63 1679.7,2134.15 1715.99,2134.15 M1710.81,1947.23 C1747.11,1947.23 1776.53,1973.71 1776.53,2006.38 C1776.53,2039.05 1747.1,2065.53 1710.81,2065.53 C1674.51,2065.53 1645.09,2039.05 1645.09,2006.38 C1645.09,1973.71 1674.52,1947.23 1710.81,1947.23 M1652.53,1816.53 C1652.53,1783.86 1681.96,1757.38 1718.25,1757.38 C1754.55,1757.38 1783.97,1783.86 1783.97,1816.53 C1783.97,1849.2 1754.54,1875.68 1718.25,1875.68 C1681.95,1875.68 1652.53,1849.2 1652.53,1816.53 M1646.79,1629.26 C1646.79,1596.59 1676.22,1570.11 1712.51,1570.11 C1748.81,1570.11 1778.23,1596.59 1778.23,1629.26 C1778.23,1661.93 1748.8,1688.41 1712.51,1688.41 C1676.21,1688.41 1646.79,1661.93 1646.79,1629.26 M954.49,1493.93 C918.19,1493.93 888.77,1467.45 888.77,1434.78 C888.77,1402.11 918.2,1375.63 954.49,1375.63 C990.79,1375.63 1020.21,1402.11 1020.21,1434.78 C1020.21,1467.45 990.78,1493.93 954.49,1493.93 M1157.68,1504.75 C1121.38,1504.75 1091.96,1478.27 1091.96,1445.6 C1091.96,1412.93 1121.39,1386.45 1157.68,1386.45 C1193.98,1386.45 1223.4,1412.93 1223.4,1445.6 C1223.4,1478.27 1193.97,1504.75 1157.68,1504.75 M1342.77,1500.6 C1306.47,1500.6 1277.05,1474.12 1277.05,1441.45 C1277.05,1408.78 1306.48,1382.3 1342.77,1382.3 C1379.07,1382.3 1408.49,1408.78 1408.49,1441.45 C1408.49,1474.12 1379.06,1500.6 1342.77,1500.6 M1469.15,1443.57 C1469.15,1410.9 1498.58,1384.42 1534.87,1384.42 C1571.17,1384.42 1600.59,1410.9 1600.59,1443.57 C1600.59,1476.24 1571.16,1502.72 1534.87,1502.72 C1498.57,1502.72 1469.15,1476.24 1469.15,1443.57 M1654.24,1439.42 C1654.24,1406.75 1683.67,1380.27 1719.96,1380.27 C1756.26,1380.27 1785.68,1406.75 1785.68,1439.42 C1785.68,1472.09 1756.25,1498.57 1719.96,1498.57 C1683.66,1498.57 1654.24,1472.09 1654.24,1439.42 M577.32,1495.97 C541.02,1495.97 511.6,1469.49 511.6,1436.82 C511.6,1404.15 541.03,1377.67 577.32,1377.67 C613.62,1377.67 643.04,1404.15 643.04,1436.82 C643.04,1469.49 613.61,1495.97 577.32,1495.97 M703.7,1438.94 C703.7,1406.27 733.13,1379.79 769.42,1379.79 C805.72,1379.79 835.14,1406.27 835.14,1438.94 C835.14,1471.61 805.71,1498.09 769.42,1498.09 C733.12,1498.09 703.7,1471.61 703.7,1438.94 M388.27,2135.71 C424.57,2135.71 453.99,2162.19 453.99,2194.86 C453.99,2227.53 424.56,2254.01 388.27,2254.01 C351.97,2254.01 322.55,2227.53 322.55,2194.86 C322.55,2162.19 351.98,2135.71 388.27,2135.71 M380.83,2325.56 C417.13,2325.56 446.55,2352.04 446.55,2384.71 C446.55,2417.38 417.12,2443.86 380.83,2443.86 C344.53,2443.86 315.11,2417.38 315.11,2384.71 C315.11,2352.04 344.54,2325.56 380.83,2325.56 M386.57,2512.83 C422.87,2512.83 452.29,2539.31 452.29,2571.98 C452.29,2604.65 422.86,2631.13 386.57,2631.13 C350.27,2631.13 320.85,2604.65 320.85,2571.98 C320.85,2539.31 350.28,2512.83 386.57,2512.83 M379.13,2702.68 C415.43,2702.68 444.85,2729.16 444.85,2761.83 C444.85,2794.5 415.42,2820.98 379.13,2820.98 C342.83,2820.98 313.41,2794.5 313.41,2761.83 C313.41,2729.16 342.84,2702.68 379.13,2702.68 M390.54,1758.95 C426.84,1758.95 456.26,1785.43 456.26,1818.1 C456.26,1850.77 426.83,1877.25 390.54,1877.25 C354.24,1877.25 324.82,1850.77 324.82,1818.1 C324.82,1785.43 354.25,1758.95 390.54,1758.95 M383.1,1948.8 C419.4,1948.8 448.82,1975.28 448.82,2007.95 C448.82,2040.62 419.39,2067.1 383.1,2067.1 C346.8,2067.1 317.38,2040.62 317.38,2007.95 C317.38,1975.28 346.81,1948.8 383.1,1948.8 M384.8,1571.68 C421.1,1571.68 450.52,1598.16 450.52,1630.83 C450.52,1663.5 421.09,1689.98 384.8,1689.98 C348.5,1689.98 319.08,1663.5 319.08,1630.83 C319.08,1598.16 348.51,1571.68 384.8,1571.68 M457.96,1440.98 C457.96,1473.65 428.53,1500.13 392.24,1500.13 C355.94,1500.13 326.52,1473.65 326.52,1440.98 C326.52,1408.31 355.95,1381.83 392.24,1381.83 C428.54,1381.83 457.96,1408.31 457.96,1440.98 "/>
</g>

<g fill="none" stroke="#373435" stroke-opacity="1" stroke-width="6.94" stroke-linecap="butt" stroke-linejoin="miter" stroke-miterlimit="2.61313" transform="matrix(0.0319431,0,0,0.0320001,1,1)"
font-family="MS Shell Dlg 2" font-size="8.25" font-weight="400" font-style="normal"
>
<path vector-effect="none" fill-rule="evenodd" d="M504.15,1626.63 C504.15,1593.96 533.58,1567.48 569.87,1567.48 C606.17,1567.48 635.59,1593.96 635.59,1626.63 C635.59,1659.3 606.16,1685.78 569.87,1685.78 C533.57,1685.78 504.15,1659.3 504.15,1626.63 M767.71,1875.17 C731.41,1875.17 701.99,1848.69 701.99,1816.02 C701.99,1783.35 731.42,1756.87 767.71,1756.87 C804.01,1756.87 833.43,1783.35 833.43,1816.02 C833.43,1848.69 804,1875.17 767.71,1875.17 M760.27,1946.72 C796.57,1946.72 825.99,1973.2 825.99,2005.87 C825.99,2038.54 796.56,2065.02 760.27,2065.02 C723.97,2065.02 694.55,2038.54 694.55,2005.87 C694.55,1973.2 723.98,1946.72 760.27,1946.72 M884.81,2188.64 C884.81,2155.97 914.24,2129.49 950.53,2129.49 C986.83,2129.49 1016.25,2155.97 1016.25,2188.64 C1016.25,2221.31 986.82,2247.79 950.53,2247.79 C914.23,2247.79 884.81,2221.31 884.81,2188.64 M1080.55,2389.31 C1080.55,2356.64 1109.98,2330.16 1146.27,2330.16 C1182.57,2330.16 1211.99,2356.64 1211.99,2389.31 C1211.99,2421.98 1182.56,2448.46 1146.27,2448.46 C1109.97,2448.46 1080.55,2421.98 1080.55,2389.31 M1271.37,2572.43 C1271.37,2539.76 1300.8,2513.28 1337.09,2513.28 C1373.39,2513.28 1402.81,2539.76 1402.81,2572.43 C1402.81,2605.1 1373.38,2631.58 1337.09,2631.58 C1300.79,2631.58 1271.37,2605.1 1271.37,2572.43 M470.48,2907.76 L1853.72,2907.76 L1853.72,1298.92 L231.61,1298.92 L231.61,2907.76 L293.29,2907.76 L470.48,2907.76 M879.63,2001.72 C879.63,1969.05 909.06,1942.57 945.35,1942.57 C981.65,1942.57 1011.07,1969.05 1011.07,2001.72 C1011.07,2034.39 981.64,2060.87 945.35,2060.87 C909.05,2060.87 879.63,2034.39 879.63,2001.72 M1153.71,2258.61 C1117.41,2258.61 1087.99,2232.13 1087.99,2199.46 C1087.99,2166.79 1117.42,2140.31 1153.71,2140.31 C1190.01,2140.31 1219.43,2166.79 1219.43,2199.46 C1219.43,2232.13 1190,2258.61 1153.71,2258.61 M1331.36,2444.3 C1295.06,2444.3 1265.64,2417.82 1265.64,2385.15 C1265.64,2352.48 1295.07,2326 1331.36,2326 C1367.66,2326 1397.08,2352.48 1397.08,2385.15 C1397.08,2417.82 1367.65,2444.3 1331.36,2444.3 M1521.75,2705.24 C1558.05,2705.24 1587.47,2731.72 1587.47,2764.39 C1587.47,2797.06 1558.04,2823.54 1521.75,2823.54 C1485.45,2823.54 1456.03,2797.06 1456.03,2764.39 C1456.03,2731.72 1485.46,2705.24 1521.75,2705.24 M1329.65,2703.12 C1365.95,2703.12 1395.37,2729.6 1395.37,2762.27 C1395.37,2794.94 1365.94,2821.42 1329.65,2821.42 C1293.35,2821.42 1263.93,2794.94 1263.93,2762.27 C1263.93,2729.6 1293.36,2703.12 1329.65,2703.12 M575.6,1754.75 C611.9,1754.75 641.32,1781.23 641.32,1813.9 C641.32,1846.57 611.89,1873.05 575.6,1873.05 C539.3,1873.05 509.88,1846.57 509.88,1813.9 C509.88,1781.23 539.31,1754.75 575.6,1754.75 M943.08,2319.33 C979.38,2319.33 1008.8,2345.81 1008.8,2378.48 C1008.8,2411.15 979.37,2437.63 943.08,2437.63 C906.78,2437.63 877.36,2411.15 877.36,2378.48 C877.36,2345.81 906.79,2319.33 943.08,2319.33 M1086.28,2576.57 C1086.28,2543.9 1115.71,2517.42 1152,2517.42 C1188.3,2517.42 1217.72,2543.9 1217.72,2576.57 C1217.72,2609.24 1188.29,2635.72 1152,2635.72 C1115.7,2635.72 1086.28,2609.24 1086.28,2576.57 M1144.56,2707.27 C1180.86,2707.27 1210.28,2733.75 1210.28,2766.42 C1210.28,2799.09 1180.85,2825.57 1144.56,2825.57 C1108.26,2825.57 1078.84,2799.09 1078.84,2766.42 C1078.84,2733.75 1108.27,2707.27 1144.56,2707.27 M1529.19,2515.39 C1565.49,2515.39 1594.91,2541.87 1594.91,2574.54 C1594.91,2607.21 1565.48,2633.69 1529.19,2633.69 C1492.89,2633.69 1463.47,2607.21 1463.47,2574.54 C1463.47,2541.87 1492.9,2515.39 1529.19,2515.39 M1082.81,2012.54 C1082.81,1979.87 1112.24,1953.39 1148.53,1953.39 C1184.83,1953.39 1214.25,1979.87 1214.25,2012.54 C1214.25,2045.21 1184.82,2071.69 1148.53,2071.69 C1112.23,2071.69 1082.81,2045.21 1082.81,2012.54 M1273.07,2195.31 C1273.07,2162.64 1302.5,2136.16 1338.79,2136.16 C1375.09,2136.16 1404.51,2162.64 1404.51,2195.31 C1404.51,2227.98 1375.08,2254.46 1338.79,2254.46 C1302.49,2254.46 1273.07,2227.98 1273.07,2195.31 M1523.45,2328.12 C1559.75,2328.12 1589.17,2354.6 1589.17,2387.27 C1589.17,2419.94 1559.74,2446.42 1523.45,2446.42 C1487.15,2446.42 1457.73,2419.94 1457.73,2387.27 C1457.73,2354.6 1487.16,2328.12 1523.45,2328.12 M887.06,1811.87 C887.06,1779.2 916.49,1752.72 952.78,1752.72 C989.08,1752.72 1018.5,1779.2 1018.5,1811.87 C1018.5,1844.54 989.07,1871.02 952.78,1871.02 C916.48,1871.02 887.06,1844.54 887.06,1811.87 M1267.89,2008.39 C1267.89,1975.72 1297.32,1949.24 1333.61,1949.24 C1369.91,1949.24 1399.33,1975.72 1399.33,2008.39 C1399.33,2041.06 1369.9,2067.54 1333.61,2067.54 C1297.31,2067.54 1267.89,2041.06 1267.89,2008.39 M1530.89,2138.28 C1567.19,2138.28 1596.61,2164.76 1596.61,2197.43 C1596.61,2230.1 1567.18,2256.58 1530.89,2256.58 C1494.59,2256.58 1465.17,2230.1 1465.17,2197.43 C1465.17,2164.76 1494.6,2138.28 1530.89,2138.28 M696.24,1628.76 C696.24,1596.09 725.67,1569.61 761.96,1569.61 C798.26,1569.61 827.68,1596.09 827.68,1628.76 C827.68,1661.43 798.25,1687.91 761.96,1687.91 C725.66,1687.91 696.24,1661.43 696.24,1628.76 M1090.25,1822.7 C1090.25,1790.03 1119.68,1763.55 1155.97,1763.55 C1192.27,1763.55 1221.69,1790.03 1221.69,1822.7 C1221.69,1855.37 1192.26,1881.85 1155.97,1881.85 C1119.67,1881.85 1090.25,1855.37 1090.25,1822.7 M1341.06,1877.7 C1304.76,1877.7 1275.34,1851.22 1275.34,1818.55 C1275.34,1785.88 1304.77,1759.4 1341.06,1759.4 C1377.36,1759.4 1406.78,1785.88 1406.78,1818.55 C1406.78,1851.22 1377.35,1877.7 1341.06,1877.7 M1525.72,1951.37 C1562.02,1951.37 1591.44,1977.85 1591.44,2010.52 C1591.44,2043.19 1562.01,2069.67 1525.72,2069.67 C1489.42,2069.67 1460,2043.19 1460,2010.52 C1460,1977.85 1489.43,1951.37 1525.72,1951.37 M947.05,1683.76 C910.75,1683.76 881.33,1657.28 881.33,1624.61 C881.33,1591.94 910.76,1565.46 947.05,1565.46 C983.35,1565.46 1012.77,1591.94 1012.77,1624.61 C1012.77,1657.28 983.34,1683.76 947.05,1683.76 M1150.24,1694.58 C1113.94,1694.58 1084.52,1668.1 1084.52,1635.43 C1084.52,1602.76 1113.95,1576.28 1150.24,1576.28 C1186.54,1576.28 1215.96,1602.76 1215.96,1635.43 C1215.96,1668.1 1186.53,1694.58 1150.24,1694.58 M1467.44,1820.67 C1467.44,1788 1496.87,1761.52 1533.16,1761.52 C1569.46,1761.52 1598.88,1788 1598.88,1820.67 C1598.88,1853.34 1569.45,1879.82 1533.16,1879.82 C1496.86,1879.82 1467.44,1853.34 1467.44,1820.67 M1269.61,1631.28 C1269.61,1598.61 1299.04,1572.13 1335.33,1572.13 C1371.63,1572.13 1401.05,1598.61 1401.05,1631.28 C1401.05,1663.95 1371.62,1690.43 1335.33,1690.43 C1299.03,1690.43 1269.61,1663.95 1269.61,1631.28 M1461.71,1633.4 C1461.71,1600.73 1491.14,1574.25 1527.43,1574.25 C1563.73,1574.25 1593.15,1600.73 1593.15,1633.4 C1593.15,1666.07 1563.72,1692.55 1527.43,1692.55 C1491.13,1692.55 1461.71,1666.07 1461.71,1633.4 M699.73,2192.81 C699.73,2160.14 729.16,2133.66 765.45,2133.66 C801.75,2133.66 831.17,2160.14 831.17,2192.81 C831.17,2225.48 801.74,2251.96 765.45,2251.96 C729.15,2251.96 699.73,2225.48 699.73,2192.81 M883.11,2565.77 C883.11,2533.1 912.54,2506.62 948.83,2506.62 C985.13,2506.62 1014.55,2533.1 1014.55,2565.77 C1014.55,2598.44 985.12,2624.92 948.83,2624.92 C912.53,2624.92 883.11,2598.44 883.11,2565.77 M941.39,2696.47 C977.69,2696.47 1007.11,2722.95 1007.11,2755.62 C1007.11,2788.29 977.68,2814.77 941.39,2814.77 C905.09,2814.77 875.67,2788.29 875.67,2755.62 C875.67,2722.95 905.1,2696.47 941.39,2696.47 M568.17,1944.62 C604.47,1944.62 633.89,1971.1 633.89,2003.77 C633.89,2036.44 604.46,2062.92 568.17,2062.92 C531.87,2062.92 502.45,2036.44 502.45,2003.77 C502.45,1971.1 531.88,1944.62 568.17,1944.62 M692.28,2382.66 C692.28,2349.99 721.71,2323.51 758,2323.51 C794.3,2323.51 823.72,2349.99 823.72,2382.66 C823.72,2415.33 794.29,2441.81 758,2441.81 C721.7,2441.81 692.28,2415.33 692.28,2382.66 M698.02,2569.93 C698.02,2537.26 727.45,2510.78 763.74,2510.78 C800.04,2510.78 829.46,2537.26 829.46,2569.93 C829.46,2602.6 800.03,2629.08 763.74,2629.08 C727.44,2629.08 698.02,2602.6 698.02,2569.93 M756.3,2700.63 C792.6,2700.63 822.02,2727.11 822.02,2759.78 C822.02,2792.45 792.59,2818.93 756.3,2818.93 C720,2818.93 690.58,2792.45 690.58,2759.78 C690.58,2727.11 720.01,2700.63 756.3,2700.63 M507.63,2190.7 C507.63,2158.03 537.06,2131.55 573.35,2131.55 C609.65,2131.55 639.07,2158.03 639.07,2190.7 C639.07,2223.37 609.64,2249.85 573.35,2249.85 C537.05,2249.85 507.63,2223.37 507.63,2190.7 M500.19,2380.55 C500.19,2347.88 529.62,2321.4 565.91,2321.4 C602.21,2321.4 631.63,2347.88 631.63,2380.55 C631.63,2413.22 602.2,2439.7 565.91,2439.7 C529.61,2439.7 500.19,2413.22 500.19,2380.55 M571.65,2508.67 C607.95,2508.67 637.37,2535.15 637.37,2567.82 C637.37,2600.49 607.94,2626.97 571.65,2626.97 C535.35,2626.97 505.93,2600.49 505.93,2567.82 C505.93,2535.15 535.36,2508.67 571.65,2508.67 M564.21,2698.52 C600.51,2698.52 629.93,2725 629.93,2757.67 C629.93,2790.34 600.5,2816.82 564.21,2816.82 C527.91,2816.82 498.49,2790.34 498.49,2757.67 C498.49,2725 527.92,2698.52 564.21,2698.52 M1706.85,2701.12 C1743.15,2701.12 1772.57,2727.6 1772.57,2760.27 C1772.57,2792.94 1743.14,2819.42 1706.85,2819.42 C1670.55,2819.42 1641.13,2792.94 1641.13,2760.27 C1641.13,2727.6 1670.56,2701.12 1706.85,2701.12 M1714.29,2511.27 C1750.59,2511.27 1780.01,2537.75 1780.01,2570.42 C1780.01,2603.09 1750.58,2629.57 1714.29,2629.57 C1677.99,2629.57 1648.57,2603.09 1648.57,2570.42 C1648.57,2537.75 1678,2511.27 1714.29,2511.27 M1708.55,2324 C1744.85,2324 1774.27,2350.48 1774.27,2383.15 C1774.27,2415.82 1744.84,2442.3 1708.55,2442.3 C1672.25,2442.3 1642.83,2415.82 1642.83,2383.15 C1642.83,2350.48 1672.26,2324 1708.55,2324 M1715.99,2134.15 C1752.29,2134.15 1781.71,2160.63 1781.71,2193.3 C1781.71,2225.97 1752.28,2252.45 1715.99,2252.45 C1679.69,2252.45 1650.27,2225.97 1650.27,2193.3 C1650.27,2160.63 1679.7,2134.15 1715.99,2134.15 M1710.81,1947.23 C1747.11,1947.23 1776.53,1973.71 1776.53,2006.38 C1776.53,2039.05 1747.1,2065.53 1710.81,2065.53 C1674.51,2065.53 1645.09,2039.05 1645.09,2006.38 C1645.09,1973.71 1674.52,1947.23 1710.81,1947.23 M1652.53,1816.53 C1652.53,1783.86 1681.96,1757.38 1718.25,1757.38 C1754.55,1757.38 1783.97,1783.86 1783.97,1816.53 C1783.97,1849.2 1754.54,1875.68 1718.25,1875.68 C1681.95,1875.68 1652.53,1849.2 1652.53,1816.53 M1646.79,1629.26 C1646.79,1596.59 1676.22,1570.11 1712.51,1570.11 C1748.81,1570.11 1778.23,1596.59 1778.23,1629.26 C1778.23,1661.93 1748.8,1688.41 1712.51,1688.41 C1676.21,1688.41 1646.79,1661.93 1646.79,1629.26 M954.49,1493.93 C918.19,1493.93 888.77,1467.45 888.77,1434.78 C888.77,1402.11 918.2,1375.63 954.49,1375.63 C990.79,1375.63 1020.21,1402.11 1020.21,1434.78 C1020.21,1467.45 990.78,1493.93 954.49,1493.93 M1157.68,1504.75 C1121.38,1504.75 1091.96,1478.27 1091.96,1445.6 C1091.96,1412.93 1121.39,1386.45 1157.68,1386.45 C1193.98,1386.45 1223.4,1412.93 1223.4,1445.6 C1223.4,1478.27 1193.97,1504.75 1157.68,1504.75 M1342.77,1500.6 C1306.47,1500.6 1277.05,1474.12 1277.05,1441.45 C1277.05,1408.78 1306.48,1382.3 1342.77,1382.3 C1379.07,1382.3 1408.49,1408.78 1408.49,1441.45 C1408.49,1474.12 1379.06,1500.6 1342.77,1500.6 M1469.15,1443.57 C1469.15,1410.9 1498.58,1384.42 1534.87,1384.42 C1571.17,1384.42 1600.59,1410.9 1600.59,1443.57 C1600.59,1476.24 1571.16,1502.72 1534.87,1502.72 C1498.57,1502.72 1469.15,1476.24 1469.15,1443.57 M1654.24,1439.42 C1654.24,1406.75 1683.67,1380.27 1719.96,1380.27 C1756.26,1380.27 1785.68,1406.75 1785.68,1439.42 C1785.68,1472.09 1756.25,1498.57 1719.96,1498.57 C1683.66,1498.57 1654.24,1472.09 1654.24,1439.42 M577.32,1495.97 C541.02,1495.97 511.6,1469.49 511.6,1436.82 C511.6,1404.15 541.03,1377.67 577.32,1377.67 C613.62,1377.67 643.04,1404.15 643.04,1436.82 C643.04,1469.49 613.61,1495.97 577.32,1495.97 M703.7,1438.94 C703.7,1406.27 733.13,1379.79 769.42,1379.79 C805.72,1379.79 835.14,1406.27 835.14,1438.94 C835.14,1471.61 805.71,1498.09 769.42,1498.09 C733.12,1498.09 703.7,1471.61 703.7,1438.94 M388.27,2135.71 C424.57,2135.71 453.99,2162.19 453.99,2194.86 C453.99,2227.53 424.56,2254.01 388.27,2254.01 C351.97,2254.01 322.55,2227.53 322.55,2194.86 C322.55,2162.19 351.98,2135.71 388.27,2135.71 M380.83,2325.56 C417.13,2325.56 446.55,2352.04 446.55,2384.71 C446.55,2417.38 417.12,2443.86 380.83,2443.86 C344.53,2443.86 315.11,2417.38 315.11,2384.71 C315.11,2352.04 344.54,2325.56 380.83,2325.56 M386.57,2512.83 C422.87,2512.83 452.29,2539.31 452.29,2571.98 C452.29,2604.65 422.86,2631.13 386.57,2631.13 C350.27,2631.13 320.85,2604.65 320.85,2571.98 C320.85,2539.31 350.28,2512.83 386.57,2512.83 M379.13,2702.68 C415.43,2702.68 444.85,2729.16 444.85,2761.83 C444.85,2794.5 415.42,2820.98 379.13,2820.98 C342.83,2820.98 313.41,2794.5 313.41,2761.83 C313.41,2729.16 342.84,2702.68 379.13,2702.68 M390.54,1758.95 C426.84,1758.95 456.26,1785.43 456.26,1818.1 C456.26,1850.77 426.83,1877.25 390.54,1877.25 C354.24,1877.25 324.82,1850.77 324.82,1818.1 C324.82,1785.43 354.25,1758.95 390.54,1758.95 M383.1,1948.8 C419.4,1948.8 448.82,1975.28 448.82,2007.95 C448.82,2040.62 419.39,2067.1 383.1,2067.1 C346.8,2067.1 317.38,2040.62 317.38,2007.95 C317.38,1975.28 346.81,1948.8 383.1,1948.8 M384.8,1571.68 C421.1,1571.68 450.52,1598.16 450.52,1630.83 C450.52,1663.5 421.09,1689.98 384.8,1689.98 C348.5,1689.98 319.08,1663.5 319.08,1630.83 C319.08,1598.16 348.51,1571.68 384.8,1571.68 M457.96,1440.98 C457.96,1473.65 428.53,1500.13 392.24,1500.13 C355.94,1500.13 326.52,1473.65 326.52,1440.98 C326.52,1408.31 355.95,1381.83 392.24,1381.83 C428.54,1381.83 457.96,1408.31 457.96,1440.98 "/>
</g>

<g fill="none" stroke="#000000" stroke-opacity="1" stroke-width="1" stroke-linecap="square" stroke-linejoin="bevel" transform="matrix(0.355872,0,0,0.355872,1,1)"
font-family="MS Shell Dlg 2" font-size="8.25" font-weight="400" font-style="normal"
>
</g>

<g fill="none" stroke="#000000" stroke-opacity="1" stroke-width="1" stroke-linecap="square" stroke-linejoin="bevel" transform="matrix(1,0,0,1,0,0)"
font-family="MS Shell Dlg 2" font-size="8.25" font-weight="400" font-style="normal"
>
</g>
</g>
</svg>
