<?xml version="1.0" encoding="UTF-8"?>
<!DOCTYPE svg PUBLIC "-//W3C//DTD SVG 1.1//EN" "http://www.w3.org/Graphics/SVG/1.1/DTD/svg11.dtd">
<!-- Creator: CorelDRAW -->
<svg xmlns="http://www.w3.org/2000/svg" xml:space="preserve" width="1.24999in" height="0.937496in" version="1.1" style="shape-rendering:geometricPrecision; text-rendering:geometricPrecision; image-rendering:optimizeQuality; fill-rule:evenodd; clip-rule:evenodd"
viewBox="0 0 1249.99 937.5"
 xmlns:xlink="http://www.w3.org/1999/xlink"
 xmlns:xodm="http://www.corel.com/coreldraw/odm/2003">
 <defs>
  <style type="text/css">
   <![CDATA[
    .str1 {stroke:black;stroke-width:41.67;stroke-linecap:round;stroke-miterlimit:2.61313}
    .str0 {stroke:black;stroke-width:83.33;stroke-linecap:round;stroke-miterlimit:2.61313}
    .fil0 {fill:none}
    .fil1 {fill:black}
   ]]>
  </style>
 </defs>
 <g id="Layer_x0020_1">
  <metadata id="CorelCorpID_0Corel-Layer"/>
  <path class="fil0 str0" d="M440.28 653.81c-48.84,-48.84 -76.28,-115.07 -76.28,-184.14 0,-69.07 27.44,-135.3 76.28,-184.14"/>
  <path class="fil0 str0" d="M329.8 764.3c-78.14,-78.14 -122.04,-184.12 -122.04,-294.63 0,-110.51 43.9,-216.49 122.04,-294.63"/>
  <path class="fil0 str0" d="M219.31 874.79c-107.44,-107.44 -167.8,-253.17 -167.8,-405.11 0,-151.94 60.36,-297.67 167.8,-405.11"/>
  <circle class="fil1 str1" cx="624.43" cy="469.67" r="130.21"/>
  <path class="fil0 str0" d="M808.57 285.53c48.84,48.84 76.28,115.07 76.28,184.14 0,69.07 -27.44,135.3 -76.28,184.14"/>
  <path class="fil0 str0" d="M919.06 175.04c78.14,78.14 122.04,184.12 122.04,294.63 0,110.51 -43.9,216.49 -122.04,294.63"/>
  <path class="fil0 str0" d="M1029.54 64.56c107.44,107.44 167.8,253.17 167.8,405.11 0,151.94 -60.36,297.67 -167.8,405.11"/>
 </g>
</svg>
