<?xml version="1.0" encoding="UTF-8"?>
<!DOCTYPE svg PUBLIC "-//W3C//DTD SVG 1.1//EN" "http://www.w3.org/Graphics/SVG/1.1/DTD/svg11.dtd">
<!-- Creator: CorelDRAW -->
<svg xmlns="http://www.w3.org/2000/svg" xml:space="preserve" width="0.895827in" height="0.895827in" version="1.1" style="shape-rendering:geometricPrecision; text-rendering:geometricPrecision; image-rendering:optimizeQuality; fill-rule:evenodd; clip-rule:evenodd"
viewBox="0 0 895.83 895.83"
 xmlns:xlink="http://www.w3.org/1999/xlink"
 xmlns:xodm="http://www.corel.com/coreldraw/odm/2003">
 <defs>
  <style type="text/css">
   <![CDATA[
    .str2 {stroke:white;stroke-width:10.41;stroke-miterlimit:2.61313}
    .str1 {stroke:red;stroke-width:41.67;stroke-linecap:round;stroke-miterlimit:2.61313}
    .str0 {stroke:red;stroke-width:83.33;stroke-linecap:round;stroke-miterlimit:2.61313}
    .fil0 {fill:none}
    .fil2 {fill:#FC0000}
    .fil1 {fill:red}
   ]]>
  </style>
 </defs>
 <g id="Layer_x0020_1">
  <metadata id="CorelCorpID_0Corel-Layer"/>
  <path class="fil0 str0" d="M266.8 568.66c48.84,-48.84 115.07,-76.28 184.14,-76.28 69.07,0 135.3,27.44 184.14,76.28"/>
  <path class="fil0 str0" d="M156.31 458.17c78.14,-78.14 184.12,-122.04 294.63,-122.04 110.51,0 216.49,43.9 294.63,122.04"/>
  <path class="fil0 str0" d="M45.83 347.69c107.44,-107.44 253.17,-167.8 405.11,-167.8 151.94,0 297.67,60.36 405.11,167.8"/>
  <circle class="fil1 str1" cx="450.94" cy="752.8" r="130.21"/>
  <path class="fil2 str2" d="M415.5 -1.32l70.84 0c18.58,0 33.79,15.2 33.79,33.8l0 465.85c0,38.07 -31.14,69.21 -69.21,69.21l-0 0c-38.07,0 -69.21,-31.14 -69.21,-69.21l0 -465.85c0,-18.59 15.21,-33.8 33.79,-33.8z"/>
 </g>
</svg>
